<svg xmlns="http://www.w3.org/2000/svg" viewBox="0 0 320 160" fill="none" font-family="IBM Plex Sans, sans-serif">
  <!-- Twisted-pair cable: 4 twisted pairs inside a jacket (left) + a Cat5e->Cat8 spec ladder (right).
       Pair colors are DATA glyphs. Lime = the representative spec (the category capability). -->

  <!-- ===== Twisted pairs inside jacket (left) ===== -->
  <!-- jacket outline (a length of cable, neutral) -->
  <path d="M20 44 L120 44 Q132 44 132 56 L132 108 Q132 120 120 120 L20 120 Z"
        stroke="#E5E5E5" stroke-width="1.75" stroke-linejoin="round"/>

  <!-- four twisted pairs (color = data). Each pair = two intertwined sine strands. -->
  <!-- orange pair -->
  <g stroke-width="2" stroke-linecap="round" fill="none">
    <path d="M28 56 C40 50 52 62 64 56 C76 50 88 62 100 56 C112 50 120 62 124 56" stroke="#F58A1F"/>
    <path d="M28 56 C40 62 52 50 64 56 C76 62 88 50 100 56 C112 62 120 50 124 56" stroke="#E5E5E5"/>
  </g>
  <!-- green pair -->
  <g stroke-width="2" stroke-linecap="round" fill="none">
    <path d="M28 76 C40 70 52 82 64 76 C76 70 88 82 100 76 C112 70 120 82 124 76" stroke="#3CA03C"/>
    <path d="M28 76 C40 82 52 70 64 76 C76 82 88 70 100 76 C112 82 120 70 124 76" stroke="#E5E5E5"/>
  </g>
  <!-- blue pair -->
  <g stroke-width="2" stroke-linecap="round" fill="none">
    <path d="M28 96 C40 90 52 102 64 96 C76 90 88 102 100 96 C112 90 120 102 124 96" stroke="#2D6CDF"/>
    <path d="M28 96 C40 102 52 90 64 96 C76 102 88 90 100 96 C112 102 120 90 124 96" stroke="#E5E5E5"/>
  </g>
  <!-- brown pair -->
  <g stroke-width="2" stroke-linecap="round" fill="none">
    <path d="M28 112 C40 106 52 118 64 112 C76 106 88 118 100 112 C112 106 120 118 124 112" stroke="#7A4A22"/>
    <path d="M28 112 C40 118 52 106 64 112 C76 118 88 106 100 112 C112 118 120 106 124 112" stroke="#E5E5E5"/>
  </g>

  <text x="76" y="36" fill="#9C9C9C" font-size="11" font-weight="500" text-anchor="middle">4 twisted pairs</text>

  <!-- ===== Cat5e -> Cat8 spec ladder (right) ===== -->
  <!-- column header -->
  <g font-size="10" font-weight="500" fill="#9C9C9C" font-family="DM Mono, monospace">
    <text x="156" y="40">cat</text>
    <text x="208" y="40" text-anchor="middle">speed</text>
    <text x="288" y="40" text-anchor="end">MHz</text>
  </g>
  <line x1="152" y1="46" x2="300" y2="46" stroke="#9C9C9C" stroke-width="1"/>

  <!-- rows (DM Mono numerics) -->
  <g font-family="DM Mono, monospace" font-size="11" font-weight="500">
    <!-- cat5e -->
    <text x="156" y="62" fill="#E5E5E5">5e</text>
    <text x="208" y="62" fill="#E5E5E5" text-anchor="middle">1G</text>
    <text x="288" y="62" fill="#9C9C9C" text-anchor="end">100</text>
    <!-- cat6 -->
    <text x="156" y="80" fill="#E5E5E5">6</text>
    <text x="208" y="80" fill="#E5E5E5" text-anchor="middle">1/10G</text>
    <text x="288" y="80" fill="#9C9C9C" text-anchor="end">250</text>
    <!-- cat6a -->
    <text x="156" y="98" fill="#E5E5E5">6a</text>
    <text x="208" y="98" fill="#E5E5E5" text-anchor="middle">10G</text>
    <text x="288" y="98" fill="#9C9C9C" text-anchor="end">500</text>
    <!-- cat8 (lime = the representative / top spec) -->
    <text x="156" y="116" fill="#A2CC3A">8</text>
    <text x="208" y="116" fill="#A2CC3A" text-anchor="middle">25/40G</text>
    <text x="288" y="116" fill="#A2CC3A" text-anchor="end">2000</text>
  </g>
  <!-- lime row underline marking the highlighted spec -->
  <line x1="152" y1="120" x2="300" y2="120" stroke="#A2CC3A" stroke-width="1.5" stroke-linecap="round"/>

  <!-- Header -->
  <text x="160" y="20" fill="#E5E5E5" font-size="13" font-weight="500" text-anchor="middle">twisted-pair categories</text>
  <!-- Footer -->
  <text fill="#9C9C9C" font-size="11" font-weight="500" x="27.8" y="150.0" text-anchor="start">tighter twists</text>
  <path d="M95.6 146.5 H103.6 M100.1 143.0 L103.6 146.5 L100.1 150.0" fill="none" stroke="#9C9C9C" stroke-width="1.2650000000000001" stroke-linecap="round" stroke-linejoin="round"/>
  <text fill="#9C9C9C" font-size="11" font-weight="500" x="106.6" y="150.0" text-anchor="start">higher bandwidth &#183; 100 m max</text>
</svg>
