<svg xmlns="http://www.w3.org/2000/svg" viewBox="0 0 320 160" fill="none" font-family="IBM Plex Sans, sans-serif">
  <!-- RF connectors: three connector-plug silhouettes (N / SMA / TNC) side by side, with a
       frequency / impedance spec strip. Lime = the spec (max frequency), the quantity reported. -->

  <!-- shared geometry: each connector = knurled coupling nut + body + center-pin stub.
       Drawn as clean line-art at a common baseline y=78. -->

  <!-- ===== N-type (largest) ===== -->
  <g stroke="#E5E5E5" stroke-width="1.75" stroke-linecap="round" stroke-linejoin="round">
    <!-- coupling nut (hex-ish knurled barrel) -->
    <rect x="30" y="56" width="22" height="44" rx="2"/>
    <path d="M35 56 L35 100 M40 56 L40 100 M45 56 L45 100"/>
    <!-- body taper -->
    <path d="M52 62 L66 66 L66 90 L52 94 Z"/>
    <!-- mating barrel -->
    <rect x="66" y="70" width="10" height="16" rx="1"/>
  </g>
  <!-- center pin (lime stub = the live conductor) -->
  <line x1="76" y1="78" x2="84" y2="78" stroke="#A2CC3A" stroke-width="2" stroke-linecap="round"/>
  <text x="56" y="120" fill="#E5E5E5" font-size="12" font-weight="500" text-anchor="middle">N</text>

  <!-- ===== SMA (smallest) ===== -->
  <g stroke="#E5E5E5" stroke-width="1.75" stroke-linecap="round" stroke-linejoin="round">
    <rect x="130" y="64" width="16" height="28" rx="2"/>
    <path d="M134 64 L134 92 M138 64 L138 92 M142 64 L142 92"/>
    <path d="M146 68 L156 71 L156 85 L146 88 Z"/>
    <rect x="156" y="74" width="7" height="8" rx="1"/>
  </g>
  <line x1="163" y1="78" x2="170" y2="78" stroke="#A2CC3A" stroke-width="2" stroke-linecap="round"/>
  <text x="146" y="120" fill="#E5E5E5" font-size="12" font-weight="500" text-anchor="middle">SMA</text>

  <!-- ===== TNC (threaded, mid-size) ===== -->
  <g stroke="#E5E5E5" stroke-width="1.75" stroke-linecap="round" stroke-linejoin="round">
    <rect x="220" y="60" width="20" height="36" rx="2"/>
    <!-- thread hatch -->
    <path d="M224 60 L224 96 M229 60 L229 96 M234 60 L234 96 M239 60 L239 96"/>
    <path d="M240 65 L252 68 L252 88 L240 91 Z"/>
    <rect x="252" y="72" width="9" height="12" rx="1"/>
  </g>
  <line x1="261" y1="78" x2="269" y2="78" stroke="#A2CC3A" stroke-width="2" stroke-linecap="round"/>
  <text x="240" y="120" fill="#E5E5E5" font-size="12" font-weight="500" text-anchor="middle">TNC</text>

  <!-- spec strip (lime = max frequency, the reported quantity; DM Mono numerics) -->
  <g font-family="DM Mono, monospace" font-size="11" font-weight="500" text-anchor="middle">
    <text x="56"  y="138" fill="#A2CC3A">11 GHz</text>
    <text x="146" y="138" fill="#A2CC3A">18 GHz</text>
    <text x="240" y="138" fill="#A2CC3A">11 GHz</text>
  </g>

  <!-- Header -->
  <!-- Ohm sign as a vector <path> (was &#937;); GL-003 8.6.1 - Greek as path.
       Middle dot stays ASCII-safe typography. -->
  <text x="85.9" y="20" fill="#E5E5E5" font-size="13" font-weight="500" text-anchor="start">RF connector types &#183; 50</text>
  <path d="M225.9 16.9 A4.2 4.2 0 1 1 232.7 16.9 M225.9 16.9 L224.5 20.0 M232.7 16.9 L234.1 20.0" fill="none" stroke="#E5E5E5" stroke-width="1.4" stroke-linecap="round" stroke-linejoin="round"/>
  <!-- Footer -->
  <text x="160" y="152" fill="#9C9C9C" font-size="11" font-weight="500" text-anchor="middle">threaded coupling &#183; impedance + max frequency</text>
</svg>
