<svg id="레이어_1" data-name="레이어 1" xmlns="http://www.w3.org/2000/svg" viewBox="0 0 2048 419.3">
  <g>
    <g>
      <path d="M407.94,213.8876a151.1846,151.1846,0,1,1-151.1846-151.18A151.1889,151.1889,0,0,1,407.94,213.8876Z" style="fill: #fff"/>
      <g>
        <path d="M327.7144,203.35c-24.0475-16.3432-54.8346-9.6881-71.0223,14.8844a50.121,50.121,0,0,1-41.6943,23.094c-25.7481,0-43.3161-18.0986-48.5378-36.8164,0,0-.2552-.9478-.3221-1.162a64.0253,64.0253,0,0,1-2.5716-19.8424c0-44.7374,45.9368-94.5728,112.0422-94.5728,67.7234,0,106.4826,51.5534,116.4972,80.2134-.2005-.5387-.3636-1.0182-.5267-1.5235a142.6152,142.6152,0,0,0-277.5115,46.2589c0,70.3954,50.7728,130.6463,121.2152,130.6463,56.1539,0,93.9081-31.483,111.201-74.8934C355.993,245.8838,349.2772,217.9944,327.7144,203.35Z" style="fill: #003764"/>
        <path d="M392.9786,171.9163c-8.3534-27.96-47.3621-82.9815-117.37-82.9815-66.1054,0-112.0422,49.8354-112.0422,94.5728a64.0253,64.0253,0,0,0,2.5716,19.8424,41.8488,41.8488,0,0,1-1.2976-10.1737c0-46.6051,46.6522-78.8884,94.6159-78.8884a117.5661,117.5661,0,0,1,117.58,117.555,129.6294,129.6294,0,0,1-71.8324,116.1255v.0393a142.8793,142.8793,0,0,0,87.7745-176.0914Z" style="fill: #e4032e"/>
      </g>
    </g>
    <g>
      <path d="M541.9917,214.7755H467.8353V145.6938h17.5168v18.6619h39.4515V145.6938h17.1881Zm-17.1881-35.5236H485.3521v20.79h39.4515Zm50.747,75.631a31.4745,31.4745,0,0,1-2.9464,13.5051,37.0669,37.0669,0,0,1-7.8574,11.05,38.7028,38.7028,0,0,1-11.8677,7.53,37.4462,37.4462,0,0,1-14.3239,2.7835,38.996,38.996,0,0,1-26.3572-10.3137,37.09,37.09,0,0,1-7.8574-11.05,31.473,31.473,0,0,1-2.9464-13.5051,32.0336,32.0336,0,0,1,2.9464-13.5873,36.7574,36.7574,0,0,1,7.8574-11.1311,38.996,38.996,0,0,1,26.3572-10.3137,37.4462,37.4462,0,0,1,14.3239,2.7835,38.6524,38.6524,0,0,1,11.8677,7.53,36.7348,36.7348,0,0,1,7.8574,11.1311A32.0351,32.0351,0,0,1,575.5506,254.8829Zm-17.3524-.1643a18.7625,18.7625,0,0,0-5.8928-13.8324,19.17,19.17,0,0,0-13.9145-5.8106,19.8445,19.8445,0,0,0-19.6443,19.643,18.6181,18.6181,0,0,0,5.812,13.7516,19.0207,19.0207,0,0,0,13.8323,5.73,19.3018,19.3018,0,0,0,13.9145-5.73A18.4925,18.4925,0,0,0,558.1982,254.7186Zm24.5554-36.5052h-17.68V142.5845h17.68v27.9912h20.4631v17.5167H582.7536Z" style="fill: #575757"/>
      <path d="M672.9521,205.772V183.8358h17.844V205.772h56.641v15.2248H616.4754V205.772Zm9.0035-44.69L632.5175,199.715l-11.4583-12.4413,60.8964-47.4727,60.8977,47.4727-11.46,12.4413Zm35.8507,97.403a29.3648,29.3648,0,0,1-2.8642,12.8493,35.0756,35.0756,0,0,1-7.7767,10.5587,36.0356,36.0356,0,0,1-11.2953,7.04,38.27,38.27,0,0,1-27.8291,0,35.9718,35.9718,0,0,1-11.2953-7.04,35.0475,35.0475,0,0,1-7.7753-10.5587,30.244,30.244,0,0,1,0-25.7,35.0492,35.0492,0,0,1,7.7753-10.5588,35.9754,35.9754,0,0,1,11.2953-7.04,38.2716,38.2716,0,0,1,27.8291,0,36.0392,36.0392,0,0,1,11.2953,7.04,35.0773,35.0773,0,0,1,7.7767,10.5588A29.375,29.375,0,0,1,717.8063,258.4851Zm-17.5153,0a17.0755,17.0755,0,0,0-5.4848-12.6878,18.1794,18.1794,0,0,0-25.7013,0,17.419,17.419,0,0,0,0,25.3742,18.18,18.18,0,0,0,25.7013,0A17.07,17.07,0,0,0,700.291,258.4851Z" style="fill: #575757"/>
      <path d="M843.5284,265.5238h-72.52V151.4229h72.52Zm-17.0252-98.5489H788.3605v83.1612h38.1427Zm46.4917-24.39h17.68V285.1681h-17.68Z" style="fill: #575757"/>
      <path d="M996.9152,249.8075v15.7163H920.957V151.4229h74.1578v15.7163H938.6366v82.6683Zm25.3742-107.223h17.68V285.1681h-17.68Z" style="fill: #575757"/>
      <path d="M1148.6631,202.3341a38.9,38.9,0,0,1-3.5187,16.3708,43.8239,43.8239,0,0,1-23.2465,22.5085,44.45,44.45,0,0,1-33.8861,0,43.8286,43.8286,0,0,1-23.2451-22.5085,39.8241,39.8241,0,0,1,0-32.74,43.8251,43.8251,0,0,1,23.2451-22.51,44.4509,44.4509,0,0,1,33.8861,0,43.82,43.82,0,0,1,23.2465,22.51A38.9171,38.9171,0,0,1,1148.6631,202.3341Zm-17.5153,0a26.5643,26.5643,0,0,0-2.0469-10.3123,27.546,27.546,0,0,0-5.4833-8.5133,26.3987,26.3987,0,0,0-8.4312-5.6476,26.6118,26.6118,0,0,0-20.4631,0,26.3306,26.3306,0,0,0-8.43,5.6476,27.5009,27.5009,0,0,0-5.4848,8.5133,27.022,27.022,0,0,0,0,20.626,27.4754,27.4754,0,0,0,5.4848,8.5119,26.24,26.24,0,0,0,8.43,5.6477,26.595,26.595,0,0,0,20.4631,0,26.3076,26.3076,0,0,0,8.4312-5.6477,27.52,27.52,0,0,0,5.4833-8.5119A26.5662,26.5662,0,0,0,1131.1478,202.3341Zm40.4346-59.75h17.68V285.1681h-17.68V210.1916h-18.827V194.4767h18.827Z" style="fill: #575757"/>
      <path d="M1224.1284,201.844V144.0577h109.8442V158.463H1241.808v7.53h91.51v13.9145h-91.51v7.8575h92.6562V201.844h-46.4917V211.01h56.6411v14.57H1213.6518V211.01h56.4767V201.844Zm89.8727,58.2772a28.2725,28.2725,0,0,1-2.6192,12.0319,32.2,32.2,0,0,1-7.3673,10.0687,39.58,39.58,0,0,1-11.2132,6.7936,37.8728,37.8728,0,0,1-27.2567,0,36.9608,36.9608,0,0,1-11.1311-6.7936,31.02,31.02,0,0,1-7.53-10.0687,28.2308,28.2308,0,0,1-2.6192-12.0319,28.6219,28.6219,0,0,1,2.6192-12.1963,31,31,0,0,1,7.53-10.0672,36.9568,36.9568,0,0,1,11.1311-6.7936,37.8728,37.8728,0,0,1,27.2567,0,39.5751,39.5751,0,0,1,11.2132,6.7936,32.1777,32.1777,0,0,1,7.3673,10.0672A28.6636,28.6636,0,0,1,1314.0011,260.1212Zm-17.5167-.1629a16.15,16.15,0,0,0-5.1562-12.0334,17.3952,17.3952,0,0,0-24.3925,0,16.6182,16.6182,0,0,0,0,24.0653,17.3949,17.3949,0,0,0,24.3925,0A16.1407,16.1407,0,0,0,1296.4844,259.9583Z" style="fill: #575757"/>
      <path d="M1405.6714,141.7657l45.0185,72.6825-14.406,9.0035-30.6125-51.0742-30.2839,52.22-14.7332-9.0034Zm-33.3945,140.619V234.747h17.68V266.67H1489.16v15.7149Zm97.8944-48.455V142.5845h17.68V233.93Z" style="fill: #575757"/>
      <path d="M1606.3686,241.95H1567.08v38.6343H1549.4V241.95h-37.8155V226.2351h94.7838Zm-9.8221-60.7334a32.7392,32.7392,0,0,1-3.0286,13.9145,36.65,36.65,0,0,1-8.2668,11.46,39.55,39.55,0,0,1-12.277,7.7753,40.1535,40.1535,0,0,1-29.7937,0,39.5082,39.5082,0,0,1-12.2784-7.7753,36.6075,36.6075,0,0,1-8.2669-11.46,33.4795,33.4795,0,0,1,0-27.829,36.6337,36.6337,0,0,1,8.2669-11.4583,39.9772,39.9772,0,0,1,54.3491,0,36.6764,36.6764,0,0,1,8.2668,11.4583A32.7532,32.7532,0,0,1,1596.5465,181.2166Zm-17.3524,0a19.8793,19.8793,0,0,0-6.22-14.6511,20.4659,20.4659,0,0,0-14.8976-6.1392,20.79,20.79,0,1,0,0,41.5806,20.46,20.46,0,0,0,14.8976-6.1392A19.8725,19.8725,0,0,0,1579.1941,181.2166Zm38.47-38.6321h17.68V285.1681h-17.68Z" style="fill: #575757"/>
      <path d="M1755.6631,228.2h-37.8155v21.6077h-17.68V228.2h-39.2887v-15.552h94.7838Zm-85.1245,54.5121V241.95h17.68v25.3742h98.0574v15.3877Zm72.52-108.8612a29.347,29.347,0,0,1-2.8657,12.8507,36.4577,36.4577,0,0,1-7.6124,10.5587,38.3556,38.3556,0,0,1-11.3761,7.0388,37.84,37.84,0,0,1-27.6661,0,38.33,38.33,0,0,1-11.3775-7.0388,36.4093,36.4093,0,0,1-7.6124-10.5587,30.26,30.26,0,0,1,0-25.7014,36.4675,36.4675,0,0,1,7.6124-10.5588,38.3885,38.3885,0,0,1,11.3775-7.0394,37.84,37.84,0,0,1,27.6661,0,38.4146,38.4146,0,0,1,11.3761,7.0394A36.516,36.516,0,0,1,1740.1932,161,29.3552,29.3552,0,0,1,1743.0589,173.8507Zm-17.1895,0a16.9965,16.9965,0,0,0-5.4834-12.7686,18.7858,18.7858,0,0,0-26.0286,0,17.6049,17.6049,0,0,0,0,25.5371,18.7858,18.7858,0,0,0,26.0286,0A16.99,16.99,0,0,0,1725.8694,173.8507Zm41.089-31.2662h17.68V251.445h-17.68V198.8962h-19.8072V183.5085h19.8072Z" style="fill: #575757"/>
      <path d="M1891.6975,206.5908a29.5157,29.5157,0,0,1-2.7,12.4413,32.4192,32.4192,0,0,1-7.4495,10.3137,34.1416,34.1416,0,0,1-11.1311,6.8758,38.5005,38.5005,0,0,1-4.7481,1.4732v18.0068h39.2886v15.552h-94.7837v-15.552h37.8154V237.6948a38.2712,38.2712,0,0,1-4.7467-1.4732,34.1334,34.1334,0,0,1-11.1325-6.8758,32.3722,32.3722,0,0,1-7.4481-10.3137,30.0009,30.0009,0,0,1,0-24.8826,32.3854,32.3854,0,0,1,7.4481-10.3137,34.1064,34.1064,0,0,1,11.1325-6.8744,38.8077,38.8077,0,0,1,27.1745,0,34.1146,34.1146,0,0,1,11.1311,6.8744,32.4325,32.4325,0,0,1,7.4495,10.3137A29.5246,29.5246,0,0,1,1891.6975,206.5908Zm-44.527-49.7653V141.6014h19.1542v15.2241h33.8861V172.05h-87.0893V156.8255Zm27.3389,49.7653a16.4142,16.4142,0,0,0-5.1562-12.1141,17.2,17.2,0,0,0-12.5235-5.074,16.922,16.922,0,0,0-12.4413,5.074,16.9948,16.9948,0,0,0,0,24.2282,16.9111,16.9111,0,0,0,12.4413,5.074,17.1885,17.1885,0,0,0,12.5235-5.074A16.4077,16.4077,0,0,0,1874.5094,206.5908Zm41.7435-64.0063h17.68V285.1681h-17.68Z" style="fill: #575757"/>
    </g>
  </g>
</svg>
