<?xml version="1.0" encoding="utf-8"?>
<!-- Generator: Adobe Illustrator 16.0.4, SVG Export Plug-In . SVG Version: 6.00 Build 0)  -->
<!DOCTYPE svg PUBLIC "-//W3C//DTD SVG 1.1//EN" "http://www.w3.org/Graphics/SVG/1.1/DTD/svg11.dtd">
<svg version="1.1" id="Layer_1" xmlns="http://www.w3.org/2000/svg" xmlns:xlink="http://www.w3.org/1999/xlink" x="0px" y="0px"
	 width="150px" height="30px" viewBox="25 20.273 150 30" enable-background="new 25 20.273 150 30" xml:space="preserve">
<g>
	<path fill="#4D4D4F" d="M116.678,40.17c-0.001-1.377,0.741-2.65,1.942-3.328c1.221-0.613,2.578-0.91,3.946-0.862
		c2.946,0,5.792,0.646,5.792,4.165v5.433c-0.082,1.083,0.082,2.17,0.48,3.181h-4.092c-0.129-0.379-0.21-0.771-0.243-1.17
		c-1.1,1.043-2.577,1.597-4.092,1.531c-2.371,0-4.234-1.197-4.234-3.757c0-4.047,4.401-3.733,7.227-4.31
		c0.695-0.145,1.076-0.381,1.076-1.147c0-0.935-1.121-1.293-1.959-1.293c-0.992-0.129-1.901,0.567-2.036,1.558H116.678z
		 M121.944,46.175c1.938,0,2.586-1.127,2.488-3.746c-0.808,0.324-1.65,0.556-2.513,0.686c-0.91,0.221-1.674,0.611-1.674,1.615
		C120.246,45.759,121.035,46.175,121.944,46.175"/>
	<path fill="#4D4D4F" d="M137.26,40.889c-0.063-1.041-0.945-1.839-1.986-1.799c-2.275,0-2.634,1.939-2.634,3.663
		c0,1.604,0.694,3.253,2.417,3.253c1.199,0.08,2.235-0.826,2.314-2.025c0.003-0.034,0.005-0.069,0.005-0.102h3.952
		c-0.36,3.325-2.944,5.241-6.245,5.241c-3.734,0-6.513-2.562-6.513-6.367c0-3.949,2.516-6.773,6.513-6.773
		c3.085,0,5.837,1.628,6.124,4.909H137.26z"/>
	<path fill="#4D4D4F" d="M141.633,36.339h3.949v1.699h0.048c0.74-1.271,2.098-2.054,3.567-2.06c1.555,0,2.943,0.502,3.616,2.013
		c0.864-1.288,2.324-2.046,3.875-2.013c3.949,0,4.379,2.992,4.379,5.363v7.416H157v-7.296c0-1.341-0.647-2.133-1.699-2.133
		c-1.747,0-1.916,1.343-1.916,3.352v6.077h-4.068V41.7c0-1.46-0.432-2.371-1.529-2.371c-1.463,0-2.087,0.84-2.087,3.377v6.052
		h-4.067V36.339z"/>
	<path fill="#4D4D4F" d="M161.842,40.17c-0.002-1.377,0.741-2.649,1.941-3.328c1.223-0.613,2.579-0.91,3.948-0.862
		c2.941,0,5.793,0.646,5.793,4.165v5.434c-0.081,1.082,0.081,2.169,0.476,3.18h-4.088c-0.13-0.378-0.212-0.771-0.243-1.17
		c-1.101,1.044-2.577,1.597-4.094,1.531c-2.365,0-4.235-1.196-4.235-3.757c0-4.047,4.404-3.733,7.229-4.31
		c0.695-0.145,1.078-0.381,1.078-1.147c0-0.935-1.127-1.293-1.962-1.293c-0.991-0.126-1.9,0.569-2.037,1.558H161.842z
		 M167.109,46.182c1.94,0,2.586-1.1,2.488-3.659c-0.809,0.317-1.652,0.54-2.514,0.666c-0.908,0.217-1.675,0.601-1.675,1.582
		C165.409,45.777,166.198,46.182,167.109,46.182"/>
	<g>
		<defs>
			<path id="SVGID_1_" d="M100.87,30.995c0.007-0.005,0.015-0.009,0.021-0.014C100.885,30.985,100.877,30.99,100.87,30.995
				 M100.892,30.981c0.032-0.019,0.063-0.04,0.096-0.058C100.955,30.942,100.924,30.963,100.892,30.981 M100.987,30.923
				c0.029-0.017,0.058-0.035,0.087-0.054C101.045,30.888,101.017,30.906,100.987,30.923 M101.074,30.87
				c0.01-0.004,0.02-0.01,0.031-0.016l0.003-0.001C101.097,30.858,101.086,30.865,101.074,30.87 M100.284,25.955
				c-3.451,0-7.201,1.413-8.577,3.468c-1.064,1.588-0.508,3.183,1.421,4.163l0.02,0.009c1.222,0.563,2.55,0.855,3.894,0.859
				c0.505-0.906,1.238-1.665,2.125-2.202l0.043-0.026c0.523-0.45,1.078-0.861,1.661-1.23l-0.095,0.042
				c-0.753,0.302-1.557,0.458-2.369,0.462c-2.057,0-3.252-0.974-2.716-2.069c0.488-0.997,2.428-1.747,4.002-1.747
				c0.306,0,0.179-0.004,0.565,0.014c0.438,0.037,0.865,0.143,1.268,0.314c0.09,0.041,0.254,0.131,0.254,0.131
				c0.305,0.181,1.062,0.664,2.061,1.251l3.055,0.196l-0.151-1.659l-0.001,0.001c-0.846-0.444-1.615-0.835-2.187-1.104
				c-0.052-0.025-0.104-0.046-0.154-0.07l-0.078-0.047c-0.479-0.19-0.969-0.348-1.468-0.473l-0.027-0.008
				c-0.83-0.187-1.68-0.279-2.531-0.273H100.284z"/>
		</defs>
		<clipPath id="SVGID_2_">
			<use xlink:href="#SVGID_1_"  overflow="visible"/>
		</clipPath>
		<g clip-path="url(#SVGID_2_)">
			
				<linearGradient id="SVGID_3_" gradientUnits="userSpaceOnUse" x1="-73.8384" y1="-757.1206" x2="-73.0986" y2="-757.1206" gradientTransform="matrix(-16.67 0 0 -16.67 -1127.0557 -12590.9717)">
				<stop  offset="0" style="stop-color:#FFC216"/>
				<stop  offset="0.1674" style="stop-color:#C7B63F"/>
				<stop  offset="0.3951" style="stop-color:#81A872"/>
				<stop  offset="0.6006" style="stop-color:#4A9C9A"/>
				<stop  offset="0.7762" style="stop-color:#2294B8"/>
				<stop  offset="0.9151" style="stop-color:#098FC9"/>
				<stop  offset="1" style="stop-color:#008DD0"/>
			</linearGradient>
			<rect x="90.643" y="25.955" fill="url(#SVGID_3_)" width="16.252" height="8.498"/>
		</g>
	</g>
	<g>
		<defs>
			<path id="SVGID_4_" d="M103.84,29.392l0.012,0.006c-1.023,0.523-2.01,1.041-2.743,1.454c-0.671,0.403-1.306,0.862-1.899,1.374
				l-0.035,0.033c-0.65,0.603-1.155,1.346-1.477,2.172h0.001c-0.02,0.058-0.043,0.115-0.062,0.174
				c-0.156,0.476-0.237,0.973-0.237,1.473c0.01,3.416,3.793,6.539,9.36,6.539c4.22,0,7.512-1.858,8.784-4.31l0.01-0.02
				c0.258-0.496,0.429-1.033,0.507-1.587v-1.225c-0.028-0.207-0.069-0.412-0.125-0.613c-1.277-0.1-2.529-0.422-3.697-0.95
				l-0.111-0.055c-0.825-0.241-1.624-0.565-2.384-0.967l0.041,0.022l0.092,0.065l0.039,0.028c0.533,0.383,0.903,0.955,1.032,1.599
				c0.256,1.676-1.61,3.195-4.191,3.195c-2.584,0-4.454-1.52-4.204-3.195c0.024-0.213,0.079-0.421,0.164-0.617
				c0.222-0.436,0.554-0.805,0.964-1.07c0.117-0.077,0.241-0.155,0.36-0.224c0,0,1.903-1.151,2.666-1.613l0.106-1.782L103.84,29.392
				z"/>
		</defs>
		<clipPath id="SVGID_5_">
			<use xlink:href="#SVGID_4_"  overflow="visible"/>
		</clipPath>
		<g clip-path="url(#SVGID_5_)">
			
				<linearGradient id="SVGID_6_" gradientUnits="userSpaceOnUse" x1="-28.2227" y1="-771.8447" x2="-27.4828" y2="-771.8447" gradientTransform="matrix(0 9.7318 -9.7318 0 -7404.6973 305.8607)">
				<stop  offset="0" style="stop-color:#FFC216"/>
				<stop  offset="0.1636" style="stop-color:#FAAD19"/>
				<stop  offset="0.501" style="stop-color:#EE781F"/>
				<stop  offset="0.9795" style="stop-color:#DB232A"/>
				<stop  offset="1" style="stop-color:#DA1F2A"/>
			</linearGradient>
			<rect x="97.399" y="29.299" fill="url(#SVGID_6_)" width="18.662" height="13.317"/>
		</g>
	</g>
	<g>
		<defs>
			<path id="SVGID_7_" d="M112.777,27.133l-0.038,0.023l-0.026,0.02c-0.251,0.33-0.55,0.622-0.883,0.867l0.109-0.054
				c0.568-0.228,1.176-0.342,1.788-0.333c1.731,0,3.509,0.748,3.996,1.742c0.537,1.093-0.661,2.061-2.71,2.061
				c-0.426,0.011-0.853-0.026-1.271-0.11c-0.535-0.132-1.055-0.321-1.55-0.563c-0.446-0.22-1.375-0.704-2.255-1.155
				c-0.134-0.072-0.27-0.143-0.405-0.215l-2.936-0.161l0.109,1.825l0.008-0.002c0.093,0.055,0.235,0.138,0.405,0.239
				c0.859,0.528,1.627,1,2.195,1.333c0.138,0.083,0.282,0.161,0.429,0.239c0.76,0.402,1.559,0.727,2.384,0.967
				c1.243,0.36,2.53,0.545,3.823,0.549c4.995,0.012,7.409-2.482,5.749-4.997c-0.92-1.389-2.905-2.479-5.08-3.036l0.062,0.012
				c-1.071-0.277-2.171-0.428-3.276-0.451C113.421,26.417,113.183,26.873,112.777,27.133"/>
		</defs>
		<clipPath id="SVGID_8_">
			<use xlink:href="#SVGID_7_"  overflow="visible"/>
		</clipPath>
		<g clip-path="url(#SVGID_8_)">
			
				<linearGradient id="SVGID_9_" gradientUnits="userSpaceOnUse" x1="-28.5967" y1="-715.2163" x2="-27.8568" y2="-715.2163" gradientTransform="matrix(10.5842 0 0 10.5842 412.411 7600.187)">
				<stop  offset="0" style="stop-color:#FFC216"/>
				<stop  offset="0.1285" style="stop-color:#EAC71F"/>
				<stop  offset="0.3235" style="stop-color:#D2CC29"/>
				<stop  offset="0.528" style="stop-color:#C0D030"/>
				<stop  offset="0.7458" style="stop-color:#B5D235"/>
				<stop  offset="1" style="stop-color:#B2D336"/>
			</linearGradient>
			<rect x="106.597" y="25.935" fill="url(#SVGID_9_)" width="16.763" height="8.483"/>
		</g>
	</g>
	<g>
		<defs>
			<path id="SVGID_10_" d="M106.683,23.345c-1.688-0.044-3.358,0.329-4.865,1.087c-0.022,0.012-0.07,0.039-0.093,0.052
				c-0.532,0.282-0.96,0.726-1.225,1.266c0.796,0.034,1.583,0.196,2.328,0.48c0.508,0.127,1.008,0.288,1.495,0.48
				c-0.312-0.167-0.507-0.493-0.504-0.847c0.106-0.712,1.396-1.252,2.874-1.252s2.763,0.54,2.868,1.252
				c0.014,0.101,0.003,0.204-0.032,0.3c-0.073,0.256-0.254,0.469-0.493,0.584c-0.067,0.037-0.115,0.062-0.172,0.089
				c-0.326,0.157-1.125,0.572-2.121,1.093l-0.171,1.541l2.96-0.054l-0.021-0.012c0.866-0.497,1.583-0.91,2.037-1.184
				c0.094-0.056,0.181-0.112,0.268-0.172l0.014-0.005c0.349-0.254,0.656-0.561,0.911-0.909c0.238-0.348,0.314-0.782,0.209-1.19
				l-0.022-0.082l-0.023-0.057c-0.541-1.447-3.271-2.461-6.211-2.461H106.683z"/>
		</defs>
		<clipPath id="SVGID_11_">
			<use xlink:href="#SVGID_10_"  overflow="visible"/>
		</clipPath>
		<g clip-path="url(#SVGID_11_)">
			
				<linearGradient id="SVGID_12_" gradientUnits="userSpaceOnUse" x1="-118.0708" y1="-675.9966" x2="-117.3308" y2="-675.9966" gradientTransform="matrix(0 -4.4178 4.4178 0 3093.1726 -493.7091)">
				<stop  offset="0" style="stop-color:#FFC216"/>
				<stop  offset="0.3327" style="stop-color:#FCB019"/>
				<stop  offset="1" style="stop-color:#F78E1E"/>
			</linearGradient>
			<rect x="100.5" y="23.345" fill="url(#SVGID_12_)" width="12.559" height="6.126"/>
		</g>
	</g>
	<rect x="84.445" y="21.54" width="0.399" height="27.316"/>
	<g>
		<path d="M50.022,26.754l0.065-0.011L50.022,26.754z"/>
		<polygon points="50.998,21.423 51.315,22.208 52.124,21.97 51.714,22.709 52.402,23.198 51.572,23.337 51.622,24.184 
			50.998,23.614 50.372,24.184 50.422,23.337 49.592,23.198 50.281,22.709 49.869,21.97 50.679,22.208 		"/>
		<path d="M46.909,33.332c0.081,0,0.146-0.063,0.147-0.144c0-0.081-0.063-0.146-0.145-0.147c-0.08-0.001-0.146,0.063-0.146,0.144
			c0,0,0,0,0,0.001C46.764,33.265,46.828,33.33,46.909,33.332C46.908,33.332,46.908,33.332,46.909,33.332"/>
		<path d="M53.587,27.241v-0.003h-5.195v0.003h-0.001l0.005,4.196c-0.03,0.341,0.125,0.673,0.407,0.868l2,1.193
			c0.045,0.052,0.112,0.082,0.182,0.081c0.06,0,0.118-0.022,0.162-0.063l2.028-1.211c0.283-0.195,0.438-0.526,0.408-0.868
			L53.587,27.241L53.587,27.241z M50.119,28.456h-0.448v-1.074h0.448V28.456z M49.793,28.829l0.065-0.066l-0.041-0.072l0.085,0.007
			l0.05-0.087L50,28.697l0.085-0.007l-0.04,0.072l0.064,0.066l-0.082,0.017v0.091l-0.077-0.058l-0.078,0.058v-0.091L49.793,28.829z
			 M48.54,29.146h0.546v1.022H48.54V29.146z M48.63,28.69l0.084,0.007l0.05-0.087l0.049,0.087l0.085-0.007l-0.04,0.072l0.063,0.066
			l-0.082,0.017v0.091l-0.076-0.058l-0.076,0.058v-0.091l-0.082-0.017l0.062-0.066L48.63,28.69z M49.246,29.728l0.083,0.01
			l0.051-0.091l0.049,0.088l0.083-0.007l-0.039,0.072l0.065,0.067l-0.082,0.015v0.091l-0.077-0.058l-0.077,0.058v-0.091
			l-0.081-0.015l0.062-0.067L49.246,29.728z M49.607,28.907l-0.055-0.034c-0.048,0-0.068,0.08-0.109,0.082l-0.053-0.033l0.086-0.07
			c-0.335,0-0.344,0.152-0.396,0.152c-0.087,0,0.074-0.162,0.122-0.208c-0.069-0.011-0.108-0.097-0.183-0.138
			c0.035-0.051,0.055-0.029,0.098,0.007c0-0.036,0.027-0.077,0.106-0.077c0.15,0,0.108,0.146,0.132,0.146s-0.001-0.146,0.1-0.146
			c0.148,0,0.335,0.385,0.166,0.385C49.549,28.974,49.608,28.918,49.607,28.907 M49.222,27.784l0.062-0.066l-0.039-0.072
			l0.083,0.008l0.051-0.09l0.049,0.088l0.083-0.007l-0.039,0.072l0.065,0.066l-0.082,0.018v0.09l-0.077-0.059l-0.077,0.059v-0.09
			L49.222,27.784z M49.085,28.456h-0.546v-1.074h0.546V28.456z M50.119,32.922l-1.243-0.742c-0.211-0.167-0.335-0.422-0.336-0.692
			v-1.179h1.58V32.922z M49.67,29.146h0.448v1.022H49.67V29.146z M51.721,33.01l-0.574,0.34h-0.01
			c-0.042,0.035-0.097,0.054-0.152,0.054c-0.056,0.001-0.11-0.019-0.152-0.055l-0.572-0.339v-2.701h1.459V33.01z M51.721,30.168
			h-1.458v-2.787h1.458V30.168z M53.441,31.488c-0.001,0.27-0.125,0.525-0.337,0.692l-1.241,0.742v-2.613h1.579V31.488z
			 M53.441,30.168h-1.58v-2.787h1.58V30.168z"/>
		<path d="M50.036,31.27c-0.009-0.017-0.199,0.063-0.145,0.058c0.034-0.083,0.089-0.156,0.159-0.213
			c-0.01-0.067-0.095-0.008-0.183,0.039c0.295-0.422,0.105-0.25-0.06-0.219c0.263-0.283,0.193-0.28,0-0.19
			c0.152-0.121,0.186-0.266,0.161-0.312c-0.142,0.196-0.273,0.165-0.273,0.341c0.002,0.131-0.034,0.261-0.104,0.374
			c-0.076,0.085-0.018-0.313-0.218-0.313c-0.066,0-0.219-0.006-0.266,0.076l0.103,0.146c0,0.042,0.038,0.157-0.031,0.157
			s-0.152-0.146-0.152-0.215c0-0.071-0.001-0.054-0.001-0.155c-0.049-0.192-0.194-0.346-0.385-0.403
			c0,0.117,0.151,0.145,0.151,0.292c-0.066,0-0.156-0.12-0.156-0.045s0.097,0.086,0.097,0.154c0,0.064-0.111-0.024-0.111,0.046
			c0,0.061,0.059,0.05,0.075,0.112l-0.092,0.017l0.047,0.066c-0.016,0.014-0.03,0.047-0.03,0.145c0,0.332,0.208,0.486,0.361,0.486
			c0.109,0,0.092-0.076,0.104-0.113c0.005,0.056,0.059-0.027,0.059,0.07c0,0.104-0.106,0.058-0.106,0.146
			c0,0.119,0.167-0.003,0.167,0.127c-0.001,0.071-0.008,0.143-0.021,0.213l0.166-0.072c0.039,0.014,0.039,0.138,0.116,0.134
			c0.05-0.001,0.06-0.125,0.101-0.137c-0.023,0.007,0.157,0.119,0.157,0.062c0-0.154-0.062-0.088-0.062-0.194
			c0-0.1,0.213-0.08,0.18-0.13c-0.027-0.041-0.049-0.015-0.071-0.089c0.006,0.011-0.167-0.245,0.036-0.111
			C50.022,31.76,50.046,31.295,50.036,31.27"/>
		<path d="M55.576,32.369c0.084-0.01,0.144-0.085,0.135-0.169c-0.01-0.083-0.085-0.144-0.169-0.134
			c-0.077,0.009-0.135,0.074-0.135,0.151C55.413,32.305,55.488,32.372,55.576,32.369"/>
		<path d="M54.885,32.777c0.083,0.011,0.16-0.048,0.171-0.132c0.011-0.083-0.048-0.16-0.131-0.17c-0.014-0.002-0.026-0.002-0.04,0
			c-0.088-0.004-0.163,0.063-0.17,0.151C54.721,32.715,54.797,32.782,54.885,32.777"/>
		<path d="M46.676,33.724c0.083-0.012,0.14-0.087,0.129-0.17c-0.012-0.083-0.088-0.141-0.17-0.129
			c-0.074,0.01-0.129,0.073-0.13,0.147c0.005,0.089,0.081,0.156,0.169,0.151C46.675,33.724,46.675,33.724,46.676,33.724"/>
		<path d="M47.208,33.77c0.083-0.011,0.142-0.088,0.13-0.171c-0.011-0.084-0.088-0.142-0.171-0.131
			c-0.076,0.01-0.132,0.076-0.132,0.153C47.042,33.709,47.12,33.776,47.208,33.77"/>
		<path d="M61.988,26.607c0.257,0.321,0.306,0.76,0.127,1.13c-0.099-0.009-0.08-0.134-0.099-0.208
			c-0.223-0.34-0.283-0.762-0.164-1.15C61.97,26.396,61.924,26.541,61.988,26.607"/>
		<path d="M40.301,27.017c-0.054,0.237-0.054,0.483,0,0.72L40.219,27.7c-0.353-0.254-0.189-0.755-0.281-1.111l0.092-0.02
			C40.178,26.675,40.276,26.836,40.301,27.017"/>
		<path d="M62.767,27.044c0.056,0.101-0.043,0.202-0.115,0.248c-0.088,0.011-0.175-0.028-0.226-0.101
			c-0.026-0.095,0.02-0.195,0.108-0.238C62.622,26.936,62.713,26.971,62.767,27.044"/>
		<path d="M39.747,27.446c-0.006,0.082-0.049,0.156-0.117,0.201c-0.054,0-0.135,0-0.172-0.045c-0.052-0.05-0.067-0.128-0.036-0.193
			c0.042-0.052,0.105-0.083,0.173-0.082C39.657,27.354,39.72,27.373,39.747,27.446"/>
		<path d="M63.121,27.602c0.018,0.046,0.018,0.098,0,0.144c-0.052,0.082-0.154,0.117-0.246,0.083
			c-0.05-0.038-0.085-0.093-0.098-0.155c0.025-0.074,0.081-0.134,0.153-0.166C63.003,27.515,63.072,27.548,63.121,27.602"/>
		<path d="M62.605,27.609c0.071,0.037,0.015,0.128,0.008,0.182c-0.044,0.047-0.108,0.122-0.188,0.092
			c-0.048-0.045-0.101-0.045-0.118-0.11c-0.01-0.09,0.041-0.175,0.125-0.209C62.493,27.555,62.556,27.571,62.605,27.609"/>
		<path d="M61.943,27.746c0,0.103,0.011,0.229-0.108,0.247c-0.092,0.022-0.185-0.033-0.208-0.125c0,0,0-0.001,0-0.002
			c-0.008-0.095,0.047-0.184,0.135-0.219C61.834,27.652,61.9,27.688,61.943,27.746"/>
		<path d="M40.736,27.791c0.025,0.092-0.063,0.147-0.119,0.193c-0.076,0.007-0.148-0.033-0.183-0.102
			c-0.062-0.062,0.02-0.119,0.038-0.172c0.075-0.057,0.181-0.043,0.237,0.031C40.721,27.757,40.73,27.773,40.736,27.791"/>
		<path d="M40.192,27.821c0.002,0.072-0.038,0.139-0.102,0.172c-0.071,0.017-0.145-0.016-0.18-0.081
			c-0.037-0.079-0.003-0.172,0.075-0.209c0.001,0,0.003-0.001,0.005-0.002C40.091,27.664,40.155,27.755,40.192,27.821"/>
		<path d="M59.751,27.857c0.099,0.206,0.16,0.428,0.181,0.655c-0.036,0.175,0.027,0.402-0.101,0.521
			c-0.125-0.044-0.134-0.2-0.217-0.282c-0.096-0.331-0.084-0.683,0.035-1.006C59.724,27.72,59.724,27.81,59.751,27.857"/>
		<path d="M39.764,27.965c0.028,0.11-0.053,0.165-0.117,0.229c-0.107,0.027-0.18-0.055-0.225-0.128
			c-0.027-0.095,0.028-0.193,0.123-0.219C39.639,27.82,39.736,27.873,39.764,27.965"/>
		<path d="M61.183,28.229c0.115,0.279,0.13,0.588,0.044,0.877l-0.053,0.045c-0.154-0.23-0.279-0.479-0.373-0.739
			c-0.002-0.18,0.034-0.358,0.109-0.522c0.063-0.042,0.099,0.011,0.128,0.065C61.04,28.065,61.094,28.166,61.183,28.229"/>
		<path d="M62.323,28.065c0.003,0.094-0.05,0.18-0.136,0.219c-0.085,0.029-0.178-0.018-0.207-0.104c0-0.001-0.001-0.003-0.002-0.004
			c-0.02-0.087,0.021-0.177,0.1-0.22C62.179,27.901,62.278,27.993,62.323,28.065"/>
		<path d="M40.2,28.351c-0.006,0.08-0.06,0.148-0.135,0.173c-0.074,0.053-0.128-0.037-0.191-0.064c-0.035-0.065-0.035-0.145,0-0.21
			c0.027-0.054,0.092-0.054,0.145-0.072C40.101,28.221,40.183,28.258,40.2,28.351"/>
		<path d="M40.599,28.302c0.035,0.095-0.063,0.139-0.099,0.185c-0.108,0.036-0.165-0.046-0.209-0.111
			c-0.009-0.08,0.03-0.159,0.101-0.2C40.5,28.147,40.554,28.221,40.599,28.302"/>
		<path d="M62.576,28.275c-0.007,0.122-0.189,0.237-0.207,0.356c-0.105,0.244-0.31,0.43-0.563,0.511
			c-0.057,0.059-0.129,0.1-0.208,0.119c-0.019-0.183,0.144-0.347,0.246-0.51C62.028,28.516,62.287,28.349,62.576,28.275"/>
		<path d="M40.019,28.659c0.112,0.153,0.236,0.295,0.372,0.428l-0.063,0.092c-0.445-0.028-0.743-0.483-0.959-0.803
			c0.026-0.101,0.145-0.018,0.207-0.025C39.729,28.467,39.901,28.504,40.019,28.659"/>
		<path d="M62.705,28.786c-0.005,0.403-0.218,0.776-0.562,0.986c-0.101,0.037-0.208,0.137-0.308,0.073
			c0.213-0.39,0.482-0.747,0.798-1.059H62.705z"/>
		<path d="M60.965,29.052c0.028,0.115-0.04,0.231-0.153,0.265c-0.092-0.005-0.173-0.062-0.21-0.146
			c-0.009-0.089,0.044-0.172,0.128-0.202l0.107-0.027C60.892,28.959,60.921,29.006,60.965,29.052"/>
		<path d="M39.521,29.134c0.172,0.132,0.335,0.275,0.488,0.428c-0.117,0.082-0.262,0.008-0.396,0.008
			c-0.31-0.107-0.519-0.371-0.837-0.463c0.011-0.101,0.128-0.064,0.191-0.093C39.158,29.022,39.345,29.063,39.521,29.134"/>
		<path d="M49.224,26.433c-0.507-0.2-0.843,0.33-1.359,0.266c-0.062,0.037-0.045,0.1-0.081,0.145l-0.101-0.009
			c-0.027-0.218-0.099-0.419-0.125-0.631c-0.056-0.09-0.029-0.218-0.073-0.308c-0.289-0.794,0.707-0.191,0.906-0.657
			c0.173-0.402-0.334-0.447-0.489-0.73v-0.12c-0.146-0.146-0.3-0.19-0.39-0.383c0.073-0.227,0.082-0.47,0.027-0.702
			c-0.009-0.056-0.042-0.127-0.125-0.101c-0.175,0.237-0.3,0.43-0.463,0.657c-0.169-0.146-0.348-0.28-0.535-0.4
			c-0.136-0.019-0.264-0.156-0.417-0.1c-0.021,0.047-0.009,0.101,0.028,0.136c0.024,0.344,0.183,0.666,0.442,0.893l0.026,0.138
			c-0.113,0.391-0.168,0.797-0.164,1.204c-0.405,1.075-1.082,2.027-1.962,2.764c-0.6,0.507-1.025,1.189-1.216,1.952
			c-0.028,0.129,0.019,0.283-0.081,0.374c-0.302-0.104-0.586-0.254-0.842-0.445c-0.419-0.293-1.017-0.256-1.288-0.785
			c-0.108-0.21,0.028-0.42,0.127-0.576c0.266-0.333,0.306-0.792,0.101-1.166l-0.072,0.043c-0.029,0.54-0.455,0.914-0.291,1.508
			c0.035,0.171,0.127,0.284,0.172,0.446c-0.071-0.008-0.141-0.023-0.209-0.046c-0.198-0.054-0.401-0.082-0.607-0.082
			c-0.417,0.19-0.986-0.045-1.322,0.337c-0.054,0.009-0.127,0.019-0.108,0.101c0.199,0,0.389,0.055,0.589,0.047
			c0.316,0.055,0.527-0.212,0.742-0.33h0.056c0.089-0.09,0.244-0.036,0.361-0.054c0.535,0.094,1.043,0.306,1.486,0.622v0.036
			c-0.181,0.082-0.39,0.136-0.571,0.235c-0.231,0.144-0.409,0.359-0.507,0.614c-0.145,0.227,0.046,0.429,0.136,0.619
			c0.008,0.092,0.019,0.202,0.099,0.238c0.29-0.31,0.018-0.695,0.064-1.05c0.094-0.254,0.32-0.437,0.589-0.476
			c0.515-0.217,0.887,0.202,1.303,0.438c0.026,0.412,0.011,0.825-0.046,1.234c-0.136,0.047-0.28,0.068-0.425,0.063
			c-0.667,0.136-1.313,0.36-1.921,0.668c-0.289,0.099-0.632,0.091-0.925,0.199c0.233,0.028,0.469,0.019,0.7-0.028
			c0.888-0.125,1.566-0.812,2.526-0.692l0.019,0.027c-0.106,0.22-0.251,0.421-0.426,0.593c-0.027-0.099-0.037-0.182-0.125-0.237
			c-0.079-0.032-0.169,0-0.21,0.074v0.135c0.047,0.068,0.119,0.114,0.201,0.128c-0.018,0.082-0.119,0.12-0.173,0.193
			c-0.253,0.426-0.771,0.254-1.067,0.555c-0.048,0.065-0.209,0.102-0.137,0.202c0.33,0.036,0.661-0.048,0.933-0.238
			c0.335-0.375,0.689-0.729,1.023-1.087c0.049,0.293-0.022,0.594-0.198,0.834c-0.074-0.058-0.158-0.105-0.246-0.141
			c-0.085,0.024-0.149,0.096-0.162,0.184c0.032,0.07,0.078,0.132,0.134,0.185c-0.329,0.17-0.684,0.285-1.051,0.336
			c-0.655,0.083-1.314,0.132-1.974,0.145c-0.325,0.036-0.653,0.036-0.979,0c-0.344,0.064-0.715-0.045-0.995,0.146l0.007,0.137
			c0.418,0.273,0.988,0.056,1.46,0.136h3.568c0.252,0.013,0.504-0.034,0.735-0.136c0.429-0.299,0.759-0.718,0.951-1.205
			c0.091-0.171,0.156-0.355,0.19-0.546c0.092-0.307,0.36-0.528,0.679-0.559c0.027,0.467-0.025,0.937-0.153,1.387
			c-0.056,0.292-0.245,0.575-0.127,0.885c0.027,0.147,0.182,0.147,0.3,0.166c1.095-0.018,2.191-0.063,3.351,0.017
			c0.201,0.055,0.409,0.085,0.617,0.093c0.018-0.027,0.082-0.037,0.055-0.093c-0.025-0.116-0.107-0.211-0.218-0.255
			c-0.019-0.055-0.099-0.035-0.127-0.072c-0.628-0.22-1.303-0.27-1.957-0.146c-0.336,0.088-0.692,0.052-1.004-0.1
			c-0.137-0.165-0.038-0.686-0.038-0.686c0.146-0.6,0.334-1.188,0.562-1.761c0.037-0.136,0.055-0.277,0.053-0.419
			c0.056-0.202,0.075-0.412,0.055-0.621c0.063-0.292,0.159-0.576,0.283-0.847c0.052-0.138,0.098-0.285,0.153-0.421
			c0.028-0.168,0.089-0.329,0.18-0.474c0.296,0.187,0.584,0.18,0.727,0.519l0.124,0.757c0,0.047,0.038,0.138,0.1,0.084
			c0.236-0.155,0.163-0.504,0.163-0.74c0.055-0.284-0.144-0.421-0.225-0.666c-0.068-0.08-0.125-0.168-0.168-0.264
			c-0.037-0.199-0.475-0.338-0.375-0.585c0.024-0.209,0.135-0.399,0.308-0.521l0.044,0.067l0.109-0.077l0.012-0.766
			c0.294,0,0.731,0.038,1.031,0.038c0.083,0.028,0.144,0.09,0.236,0.1l0.071-0.1l0.736-0.144
			C49.709,26.791,49.52,26.433,49.224,26.433"/>
		<path d="M42.128,29.297c0.01,0.093-0.046,0.181-0.135,0.21c-0.072-0.027-0.126-0.036-0.172-0.108
			c-0.035-0.102,0.054-0.173,0.128-0.211C42.022,29.206,42.112,29.217,42.128,29.297"/>
		<path d="M41.542,29.297c0.051,0.058,0.064,0.139,0.035,0.21c-0.063,0.055-0.163,0.101-0.217,0.027
			c-0.054-0.055-0.108-0.118-0.064-0.191C41.36,29.28,41.468,29.226,41.542,29.297"/>
		<path d="M61.053,29.554c0.038,0.1-0.044,0.174-0.117,0.209c-0.091-0.028-0.208-0.046-0.208-0.165
			c0.014-0.067,0.066-0.122,0.134-0.136C60.94,29.445,61.019,29.483,61.053,29.554"/>
		<path d="M61.534,29.535c0.029,0.045,0.093,0.119,0.019,0.164l-0.089,0.074c-0.09,0.028-0.187-0.021-0.217-0.11
			c-0.02-0.099,0.063-0.146,0.136-0.191C61.444,29.454,61.49,29.499,61.534,29.535"/>
		<path d="M39.267,29.645c-0.024,0.095-0.122,0.152-0.216,0.127c-0.009-0.002-0.018-0.005-0.027-0.009l-0.073-0.118
			c0-0.067,0.039-0.128,0.1-0.157C39.149,29.484,39.239,29.549,39.267,29.645"/>
		<path d="M42.32,29.799c-0.009,0.073-0.089,0.138-0.154,0.174c-0.084-0.004-0.161-0.053-0.199-0.129
			c-0.006-0.078,0.037-0.15,0.108-0.183C42.181,29.634,42.289,29.695,42.32,29.799"/>
		<path d="M41.787,29.735l0.026,0.148c-0.053,0.044-0.136,0.126-0.227,0.074c-0.054-0.047-0.117-0.084-0.098-0.174
			c0.036-0.046,0.082-0.084,0.134-0.11C41.695,29.653,41.732,29.699,41.787,29.735"/>
		<path d="M62.921,29.845c-0.011,0.073-0.054,0.136-0.117,0.173c-0.069,0.029-0.148,0.012-0.199-0.044
			c-0.056-0.018-0.037-0.091-0.037-0.138c0.042-0.058,0.103-0.1,0.172-0.119C62.813,29.738,62.877,29.784,62.921,29.845"/>
		<path d="M63.501,29.927c-0.021,0.083-0.087,0.148-0.172,0.165c-0.053-0.008-0.153-0.027-0.138-0.11
			c-0.001-0.06,0.031-0.117,0.085-0.146c0.078-0.041,0.175-0.01,0.215,0.068C63.495,29.911,63.499,29.918,63.501,29.927"/>
		<path d="M40.301,30.054c0.029,0.09-0.019,0.187-0.108,0.219c-0.063,0.037-0.127-0.009-0.174-0.045
			c-0.053-0.044-0.071-0.118-0.044-0.182c0.018-0.082,0.099-0.064,0.155-0.099C40.2,29.953,40.264,29.992,40.301,30.054"/>
		<path d="M40.745,30.135c0.026,0.075-0.056,0.103-0.072,0.157c-0.045,0.039-0.11,0.045-0.162,0.018
			c-0.065-0.053-0.137-0.136-0.075-0.218C40.51,29.957,40.7,30.028,40.745,30.135"/>
		<path d="M62.387,30.093c0.009,0.089-0.073,0.154-0.126,0.21c-0.08,0.015-0.158-0.032-0.182-0.11
			c-0.012-0.089,0.051-0.172,0.141-0.185C62.288,29.998,62.354,30.032,62.387,30.093"/>
		<path d="M63.13,30.238c-0.018,0.081-0.009,0.174-0.1,0.228c-0.074,0.021-0.153,0.007-0.217-0.037
			c-0.052-0.049-0.067-0.126-0.036-0.191c0.042-0.079,0.128-0.123,0.217-0.11C63.058,30.165,63.076,30.21,63.13,30.238"/>
		<path d="M39.955,30.429c0.036,0.074-0.044,0.093-0.072,0.128c-0.059,0.027-0.127,0.02-0.179-0.019
			c-0.064-0.035-0.037-0.126-0.027-0.174C39.757,30.209,39.92,30.319,39.955,30.429"/>
		<path d="M62.559,30.603l0.01,0.083c-0.231,0.13-0.517,0.115-0.734-0.037c-0.116-0.076-0.237-0.144-0.363-0.203
			c0.044-0.118,0.208-0.108,0.325-0.136C62.06,30.348,62.27,30.593,62.559,30.603"/>
		<path d="M40.391,30.522c0.017,0.071-0.037,0.1-0.056,0.154c-0.034,0.054-0.105,0.034-0.153,0.019
			c-0.08-0.042-0.109-0.141-0.067-0.22c0.002-0.003,0.003-0.006,0.005-0.009C40.219,30.365,40.335,30.422,40.391,30.522"/>
		<path d="M41.189,30.575c0.026,0.08-0.013,0.167-0.089,0.201c-0.065,0.037-0.12-0.017-0.176-0.026
			c-0.045-0.063-0.126-0.138-0.045-0.21C40.962,30.403,41.125,30.476,41.189,30.575"/>
		<path d="M51.661,30.961c-0.017,0.183-0.318-0.026-0.275,0.217c0.026,0.181,0.088,0.354,0.183,0.511
			c0.085,0.123,0.04,0.314,0.034,0.461c-0.085,0.128-0.205,0.23-0.345,0.293c-0.259-0.027-0.638,0.132-0.759-0.19
			c-0.073-0.135-0.122-0.281-0.145-0.433l0.086-0.043c0-0.061-0.069-0.095-0.062-0.156c0.293-0.053-0.121-0.311,0.13-0.331
			c0.207,0.217,0.542,0.149,0.722,0.383c0.04,0.041,0.083,0.078,0.128,0.113c-0.033-0.218-0.136-0.434-0.171-0.667
			c-0.026-0.112,0.014-0.23,0.104-0.304C51.447,30.693,51.577,30.864,51.661,30.961"/>
		<path d="M41.988,30.903c0.025,0.091-0.048,0.146-0.104,0.192c-0.08,0.038-0.126-0.054-0.161-0.101
			c-0.029-0.091,0.035-0.135,0.088-0.182C41.882,30.81,41.949,30.844,41.988,30.903"/>
		<path d="M47.575,30.995c0.111,0.341,0.072,0.713-0.109,1.023c-0.007,0.072,0.019,0.19-0.081,0.181
			c-0.244-0.338-0.063-0.811,0.035-1.168C47.438,30.939,47.548,30.904,47.575,30.995"/>
		<path d="M55.329,31.167c0.128,0.268,0.135,0.578,0.018,0.85l-0.072,0.072c-0.104-0.203-0.175-0.422-0.208-0.648
			c0.055-0.157,0.091-0.319,0.108-0.484C55.302,30.93,55.294,31.094,55.329,31.167"/>
		<path d="M42.692,31.268c-0.054,0.11-0.208,0.137-0.309,0.211c-0.237,0.156-0.527,0.211-0.806,0.152
			c0.223-0.342,0.633-0.512,1.033-0.427L42.692,31.268z"/>
		<path d="M38.968,31.599c0.273,0.246,0.488,0.551,0.626,0.892c0.027,0.036,0.116,0.046,0.082,0.118
			c-0.074,0.058-0.146-0.054-0.248-0.035c-0.352-0.179-0.568-0.547-0.551-0.941L38.968,31.599z"/>
		<path d="M54.976,31.88c0.01,0.093-0.008,0.184-0.08,0.21c-0.087,0.028-0.181-0.021-0.208-0.108c0,0,0-0.001,0-0.002
			c-0.026-0.063,0.028-0.1,0.044-0.146c0.068-0.057,0.17-0.048,0.228,0.02C54.965,31.861,54.971,31.871,54.976,31.88"/>
		<path d="M58.8,32.364c0.012-0.169,0.033-0.336,0.063-0.503c0.031-0.059,0.043-0.125,0.036-0.19
			c0.218-0.292,0.661-0.201,1.005-0.173c0.146,0.051,0.298,0.084,0.452,0.102c0.068-0.043,0.149-0.06,0.229-0.046
			c0.29-0.158,0.098-0.492,0.12-0.758l-0.111-0.272c-0.029-0.059-0.053-0.121-0.072-0.184c-0.054-0.065-0.091-0.182-0.145-0.245
			c-0.183-0.353-0.421-0.674-0.707-0.951c-0.505-0.574-1.171-0.984-1.911-1.178c-0.709-0.138-1.444-0.031-2.084,0.303
			c-0.179-0.055-0.314-0.202-0.353-0.384c-0.032-0.332,0.027-0.666,0.171-0.967c0.063-0.21,0.145-0.415,0.246-0.611
			c0.188-0.506,0.313-1.033,0.371-1.569c-0.014-0.313-0.203-0.592-0.49-0.72c-0.171-0.063-0.364-0.024-0.499,0.101
			c-0.138,0.232-0.344,0.416-0.589,0.528c-0.018,0.156,0.172,0.054,0.236,0.108c0.199,0.038,0.427-0.027,0.59,0.101
			c-0.02,0.347-0.153,0.678-0.382,0.941c-0.327,0.441-0.604,0.917-0.824,1.42l-0.035-0.035l0.043,2.231
			c0.246,0.527,0.665,0.954,1.188,1.209c0.291,0.237,0.652,0.521,1.043,0.309c0.208-0.062,0.225,0.229,0.326,0.347
			c0.109,0.338-0.136,0.575-0.155,0.884l-0.235,0.504c-0.24,0.554-0.554,1.072-0.932,1.542c-0.137,0-0.218,0.146-0.354,0.153
			c-0.073,0.101-0.218,0.03-0.309,0.064c-0.279,0.119-0.679,0.047-0.87,0.311l0.072,0.046c0.552,0.009,1.169,0.045,1.757,0.018
			c0.078-0.026,0.134-0.093,0.146-0.174c-0.082-0.155,0.026-0.292,0.1-0.409c0.074-0.193,0.158-0.382,0.254-0.565
			c0.189-0.376,0.408-0.741,0.617-1.115l0.277-0.457c0.08-0.178,0.174-0.35,0.284-0.511c0.063-0.075,0.118-0.158,0.163-0.246
			c0.008-0.089-0.037-0.128-0.092-0.191c0.064-0.063,0.164-0.046,0.246-0.063c0.243,0.125,0.425,0.341,0.505,0.602l0.084,0.235
			l0.036,0.112l-0.02,0.301l0.037,0.282c0.018,0.442-0.009,0.885-0.081,1.322c-0.154,0.531-0.76,0.475-1.197,0.593
			c-0.108,0.074-0.316,0.038-0.316,0.22c0.564,0.072,1.136,0.085,1.703,0.038c0.089-0.038,0.108-0.118,0.153-0.203
			c0.02-0.117,0.135-0.217,0.101-0.346c-0.101-0.126-0.009-0.329-0.037-0.503c0.018-0.056,0.018-0.116,0-0.172
			c0.071-0.265,0.055-0.583,0.108-0.839L58.8,32.364z"/>
		<path d="M63.257,32.008c-0.242,0.456-0.632,0.816-1.106,1.023l-0.091-0.027c0.31-0.329,0.473-0.841,0.951-0.96
			C63.084,31.997,63.173,31.984,63.257,32.008"/>
		<path d="M38.524,32.456c-0.045,0.035-0.008,0.118-0.09,0.127c-0.075,0.029-0.16-0.009-0.189-0.084
			c-0.024-0.086,0.026-0.175,0.112-0.198c0.002-0.001,0.004-0.001,0.006-0.001C38.434,32.336,38.507,32.364,38.524,32.456"/>
		<path d="M41.133,32.583c0.026,0.083-0.063,0.083-0.108,0.1c-0.369,0.125-0.777,0.021-1.042-0.264l0.035-0.083
			C40.392,32.427,40.825,32.354,41.133,32.583"/>
		<path d="M39.023,32.464l0.019,0.136c-0.049,0.075-0.142,0.108-0.228,0.083c-0.049-0.028-0.09-0.069-0.118-0.119
			c0.014-0.083,0.073-0.149,0.153-0.174C38.914,32.394,38.976,32.419,39.023,32.464"/>
		<path d="M47.511,32.509c0.018,0.083-0.053,0.136-0.108,0.174c-0.073,0.019-0.149-0.011-0.19-0.074
			c-0.03-0.065-0.002-0.142,0.063-0.172C47.357,32.419,47.484,32.427,47.511,32.509"/>
		<path d="M63.601,32.545c0.026,0.091-0.054,0.138-0.119,0.193c-0.059,0.018-0.122,0.008-0.172-0.027
			c-0.008-0.045-0.062-0.084-0.043-0.146c0.036-0.08,0.121-0.125,0.207-0.108L63.601,32.545z"/>
		<path d="M64.198,32.509c0.056,0.083,0.011,0.146-0.035,0.209c-0.031,0.06-0.103,0.084-0.164,0.056
			c-0.055-0.056-0.127-0.082-0.136-0.165c0-0.072,0.081-0.127,0.136-0.153C64.091,32.419,64.126,32.509,64.198,32.509"/>
		<path d="M38.146,32.774c0.006,0.062-0.049,0.102-0.063,0.155c-0.048,0.018-0.093,0.054-0.149,0.038
			c-0.062-0.031-0.109-0.084-0.134-0.148c0.018-0.085,0.08-0.155,0.162-0.183C38.043,32.649,38.111,32.701,38.146,32.774"/>
		<path d="M57.223,32.774l0.01,0.119c-0.056,0.074-0.126,0.138-0.218,0.09c-0.055-0.054-0.118-0.107-0.09-0.19
			c0.047-0.086,0.156-0.117,0.241-0.069C57.188,32.736,57.208,32.753,57.223,32.774"/>
		<path d="M39.603,32.911c-0.018,0.064-0.045,0.126-0.127,0.137c-0.081,0.011-0.106-0.065-0.152-0.101
			c0-0.08-0.009-0.164,0.072-0.208c0.087-0.025,0.178,0.025,0.202,0.112C39.603,32.871,39.604,32.891,39.603,32.911"/>
		<path d="M38.733,32.93c0.015,0.079-0.021,0.159-0.089,0.201c-0.102,0.023-0.206-0.03-0.245-0.127
			c0.01-0.095,0.073-0.177,0.163-0.211C38.644,32.792,38.688,32.882,38.733,32.93"/>
		<path d="M57.82,32.911c0.026,0.087-0.016,0.181-0.098,0.22c-0.11,0.036-0.198-0.056-0.247-0.127
			c0.048-0.074,0.057-0.174,0.164-0.193C57.714,32.809,57.782,32.848,57.82,32.911"/>
		<path d="M39.161,32.947c0.024,0.064-0.03,0.091-0.047,0.139c-0.045,0-0.072,0.053-0.127,0.035
			c-0.036-0.046-0.108-0.062-0.118-0.126c-0.002-0.078,0.045-0.148,0.118-0.174C39.067,32.816,39.14,32.869,39.161,32.947"/>
		<path d="M63.103,33.02c-0.029,0.067-0.084,0.121-0.153,0.147c-0.074,0.018-0.117-0.047-0.172-0.075l-0.01-0.163
			c0.054-0.084,0.167-0.11,0.251-0.056C63.068,32.905,63.1,32.96,63.103,33.02"/>
		<path d="M63.793,33.058c-0.034,0.091-0.122,0.152-0.219,0.153c-0.083-0.035-0.173-0.099-0.11-0.208
			c0.037-0.036,0.056-0.074,0.11-0.083c0.093-0.026,0.19,0.03,0.216,0.123C63.791,33.048,63.792,33.053,63.793,33.058"/>
		<path d="M59.488,33.12c0.045,0.121-0.062,0.155-0.136,0.211c-0.062-0.011-0.121-0.036-0.172-0.074
			c-0.021-0.099,0.032-0.199,0.125-0.238C59.379,33.022,59.447,33.059,59.488,33.12"/>
		<path d="M56.997,33.23l0.019,0.11c-0.057,0.037-0.127,0.128-0.208,0.073c-0.069-0.027-0.107-0.101-0.091-0.172
			c0.048-0.08,0.151-0.104,0.231-0.057C56.967,33.196,56.984,33.211,56.997,33.23"/>
		<path d="M57.504,33.294c0.015,0.06-0.016,0.122-0.072,0.145c-0.062,0.065-0.136-0.007-0.198-0.026l-0.01-0.137l0.117-0.072
			C57.405,33.221,57.476,33.221,57.504,33.294"/>
		<path d="M42.128,33.303c0.056,0.054-0.007,0.12-0.017,0.175c-0.055,0.068-0.151,0.086-0.227,0.044
			c-0.09-0.037-0.08-0.154-0.063-0.228c0.054-0.019,0.054-0.083,0.128-0.083C42.018,33.221,42.08,33.253,42.128,33.303"/>
		<path d="M60.458,33.339c0.017,0.092-0.074,0.128-0.136,0.146c-0.109,0.037-0.164-0.047-0.208-0.118
			c0-0.057,0.054-0.092,0.072-0.138C60.312,33.175,60.394,33.268,60.458,33.339"/>
		<path d="M59.968,33.339c0.036,0.092-0.063,0.139-0.1,0.183c-0.067,0.029-0.145,0.015-0.197-0.037
			c-0.047-0.026-0.047-0.083-0.047-0.136c0.055-0.047,0.082-0.1,0.146-0.12C59.85,33.23,59.925,33.271,59.968,33.339"/>
		<path d="M64.054,33.451c0.016,0.125-0.145,0.063-0.208,0.099c-0.403,0.155-0.854,0.125-1.232-0.082
			c0.028-0.119,0.164-0.073,0.236-0.119c0.39-0.246,0.788,0.055,1.176,0.074L64.054,33.451z"/>
		<path d="M39.259,33.339l-0.038,0.063c-0.342,0.232-0.766,0.309-1.167,0.211l-0.037-0.057c0.358-0.237,0.794-0.325,1.216-0.246
			L39.259,33.339z"/>
		<path d="M61.381,33.404c0,0.068-0.033,0.133-0.09,0.172c-0.093,0.038-0.199-0.006-0.238-0.099
			c-0.023-0.073,0.047-0.146,0.12-0.176C61.236,33.302,61.346,33.312,61.381,33.404"/>
		<path d="M40.879,33.438c-0.035,0.075-0.018,0.148-0.108,0.184c-0.094,0.021-0.189-0.029-0.226-0.118
			c-0.027-0.1,0.045-0.127,0.09-0.172C40.745,33.275,40.825,33.356,40.879,33.438"/>
		<path d="M40.239,33.485c0.025,0.064-0.029,0.101-0.047,0.147c-0.05,0.043-0.121,0.054-0.182,0.026
			c-0.061-0.055-0.127-0.119-0.099-0.22c0.043-0.041,0.092-0.074,0.146-0.099C40.141,33.347,40.213,33.404,40.239,33.485"/>
		<path d="M62.016,33.696c-0.011,0.079-0.067,0.144-0.145,0.166c-0.068,0-0.132-0.035-0.171-0.092
			c-0.03-0.06-0.015-0.132,0.036-0.175l0.117-0.044C61.933,33.559,61.998,33.618,62.016,33.696"/>
		<path d="M39.566,33.594c0.029,0.074-0.035,0.102-0.045,0.157c-0.044,0.14-0.112,0.272-0.199,0.392
			c-0.173,0.21-0.417,0.21-0.661,0.272l-0.036-0.071c0.234-0.331,0.549-0.594,0.915-0.768L39.566,33.594z"/>
		<path d="M61.562,33.797c0.018,0.107-0.074,0.125-0.136,0.172c-0.075-0.001-0.144-0.043-0.18-0.108
			c-0.029-0.102,0.063-0.139,0.116-0.184C61.449,33.664,61.533,33.715,61.562,33.797"/>
		<path d="M40.608,33.797l0.026,0.043c-0.008,0.103-0.081,0.129-0.134,0.172c-0.077,0.003-0.151-0.03-0.199-0.091
			c-0.036-0.072-0.006-0.16,0.066-0.196c0.008-0.004,0.016-0.007,0.024-0.01C40.473,33.705,40.581,33.716,40.608,33.797"/>
		<path d="M63.229,34.071c0.091-0.01,0.108-0.121,0.209-0.138c0.085-0.011,0.17,0.028,0.217,0.1c0.037,0.11-0.045,0.164-0.117,0.21
			c-0.064,0.043-0.2-0.055-0.192,0.064c0.066,0.04,0.113,0.105,0.127,0.181l-0.108,0.013c-0.283-0.098-0.516-0.301-0.651-0.568
			c-0.038-0.082-0.209-0.147-0.108-0.216C62.856,33.733,63.087,33.864,63.229,34.071"/>
		<path d="M64.101,33.786l-0.01,0.174c-0.046,0.092-0.182,0.054-0.263,0.045c-0.046-0.045-0.089-0.089-0.072-0.164
			c0.032-0.053,0.08-0.095,0.136-0.12C63.967,33.711,64.044,33.734,64.101,33.786"/>
		<path d="M60.812,34.28c0.084,0.11,0.151,0.233,0.197,0.364l-0.08,0.018c-0.308-0.173-0.707-0.364-0.825-0.729
			c-0.027-0.038-0.099-0.082-0.089-0.147c0.234-0.004,0.459,0.089,0.624,0.256C60.704,34.134,60.776,34.18,60.812,34.28"/>
		<path d="M40.101,33.933c0.035,0.081-0.035,0.145-0.082,0.183c-0.078,0.018-0.159-0.011-0.208-0.074
			c-0.064-0.098,0.054-0.181,0.126-0.219C40.01,33.814,40.057,33.887,40.101,33.933"/>
		<path d="M61.943,34.143c0.011,0.054-0.062,0.093-0.091,0.127c-0.073,0.01-0.146,0.038-0.208-0.026
			c-0.018-0.047-0.064-0.119-0.008-0.166C61.735,33.95,61.881,34.052,61.943,34.143"/>
		<path d="M64.198,34.271c0.014,0.097-0.039,0.191-0.128,0.23c-0.082,0.01-0.164-0.023-0.216-0.086
			c-0.046-0.053-0.009-0.107,0-0.171c0.06-0.065,0.152-0.09,0.236-0.063L64.198,34.271z"/>
		<path d="M57.93,35.53c0,0.109-0.2,0.083-0.28,0.164c-0.3,0.125-0.628,0.172-0.952,0.136v-0.054
			C57.042,35.495,57.504,35.402,57.93,35.53"/>
		<path d="M44.713,35.922c0.002,0.084-0.063,0.154-0.147,0.156c-0.063,0.002-0.12-0.034-0.145-0.092
			c-0.034-0.111,0.054-0.156,0.117-0.201C44.619,35.793,44.686,35.847,44.713,35.922"/>
		<path d="M57.774,36.022c-0.004,0.089-0.056,0.169-0.134,0.21c-0.084,0.018-0.137-0.026-0.201-0.065l-0.026-0.145
			c0.038-0.1,0.149-0.149,0.249-0.11C57.714,35.931,57.755,35.972,57.774,36.022"/>
		<path d="M59.581,36.058c-0.224,0.18-0.495,0.291-0.78,0.319l-0.49-0.008l-0.046-0.039c0.362-0.312,0.851-0.432,1.317-0.326V36.058
			z"/>
		<path d="M42.231,36.277c0.006,0.078-0.043,0.151-0.12,0.175c-0.075,0.018-0.152-0.016-0.19-0.083
			c-0.034-0.077-0.003-0.169,0.073-0.209C42.094,36.095,42.194,36.206,42.231,36.277"/>
		<path d="M42.683,36.369l-0.035,0.118c-0.057,0.026-0.129,0.048-0.174,0c-0.058-0.028-0.082-0.099-0.053-0.156l0,0
			c0.027-0.054,0.082-0.044,0.109-0.081C42.595,36.268,42.65,36.311,42.683,36.369"/>
		<path d="M39.214,37.289c-0.091,0.11-0.235-0.025-0.335-0.081c-0.317-0.181-0.308-0.538-0.625-0.749
			c0.035-0.108,0.119,0.008,0.181-0.008c0.06,0.04,0.124,0.072,0.19,0.098C38.933,36.726,39.004,37.017,39.214,37.289"/>
		<path d="M65.622,33.75c-0.135-0.246-0.4-0.391-0.679-0.373c-0.225,0.023-0.42,0.166-0.509,0.373
			c-0.054,0.188,0.015,0.389,0.172,0.503c0.063,0.033,0.14,0.013,0.181-0.046c0.046-0.119-0.084-0.119-0.1-0.212
			c-0.034-0.116,0.006-0.242,0.1-0.317c0.091-0.091,0.245-0.045,0.353-0.045c0.115,0.059,0.209,0.15,0.271,0.263
			c0.054,0.157,0.054,0.327,0,0.484c-0.104,0.232-0.313,0.401-0.562,0.457c-0.75,0.109-9.005,0.073-9.005,0.073
			c-0.967,0.091-2.074-0.184-2.906,0.329c-0.355,0.213-0.599,0.57-0.671,0.978c-0.254,0.221-0.49,0.46-0.706,0.719l-0.027-0.028
			c0.043-0.217,0.144-0.408,0.189-0.629c0.137-0.181,0.137-0.43,0.236-0.628c0.299-0.579,0.708-1.094,1.205-1.515
			c0.227-0.303,0.625-0.248,0.97-0.248c0.396,0.173,0.831,0.237,1.259,0.184l0.027-0.065c-0.127-0.119-0.337-0.165-0.479-0.284
			c-0.364-0.171-0.708,0.055-1.088,0.029l-0.027-0.054c0.349-0.246,0.726-0.449,1.123-0.604c0.321-0.152,0.651-0.282,0.989-0.39
			c0.136,0,0.262-0.118,0.388-0.036l0.481-0.129l0.072,0.027c0.458-0.071,0.925-0.077,1.385-0.019l0.063,0.055l0.435,0.111
			c0.165,0.017,0.237,0.21,0.409,0.218c0.089-0.127-0.099-0.183-0.143-0.263c0.205-0.036,0.416-0.005,0.602,0.089l-0.087,0.099
			c-0.055,0.105,0.028,0.177,0.106,0.212c0.065,0.02,0.111-0.028,0.156-0.046c0.118-0.08-0.009-0.166,0.026-0.236
			c0.663,0.106,1.311,0.291,1.93,0.548c0.164,0.089,0.341,0.147,0.525,0.173c-0.208-0.158-0.44-0.282-0.688-0.365
			c-0.154-0.091-0.372-0.102-0.489-0.228l0.117-0.064c0.316-0.07,0.596-0.251,0.788-0.511c0.02-0.053,0.119-0.036,0.11-0.108
			c-0.083-0.092-0.22,0.025-0.328,0.019c-0.379,0.071-0.542,0.519-0.923,0.6c-0.463-0.107-0.933-0.22-1.396-0.337
			c-0.231-0.02-0.459-0.068-0.679-0.146l-0.509-0.045H57.37l-0.03-0.055c0.327-0.081,0.609-0.273,0.934-0.356l2.43-1.113
			c0.25-0.229,0.479-0.479,0.687-0.748c0.007-0.073-0.033-0.143-0.1-0.174c-0.062-0.029-0.136-0.014-0.181,0.036
			c-0.108,0.083,0,0.184,0,0.285c-0.116,0.143-0.258,0.264-0.417,0.355L58.19,31.67c-0.354,0.173-0.724,0.311-1.105,0.411
			l-0.524,0.082c-0.039,0.102-0.123,0.18-0.228,0.209c-0.134,0.053-0.273,0.093-0.415,0.118c-1.23,0.385-2.366,1.022-3.335,1.872
			c0.056-0.121,0.086-0.251,0.092-0.385c0.004-0.14-0.03-0.279-0.1-0.401c-0.021-0.048-0.088-0.196-0.067-0.248l-0.132,0.084
			c-0.106,0.245-0.132,0.517-0.073,0.776c0.028,0.165,0.165,0.353,0.037,0.501c-0.393,0.549-0.719,1.143-0.97,1.77
			c-0.108-0.018-0.161-0.116-0.208-0.22c0.321-0.383,0.542-0.841,0.643-1.331c0.062-0.046,0.019-0.164,0.083-0.22
			c-0.02-0.148,0.081-0.293,0.009-0.41c0.057-0.2-0.267-0.384-0.059-0.51l-0.172,0.081c-0.39,0.511,0.202,1.277-0.242,1.77v0.035
			c-0.091,0.169-0.213,0.318-0.361,0.44c-0.218-0.093-0.299-0.337-0.428-0.521c-0.184-0.247-0.214-0.575-0.077-0.851
			c0.077-0.264-0.057-0.491-0.083-0.73l-0.09-0.052c-0.235,0.305-0.284,0.714-0.127,1.066c0.091,0.166,0.1,0.392,0.235,0.53
			c0.1,0.241,0.231,0.468,0.391,0.676c0.036,0.089-0.056,0.107-0.101,0.153c-0.099-0.064-0.081-0.209-0.172-0.272
			c-0.298-0.614-0.689-1.177-1.158-1.671c-0.02-0.082-0.1-0.154-0.057-0.245c0.168-0.189,0.214-0.459,0.117-0.695l-0.06-0.146
			l-0.138-0.11c0.019,0.32-0.19,0.602-0.098,0.94v0.019c-0.94-0.709-1.952-1.32-3.017-1.824l-0.083,0.233
			c0.337,0.135,0.662,0.301,0.97,0.494c0.315,0.137,0.619,0.299,0.907,0.484c1.182,0.71,2.096,1.792,2.6,3.076
			c0.008,0.103,0.1,0.212,0.037,0.311c-0.207-0.253-0.438-0.486-0.691-0.696c-0.051-0.427-0.306-0.805-0.686-1.011
			c-0.136-0.201-0.427-0.218-0.653-0.282l-3.299-0.019c-2.682-0.037-5.127,0.082-7.79,0.036c-0.371-0.036-0.826-0.165-0.932-0.556
			c-0.073-0.16-0.073-0.343,0-0.502c0.102-0.155,0.274-0.248,0.459-0.247c0.136,0.036,0.248,0.13,0.309,0.257
			c0,0.117-0.1,0.227-0.145,0.328c0.01,0.038,0.045,0.109,0.109,0.082c0.12-0.055,0.208-0.164,0.237-0.293
			c0.009-0.065,0.036-0.155-0.029-0.199c-0.07-0.188-0.229-0.329-0.425-0.376c-0.389-0.057-0.75,0.213-0.807,0.602
			c-0.019,0.127-0.003,0.256,0.046,0.374c0.172,0.4,0.545,0.679,0.978,0.73l8.814,0.038c0.901-0.039,1.804-0.016,2.701,0.071
			c0.347,0.091,0.625,0.353,0.735,0.695l-0.064,0.009c-0.772-0.466-1.682-0.654-2.575-0.529c-0.348,0.013-0.69,0.085-1.014,0.211
			c-0.162,0.024-0.327-0.029-0.443-0.146c-0.389-0.256-0.874-0.317-1.314-0.167l0.01,0.063c0.443-0.035,0.707,0.349,1.104,0.394
			c0.092,0.018,0.164-0.083,0.245-0.008c-0.403,0.224-0.825,0.412-1.259,0.564c-0.136-0.025-0.208-0.154-0.318-0.227
			c-0.171-0.193-0.489-0.11-0.724-0.128c-0.083,0.018-0.155-0.037-0.21,0c0.094,0.14,0.232,0.245,0.392,0.299
			c0.225,0.101,0.489-0.008,0.696,0.129c-0.053,0.065-0.127,0.082-0.189,0.128c-0.427,0.167-0.78,0.547-1.25,0.521
			c-0.49,0.067-0.985-0.094-1.342-0.438c-0.162-0.352-0.528-0.565-0.915-0.528l-0.056,0.063c0.201,0.118,0.354,0.354,0.554,0.492
			c0.127,0.156,0.371,0,0.489,0.174c0.177,0.124,0.378,0.211,0.589,0.255c0.153,0.059,0.311,0.101,0.473,0.127l-0.066,0.036
			c-0.876,0.246-1.789,0.336-2.698,0.268c-0.273-0.01-0.536-0.094-0.808-0.083c0.061,0.06,0.136,0.104,0.218,0.128
			c-0.076,0.041-0.159,0.065-0.245,0.074c-0.118,0.016-0.234,0.046-0.344,0.091c-0.136,0-0.268,0.031-0.39,0.09
			c-0.146,0.17-0.321,0.312-0.518,0.42l0.037,0.092c0.173-0.073,0.39-0.02,0.562-0.092c0.298-0.028,0.472-0.357,0.706-0.491
			c0.281-0.161,0.616-0.2,0.926-0.109c0.181,0.044-0.02,0.118,0.036,0.235c0.073,0.062,0.135,0.138,0.234,0.11l0.064-0.048
			c0.048-0.067,0.051-0.157,0.008-0.228c0.127-0.083,0.301,0.011,0.437-0.044c0.344-0.009,0.689-0.083,1.023-0.091
			c0.053-0.01,0.117-0.064,0.171-0.01c-0.027,0.074-0.118,0.082-0.08,0.184c0.019,0.08,0.107,0.116,0.181,0.134
			c0.093-0.037,0.171-0.099,0.135-0.217c-0.018-0.065-0.091-0.073-0.135-0.101c0.19-0.094,0.406-0.121,0.598-0.211
			c0.131-0.026,0.259-0.068,0.38-0.126c0.117-0.012,0.218-0.12,0.325-0.076c-0.042,0.155-0.106,0.304-0.19,0.44
			c-0.198,0.51-0.198,1.075,0,1.585l0.056-0.016c-0.15-0.492-0.121-1.023,0.083-1.496c0.126-0.774,0.923-1.005,1.494-1.298
			l0.026,0.037c-0.212,0.391-0.33,0.824-0.344,1.268c0.017,0.085-0.037,0.165,0,0.22c0.149-0.105,0.266-0.251,0.335-0.421
			c0.063-0.407-0.172-0.92,0.243-1.222c0.718-0.37,1.499-0.603,2.303-0.683c0.027,0.024,0.09-0.019,0.098,0.036
			c-0.18,0.2-0.443,0.393-0.524,0.638c-0.261,0.484-0.316,1.054-0.154,1.579c0.082,0.282-0.164,0.438-0.28,0.655
			c-0.057,0.078-0.073,0.212-0.125,0.301l0.178,0.02c0.172-0.156,0.282-0.37,0.309-0.601c0.02,0.087,0.085,0.157,0.172,0.183
			c0.064-0.102-0.054-0.174-0.064-0.275c0.145-0.083,0.209,0.102,0.327,0.138c0.178,0.065,0.363,0.108,0.552,0.127l0.063-0.062
			c-0.233-0.273-0.584-0.416-0.942-0.386c-0.155-0.323-0.211-0.685-0.163-1.039c0.025-0.198,0.086-0.392,0.181-0.566
			c0.066-0.129,0.151-0.245,0.253-0.347c0.161-0.15,0.358-0.257,0.571-0.311h0.027l0.009,0.026c-0.244,0.19-0.273,0.459-0.417,0.694
			c-0.174,0.229-0.205,0.536-0.081,0.795c0.054,0.117,0.026,0.299,0.151,0.381c0.092-0.174,0.156-0.361,0.191-0.555
			c-0.027-0.301-0.209-0.583-0.037-0.875c0.095-0.2,0.275-0.348,0.491-0.4c0.483,0.013,0.955,0.15,1.368,0.4
			c0.092,0.063,0.245,0.117,0.261,0.244c-0.003,0.408-0.336,0.736-0.745,0.732c-0.147-0.001-0.292-0.046-0.413-0.13
			c-0.137-0.15-0.191-0.357-0.146-0.555c0.091-0.127,0.249-0.186,0.399-0.147c0.09,0.046,0.172,0.137,0.29,0.082l0.036-0.146
			c-0.1-0.053-0.135-0.19-0.272-0.208c-0.173-0.044-0.356-0.007-0.499,0.101c-0.184,0.156-0.264,0.402-0.208,0.637
			c0.064,0.285,0.281,0.509,0.562,0.585c0.416,0.112,0.857-0.041,1.114-0.385c0.089-0.116,0.156-0.249,0.198-0.39
			c0.437,0.286,0.766,0.71,0.934,1.205c0.021,0.151,0.024,0.303,0.011,0.455l0.316,0.025c-0.018-0.072-0.008-0.15,0.028-0.217
			c0.137-0.588,0.464-1.115,0.931-1.5c0.155-0.089,0.119,0.121,0.155,0.186c0.145,0.338,0.435,0.594,0.79,0.693
			c0.359,0.084,0.737-0.039,0.977-0.319c0.116-0.219,0.264-0.539,0.063-0.765c-0.121-0.152-0.305-0.239-0.499-0.237
			c-0.213,0.018-0.402,0.145-0.498,0.336c0,0.071-0.01,0.154,0.054,0.192c0.036,0,0.11,0.008,0.137-0.047
			c0.016-0.136,0.135-0.201,0.244-0.273c0.1-0.038,0.212-0.018,0.291,0.055c0.089,0.097,0.134,0.226,0.127,0.356
			c-0.022,0.184-0.134,0.345-0.299,0.428c-0.286,0.12-0.613,0.089-0.872-0.082c-0.1-0.124-0.184-0.258-0.252-0.401
			c-0.046-0.135-0.046-0.283,0-0.421c0.393-0.246,0.836-0.402,1.296-0.454c0.188,0.048,0.355,0.152,0.479,0.302
			c0.417,0.429-0.091,1.038,0.199,1.515c0.108-0.021,0.108-0.165,0.153-0.256c0.07-0.34,0.03-0.692-0.117-1.005
			c-0.083-0.198-0.199-0.378-0.343-0.537l0.107-0.019c0.208,0.127,0.396,0.285,0.552,0.472c0.275,0.45,0.399,0.975,0.353,1.5
			c-0.072,0.272-0.361,0.399-0.588,0.5c-0.104,0.077-0.187,0.178-0.244,0.293c0.108,0.062,0.263,0,0.371-0.048
			c0.171-0.063,0.273-0.28,0.39-0.381l0.018,0.055c0.01,0.102-0.045,0.237,0.045,0.263c0.039-0.153,0.066-0.309,0.081-0.465
			c0.098,0.133,0.158,0.291,0.173,0.456c0.081,0.167,0.218,0.384,0.435,0.411c0.053-0.083-0.009-0.163-0.028-0.237
			c-0.027-0.227-0.218-0.347-0.345-0.511c-0.316-0.439-0.17-1.123-0.416-1.616c-0.113-0.257-0.279-0.486-0.489-0.673l0.036-0.037
			c0.416,0.023,0.826,0.097,1.224,0.219c0.499,0.245,1.224,0.192,1.459,0.837c0.091,0.366,0.269,0.704,0.517,0.988l0.025-0.02
			c0.055-0.106,0.055-0.232,0-0.338c-0.054-0.456-0.451-0.563-0.662-0.949l0.028-0.034c0.225,0.057,0.446,0.128,0.663,0.21
			c0.726,0.242,1.244,0.889,1.322,1.652c0.006,0.538-0.108,1.07-0.335,1.559c-0.026,0.073-0.157,0.156-0.072,0.219
			c0.1-0.073,0.116-0.192,0.171-0.273c0.327-0.553,0.434-1.209,0.298-1.835c-0.009-0.117-0.145-0.21-0.082-0.327
			c0.042,0.042,0.096,0.069,0.154,0.083c0.055-0.037,0.136-0.037,0.173-0.104c0.008-0.052,0.042-0.116,0-0.163
			c-0.068-0.07-0.171-0.095-0.264-0.062c-0.053,0.055-0.09,0.124-0.108,0.199c-0.083-0.177-0.193-0.341-0.325-0.483l0.017-0.027
			c0.407,0.139,0.778,0.337,1.196,0.448c0.093,0.062,0.203,0.098,0.316,0.102c0.366,0.116,0.739,0.209,1.116,0.28
			c0.271-0.027,0.499,0.1,0.771,0.038v-0.021l-0.01,0.01c-0.1-0.127-0.317-0.01-0.436-0.102c-0.612-0.066-1.212-0.216-1.784-0.444
			l0.074-0.018c0.091-0.04,0.148-0.131,0.145-0.231c-0.049-0.065-0.127-0.103-0.209-0.101c-0.065,0.03-0.115,0.087-0.136,0.156
			c0.011,0.078,0.063,0.145,0.136,0.176l-0.081,0.008c-0.281-0.13-0.553-0.249-0.825-0.376c-0.099-0.017-0.182-0.1-0.281-0.117
			c-0.208-0.103-0.417-0.2-0.626-0.282c-0.596-0.271-1.21-0.499-1.838-0.685c-0.136-0.038-0.261-0.073-0.389-0.11
			c-0.229-0.062-0.454-0.115-0.679-0.183c-0.822-0.239-1.704-0.164-2.475,0.21c-0.11-0.037-0.172,0.138-0.228,0.025
			c0.239-0.457,0.729-0.725,1.242-0.681c3.634-0.038,7.04-0.063,10.619-0.119c0.417,0.029,0.815-0.171,1.041-0.521
			C65.714,34.337,65.738,34.023,65.622,33.75 M51.217,37.116c-0.055,0.099-0.089,0.208-0.1,0.321l-0.038,0.018
			c0.028-0.136-0.108-0.22-0.072-0.367c-0.072-0.108-0.072-0.243-0.136-0.362c-0.082-0.146,0.072-0.212,0.136-0.312
			c0.128,0.054,0.173,0.174,0.264,0.283C51.325,36.854,51.209,36.97,51.217,37.116"/>
		<path d="M61.045,36.542l0.038,0.08c-0.349,0.265-0.778,0.401-1.216,0.385l-0.116,0.028l-0.019-0.065
			C60.062,36.604,60.563,36.44,61.045,36.542"/>
		<path d="M59.587,36.688c0.035,0.128-0.045,0.2-0.145,0.245c-0.087-0.01-0.163-0.064-0.198-0.146
			c-0.029-0.072,0.035-0.109,0.061-0.152c0.066-0.068,0.174-0.069,0.242-0.005C59.565,36.646,59.578,36.666,59.587,36.688"/>
		<path d="M42.365,36.707c0.022,0.066,0.005,0.141-0.045,0.192l-0.164,0.044c-0.062-0.009-0.1-0.079-0.117-0.137
			c0.002-0.076,0.048-0.142,0.117-0.172C42.231,36.635,42.311,36.623,42.365,36.707"/>
		<path d="M40.745,37.298v0.066c-0.208,0.045-0.423-0.006-0.589-0.138c-0.115-0.193-0.281-0.351-0.479-0.457
			c0-0.026-0.055-0.062,0-0.08C40.129,36.689,40.402,37.052,40.745,37.298"/>
		<path d="M62.425,36.697c-0.211,0.311-0.391,0.693-0.763,0.831c-0.063,0-0.118,0.092-0.172,0.027
			c0.154-0.378,0.441-0.687,0.807-0.866L62.425,36.697z"/>
		<path d="M42.892,36.807c0.008,0.1-0.063,0.12-0.127,0.174c-0.072,0.009-0.108-0.046-0.154-0.101
			c-0.036-0.093,0.046-0.125,0.091-0.174C42.779,36.697,42.855,36.737,42.892,36.807"/>
		<path d="M63.565,36.864c-0.083,0.116-0.045,0.289-0.127,0.417c-0.181,0.211-0.335,0.448-0.624,0.494
			c-0.048-0.092,0.061-0.185,0.106-0.268c0.109-0.299,0.322-0.548,0.6-0.701L63.565,36.864z"/>
		<path d="M37.935,36.942c0.042,0.061,0.042,0.142,0,0.202c-0.058,0.049-0.137,0.062-0.208,0.036
			c-0.077-0.044-0.108-0.137-0.072-0.219C37.711,36.88,37.873,36.833,37.935,36.942"/>
		<path d="M37.419,37.052l0.027,0.127c-0.027,0.048-0.07,0.103-0.125,0.11c-0.089,0.016-0.177-0.033-0.21-0.118
			c-0.014-0.076,0.022-0.154,0.091-0.191C37.282,36.951,37.372,36.98,37.419,37.052"/>
		<path d="M38.487,37.108c0.021,0.07,0.037,0.199-0.072,0.22c-0.127,0.052-0.198-0.039-0.269-0.11
			c-0.001-0.076,0.04-0.146,0.106-0.184C38.339,37.016,38.428,37.044,38.487,37.108"/>
		<path d="M39.974,37.227c-0.008,0.062,0.01,0.154-0.063,0.174l-0.172,0.02c-0.019-0.056-0.117-0.101-0.062-0.166
			c0.033-0.044,0.075-0.078,0.125-0.101C39.857,37.179,39.938,37.153,39.974,37.227"/>
		<path d="M64.435,37.289c-0.027,0.065-0.063,0.148-0.137,0.148c-0.08-0.012-0.161-0.019-0.207-0.102
			c-0.037-0.101,0.046-0.156,0.119-0.183C64.298,37.153,64.416,37.188,64.435,37.289"/>
		<path d="M62.777,37.336c0.008,0.074-0.072,0.127-0.108,0.156c-0.115,0.041-0.241-0.02-0.281-0.135c0-0.001,0-0.002-0.001-0.003
			c0.017-0.108,0.118-0.183,0.227-0.166C62.693,37.199,62.758,37.258,62.777,37.336"/>
		<path d="M63.9,37.319c0,0.062-0.031,0.119-0.082,0.154c-0.073,0.031-0.158,0.018-0.217-0.036
			c-0.082-0.072-0.018-0.139,0.036-0.193C63.719,37.198,63.873,37.209,63.9,37.319"/>
		<path d="M37.699,37.473c0.026,0.092-0.021,0.19-0.108,0.229c-0.086,0.004-0.166-0.048-0.198-0.128
			c-0.017-0.078,0.02-0.157,0.09-0.193C37.566,37.364,37.653,37.4,37.699,37.473"/>
		<path d="M62.323,37.572c0.025,0.1-0.029,0.203-0.126,0.237c-0.073,0.019-0.119-0.016-0.173-0.063
			c-0.036-0.045-0.081-0.145-0.009-0.191c0.053-0.081,0.164-0.105,0.246-0.052C62.288,37.521,62.309,37.545,62.323,37.572"/>
		<path d="M42.574,37.675c0.036,0.101-0.073,0.119-0.1,0.172l-0.136-0.008c-0.045-0.055-0.099-0.109-0.073-0.192
			c0.045-0.035,0.063-0.073,0.117-0.091C42.484,37.528,42.521,37.62,42.574,37.675"/>
		<path d="M64.271,37.737c0.018,0.064-0.035,0.091-0.046,0.137c-0.06,0.044-0.136,0.058-0.208,0.037
			c-0.083-0.045-0.083-0.117-0.083-0.202c0.055-0.034,0.064-0.081,0.128-0.099C64.152,37.603,64.237,37.654,64.271,37.737"/>
		<path d="M63.709,37.767c0.035,0.107-0.063,0.162-0.136,0.189c-0.036,0.011-0.092-0.018-0.101,0.038
			c0.211,0.132,0.401,0.294,0.563,0.482v0.071c-0.334,0.014-0.658-0.113-0.896-0.348c-0.064-0.043-0.173-0.043-0.246-0.106
			c0.118-0.12,0.335-0.073,0.499-0.082c0.119-0.129-0.135-0.218,0.018-0.328c0.054-0.009,0.091-0.063,0.164-0.047
			C63.632,37.664,63.679,37.709,63.709,37.767"/>
		<path d="M60.004,37.774l-0.045,0.146c-0.053,0.05-0.131,0.063-0.198,0.036c-0.045-0.062-0.119-0.117-0.09-0.21
			c0.054-0.089,0.169-0.116,0.257-0.062C59.962,37.705,59.989,37.737,60.004,37.774"/>
		<path d="M39.747,38.093c-0.027,0.082-0.063,0.138-0.152,0.147c-0.071-0.002-0.136-0.045-0.166-0.11
			c-0.007-0.064,0.039-0.102,0.047-0.146C39.576,37.9,39.756,37.955,39.747,38.093"/>
		<path d="M40.481,37.973c0,0.13-0.136,0.203-0.181,0.333c-0.115,0.317-0.392,0.547-0.725,0.601
			c-0.036-0.084,0.118-0.183,0.155-0.266c0.17-0.279,0.411-0.509,0.697-0.668H40.481z"/>
		<path d="M59.787,38.103c0.01,0.098-0.082,0.174-0.156,0.21c-0.08,0.029-0.143-0.036-0.188-0.072
			c-0.072-0.074-0.027-0.147,0.009-0.219C59.559,37.911,59.715,38.001,59.787,38.103"/>
		<path d="M60.35,38.166c-0.007,0.096-0.073,0.176-0.165,0.201l-0.09-0.019c-0.065-0.029-0.11-0.091-0.118-0.163
			c0.045-0.047,0.063-0.12,0.126-0.13C60.185,38.048,60.321,38.056,60.35,38.166"/>
		<path d="M41.885,38.157c0.01,0.101-0.063,0.155-0.135,0.191c-0.075,0.004-0.144-0.04-0.172-0.108
			c-0.018-0.083,0.063-0.138,0.108-0.185C41.794,38.021,41.821,38.103,41.885,38.157"/>
		<path d="M42.51,38.192c-0.021,0.081-0.088,0.143-0.172,0.155c-0.063-0.017-0.136-0.035-0.162-0.107
			c-0.01-0.093,0.062-0.138,0.125-0.185C42.395,38.043,42.484,38.101,42.51,38.192"/>
		<path d="M62.297,38.832c0.044,0.036,0.127,0.083,0.108,0.148c-0.145,0.062-0.262-0.102-0.399-0.13
			c-0.212-0.202-0.374-0.452-0.473-0.729c0.083-0.082,0.173,0.018,0.246,0.045C62.002,38.345,62.18,38.572,62.297,38.832"/>
		<path d="M62.633,38.192c0.025,0.066,0.018,0.142-0.02,0.202c-0.054,0.093-0.172,0.074-0.254,0.055
			c-0.045-0.055-0.126-0.126-0.072-0.209c0.027-0.074,0.108-0.093,0.174-0.119C62.523,38.111,62.568,38.166,62.633,38.192"/>
		<path d="M43.343,38.432c0.011,0.072,0.029,0.182-0.062,0.229c-0.091,0.025-0.186-0.024-0.217-0.112
			c-0.046-0.109,0.053-0.127,0.108-0.182C43.243,38.348,43.289,38.386,43.343,38.432"/>
		<path d="M60.321,39.024c0.133,0.19,0.215,0.415,0.236,0.646c-0.027,0.064,0.045,0.128-0.01,0.175h-0.035
			c-0.333-0.292-0.562-0.682-0.653-1.114l-0.036-0.09c0.089-0.082,0.153,0.082,0.245,0.108L60.321,39.024z"/>
		<path d="M44.522,38.716l0.008,0.017c-0.36,0.301-0.862,0.365-1.287,0.165l0.045-0.083c0.25-0.115,0.522-0.174,0.798-0.174
			L44.522,38.716z"/>
		<path d="M42.457,38.761c-0.308,0.191-0.589,0.565-0.969,0.655c-0.074,0.027-0.119,0.129-0.209,0.074
			c0.205-0.473,0.664-0.784,1.178-0.803V38.761z"/>
		<path d="M59.787,39.169c0.028,0.074,0,0.175-0.072,0.192h-0.172c-0.081-0.035-0.081-0.118-0.081-0.182
			c0.027-0.064,0.09-0.073,0.135-0.102C59.678,39.097,59.742,39.097,59.787,39.169"/>
		<path d="M59.036,39.214c-0.071,0.122-0.19,0.208-0.328,0.239c-0.292,0.056-0.593,0.019-0.861-0.109
			c0.011-0.073,0.102-0.046,0.144-0.09c0.3-0.089,0.618-0.104,0.926-0.045L59.036,39.214z"/>
		<path d="M42.457,39.48c-0.027,0.037-0.038,0.12-0.11,0.147c-0.062,0.019-0.131,0.005-0.181-0.037
			c-0.017-0.056-0.081-0.101-0.038-0.165c0.021-0.064,0.093-0.082,0.146-0.1C42.364,39.329,42.438,39.393,42.457,39.48"/>
		<path d="M42.99,39.562c-0.021,0.07-0.065,0.132-0.125,0.174c-0.067,0.012-0.136-0.013-0.182-0.063
			c-0.036-0.054-0.045-0.12-0.026-0.182l0.125-0.084C42.873,39.399,42.954,39.49,42.99,39.562"/>
		<path d="M59.614,39.653c0.003,0.064-0.02,0.127-0.063,0.175c-0.048,0.061-0.133,0.076-0.199,0.035
			c-0.064-0.009-0.082-0.082-0.107-0.128c-0.055-0.072,0.034-0.119,0.061-0.182c0.086-0.066,0.21-0.05,0.277,0.037
			C59.597,39.61,59.607,39.631,59.614,39.653"/>
		<path d="M60.014,39.635l0.018,0.128c-0.054,0.045-0.091,0.164-0.2,0.12c-0.054,0.018-0.08-0.055-0.108-0.075
			c-0.043-0.086-0.008-0.191,0.079-0.234c0.009-0.005,0.02-0.009,0.03-0.013C59.912,39.535,59.967,39.607,60.014,39.635"/>
		<path d="M42.665,39.9c0.02,0.093-0.016,0.189-0.091,0.247c-0.1,0.019-0.227,0.019-0.263-0.103
			c-0.024-0.102,0.02-0.208,0.109-0.265C42.52,39.76,42.621,39.81,42.665,39.9"/>
		<path d="M43.181,39.862c0.016,0.276-0.106,0.544-0.326,0.713c-0.146,0.027-0.29,0.165-0.435,0.072v-0.045
			C42.661,40.343,42.914,40.096,43.181,39.862"/>
		<path d="M58.19,40.074c0.039,0.055-0.024,0.1-0.052,0.146c-0.055,0.062-0.155,0.035-0.218,0.009
			c-0.059-0.041-0.079-0.119-0.045-0.183c0.024-0.049,0.066-0.084,0.117-0.101C58.074,39.935,58.147,40.01,58.19,40.074"/>
		<path d="M44.087,40.492c0.127,0.21,0.055,0.493,0.127,0.723c-0.155,0.018-0.218-0.156-0.317-0.248
			c-0.144-0.3-0.232-0.625-0.262-0.956l0.062-0.019c0.129,0.113,0.246,0.241,0.345,0.381C44.023,40.44,44.095,40.44,44.087,40.492"
			/>
		<path d="M58.646,40.147c0,0.073-0.08,0.091-0.127,0.136c-0.064-0.01-0.124-0.039-0.171-0.084c-0.027-0.089,0.045-0.117,0.09-0.163
			c0.078-0.032,0.167,0.004,0.2,0.081C58.64,40.127,58.643,40.137,58.646,40.147"/>
		<path d="M59.723,40.959l-0.053,0.063h-0.039c-0.292-0.192-0.474-0.517-0.486-0.867l0.053-0.009
			C59.485,40.325,59.678,40.623,59.723,40.959"/>
		<path d="M59.043,40.667c0.003,0.066-0.026,0.132-0.08,0.172c-0.101,0.028-0.256,0.021-0.273-0.117
			c-0.009-0.091,0.088-0.138,0.136-0.183C58.921,40.518,59.016,40.574,59.043,40.667"/>
		<path d="M58.446,40.859c-0.126,0.337-0.471,0.509-0.706,0.766l-0.018-0.135c0.097-0.365,0.353-0.668,0.697-0.824
			C58.565,40.684,58.419,40.785,58.446,40.859"/>
		<path d="M59.125,41.133c0,0.082-0.081,0.119-0.125,0.164c-0.078-0.004-0.15-0.041-0.198-0.102
			c-0.011-0.091,0.062-0.118,0.117-0.162C59.001,41.013,59.088,41.054,59.125,41.133"/>
		<path d="M52.383,24.565c0.125,0.002,0.226,0.103,0.226,0.227c0,0.125-0.101,0.226-0.226,0.226h-2.684
			c-0.124,0-0.225-0.101-0.225-0.225c0,0,0,0,0-0.001c0-0.124,0.1-0.225,0.225-0.227H52.383z M50.485,24.956
			c0.262,0,0.013-0.318-0.127-0.318h-0.261c-0.264,0-0.015,0.318,0.126,0.318H50.485z M51.586,24.956
			c0.263,0,0.015-0.318-0.127-0.318h-0.264c-0.261,0-0.014,0.318,0.127,0.318H51.586z M52.396,24.638h-0.099
			c-0.264,0-0.041,0.318,0.102,0.318C52.574,24.956,52.584,24.638,52.396,24.638"/>
		<path d="M52.149,27.649l0.513,0.196l0.505-0.196l-0.2,0.756l0.399-0.083l-0.134,0.458l0.134,0.438l-0.354-0.095l0.154,0.816
			l-0.505-0.199l-0.513,0.199l0.208-0.816l-0.409,0.114l0.11-0.458l-0.11-0.439l0.389,0.064L52.149,27.649z M52.908,29.012
			c0.113,0,0.123-0.159,0.123-0.295c0-0.312-0.246,0-0.371-0.294c-0.093,0.246-0.348,0.018-0.348,0.282c0,0.184,0,0.307,0.183,0.307
			H52.908z M52.404,28.729c0,0.122,0.16,0.042,0.276,0.042c0.119,0,0.277,0.08,0.277-0.042c0-0.166-0.158-0.11-0.277-0.11
			C52.563,28.62,52.404,28.563,52.404,28.729"/>
		<polygon points="50.975,28.51 50.888,28.502 50.929,28.577 50.861,28.648 50.948,28.665 50.948,28.762 51.03,28.7 51.112,28.762 
			51.112,28.665 51.195,28.648 51.129,28.577 51.171,28.502 51.08,28.509 51.03,28.416 		"/>
		<polygon points="50.577,29.024 50.488,29.014 50.53,29.091 50.463,29.163 50.548,29.178 50.548,29.275 50.632,29.211 
			50.71,29.275 50.71,29.178 50.798,29.163 50.731,29.091 50.772,29.014 50.682,29.023 50.632,28.932 		"/>
		<polygon points="51.253,28.959 51.164,28.949 51.207,29.025 51.14,29.096 51.227,29.112 51.227,29.207 51.307,29.146 
			51.387,29.207 51.387,29.112 51.475,29.096 51.407,29.025 51.449,28.949 51.358,28.958 51.307,28.866 		"/>
		<polygon points="51.32,29.452 51.271,29.447 51.295,29.489 51.257,29.528 51.305,29.539 51.305,29.592 51.352,29.559 
			51.398,29.592 51.398,29.539 51.445,29.528 51.408,29.489 51.431,29.447 51.38,29.45 51.352,29.399 		"/>
		<polygon points="50.678,30.03 50.678,29.866 50.531,29.837 50.646,29.717 50.573,29.586 50.726,29.601 50.817,29.442 
			50.906,29.599 51.058,29.586 50.988,29.717 51.102,29.837 50.956,29.866 50.956,30.03 50.817,29.927 		"/>
		<path d="M48.073,39.02c-0.095,0.034-0.133,0.064-0.108,0.162l0.114,0.48c0.029,0.105,0.018,0.218-0.031,0.316
			c-0.086,0.099-0.202,0.167-0.329,0.194c-0.128,0.034-0.262,0.032-0.389-0.007c-0.091-0.041-0.146-0.082-0.187-0.246l-0.12-0.503
			c-0.03-0.128-0.076-0.118-0.18-0.104l-0.009-0.036l0.607-0.147l0.008,0.039c-0.116,0.032-0.171,0.046-0.14,0.181l0.119,0.504
			c0.021,0.085,0.07,0.293,0.328,0.23c0.16-0.015,0.279-0.156,0.264-0.318c-0.003-0.028-0.01-0.058-0.021-0.085l-0.107-0.46
			c-0.023-0.093-0.057-0.137-0.213-0.107l-0.01-0.038l0.395-0.094L48.073,39.02z"/>
		<path d="M48.974,39.12c-0.079-0.152-0.247-0.233-0.415-0.202c-0.093,0.02-0.183,0.09-0.161,0.189
			c0.016,0.078,0.059,0.104,0.225,0.136l0.289,0.052c0.126,0.018,0.229,0.109,0.26,0.234c0.029,0.133-0.044,0.341-0.379,0.415
			c-0.104,0.016-0.21,0.021-0.316,0.018l-0.044,0.062l-0.052,0.012l-0.083-0.373l0.052-0.013c0.068,0.18,0.254,0.282,0.441,0.243
			c0.218-0.052,0.193-0.201,0.188-0.221c-0.02-0.1-0.114-0.117-0.243-0.141l-0.128-0.019c-0.338-0.056-0.367-0.188-0.381-0.258
			c-0.021-0.092-0.01-0.311,0.332-0.386c0.097-0.014,0.195-0.02,0.292-0.015l0.047-0.062l0.056-0.012l0.073,0.327L48.974,39.12z"/>
		<path d="M50.17,39.716l-0.657,0.063l-0.004-0.038c0.135-0.023,0.178-0.03,0.164-0.16l-0.076-0.813
			c-0.128,0.019-0.317,0.048-0.33,0.297l-0.053,0.003l-0.024-0.31l1.103-0.106l0.035,0.312l-0.055,0.004
			c-0.059-0.244-0.25-0.235-0.377-0.228l0.077,0.815c0.012,0.13,0.057,0.128,0.195,0.123L50.17,39.716z"/>
		<path d="M51.707,39.716l-0.379-0.006l-0.373-0.495l-0.051-0.001l-0.005,0.305c-0.003,0.125,0.039,0.129,0.159,0.146v0.039
			l-0.624-0.012v-0.039c0.126-0.01,0.163-0.014,0.166-0.14l0.014-0.685c0-0.137-0.055-0.138-0.162-0.147l0.001-0.039l0.596,0.014
			c0.129,0,0.52,0.021,0.516,0.281c-0.005,0.191-0.195,0.236-0.296,0.26l0.364,0.448l0.074,0.033V39.716z M50.906,39.165
			c0.241,0.003,0.336-0.028,0.342-0.231c0.004-0.155-0.07-0.223-0.218-0.228c-0.102-0.001-0.106,0.018-0.116,0.063L50.906,39.165z"
			/>
		<path d="M52.919,39.872l-0.595-0.073l0.005-0.038c0.113,0.005,0.146,0.007,0.153-0.043c-0.009-0.072-0.03-0.145-0.06-0.214
			l-0.412-0.053c-0.042,0.06-0.077,0.122-0.104,0.189c-0.008,0.06,0.08,0.071,0.14,0.084l-0.004,0.038l-0.372-0.047l0.004-0.037
			c0.103,0,0.133-0.05,0.203-0.157l0.511-0.792l0.051,0.008l0.308,0.86c0.062,0.172,0.087,0.229,0.174,0.236L52.919,39.872z
			 M52.405,39.44l-0.139-0.397l-0.218,0.352L52.405,39.44z"/>
		<path d="M53.995,40.092L52.944,39.9l0.006-0.04c0.103,0.01,0.159,0.014,0.176-0.08l0.134-0.737
			c0.019-0.103-0.056-0.117-0.137-0.137l0.007-0.041l0.636,0.119l-0.008,0.039c-0.127-0.019-0.185-0.028-0.207,0.105l-0.13,0.72
			c-0.013,0.075,0.022,0.094,0.146,0.116c0.2,0.055,0.412-0.034,0.513-0.216l0.053,0.011L53.995,40.092z"/>
		<path d="M54.691,40.247l-0.632-0.131l0.008-0.038c0.099,0.013,0.171,0.021,0.191-0.073l0.152-0.734
			c0.021-0.102-0.066-0.121-0.146-0.144l0.008-0.037l0.632,0.133l-0.007,0.038c-0.084-0.015-0.173-0.032-0.195,0.071l-0.152,0.733
			c-0.02,0.099,0.051,0.117,0.151,0.145L54.691,40.247z"/>
		<path d="M55.977,40.413l-0.596-0.062l0.002-0.039c0.114,0.004,0.15,0.005,0.155-0.045c-0.012-0.073-0.033-0.146-0.064-0.213
			l-0.412-0.044c-0.042,0.058-0.076,0.121-0.103,0.187c-0.006,0.063,0.081,0.076,0.145,0.085l-0.005,0.039l-0.372-0.039l0.004-0.037
			c0.1-0.002,0.13-0.053,0.197-0.164l0.495-0.803l0.051,0.006l0.325,0.854c0.069,0.174,0.092,0.229,0.18,0.234L55.977,40.413z
			 M55.453,39.991l-0.146-0.394l-0.212,0.356L55.453,39.991z"/>
		<path d="M51.251,27.9c0-0.372-0.208-0.022-0.323-0.341c-0.085,0.269-0.336,0.043-0.336,0.33c-0.011,0.08,0.02,0.16,0.083,0.211
			v0.11l0.051,0.049h0.394l0.053-0.049v-0.12C51.225,28.041,51.253,27.972,51.251,27.9 M50.929,27.971
			c-0.109,0-0.254,0.075-0.254-0.054c0-0.181,0.124-0.141,0.232-0.141c0.107,0,0.277-0.041,0.277,0.141
			C51.183,28.045,51.037,27.971,50.929,27.971"/>
		<path d="M54.493,32.472c0.088,0.005,0.164-0.061,0.171-0.149c-0.009-0.093-0.093-0.162-0.187-0.152
			c-0.081,0.007-0.145,0.072-0.152,0.152C54.33,32.41,54.405,32.477,54.493,32.472"/>
		<path d="M53.689,26.954l-0.08,0.16c-0.001,0.047,0.035,0.086,0.082,0.089c0.048-0.002,0.085-0.042,0.083-0.089L53.689,26.954z"/>
		<path d="M48.218,26.954l-0.081,0.16c-0.001,0.048,0.035,0.087,0.083,0.089c0.047-0.002,0.083-0.042,0.08-0.089L48.218,26.954z"/>
		<path d="M49.585,26.954l-0.081,0.16c-0.001,0.048,0.036,0.087,0.083,0.089c0.047-0.002,0.083-0.042,0.082-0.089l0,0L49.585,26.954
			z"/>
		<path d="M50.955,26.954l-0.08,0.16c-0.003,0.047,0.033,0.087,0.081,0.089c0.047-0.002,0.083-0.042,0.082-0.089L50.955,26.954z"/>
		<path d="M52.323,26.954l-0.08,0.16c-0.002,0.047,0.034,0.087,0.08,0.089c0.047-0.002,0.084-0.042,0.082-0.089L52.323,26.954z"/>
		<path d="M48.22,28.831l0.081,0.16c0.004,0.045-0.028,0.086-0.073,0.09c-0.045,0.005-0.085-0.028-0.089-0.073
			c-0.001-0.006-0.001-0.011,0-0.017L48.22,28.831z"/>
		<polygon points="48.139,30.817 48.221,30.906 48.301,30.817 48.221,30.657 		"/>
		<path d="M48.439,32.102l0.081,0.159c0.002,0.047-0.034,0.087-0.081,0.09h0c-0.047-0.001-0.085-0.042-0.083-0.09L48.439,32.102z"/>
		<path d="M49.585,32.868l0.081,0.163c0.002,0.046-0.033,0.085-0.08,0.087c0,0,0,0-0.001,0c-0.046-0.002-0.083-0.041-0.081-0.087
			L49.585,32.868z"/>
		<path d="M53.76,28.831l-0.081,0.16c-0.004,0.045,0.028,0.086,0.073,0.09c0.045,0.005,0.085-0.028,0.089-0.073
			c0-0.006,0-0.011,0-0.017L53.76,28.831z"/>
		<polygon points="53.679,30.817 53.76,30.906 53.841,30.817 53.76,30.657 		"/>
		<path d="M53.541,32.102l-0.08,0.159c-0.004,0.045,0.028,0.085,0.073,0.09s0.084-0.028,0.09-0.073c0-0.006,0-0.011,0-0.017
			L53.541,32.102z"/>
		<path d="M52.394,32.868l-0.081,0.163c-0.003,0.045,0.031,0.084,0.077,0.087c0.045,0.003,0.084-0.031,0.087-0.077
			c0-0.003,0-0.007,0-0.01L52.394,32.868z"/>
		<path d="M50.998,33.684l-0.081,0.159c-0.004,0.045,0.028,0.084,0.073,0.089c0.044,0.004,0.084-0.028,0.089-0.073
			c0-0.005,0-0.01,0-0.016L50.998,33.684z"/>
		<path d="M53.223,30.96c0.017,0.025,0.061,0.035,0.115,0.017l0.051-0.148l-0.098-0.059c-0.145,0.035-0.301,0.052-0.386,0.19
			c0.006,0.093,0.057,0.177,0.136,0.226c0.053-0.018,0.061,0.034,0.096,0.06l-0.061,0.08c-0.103-0.105-0.284,0.032-0.361-0.096
			c0.034-0.132,0.104-0.278-0.009-0.4l0.026-0.077c-0.043-0.123-0.173-0.026-0.25-0.026c-0.125-0.011-0.245,0.05-0.309,0.158
			l0.067,0.127l0.062,0.033l-0.085,0.052l0.034,0.097c-0.061,0.026-0.122-0.061-0.147-0.104c0-0.069,0.01-0.191-0.084-0.206
			l-0.077,0.021c-0.025,0.044-0.038,0.095-0.036,0.146c0.004,0.053,0.017,0.105,0.036,0.154c0.123,0.089,0.232,0.195,0.325,0.316
			c-0.078,0.158-0.078,0.375-0.259,0.46c-0.04,0.035-0.06,0.088-0.05,0.14L52,32.157c0.113-0.062,0.326-0.077,0.311-0.268
			c0.039-0.085,0.094-0.163,0.163-0.226c0.08-0.018,0.161,0.021,0.198,0.093c-0.023,0.124-0.112,0.225-0.232,0.263l-0.008,0.069
			c0.035,0.061,0.128,0.035,0.18,0.026c0.146-0.095,0.207-0.269,0.335-0.321c0.017,0.088-0.174,0.113-0.052,0.199
			c0.078-0.017,0.181,0.01,0.233-0.095c-0.062-0.147,0.206-0.216,0.043-0.349c0-0.129,0.137-0.18,0.129-0.318
			c-0.05-0.139-0.215-0.139-0.259-0.27C53.098,30.93,53.166,30.93,53.223,30.96"/>
		<path d="M46.936,32.538c0.083,0.01,0.16-0.049,0.169-0.132c0.01-0.084-0.049-0.159-0.132-0.17c-0.013-0.001-0.025-0.001-0.038,0
			c-0.083-0.01-0.159,0.049-0.17,0.132c-0.011,0.083,0.048,0.159,0.132,0.17C46.91,32.539,46.923,32.539,46.936,32.538"/>
		<path d="M38.064,37.72c0.088-0.005,0.156-0.08,0.151-0.17c-0.005-0.087-0.08-0.155-0.169-0.151
			c-0.085,0.006-0.152,0.076-0.151,0.162c0.002,0.09,0.077,0.162,0.167,0.159C38.063,37.72,38.064,37.72,38.064,37.72"/>
		<path d="M43.674,38.95L43.674,38.95l0.005,0.005v0.02l-0.005,0.006h0.016l-0.003-0.006v-0.009l0.012,0.015h0.012l-0.002-0.004
			l-0.012-0.011l0.01-0.011L43.69,38.95H43.674z M43.687,38.951h0.003l0.006,0.004l-0.009,0.01V38.951z"/>
		<polygon points="43.733,38.948 43.731,38.948 43.722,38.948 43.711,38.956 43.721,38.968 43.725,38.97 43.73,38.976 43.725,38.98 
			43.714,38.97 43.711,38.97 43.711,38.981 43.714,38.981 43.716,38.98 43.722,38.981 43.736,38.974 43.73,38.963 43.722,38.958 
			43.718,38.956 43.722,38.948 43.733,38.958 43.736,38.958 43.736,38.948 		"/>
		<polygon points="43.781,38.948 43.781,38.952 43.785,38.952 43.785,38.956 43.778,38.97 43.774,38.956 43.773,38.952 
			43.778,38.952 43.778,38.948 43.76,38.948 43.76,38.952 43.762,38.952 43.766,38.956 43.76,38.97 43.752,38.954 43.752,38.952 
			43.756,38.952 43.756,38.948 43.74,38.948 43.74,38.952 43.744,38.952 43.754,38.98 43.756,38.98 43.766,38.958 43.775,38.98 
			43.778,38.98 43.788,38.952 43.792,38.952 43.792,38.948 		"/>
		<polygon points="43.791,38.958 43.803,38.97 43.804,38.97 43.791,38.98 43.817,38.965 43.804,38.95 43.809,38.961 43.807,38.966 
			43.806,38.968 43.799,38.956 43.804,38.95 		"/>
		<polygon points="43.824,38.948 43.818,38.966 43.831,38.968 43.836,38.974 43.831,38.976 43.822,38.974 43.817,38.976 
			43.825,38.98 43.841,38.97 43.834,38.96 43.824,38.958 43.824,38.956 43.839,38.956 43.841,38.948 		"/>
		<path d="M54.144,26.735v-0.002h-6.312v0.002H47.83l0.005,4.824c-0.037,0.416,0.152,0.82,0.496,1.057l2.427,1.541
			c0.056,0.064,0.136,0.1,0.221,0.101c0.073,0,0.144-0.028,0.198-0.077l2.467-1.564c0.343-0.237,0.533-0.641,0.496-1.057
			L54.144,26.735z M53.967,31.625c-0.003,0.328-0.153,0.638-0.409,0.843l-2.38,1.512h-0.014c-0.108,0.088-0.263,0.087-0.37-0.002
			l-2.375-1.509c-0.257-0.205-0.408-0.515-0.411-0.843v-4.718h5.958V31.625z"/>
		<path d="M51.838,33.77l0.076-0.038L51.838,33.77z"/>
		<path d="M47.075,40.364l-0.594,0.069l-0.005-0.041c0.114-0.021,0.146-0.024,0.142-0.075l-0.109-0.196l-0.413,0.048
			c-0.028,0.066-0.047,0.136-0.057,0.207c0.005,0.062,0.093,0.055,0.157,0.051l0.005,0.039l-0.374,0.043l-0.004-0.039
			c0.098-0.025,0.119-0.079,0.16-0.201l0.31-0.893l0.051-0.003l0.504,0.762c0.1,0.154,0.136,0.204,0.225,0.19L47.075,40.364z
			 M46.475,40.065l-0.229-0.354l-0.13,0.397L46.475,40.065z"/>
		<path d="M57.532,38.103c-0.108-0.274-0.336-0.482-0.618-0.566c-0.279-0.083-0.582-0.005-0.788,0.202
			c-0.327,0.263-0.099,0.701-0.089,1.057c0,0.073,0.008,0.128-0.063,0.166c-1.314-0.118-2.538-0.448-3.841-0.584
			c-0.301-0.051-0.601-0.039-0.886-0.099l-0.364-0.038c-1.118,0.003-2.233,0.129-3.324,0.373c-0.229,0.075-0.481,0.093-0.708,0.175
			c-0.163-0.027-0.297,0.09-0.453,0.043l-0.298,0.071L46,38.898c-0.145-0.377,0.29-0.604,0.152-0.97
			c-0.114-0.237-0.359-0.384-0.624-0.372c-0.294-0.029-0.578,0.117-0.725,0.372c-0.209,0.457,0.053,0.932,0.135,1.378
			c-0.018,0.146,0.146,0.31,0,0.429c-0.293-0.217-0.667-0.292-1.023-0.208c-0.108,0.054-0.308-0.023-0.362,0.107
			c0.419,0.17,0.876,0.227,1.323,0.163c0.043-0.022,0.096-0.021,0.134,0.01c0.038,0.239-0.045,0.559,0.101,0.768
			c0.18,0.196,0.434,0.305,0.698,0.301c0.794-0.067,1.578-0.225,2.337-0.466c0.117-0.007,0.208-0.072,0.335-0.072
			c0.422-0.1,0.853-0.157,1.287-0.172c-0.182,0.244-0.312,0.523-0.382,0.82c-0.108,0.246,0.19,0.282,0.282,0.419
			c-0.255,0.114-0.503,0.243-0.745,0.384c-0.543,0.044-1.082,0.134-1.61,0.267c-0.011,0.116,0.189,0.079,0.209,0.199
			c-0.027,0.081-0.109,0.092-0.175,0.135c-0.008,0.057,0,0.063,0.057,0.074c0.054-0.064,0.172-0.018,0.225-0.083
			c0.181,0,0.335-0.055,0.507-0.063c0.162-0.037,0.319-0.099,0.463-0.183c0.188-0.054,0.308-0.182,0.499-0.237
			c0.272,0,0.516-0.089,0.769-0.108v0.056c-0.208,0.337-0.425,0.684-0.643,1.003c-0.025,0.051-0.005,0.114,0.046,0.14
			c0.005,0.003,0.011,0.006,0.017,0.008c0.121,0.028,0.248,0.007,0.354-0.057c0.19-0.327,0.361-0.639,0.517-0.976
			c0.092-0.279,0.273-0.521,0.519-0.685c0.035-0.019,0.088-0.072,0.125-0.019c-0.165,0.198-0.31,0.411-0.435,0.638
			c-0.107,0.271-0.055,0.577,0.136,0.797c0.108,0.088,0.271,0.061,0.417,0.071c0.352-0.183,0.805,0.109,1.077-0.237
			c0.163-0.029,0.191,0.166,0.282,0.254c0.155,0.046,0.317,0.202,0.47,0.093c-0.009-0.1-0.116-0.192-0.171-0.283
			c-0.107-0.192-0.244-0.347-0.345-0.52c-0.06-0.107-0.108-0.221-0.144-0.337c0.157,0.078,0.321,0.142,0.489,0.192
			c0.167,0.031,0.332,0.08,0.491,0.145c0.129,0.141,0.282,0.258,0.451,0.347c0.226,0.109,0.482,0.127,0.715,0.218
			c0.092,0.012,0.228,0.082,0.289,0c-0.036-0.043-0.082-0.076-0.134-0.1c-0.028-0.118,0.164-0.054,0.227-0.147l-0.107-0.068
			c-0.128-0.068-0.451-0.092-0.537-0.14c-0.108-0.024-0.214-0.059-0.316-0.101c-0.544,0-0.843-0.494-1.278-0.676
			c0.1-0.09,0.254-0.163,0.316-0.301c0.09-0.147,0.101-0.33,0.027-0.485c-0.081-0.281-0.443-0.246-0.651-0.398l0.026-0.029
			c0.331,0.001,0.66,0.043,0.979,0.127c0.851,0.209,1.713,0.364,2.582,0.467c0.498,0,1.122,0.027,1.368-0.455
			c0.045-0.283,0.099-0.567,0.146-0.85C57.366,39.044,57.489,38.578,57.532,38.103 M47.748,42.262l-0.127-0.117
			c0.063-0.08,0.199-0.035,0.3-0.089c0.243-0.103,0.508-0.141,0.77-0.11C48.404,42.122,48.081,42.23,47.748,42.262 M53.404,42.117
			c0.311,0.117,0.636,0.194,0.966,0.229c-0.029,0.125-0.251,0.007-0.225,0.182c-0.296-0.067-0.573-0.198-0.815-0.383L53.404,42.117z
			 M44.901,38.24c0.008-0.176,0.087-0.34,0.219-0.456c0.228-0.11,0.496-0.103,0.715,0.025c0.066,0.04,0.117,0.102,0.145,0.173
			c0.039,0.152-0.014,0.312-0.135,0.412h-0.091c-0.01-0.14,0.008-0.28,0.055-0.412c-0.011-0.108-0.098-0.116-0.172-0.161
			c-0.143-0.027-0.29,0.005-0.408,0.09c-0.109,0.104-0.154,0.257-0.118,0.401c0.063,0.102,0.01,0.236,0.046,0.349l-0.027,0.035
			C44.985,38.59,44.901,38.419,44.901,38.24 M45.328,38.502c0.137,0.098,0.325,0.053,0.489,0.079
			c0.037,0.104,0.02,0.222-0.045,0.312c-0.153-0.036-0.353-0.018-0.435-0.163C45.356,38.665,45.31,38.572,45.328,38.502
			 M45.301,38.192c0.027-0.07,0-0.182,0.1-0.197c0.064-0.021,0.164-0.021,0.172,0.054c-0.006,0.107-0.021,0.214-0.044,0.319
			C45.418,38.379,45.318,38.302,45.301,38.192 M49.549,41.123c-0.036-0.305,0.072-0.608,0.292-0.821
			c0.127-0.046,0.267-0.04,0.39,0.017c-0.236,0.064-0.535,0.122-0.591,0.422c0.009,0.119-0.026,0.184,0.028,0.282
			c0.1,0.174,0.326,0.101,0.452,0.237l-0.081,0.108C49.87,41.301,49.706,41.219,49.549,41.123 M49.224,41.753
			c0.218-0.091,0.444-0.284,0.688-0.2C49.707,41.684,49.468,41.755,49.224,41.753 M50.084,41.845
			c-0.127,0.295-0.276,0.581-0.444,0.855c-0.018,0.048-0.091,0.055-0.144,0.065c0-0.129,0.126-0.229,0.181-0.337
			c0.19-0.247,0.245-0.511,0.462-0.749C50.192,41.734,50.084,41.771,50.084,41.845 M50.312,41.315v0.034h-0.019v-0.044h0.038
			l-0.038,0.01H50.312z M50.23,41.068c-0.148-0.021-0.294-0.06-0.435-0.109c-0.092-0.092,0-0.192,0-0.293
			c0.141-0.213,0.427-0.272,0.64-0.133c0.007,0.005,0.014,0.01,0.02,0.015C50.435,40.74,50.356,40.921,50.23,41.068 M50.43,41.068
			c0.031-0.135,0.079-0.264,0.144-0.384C50.561,40.822,50.512,40.956,50.43,41.068 M50.528,40.33
			c-0.117-0.028-0.18-0.164-0.308-0.164c0.112-0.031,0.23-0.035,0.344-0.01C50.609,40.221,50.538,40.271,50.528,40.33
			 M50.635,40.603h-0.006v-0.101h0.006V40.603z M50.646,41.022l0.028-0.127l0.107,0.063C50.754,41.005,50.7,41.031,50.646,41.022
			 M50.782,40.457c0.024-0.119,0.071-0.233,0.137-0.337c0.083-0.008,0.167,0.004,0.244,0.036c0.018,0.182,0.247,0.428,0,0.584
			c-0.083,0.035-0.202,0.119-0.291,0.035C50.768,40.707,50.729,40.571,50.782,40.457 M51.442,40.198
			c-0.019-0.078,0.083-0.016,0.119-0.052l0.28,0.02C51.696,40.146,51.516,40.483,51.442,40.198 M51.896,40.318
			c-0.109,0.039-0.189,0.165-0.299,0.194C51.657,40.4,51.771,40.327,51.896,40.318 M51.516,40.912h-0.009v-0.026h0.009V40.912z
			 M51.534,41.441l-0.018,0.064l-0.208-0.164C51.396,41.324,51.487,41.365,51.534,41.441 M51.29,41.16L51.29,41.16z M51.163,41.022
			c0.037-0.056,0.08-0.137,0.145-0.137l0.018,0.026C51.279,40.961,51.224,40.998,51.163,41.022 M50.955,41.004h-0.036l0.053-0.055
			L50.955,41.004z M50.98,41.35c0.119-0.127,0.23,0.075,0.273,0.175c0.137,0.2,0.489,0.384,0.353,0.657
			c-0.171,0.154-0.443,0.008-0.634,0.125c-0.1-0.007-0.271,0.02-0.325-0.079C50.732,41.926,50.844,41.632,50.98,41.35
			 M50.728,41.524l0.045-0.074c-0.079,0.229-0.179,0.45-0.299,0.659C50.42,41.891,50.646,41.716,50.728,41.524 M51.126,42.611
			c-0.171,0.01-0.435,0.107-0.598-0.037c0.009-0.075-0.073-0.11-0.063-0.185c0.144-0.054,0.271,0.121,0.407-0.009
			c0.212-0.014,0.424-0.007,0.634,0.019c0.1,0.029,0.255-0.163,0.271,0.029C51.707,42.73,51.343,42.517,51.126,42.611
			 M51.651,41.269h0.017v0.028h-0.017V41.269z M51.707,41.872c0.009,0.091,0.098,0.126,0.045,0.209
			C51.708,42.02,51.692,41.944,51.707,41.872 M51.96,42.419l-0.047,0.017c-0.044-0.036-0.024-0.136-0.017-0.19
			C51.95,42.29,51.996,42.353,51.96,42.419 M52.412,42.637l-0.072,0.012c-0.235-0.34-0.427-0.708-0.57-1.096l0.036-0.011
			C52.022,41.897,52.193,42.29,52.412,42.637 M52.747,41.799l-0.019,0.037c-0.237-0.021-0.461-0.121-0.634-0.283l-0.008-0.047
			C52.325,41.555,52.55,41.654,52.747,41.799 M52.512,40.584c0.108,0.029,0.119,0.146,0.128,0.237
			c-0.022,0.298-0.282,0.52-0.579,0.497c-0.028-0.002-0.056-0.007-0.084-0.013c0.227,0.012,0.439-0.11,0.545-0.312L52.512,40.584z
			 M52.313,40.548c0.072,0.121,0.101,0.263,0.082,0.401c-0.091,0.174-0.273,0.174-0.435,0.211c-0.076,0.007-0.15-0.016-0.208-0.064
			l-0.036-0.092c0.026-0.118-0.21-0.237-0.048-0.338C51.815,40.528,52.158,40.221,52.313,40.548 M56.914,39.882
			c-0.072,0.091-0.009,0.238-0.099,0.316c0,0.168-0.136,0.25-0.253,0.314c-1.07,0.105-2.151,0-3.179-0.314
			c-1.527-0.351-3.112-0.374-4.649-0.069c-0.69,0.126-1.374,0.287-2.047,0.484c-0.418,0.087-0.851,0.082-1.268-0.011
			c-0.327-0.154-0.191-0.574-0.291-0.867c-0.011-0.21-0.034-0.421-0.071-0.629c-0.032-0.076-0.044-0.156-0.039-0.239
			c0.137,0.021,0.275,0.121,0.417,0.157c0.724,0.061,1.453-0.016,2.147-0.229c0.69-0.152,1.389-0.259,2.093-0.317
			c0.81-0.046,1.623-0.019,2.428,0.082c0.253,0.007,0.471,0.072,0.716,0.09c0.509,0.066,0.98,0.201,1.497,0.239
			c0.081,0.026,0.179,0.026,0.27,0.045c0.819,0.24,1.69,0.24,2.51,0C57.059,39.254,56.998,39.57,56.914,39.882 M56.663,38.768
			c0.006,0.147-0.129,0.11-0.201,0.166h-0.218c-0.03-0.083-0.04-0.17-0.026-0.256C56.369,38.689,56.519,38.721,56.663,38.768
			 M56.562,38.539c0.101-0.1-0.028-0.673,0.253-0.299c0,0.072,0.011,0.182-0.063,0.237C56.707,38.513,56.635,38.586,56.562,38.539
			 M57.296,38.449c-0.069,0.164-0.217,0.28-0.391,0.312c0.009-0.222,0.21-0.375,0.137-0.622c-0.137-0.169-0.361-0.241-0.57-0.183
			c-0.081,0.055-0.046,0.146-0.073,0.229l-0.036,0.301c-0.181,0-0.19-0.163-0.246-0.294c-0.002-0.198,0.107-0.381,0.282-0.473
			c0.169-0.072,0.361-0.065,0.525,0.018c0.124,0.016,0.233,0.087,0.3,0.191C57.359,38.056,57.322,38.287,57.296,38.449"/>
		<path d="M28.257,47.696h-1.293l-0.154,0.356c-0.044,0.091-0.069,0.191-0.076,0.293c-0.005,0.092,0.043,0.181,0.125,0.226
			c0.114,0.044,0.236,0.066,0.359,0.064v0.101H26v-0.101c0.123-0.015,0.237-0.072,0.324-0.161c0.131-0.168,0.236-0.354,0.315-0.553
			l1.306-2.921h0.052l1.318,3.003c0.072,0.195,0.178,0.376,0.311,0.535c0.073,0.061,0.164,0.096,0.258,0.097v0.101h-1.77v-0.101
			h0.073c0.104,0.009,0.207-0.012,0.299-0.058c0.042-0.028,0.065-0.076,0.062-0.126l-0.017-0.098
			c-0.003-0.018-0.031-0.084-0.081-0.204L28.257,47.696z M28.165,47.496l-0.546-1.262l-0.561,1.262H28.165z"/>
		<path d="M32.128,46.214v1.976c-0.012,0.123,0.005,0.247,0.053,0.361c0.059,0.056,0.137,0.087,0.218,0.088v0.098h-1.028V48.4
			c-0.1,0.126-0.223,0.232-0.36,0.315c-0.125,0.064-0.264,0.097-0.404,0.095c-0.137,0.003-0.272-0.042-0.38-0.128
			c-0.104-0.077-0.181-0.185-0.222-0.307c-0.046-0.201-0.064-0.406-0.056-0.612v-1.002c0.013-0.121-0.007-0.244-0.056-0.357
			c-0.058-0.058-0.136-0.091-0.218-0.091v-0.1h1.028v1.726c-0.005,0.116,0.003,0.231,0.024,0.347
			c0.014,0.046,0.043,0.089,0.082,0.118c0.038,0.027,0.083,0.041,0.129,0.041c0.062,0,0.123-0.018,0.175-0.05
			c0.101-0.08,0.188-0.176,0.257-0.283v-1.351c0.012-0.121-0.006-0.244-0.053-0.357c-0.058-0.058-0.136-0.091-0.218-0.091v-0.1
			H32.128z"/>
		<path d="M34.167,46.145l0.039,0.859h-0.092c-0.07-0.197-0.188-0.377-0.342-0.521c-0.096-0.088-0.22-0.138-0.351-0.145
			c-0.071-0.001-0.14,0.027-0.189,0.079c-0.092,0.077-0.104,0.215-0.025,0.307c0,0.001,0,0.001,0,0.001
			c0.145,0.146,0.307,0.274,0.483,0.382c0.2,0.119,0.377,0.272,0.521,0.456c0.084,0.123,0.128,0.269,0.126,0.418
			c-0.002,0.145-0.038,0.286-0.106,0.413c-0.064,0.131-0.168,0.239-0.296,0.309c-0.129,0.073-0.275,0.109-0.424,0.107
			c-0.167-0.01-0.33-0.047-0.483-0.111c-0.035-0.016-0.072-0.025-0.11-0.03c-0.058,0-0.108,0.044-0.148,0.135h-0.089l-0.043-0.905
			h0.093c0.06,0.204,0.173,0.389,0.33,0.533c0.109,0.104,0.251,0.168,0.402,0.178c0.078,0.004,0.154-0.023,0.21-0.078
			c0.054-0.05,0.084-0.121,0.083-0.194c0.001-0.081-0.027-0.161-0.08-0.222c-0.11-0.11-0.231-0.206-0.362-0.288
			c-0.195-0.123-0.375-0.271-0.534-0.437c-0.115-0.138-0.179-0.311-0.179-0.489c0.001-0.194,0.072-0.381,0.2-0.527
			c0.148-0.163,0.363-0.249,0.583-0.234c0.139,0,0.275,0.034,0.398,0.097l0.118,0.044l0.079-0.021
			c0.037-0.033,0.067-0.071,0.093-0.114H34.167z"/>
		<path d="M35.502,45.292v0.922h0.601v0.269h-0.601v1.555c-0.004,0.095,0.002,0.19,0.021,0.283l0.071,0.104l0.094,0.037
			c0.119,0,0.229-0.088,0.333-0.268l0.083,0.061c-0.098,0.31-0.387,0.519-0.712,0.516c-0.146,0.005-0.29-0.041-0.407-0.131
			c-0.1-0.075-0.173-0.18-0.209-0.299c-0.027-0.164-0.036-0.329-0.027-0.496v-1.361h-0.331v-0.096
			c0.211-0.146,0.404-0.314,0.577-0.506c0.163-0.179,0.303-0.377,0.419-0.589H35.502z"/>
		<path d="M37.332,46.214v0.572c0.113-0.199,0.264-0.375,0.442-0.52c0.105-0.078,0.233-0.122,0.364-0.127
			c0.089-0.004,0.176,0.03,0.239,0.095c0.065,0.069,0.099,0.163,0.093,0.26c0.006,0.101-0.026,0.201-0.089,0.279
			c-0.05,0.064-0.128,0.102-0.21,0.102c-0.091,0.002-0.18-0.031-0.25-0.092c-0.039-0.036-0.08-0.07-0.124-0.104l-0.062-0.015
			c-0.055,0.001-0.107,0.021-0.147,0.058c-0.08,0.07-0.138,0.162-0.169,0.264c-0.06,0.186-0.09,0.381-0.087,0.576v0.581l0.003,0.149
			c-0.006,0.067,0.001,0.135,0.021,0.198l0.092,0.106c0.069,0.026,0.143,0.041,0.217,0.041v0.098h-1.361v-0.098
			c0.083,0.003,0.162-0.029,0.219-0.088c0.054-0.129,0.075-0.269,0.061-0.407v-1.396c0.007-0.093-0.001-0.185-0.024-0.275
			c-0.013-0.045-0.04-0.083-0.077-0.111c-0.055-0.029-0.116-0.045-0.179-0.048v-0.1H37.332z"/>
		<path d="M39.855,48.362c-0.219,0.231-0.513,0.376-0.83,0.406c-0.268,0.011-0.492-0.198-0.501-0.466c0-0.008,0-0.016,0-0.025
			c0.003-0.201,0.094-0.391,0.249-0.521c0.331-0.252,0.695-0.459,1.083-0.614v-0.254c0.008-0.121-0.004-0.243-0.033-0.36
			c-0.025-0.054-0.066-0.1-0.118-0.13c-0.058-0.035-0.125-0.056-0.193-0.055c-0.103-0.005-0.203,0.022-0.29,0.078l-0.069,0.111
			c0.007,0.055,0.034,0.105,0.074,0.143c0.061,0.06,0.097,0.139,0.103,0.224c0.001,0.087-0.035,0.169-0.099,0.227
			c-0.07,0.062-0.163,0.095-0.257,0.091c-0.105,0.003-0.207-0.033-0.285-0.103c-0.073-0.059-0.115-0.146-0.114-0.239
			c0.002-0.138,0.057-0.271,0.153-0.369c0.115-0.129,0.263-0.223,0.428-0.272c0.185-0.063,0.377-0.095,0.571-0.095
			c0.201-0.01,0.4,0.043,0.568,0.154c0.122,0.078,0.217,0.192,0.271,0.328c0.035,0.171,0.048,0.347,0.038,0.522v0.976
			c-0.003,0.074,0.001,0.147,0.013,0.221l0.04,0.064l0.064,0.022c0.061-0.009,0.114-0.047,0.143-0.101l0.081,0.065
			c-0.073,0.115-0.168,0.215-0.281,0.291c-0.099,0.061-0.212,0.09-0.327,0.086c-0.121,0.01-0.24-0.025-0.337-0.097
			C39.915,48.592,39.862,48.481,39.855,48.362 M39.855,48.168v-0.846c-0.189,0.101-0.354,0.242-0.487,0.41
			c-0.066,0.085-0.104,0.188-0.106,0.296c0,0.081,0.033,0.159,0.091,0.217c0.049,0.052,0.118,0.078,0.189,0.072
			C39.661,48.306,39.771,48.253,39.855,48.168"/>
		<path d="M42.046,45.078v3.136c-0.013,0.118,0.008,0.234,0.061,0.341c0.067,0.06,0.155,0.09,0.245,0.084v0.098h-1.364v-0.098
			c0.093,0.006,0.184-0.03,0.249-0.098c0.05-0.102,0.068-0.216,0.055-0.327v-2.613c0.013-0.115-0.009-0.232-0.063-0.337
			c-0.064-0.061-0.151-0.092-0.24-0.084v-0.102H42.046z"/>
		<path d="M43.202,44.993c0.111-0.003,0.218,0.042,0.296,0.122c0.079,0.077,0.124,0.184,0.122,0.295
			c0.002,0.11-0.043,0.217-0.125,0.293c-0.163,0.162-0.426,0.16-0.588-0.002c-0.162-0.163-0.161-0.426,0.002-0.588
			C42.986,45.036,43.092,44.993,43.202,44.993 M43.578,46.214v1.998c-0.014,0.118,0.009,0.237,0.063,0.343
			c0.066,0.06,0.154,0.09,0.242,0.084v0.098h-1.361v-0.098c0.092,0.006,0.182-0.03,0.246-0.097c0.05-0.103,0.069-0.217,0.055-0.33
			V46.74c0.013-0.117-0.009-0.236-0.062-0.341c-0.065-0.059-0.151-0.091-0.239-0.086v-0.1H43.578z"/>
		<path d="M45.357,48.362c-0.218,0.231-0.513,0.376-0.829,0.406c-0.133,0.006-0.263-0.045-0.358-0.137
			c-0.095-0.094-0.146-0.222-0.143-0.354c0.003-0.201,0.094-0.392,0.25-0.52c0.331-0.253,0.694-0.46,1.081-0.614v-0.255
			c0.007-0.121-0.003-0.243-0.032-0.36c-0.025-0.054-0.065-0.1-0.117-0.13c-0.058-0.036-0.126-0.057-0.194-0.055
			c-0.102-0.005-0.203,0.022-0.289,0.078l-0.07,0.111c0.008,0.055,0.035,0.105,0.075,0.143c0.061,0.06,0.098,0.139,0.104,0.224
			c0,0.087-0.037,0.169-0.101,0.227c-0.071,0.063-0.164,0.095-0.258,0.091c-0.104,0.003-0.206-0.034-0.285-0.103
			c-0.071-0.06-0.112-0.146-0.113-0.239c0.003-0.138,0.058-0.271,0.154-0.369c0.116-0.129,0.265-0.223,0.429-0.272
			c0.184-0.063,0.377-0.095,0.572-0.095c0.2-0.01,0.399,0.043,0.567,0.154c0.122,0.078,0.217,0.192,0.271,0.328
			c0.035,0.171,0.047,0.348,0.038,0.522v0.976c-0.002,0.074,0.002,0.147,0.013,0.221l0.042,0.064l0.062,0.022
			c0.046,0,0.093-0.033,0.142-0.1l0.081,0.064c-0.072,0.115-0.167,0.215-0.279,0.291c-0.098,0.061-0.211,0.09-0.326,0.086
			c-0.121,0.01-0.241-0.025-0.339-0.097C45.417,48.592,45.364,48.48,45.357,48.362 M45.357,48.168v-0.846
			c-0.188,0.102-0.354,0.242-0.485,0.41c-0.066,0.085-0.104,0.188-0.106,0.296c0,0.08,0.032,0.159,0.089,0.217
			c0.049,0.051,0.118,0.077,0.188,0.072C45.161,48.306,45.272,48.253,45.357,48.168"/>
		<path d="M47.537,46.214v0.326c0.105-0.122,0.232-0.226,0.372-0.304c0.118-0.064,0.25-0.098,0.384-0.097
			c0.147-0.005,0.292,0.043,0.406,0.136c0.106,0.087,0.182,0.205,0.215,0.337c0.038,0.194,0.053,0.394,0.044,0.592v0.983
			c-0.011,0.123,0.006,0.247,0.049,0.363c0.062,0.056,0.141,0.087,0.224,0.088v0.098h-1.275v-0.098
			c0.082-0.006,0.157-0.05,0.204-0.118c0.038-0.106,0.053-0.22,0.043-0.333v-1.124c0.006-0.13-0.001-0.262-0.023-0.391
			c-0.014-0.049-0.043-0.093-0.084-0.125l-0.127-0.045c-0.153,0-0.299,0.109-0.431,0.331v1.354
			c-0.013,0.121,0.005,0.245,0.051,0.357c0.05,0.059,0.122,0.091,0.197,0.094v0.098h-1.276v-0.098
			c0.086-0.001,0.168-0.038,0.226-0.103c0.043-0.111,0.059-0.231,0.046-0.349v-1.426c0.012-0.121-0.006-0.244-0.054-0.357
			c-0.058-0.058-0.136-0.091-0.218-0.091v-0.1H47.537z"/>
		<path d="M54.199,44.993v1.29h-0.098c-0.095-0.316-0.285-0.596-0.544-0.802c-0.224-0.179-0.503-0.276-0.79-0.277
			c-0.249-0.009-0.492,0.074-0.683,0.233c-0.192,0.168-0.326,0.393-0.385,0.641c-0.076,0.277-0.114,0.562-0.114,0.849
			c-0.006,0.312,0.036,0.623,0.123,0.922c0.062,0.235,0.203,0.44,0.4,0.583c0.196,0.127,0.425,0.192,0.659,0.188
			c0.091,0,0.182-0.01,0.271-0.026c0.096-0.023,0.191-0.051,0.284-0.084v-0.764c0.005-0.093-0.003-0.186-0.027-0.275
			c-0.028-0.052-0.073-0.092-0.126-0.117c-0.068-0.036-0.145-0.054-0.222-0.05H52.85v-0.1h1.78v0.1
			c-0.097-0.001-0.194,0.018-0.284,0.056c-0.056,0.03-0.099,0.079-0.121,0.139c-0.023,0.081-0.032,0.165-0.025,0.248v0.764
			c-0.235,0.104-0.479,0.183-0.73,0.234c-0.258,0.053-0.52,0.08-0.783,0.08c-0.296,0.01-0.591-0.038-0.869-0.141
			c-0.221-0.091-0.426-0.217-0.607-0.372c-0.168-0.146-0.307-0.323-0.411-0.52c-0.128-0.26-0.193-0.546-0.188-0.836
			c-0.01-0.524,0.2-1.03,0.58-1.395c0.389-0.381,0.917-0.587,1.461-0.567c0.164-0.003,0.327,0.012,0.488,0.043
			c0.132,0.029,0.26,0.071,0.384,0.122c0.101,0.045,0.207,0.079,0.314,0.102c0.052-0.001,0.102-0.021,0.141-0.056
			c0.055-0.06,0.097-0.132,0.12-0.211H54.199z"/>
		<path d="M55.95,46.139c0.217-0.002,0.43,0.058,0.614,0.171c0.188,0.112,0.339,0.28,0.428,0.48c0.101,0.216,0.151,0.45,0.149,0.688
			c0.011,0.32-0.085,0.638-0.272,0.899c-0.213,0.285-0.553,0.447-0.909,0.435c-0.34,0.019-0.667-0.13-0.877-0.397
			c-0.414-0.556-0.412-1.317,0.006-1.87C55.293,46.276,55.614,46.125,55.95,46.139 M55.963,46.33
			c-0.091-0.001-0.177,0.036-0.237,0.105c-0.085,0.119-0.131,0.264-0.131,0.41c-0.021,0.201-0.031,0.487-0.031,0.851
			c0,0.181,0.012,0.36,0.038,0.538c0.01,0.108,0.055,0.21,0.128,0.289c0.055,0.065,0.135,0.102,0.22,0.103
			c0.074,0.004,0.147-0.021,0.204-0.068c0.072-0.067,0.122-0.157,0.138-0.255c0.048-0.343,0.066-0.689,0.056-1.035
			c0.009-0.211-0.008-0.424-0.051-0.63c-0.023-0.098-0.077-0.185-0.152-0.251C56.094,46.348,56.029,46.327,55.963,46.33"/>
		<path d="M58.333,48.812l-0.851-1.956c-0.059-0.158-0.14-0.31-0.241-0.446c-0.048-0.052-0.112-0.086-0.182-0.097v-0.099H58.4v0.099
			c-0.062-0.007-0.124,0.01-0.173,0.047c-0.042,0.035-0.065,0.087-0.065,0.141c0.019,0.131,0.059,0.257,0.119,0.375l0.415,0.947
			l0.332-0.819c0.074-0.155,0.123-0.322,0.143-0.492c0.003-0.055-0.02-0.104-0.062-0.138c-0.062-0.042-0.137-0.064-0.212-0.061
			v-0.099h0.825v0.099c-0.072,0.01-0.14,0.04-0.193,0.089c-0.097,0.132-0.174,0.278-0.228,0.432l-0.841,1.979H58.333z"/>
		<path d="M61.707,47.386h-1.384c0,0.286,0.093,0.564,0.266,0.792c0.106,0.14,0.272,0.224,0.448,0.225
			c0.105,0.002,0.208-0.029,0.295-0.089c0.114-0.091,0.21-0.202,0.284-0.328l0.091,0.061c-0.101,0.231-0.257,0.436-0.454,0.594
			c-0.169,0.116-0.37,0.176-0.576,0.172c-0.34,0.019-0.664-0.146-0.849-0.433c-0.162-0.258-0.243-0.558-0.232-0.862
			c-0.02-0.366,0.102-0.725,0.341-1.002c0.198-0.237,0.491-0.374,0.799-0.375c0.258,0,0.502,0.116,0.666,0.315
			C61.609,46.72,61.717,47.05,61.707,47.386 M61.043,47.204c0.009-0.2-0.007-0.399-0.049-0.594
			c-0.023-0.096-0.074-0.183-0.147-0.247c-0.042-0.035-0.096-0.053-0.15-0.05c-0.096,0.001-0.183,0.053-0.229,0.138
			c-0.116,0.199-0.171,0.428-0.159,0.657v0.096H61.043z"/>
		<path d="M62.902,46.214v0.572c0.113-0.199,0.262-0.375,0.441-0.52c0.105-0.078,0.232-0.122,0.363-0.127
			c0.09-0.005,0.177,0.029,0.239,0.095c0.066,0.069,0.099,0.163,0.092,0.26c0.007,0.101-0.025,0.201-0.088,0.279
			c-0.051,0.064-0.128,0.102-0.21,0.102c-0.092,0.002-0.181-0.031-0.25-0.092c-0.07-0.061-0.112-0.097-0.125-0.104l-0.061-0.015
			c-0.055,0.001-0.108,0.021-0.15,0.058c-0.079,0.07-0.137,0.161-0.167,0.264c-0.059,0.186-0.088,0.381-0.086,0.576v0.581
			l0.002,0.149c-0.004,0.067,0.002,0.135,0.02,0.198l0.094,0.106c0.069,0.026,0.143,0.041,0.217,0.041v0.098h-1.362v-0.098
			c0.083,0.003,0.163-0.029,0.221-0.088c0.054-0.129,0.074-0.269,0.059-0.407v-1.396c0.005-0.093-0.002-0.185-0.022-0.275
			c-0.014-0.044-0.04-0.082-0.076-0.111c-0.056-0.029-0.119-0.045-0.181-0.048v-0.1H62.902z"/>
		<path d="M65.229,46.214v0.326c0.105-0.122,0.231-0.226,0.371-0.304c0.118-0.064,0.25-0.098,0.384-0.097
			c0.148-0.005,0.292,0.043,0.407,0.136c0.105,0.088,0.182,0.205,0.217,0.337c0.036,0.194,0.051,0.394,0.043,0.592v0.983
			c-0.013,0.123,0.004,0.247,0.049,0.363c0.061,0.056,0.14,0.087,0.222,0.088v0.098h-1.277v-0.098
			c0.083-0.005,0.159-0.049,0.206-0.118c0.039-0.106,0.054-0.22,0.045-0.333v-1.124c0.006-0.13-0.002-0.262-0.026-0.391
			c-0.013-0.05-0.043-0.093-0.084-0.125l-0.126-0.045c-0.153,0-0.298,0.109-0.43,0.331v1.354c-0.012,0.121,0.005,0.244,0.05,0.357
			c0.051,0.058,0.122,0.091,0.197,0.094v0.098h-1.275v-0.098c0.086-0.001,0.167-0.038,0.226-0.103
			c0.043-0.111,0.058-0.231,0.045-0.349v-1.426c0.013-0.121-0.005-0.244-0.053-0.357c-0.058-0.058-0.137-0.09-0.218-0.091v-0.1
			H65.229z"/>
		<path d="M68.154,46.214v0.332c0.106-0.128,0.236-0.235,0.382-0.315c0.12-0.062,0.253-0.093,0.388-0.091
			c0.144-0.005,0.287,0.034,0.408,0.111c0.118,0.087,0.206,0.207,0.254,0.347c0.117-0.141,0.256-0.259,0.414-0.35
			c0.127-0.071,0.27-0.109,0.416-0.108c0.148-0.008,0.294,0.034,0.415,0.12c0.102,0.077,0.178,0.184,0.217,0.306
			c0.049,0.191,0.069,0.39,0.062,0.588v1.034c-0.013,0.122,0.004,0.245,0.05,0.359c0.059,0.06,0.138,0.092,0.221,0.092v0.098h-1.303
			v-0.098c0.091-0.001,0.175-0.046,0.229-0.118c0.041-0.106,0.056-0.22,0.047-0.333v-1.085c0.007-0.144-0.002-0.288-0.028-0.43
			c-0.012-0.053-0.043-0.101-0.086-0.134c-0.037-0.031-0.084-0.049-0.134-0.049c-0.086,0.004-0.168,0.035-0.235,0.09
			c-0.094,0.069-0.176,0.155-0.241,0.253v1.354c-0.012,0.116,0.005,0.233,0.047,0.342c0.056,0.074,0.144,0.115,0.236,0.109v0.098
			h-1.306v-0.098c0.059,0.002,0.116-0.017,0.164-0.05l0.082-0.114c0.02-0.095,0.027-0.191,0.023-0.287v-1.085
			c0.007-0.144-0.003-0.288-0.03-0.43c-0.014-0.054-0.045-0.101-0.09-0.134l-0.134-0.051c-0.07,0-0.139,0.021-0.198,0.058
			c-0.107,0.079-0.198,0.175-0.268,0.287v1.354c-0.011,0.119,0.006,0.24,0.049,0.352c0.055,0.065,0.137,0.102,0.222,0.1v0.098h-1.3
			v-0.098c0.086-0.001,0.168-0.038,0.226-0.103c0.042-0.111,0.058-0.231,0.046-0.349v-1.426c0.012-0.121-0.007-0.244-0.054-0.357
			c-0.058-0.057-0.136-0.09-0.218-0.091v-0.1H68.154z"/>
		<path d="M73.624,47.386H72.24c0,0.286,0.094,0.565,0.268,0.792c0.106,0.142,0.272,0.225,0.448,0.225
			c0.105,0.002,0.207-0.029,0.293-0.089c0.115-0.091,0.211-0.202,0.284-0.328l0.091,0.061c-0.1,0.232-0.256,0.437-0.453,0.594
			c-0.169,0.116-0.37,0.177-0.575,0.172c-0.341,0.019-0.665-0.146-0.851-0.433c-0.162-0.258-0.242-0.558-0.23-0.862
			c-0.02-0.366,0.103-0.725,0.34-1.002c0.199-0.237,0.492-0.375,0.802-0.375c0.256,0,0.5,0.116,0.662,0.315
			C73.528,46.72,73.636,47.049,73.624,47.386 M72.959,47.204c0.009-0.2-0.006-0.399-0.046-0.594
			c-0.023-0.096-0.074-0.183-0.146-0.247c-0.043-0.035-0.096-0.053-0.151-0.05c-0.095,0.001-0.183,0.053-0.229,0.138
			c-0.116,0.198-0.171,0.428-0.159,0.657v0.096H72.959z"/>
		<path d="M74.749,46.214v0.326c0.106-0.121,0.232-0.225,0.372-0.304c0.118-0.064,0.25-0.098,0.384-0.097
			c0.147-0.005,0.293,0.043,0.409,0.136c0.104,0.088,0.18,0.206,0.216,0.337c0.035,0.195,0.049,0.394,0.042,0.592v0.983
			c-0.011,0.123,0.006,0.247,0.05,0.363c0.061,0.056,0.141,0.088,0.224,0.088v0.098h-1.278v-0.098
			c0.083-0.005,0.159-0.049,0.207-0.118c0.038-0.106,0.053-0.22,0.043-0.333v-1.124c0.006-0.13-0.003-0.262-0.026-0.391
			c-0.013-0.049-0.042-0.093-0.082-0.125l-0.128-0.045c-0.153,0-0.298,0.109-0.432,0.331v1.354
			c-0.012,0.122,0.006,0.245,0.052,0.357c0.049,0.059,0.12,0.091,0.196,0.094v0.098h-1.275v-0.098
			c0.086-0.001,0.168-0.038,0.227-0.103c0.043-0.111,0.06-0.231,0.047-0.349v-1.426c0.013-0.121-0.007-0.244-0.055-0.357
			c-0.058-0.058-0.136-0.091-0.218-0.091v-0.1H74.749z"/>
		<path d="M77.517,45.292v0.922h0.6v0.269h-0.6v1.555c-0.004,0.095,0.002,0.19,0.02,0.283l0.072,0.104l0.095,0.037
			c0.117,0,0.229-0.088,0.333-0.268l0.081,0.061c-0.097,0.309-0.384,0.518-0.708,0.516c-0.146,0.006-0.291-0.041-0.409-0.131
			c-0.1-0.075-0.173-0.18-0.211-0.299c-0.026-0.164-0.035-0.329-0.027-0.496v-1.361h-0.33v-0.096
			c0.211-0.146,0.404-0.315,0.578-0.506c0.162-0.179,0.302-0.377,0.418-0.589H77.517z"/>
	</g>
</g>
</svg>
