<svg enable-background="new 39.5 370.5 1133 284" height="158.323075" viewBox="39.5 370.5 1133 284" width="631.619871" xmlns="http://www.w3.org/2000/svg"><path d="m132.586 563.704h6.378c2.743.18 5.461-.612 7.677-2.238 1.793-1.493 2.69-4.046 2.69-7.658.225-2.726-.767-5.412-2.709-7.338-2.038-1.66-4.619-2.505-7.244-2.37h-13.17v30.631h6.378v-11.007zm0-14.299h5.645c1.22-.076 2.427.284 3.406 1.016.896.896 1.345 2.145 1.223 3.405.114 1.288-.332 2.563-1.223 3.5-.954.787-2.171 1.184-3.406 1.11h-5.645v-9.013z" fill="#2e3191"/><path d="m222.541 549.856h9.2v25.194h6.453v-25.194h9.163v-5.418h-24.816z" fill="#2e3191"/><path d="m230.819 463.063h14.788v-5.287h-14.788v-6.454h16.124v-5.399h-22.333v30.442h23.067v-5.474h-16.858z" fill="#2e3191"/><path d="m137.29 476.497c3.169.121 6.261-.999 8.617-3.123 2.265-2.133 3.738-4.973 4.177-8.053h-6.322c-.281 1.274-.818 2.478-1.581 3.537-1.229 1.46-3.083 2.243-4.986 2.107-2.063.032-4.019-.917-5.268-2.56-1.542-2.249-2.272-4.956-2.07-7.676-.191-2.771.465-5.533 1.881-7.921 1.181-1.802 3.21-2.862 5.362-2.804 1.894-.14 3.748.587 5.042 1.976.75.979 1.283 2.109 1.562 3.312h6.359c-.157-2.039-.881-3.994-2.089-5.645-2.295-3.35-5.977-5.023-11.044-5.023-3.526-.126-6.941 1.24-9.408 3.763-3 3.363-4.525 7.789-4.233 12.286-.232 4.203 1.109 8.342 3.763 11.608 2.61 2.87 6.367 4.417 10.238 4.216z" fill="#2e3191"/><path d="m280.491 510.477-.471-1.562h38.985c-8.956-7.525-18.966-25.023-25.081-36.67-10.518-20.038-13.697-33.867-32.136-49.483-14.281-12.117-38.91-20.038-76.257-7.395v-39.699c-7.526 8.956-25.024 18.965-36.67 25.08-20.038 10.518-33.867 13.772-49.521 32.136-12.08 14.243-19.925 39.041-7.413 76.22h-39.511c8.956 7.526 18.966 25.023 25.081 36.67 10.518 20.038 13.697 33.867 32.136 49.483 14.356 12.174 39.154 20.132 76.84 7.206v39.869c7.526-8.956 25.024-18.965 36.67-25.08 20.038-10.518 33.867-13.697 49.502-32.117 11.91-14.036 19.681-38.345 7.921-74.658zm-94.978-86.85c11.539-5.019 23.94-7.753 36.52-8.053 12.437 0 23.65 5.25 30.725 9.521 25.4 15.315 25.607 43.161 44.629 72.983h-26.529c3.18-8.029 4.783-16.596 4.722-25.231 0-31.157-27.263-54.243-56.106-54.243-12.114-.076-23.97 3.504-34.018 10.273v-5.25zm78.251 37.291c0 15.955-12.493 27.809-29.05 27.809-15.259 0-28.75-11.854-28.75-27.809 0-15.353 13.302-27.582 28.75-27.582 15.861 0 29.05 12.229 29.05 27.582zm-79.719 11.741 6.153 5.061-5.532-38.25c8.354-8.204 19.718-11.289 36.595-12.7-14.006 5.754-23.276 19.255-23.613 34.394.166 20.359 16.8 36.732 37.159 36.576 11.131.031 21.694-4.909 28.806-13.472-1.354 6.359-2.69 15.616-7.958 22.691h-26.492l4.911-7.282-20.584 2.992h-.263c-2.963-12.845-14.382-21.956-27.564-21.995-.564 0-1.091 0-1.656 0zm-4.779 8.429v.301c-12.866 2.959-21.991 14.4-22.014 27.602v1.6h-7.902l5.062-6.152-38.759 5.117c-7.884-8.315-10.819-19.567-12.268-36.162 5.751 14 19.244 23.269 34.375 23.613 20.36-.166 36.733-16.8 36.576-37.16.017-11.14-4.944-21.705-13.528-28.806 6.359 1.354 16.105 3.537 22.691 8.938v25.494l-7.282-4.911zm-69.258-21.148c-.344-15.386 11.849-28.138 27.234-28.481.085-.002.169-.004.254-.005 15.955 0 27.808 11.91 27.808 28.467 0 15.259-11.853 28.75-27.808 28.75-15.352.018-27.488-13.284-27.488-28.731zm-8.241-18.062c15.315-25.4 43.162-25.607 72.983-44.61v26.529c-8.055-3.211-16.654-4.834-25.325-4.779-31.158 0-54.244 27.244-54.244 56.106-.074 12.1 3.499 23.94 10.254 33.979h-5.23c-4.973-11.54-7.706-23.921-8.053-36.482 0-12.437 5.268-23.65 9.521-30.725zm84.668 152.25c-11.706 5.166-24.312 7.984-37.103 8.298-12.437 0-23.65-5.25-30.725-9.521-25.4-15.315-25.607-43.161-44.629-72.983h26.529c-3.211 8.055-4.834 16.654-4.779 25.325 0 31.157 27.263 54.243 56.106 54.243 12.35.049 24.417-3.702 34.563-10.743v5.4zm-78.854-37.027c0-15.955 12.493-27.809 29.05-27.809 15.259 0 28.75 11.854 28.75 27.809 0 15.353-13.302 27.583-28.75 27.583-15.88 0-29.05-12.231-29.05-27.583zm80.283-11.76-6.152-5.061 5.268 37.931c-8.373 8.41-19.812 11.496-36.896 12.982 14.006-5.754 23.275-19.256 23.613-34.394-.155-20.356-16.783-36.732-37.138-36.577-.007 0-.014 0-.021 0-11.13-.03-21.694 4.909-28.806 13.472 1.11-5.212 7.188-21.637 8.448-22.69h26.002l-4.911 7.281 20.527-3.104h.282c2.938 12.895 14.395 22.05 27.62 22.07.753 0 1.486 0 2.22-.113zm-2.201-14.676c-11.96 0-21.656-9.695-21.656-21.655 0-11.961 9.696-21.656 21.656-21.656s21.656 9.695 21.656 21.656c-.021 11.948-9.708 21.627-21.656 21.637zm2.785 21.863 7.281 4.911-3.085-20.621-.113-.452c12.598-3.154 21.443-14.464 21.468-27.451 0-.526 0-1.054 0-1.58h8.072l-5.062 6.152 39.511-5.042c7.79 8.297 10.725 19.529 12.155 36.049-5.808-13.985-19.347-23.203-34.488-23.48-20.36.165-36.733 16.8-36.576 37.159-.031 11.131 4.909 21.694 13.471 28.806-6.359-1.354-15.691-3.142-22.691-9.275zm73.548 5.532c0 15.88-12.23 29.051-27.583 29.051-15.955 0-27.809-12.493-27.809-29.051 0-15.296 12.4-27.695 27.696-27.695s27.696 12.399 27.696 27.695zm8.24 18.062c-15.315 25.4-43.162 25.607-72.983 44.61v-26.529c8.031 3.173 16.597 4.771 25.231 4.704 31.158 0 54.244-27.244 54.244-56.106.051-12.061-3.521-23.859-10.254-33.866h5.212l1.148 2.859c4.266 10.705 6.597 22.083 6.886 33.604.038 12.418-5.231 23.632-9.483 30.706v.018z" fill="#0f1670"/><path d="m199.887 514.917c3.273-.261 5.715-3.126 5.454-6.399-.232-2.91-2.543-5.222-5.454-5.454.881-1.057 1.366-2.387 1.374-3.763 0-3.305-2.679-5.983-5.983-5.983-1.369-.009-2.698.457-3.763 1.317-.32-3.268-3.228-5.658-6.496-5.339-2.826.276-5.062 2.513-5.338 5.339-1.065-.86-2.395-1.326-3.763-1.317-3.304 0-5.983 2.679-5.983 5.983.007 1.376.493 2.706 1.374 3.763-3.273.262-5.715 3.126-5.454 6.399.232 2.911 2.543 5.223 5.454 5.454-.88 1.058-1.366 2.388-1.374 3.764 0 3.304 2.679 5.982 5.983 5.982 1.369.009 2.698-.456 3.763-1.316.319 3.268 3.228 5.658 6.496 5.339 2.826-.276 5.062-2.513 5.339-5.339 1.064.86 2.394 1.325 3.763 1.316 3.305 0 5.983-2.679 5.983-5.982-.009-1.376-.494-2.706-1.375-3.764zm-14.224-23.65c2.244.053 4.021 1.915 3.968 4.158-.053 2.244-1.914 4.021-4.158 3.968-2.17-.051-3.917-1.798-3.968-3.968-.042-2.254 1.752-4.116 4.006-4.158.051-.001.101-.001.152 0zm-13.66 21.806c-2.245-.01-4.056-1.838-4.045-4.083.01-2.244 1.838-4.055 4.083-4.045 2.237.011 4.045 1.827 4.045 4.064-.01 2.248-1.835 4.064-4.083 4.064zm13.66 13.66c-2.245-.011-4.056-1.839-4.045-4.083.01-2.244 1.838-4.056 4.083-4.045 2.237.01 4.045 1.826 4.045 4.063-.011 2.249-1.835 4.065-4.083 4.065zm9.05-13.961c-2.792.265-5.019 2.445-5.343 5.23-2.156-1.765-5.257-1.765-7.413 0-.325-2.785-2.552-4.966-5.343-5.23 1.827-2.176 1.827-5.351 0-7.526 2.792-.265 5.019-2.444 5.343-5.23 2.156 1.766 5.257 1.766 7.413 0 .33 2.766 2.535 4.932 5.306 5.212-1.837 2.18-1.837 5.365 0 7.545h.037zm4.61.301c-2.245-.01-4.056-1.838-4.045-4.083.01-2.244 1.838-4.055 4.083-4.045 2.237.011 4.045 1.827 4.045 4.064-.01 2.248-1.836 4.064-4.083 4.064z" fill="#2e3191"/><g fill="#0f1670"><path d="m368.943 545.7v-1.855h10.293v1.855z"/><path d="m399.864 547.373h-2.597v4.102h-1.903v-4.102h-8.51v-1.771l8.306-12.073h2.106v12h2.597v1.844zm-4.5-1.844v-5.933c0-1.164.04-2.479.12-3.943h-.096c-.383.781-.742 1.429-1.077 1.941l-5.47 7.935z"/><path d="m401.633 543.845c0-3.508.668-6.13 2.004-7.867 1.336-1.738 3.313-2.606 5.931-2.606.901 0 1.611.077 2.13.231v1.746c-.615-.203-1.316-.306-2.106-.306-1.875 0-3.308.597-4.297 1.789s-1.532 3.065-1.627 5.621h.144c.877-1.399 2.266-2.1 4.165-2.1 1.572 0 2.811.484 3.716 1.453.905.968 1.358 2.282 1.358 3.942 0 1.855-.497 3.314-1.49 4.377-.993 1.062-2.336 1.593-4.027 1.593-1.812 0-3.248-.693-4.309-2.081-1.062-1.387-1.592-3.318-1.592-5.792zm5.876 6.152c1.133 0 2.013-.363 2.639-1.092s.939-1.78.939-3.156c0-1.18-.292-2.107-.874-2.783s-1.452-1.013-2.609-1.013c-.718 0-1.376.15-1.975.451-.599.302-1.076.717-1.43 1.245-.355.529-.533 1.078-.533 1.648 0 .838.159 1.619.479 2.344s.772 1.298 1.358 1.721c.588.424 1.256.635 2.006.635z"/><path d="m432.53 551.475h-9.754v-17.848h9.754v1.844h-7.72v5.75h7.253v1.831h-7.253v6.567h7.72z"/><path d="m437.853 538.095v8.68c0 1.091.243 1.904.73 2.441.486.537 1.249.806 2.286.806 1.372 0 2.375-.382 3.01-1.147.634-.765.952-2.014.952-3.747v-7.032h1.987v13.38h-1.64l-.288-1.795h-.107c-.407.659-.972 1.164-1.694 1.514-.722.351-1.546.525-2.471.525-1.596 0-2.791-.387-3.584-1.16-.794-.772-1.191-2.01-1.191-3.711v-8.753h2.01z"/><path d="m456.892 537.851c.582 0 1.105.049 1.568.146l-.275 1.88c-.543-.122-1.021-.183-1.436-.183-1.062 0-1.969.439-2.723 1.318s-1.131 1.974-1.131 3.284v7.178h-1.987v-13.38h1.64l.228 2.479h.096c.486-.871 1.073-1.542 1.759-2.015.684-.471 1.438-.707 2.261-.707z"/><path d="m472.112 544.772c0 2.182-.539 3.885-1.616 5.109s-2.565 1.837-4.464 1.837c-1.173 0-2.214-.281-3.124-.843-.909-.562-1.611-1.367-2.106-2.417s-.742-2.278-.742-3.687c0-2.181.534-3.88 1.604-5.097s2.553-1.825 4.453-1.825c1.835 0 3.293.623 4.374 1.868s1.621 2.931 1.621 5.055zm-9.993 0c0 1.709.335 3.012 1.005 3.906.67.896 1.655 1.343 2.956 1.343 1.3 0 2.288-.445 2.962-1.336.674-.892 1.011-2.195 1.011-3.913 0-1.7-.337-2.992-1.011-3.876-.675-.883-1.67-1.324-2.986-1.324-1.301 0-2.282.436-2.944 1.307-.662.87-.993 2.169-.993 3.893z"/><path d="m481.577 551.719c-.854 0-1.634-.161-2.34-.482s-1.299-.815-1.777-1.483h-.144c.096.781.144 1.522.144 2.223v5.505h-1.987v-19.386h1.616l.275 1.831h.096c.51-.732 1.105-1.261 1.783-1.587.678-.325 1.456-.488 2.334-.488 1.739 0 3.082.606 4.027 1.819s1.418 2.914 1.418 5.103c0 2.197-.48 3.904-1.442 5.121-.962 1.215-2.296 1.824-4.003 1.824zm-.288-12.147c-1.34 0-2.31.378-2.908 1.136-.598.757-.906 1.961-.921 3.613v.451c0 1.88.307 3.225.921 4.035s1.6 1.214 2.957 1.214c1.133 0 2.021-.468 2.663-1.403s.963-2.226.963-3.87c0-1.668-.321-2.948-.963-3.839-.643-.891-1.547-1.337-2.712-1.337z"/><path d="m495.912 551.719c-1.939 0-3.469-.603-4.59-1.807s-1.682-2.877-1.682-5.018c0-2.156.521-3.869 1.562-5.14 1.041-1.27 2.439-1.904 4.195-1.904 1.644 0 2.944.552 3.901 1.654.958 1.104 1.437 2.558 1.437 4.364v1.282h-9.036c.04 1.57.429 2.763 1.167 3.576.738.814 1.777 1.221 3.118 1.221 1.412 0 2.809-.301 4.189-.903v1.807c-.702.31-1.367.531-1.993.666-.626.134-1.382.202-2.268.202zm-.538-12.171c-1.053 0-1.893.35-2.52 1.05s-.996 1.668-1.107 2.905h6.858c0-1.277-.279-2.256-.838-2.936s-1.356-1.019-2.393-1.019z"/><path d="m512.067 551.475-.395-1.904h-.096c-.654.838-1.307 1.406-1.957 1.703s-1.462.445-2.436.445c-1.301 0-2.32-.342-3.058-1.025-.738-.684-1.107-1.656-1.107-2.918 0-2.701 2.119-4.117 6.355-4.248l2.226-.073v-.83c0-1.05-.222-1.825-.665-2.325-.443-.501-1.151-.751-2.124-.751-1.093 0-2.33.342-3.71 1.025l-.61-1.551c.646-.357 1.354-.639 2.125-.842.77-.203 1.542-.306 2.316-.306 1.563 0 2.723.354 3.477 1.062s1.131 1.844 1.131 3.406v9.131h-1.472zm-4.488-1.429c1.237 0 2.208-.346 2.914-1.037.707-.691 1.06-1.66 1.06-2.905v-1.209l-1.987.086c-1.58.057-2.719.307-3.417.75-.698.444-1.047 1.134-1.047 2.069 0 .732.217 1.29.652 1.673.434.382 1.042.573 1.825.573z"/><path d="m526.485 551.475v-8.655c0-1.091-.243-1.904-.73-2.441s-1.249-.806-2.286-.806c-1.373 0-2.378.378-3.016 1.136-.639.757-.958 2.006-.958 3.747v7.02h-1.987v-13.38h1.616l.323 1.831h.096c.407-.659.977-1.169 1.711-1.531s1.552-.544 2.454-.544c1.58 0 2.769.389 3.566 1.166s1.197 2.021 1.197 3.729v8.729h-1.986z"/><path d="m543.918 551.719c-1.899 0-3.369-.596-4.41-1.788-1.042-1.192-1.562-2.879-1.562-5.061 0-2.237.528-3.967 1.586-5.188 1.057-1.221 2.563-1.831 4.518-1.831.63 0 1.26.069 1.891.208s1.125.301 1.484.488l-.61 1.721c-.439-.179-.918-.327-1.437-.445-.519-.117-.978-.177-1.376-.177-2.665 0-3.998 1.733-3.998 5.2 0 1.645.325 2.905.975 3.784s1.614 1.318 2.891 1.318c1.093 0 2.214-.239 3.363-.72v1.794c-.878.465-1.983.697-3.315.697z"/><path d="m561.545 544.772c0 2.182-.539 3.885-1.616 5.109s-2.565 1.837-4.464 1.837c-1.173 0-2.214-.281-3.124-.843-.909-.562-1.611-1.367-2.106-2.417s-.742-2.278-.742-3.687c0-2.181.534-3.88 1.604-5.097s2.553-1.825 4.453-1.825c1.835 0 3.293.623 4.374 1.868s1.621 2.931 1.621 5.055zm-9.994 0c0 1.709.335 3.012 1.005 3.906.67.896 1.655 1.343 2.956 1.343 1.3 0 2.288-.445 2.962-1.336.674-.892 1.011-2.195 1.011-3.913 0-1.7-.337-2.992-1.011-3.876-.675-.883-1.67-1.324-2.986-1.324-1.301 0-2.282.436-2.944 1.307-.662.87-.993 2.169-.993 3.893z"/><path d="m566.772 538.095v8.68c0 1.091.243 1.904.73 2.441.486.537 1.249.806 2.286.806 1.372 0 2.375-.382 3.01-1.147.634-.765.952-2.014.952-3.747v-7.032h1.987v13.38h-1.64l-.288-1.795h-.107c-.407.659-.972 1.164-1.694 1.514-.722.351-1.546.525-2.471.525-1.596 0-2.791-.387-3.584-1.16-.794-.772-1.191-2.01-1.191-3.711v-8.753h2.01z"/><path d="m588.803 551.475v-8.655c0-1.091-.243-1.904-.73-2.441s-1.249-.806-2.286-.806c-1.373 0-2.378.378-3.016 1.136-.639.757-.958 2.006-.958 3.747v7.02h-1.987v-13.38h1.616l.323 1.831h.096c.407-.659.977-1.169 1.711-1.531s1.552-.544 2.454-.544c1.58 0 2.769.389 3.566 1.166s1.197 2.021 1.197 3.729v8.729h-1.986z"/><path d="m598.985 550.046c.351 0 .69-.026 1.017-.079s.587-.107.778-.165v1.551c-.216.105-.533.193-.952.263-.419.068-.796.104-1.131.104-2.538 0-3.806-1.363-3.806-4.09v-7.959h-1.879v-.977l1.879-.843.838-2.856h1.149v3.101h3.806v1.575h-3.806v7.874c0 .806.188 1.424.562 1.855s.891.646 1.545.646z"/><path d="m609.264 537.851c.582 0 1.105.049 1.568.146l-.275 1.88c-.543-.122-1.021-.183-1.436-.183-1.062 0-1.969.439-2.723 1.318s-1.131 1.974-1.131 3.284v7.178h-1.987v-13.38h1.64l.228 2.479h.096c.486-.871 1.073-1.542 1.759-2.015.685-.471 1.438-.707 2.261-.707z"/><path d="m612.995 534.47c0-.464.111-.804.335-1.02.223-.216.503-.323.838-.323.319 0 .594.109.826.329s.347.558.347 1.014-.116.795-.347 1.02c-.231.224-.507.335-.826.335-.335 0-.615-.111-.838-.335-.224-.225-.335-.564-.335-1.02zm2.154 17.005h-1.987v-13.38h1.987z"/><path d="m624.781 551.719c-1.939 0-3.469-.603-4.59-1.807s-1.682-2.877-1.682-5.018c0-2.156.521-3.869 1.562-5.14 1.041-1.27 2.439-1.904 4.195-1.904 1.644 0 2.944.552 3.901 1.654.958 1.104 1.437 2.558 1.437 4.364v1.282h-9.036c.04 1.57.429 2.763 1.167 3.576.738.814 1.777 1.221 3.118 1.221 1.412 0 2.809-.301 4.189-.903v1.807c-.702.31-1.367.531-1.993.666-.627.134-1.382.202-2.268.202zm-.539-12.171c-1.053 0-1.893.35-2.52 1.05s-.996 1.668-1.107 2.905h6.858c0-1.277-.279-2.256-.838-2.936s-1.356-1.019-2.393-1.019z"/><path d="m641.33 547.824c0 1.245-.455 2.206-1.364 2.881-.91.676-2.187 1.014-3.83 1.014-1.74 0-3.096-.281-4.069-.843v-1.88c.63.326 1.306.582 2.028.77s1.418.28 2.089.28c1.037 0 1.835-.168 2.394-.506s.838-.853.838-1.545c0-.521-.222-.966-.664-1.336-.443-.371-1.307-.808-2.591-1.312-1.221-.464-2.089-.869-2.604-1.215s-.897-.738-1.149-1.178c-.251-.439-.377-.965-.377-1.575 0-1.091.435-1.951 1.305-2.582s2.062-.946 3.579-.946c1.412 0 2.792.293 4.141.879l-.706 1.648c-1.316-.554-2.51-.83-3.579-.83-.942 0-1.652.15-2.13.451-.479.302-.718.717-.718 1.246 0 .357.09.663.269.915.18.252.469.492.868.721.398.228 1.165.558 2.298.988 1.556.578 2.606 1.16 3.153 1.746.546.586.819 1.323.819 2.209z"/><path d="m655.926 551.719c-1.898 0-3.369-.596-4.41-1.788s-1.562-2.879-1.562-5.061c0-2.237.529-3.967 1.586-5.188 1.059-1.221 2.564-1.831 4.52-1.831.629 0 1.26.069 1.891.208s1.125.301 1.484.488l-.611 1.721c-.439-.179-.918-.327-1.436-.445-.52-.117-.979-.177-1.377-.177-2.664 0-3.998 1.733-3.998 5.2 0 1.645.326 2.905.977 3.784s1.613 1.318 2.891 1.318c1.092 0 2.213-.239 3.363-.72v1.794c-.881.465-1.986.697-3.318.697z"/><path d="m673.553 544.772c0 2.182-.539 3.885-1.617 5.109-1.076 1.225-2.564 1.837-4.463 1.837-1.174 0-2.215-.281-3.125-.843-.908-.562-1.611-1.367-2.105-2.417s-.742-2.278-.742-3.687c0-2.181.535-3.88 1.604-5.097s2.553-1.825 4.453-1.825c1.834 0 3.293.623 4.373 1.868 1.081 1.247 1.622 2.931 1.622 5.055zm-9.994 0c0 1.709.336 3.012 1.006 3.906.67.896 1.654 1.343 2.955 1.343s2.289-.445 2.963-1.336c.674-.892 1.012-2.195 1.012-3.913 0-1.7-.338-2.992-1.012-3.876-.674-.883-1.67-1.324-2.986-1.324-1.301 0-2.281.436-2.943 1.307-.665.87-.995 2.169-.995 3.893z"/><path d="m688.234 544.772c0 2.182-.539 3.885-1.615 5.109-1.078 1.225-2.566 1.837-4.465 1.837-1.172 0-2.213-.281-3.123-.843s-1.611-1.367-2.107-2.417c-.494-1.05-.742-2.278-.742-3.687 0-2.181.535-3.88 1.605-5.097 1.068-1.217 2.553-1.825 4.451-1.825 1.836 0 3.293.623 4.375 1.868 1.08 1.247 1.621 2.931 1.621 5.055zm-9.994 0c0 1.709.336 3.012 1.006 3.906.67.896 1.656 1.343 2.957 1.343s2.287-.445 2.961-1.336c.676-.892 1.012-2.195 1.012-3.913 0-1.7-.336-2.992-1.012-3.876-.674-.883-1.668-1.324-2.986-1.324-1.299 0-2.281.436-2.943 1.307-.663.87-.995 2.169-.995 3.893z"/><path d="m697.697 551.719c-.854 0-1.633-.161-2.34-.482-.705-.321-1.297-.815-1.777-1.483h-.143c.096.781.143 1.522.143 2.223v5.505h-1.986v-19.386h1.617l.273 1.831h.096c.512-.732 1.105-1.261 1.785-1.587.678-.325 1.455-.488 2.332-.488 1.74 0 3.082.606 4.027 1.819.947 1.213 1.42 2.914 1.42 5.103 0 2.197-.482 3.904-1.443 5.121s-2.295 1.824-4.004 1.824zm-.287-12.147c-1.34 0-2.309.378-2.908 1.136-.598.757-.904 1.961-.922 3.613v.451c0 1.88.309 3.225.922 4.035.615.81 1.6 1.214 2.957 1.214 1.133 0 2.02-.468 2.662-1.403s.965-2.226.965-3.87c0-1.668-.322-2.948-.965-3.839-.642-.891-1.545-1.337-2.711-1.337z"/><path d="m712.033 551.719c-1.938 0-3.469-.603-4.59-1.807s-1.682-2.877-1.682-5.018c0-2.156.521-3.869 1.562-5.14 1.041-1.27 2.439-1.904 4.195-1.904 1.643 0 2.943.552 3.902 1.654.957 1.104 1.436 2.558 1.436 4.364v1.282h-9.037c.041 1.57.43 2.763 1.168 3.576.738.814 1.777 1.221 3.117 1.221 1.412 0 2.809-.301 4.189-.903v1.807c-.703.31-1.367.531-1.992.666-.625.134-1.381.202-2.268.202zm-.537-12.171c-1.055 0-1.895.35-2.52 1.05-.627.7-.996 1.668-1.107 2.905h6.857c0-1.277-.279-2.256-.838-2.936s-1.355-1.019-2.392-1.019z"/><path d="m726.105 537.851c.582 0 1.105.049 1.568.146l-.275 1.88c-.543-.122-1.021-.183-1.436-.183-1.062 0-1.969.439-2.723 1.318-.756.879-1.133 1.974-1.133 3.284v7.178h-1.986v-13.38h1.641l.227 2.479h.096c.486-.871 1.074-1.542 1.76-2.015.685-.471 1.439-.707 2.261-.707z"/><path d="m738.072 551.475-.395-1.904h-.096c-.654.838-1.307 1.406-1.957 1.703s-1.463.445-2.436.445c-1.301 0-2.32-.342-3.059-1.025s-1.107-1.656-1.107-2.918c0-2.701 2.119-4.117 6.355-4.248l2.227-.073v-.83c0-1.05-.221-1.825-.664-2.325-.443-.501-1.15-.751-2.125-.751-1.094 0-2.33.342-3.709 1.025l-.611-1.551c.646-.357 1.354-.639 2.125-.842.77-.203 1.541-.306 2.314-.306 1.564 0 2.723.354 3.479 1.062.754.708 1.131 1.844 1.131 3.406v9.131h-1.472zm-4.488-1.429c1.236 0 2.209-.346 2.914-1.037.707-.691 1.059-1.66 1.059-2.905v-1.209l-1.986.086c-1.58.057-2.719.307-3.416.75-.699.444-1.047 1.134-1.047 2.069 0 .732.217 1.29.65 1.673.435.382 1.045.573 1.826.573z"/><path d="m747.75 550.046c.352 0 .691-.026 1.018-.079.328-.053.588-.107.779-.165v1.551c-.217.105-.533.193-.951.263-.42.068-.797.104-1.133.104-2.537 0-3.805-1.363-3.805-4.09v-7.959h-1.879v-.977l1.879-.843.838-2.856h1.148v3.101h3.807v1.575h-3.807v7.874c0 .806.188 1.424.562 1.855s.89.646 1.544.646z"/><path d="m751.877 534.47c0-.464.113-.804.336-1.02s.502-.323.838-.323c.318 0 .594.109.826.329.23.22.348.558.348 1.014s-.117.795-.348 1.02c-.232.224-.508.335-.826.335-.336 0-.615-.111-.838-.335-.223-.225-.336-.564-.336-1.02zm2.154 17.005h-1.986v-13.38h1.986z"/><path d="m767.098 551.475v-8.655c0-1.091-.244-1.904-.73-2.441s-1.248-.806-2.285-.806c-1.373 0-2.379.378-3.016 1.136-.639.757-.959 2.006-.959 3.747v7.02h-1.986v-13.38h1.617l.322 1.831h.096c.406-.659.977-1.169 1.711-1.531s1.553-.544 2.453-.544c1.58 0 2.77.389 3.568 1.166.797.777 1.195 2.021 1.195 3.729v8.729h-1.986z"/><path d="m783.779 538.095v1.282l-2.43.293c.223.285.422.657.598 1.117s.264.979.264 1.557c0 1.31-.439 2.355-1.316 3.137s-2.082 1.172-3.615 1.172c-.391 0-.758-.032-1.1-.098-.846.456-1.27 1.03-1.27 1.722 0 .366.148.637.443.812s.801.263 1.52.263h2.322c1.42 0 2.512.305 3.273.915s1.143 1.498 1.143 2.662c0 1.48-.582 2.61-1.748 3.387-1.164.777-2.863 1.166-5.098 1.166-1.715 0-3.039-.325-3.967-.977-.93-.651-1.395-1.57-1.395-2.759 0-.813.254-1.518.766-2.111.51-.595 1.229-.997 2.154-1.209-.336-.154-.617-.395-.844-.721-.229-.325-.342-.703-.342-1.135 0-.488.129-.916.383-1.282.256-.366.658-.72 1.209-1.062-.678-.285-1.23-.77-1.656-1.453-.428-.684-.641-1.465-.641-2.344 0-1.465.43-2.594 1.293-3.388.861-.793 2.082-1.19 3.662-1.19.686 0 1.305.082 1.854.244zm-10.461 15.626c0 .725.299 1.273.898 1.648.598.374 1.455.562 2.572.562 1.668 0 2.902-.255 3.705-.764.801-.509 1.203-1.198 1.203-2.068 0-.725-.221-1.228-.658-1.508-.439-.281-1.266-.422-2.479-.422h-2.381c-.902 0-1.604.22-2.107.66-.501.44-.753 1.069-.753 1.892zm1.078-11.341c0 .937.258 1.645.777 2.124.52.48 1.24.721 2.166.721 1.939 0 2.908-.961 2.908-2.881 0-2.011-.98-3.016-2.943-3.016-.934 0-1.652.256-2.154.769-.504.513-.754 1.274-.754 2.283z"/><path d="m796.83 550.046c.352 0 .691-.026 1.018-.079.328-.053.588-.107.779-.165v1.551c-.217.105-.533.193-.951.263-.42.068-.797.104-1.133.104-2.537 0-3.805-1.363-3.805-4.09v-7.959h-1.879v-.977l1.879-.843.838-2.856h1.148v3.101h3.807v1.575h-3.807v7.874c0 .806.188 1.424.562 1.855s.89.646 1.544.646z"/><path d="m812.447 544.772c0 2.182-.539 3.885-1.617 5.109-1.076 1.225-2.564 1.837-4.463 1.837-1.174 0-2.215-.281-3.125-.843-.908-.562-1.611-1.367-2.105-2.417s-.742-2.278-.742-3.687c0-2.181.535-3.88 1.604-5.097s2.553-1.825 4.453-1.825c1.834 0 3.293.623 4.373 1.868 1.081 1.247 1.622 2.931 1.622 5.055zm-9.994 0c0 1.709.336 3.012 1.006 3.906.67.896 1.654 1.343 2.955 1.343s2.289-.445 2.963-1.336c.674-.892 1.012-2.195 1.012-3.913 0-1.7-.338-2.992-1.012-3.876-.674-.883-1.67-1.324-2.986-1.324-1.301 0-2.281.436-2.943 1.307-.665.87-.995 2.169-.995 3.893z"/><path d="m828.035 537.851c.582 0 1.105.049 1.568.146l-.275 1.88c-.543-.122-1.021-.183-1.436-.183-1.062 0-1.969.439-2.723 1.318-.756.879-1.133 1.974-1.133 3.284v7.178h-1.986v-13.38h1.641l.227 2.479h.096c.486-.871 1.074-1.542 1.76-2.015.685-.471 1.439-.707 2.261-.707z"/><path d="m837.477 551.719c-1.939 0-3.469-.603-4.59-1.807s-1.682-2.877-1.682-5.018c0-2.156.521-3.869 1.562-5.14 1.041-1.27 2.439-1.904 4.193-1.904 1.645 0 2.945.552 3.902 1.654.957 1.104 1.436 2.558 1.436 4.364v1.282h-9.035c.039 1.57.428 2.763 1.166 3.576.738.814 1.777 1.221 3.119 1.221 1.412 0 2.809-.301 4.188-.903v1.807c-.701.31-1.365.531-1.992.666-.627.134-1.383.202-2.267.202zm-.539-12.171c-1.053 0-1.893.35-2.52 1.05-.625.7-.994 1.668-1.107 2.905h6.859c0-1.277-.279-2.256-.838-2.936s-1.357-1.019-2.394-1.019z"/><path d="m856.299 538.095v1.282l-2.43.293c.225.285.424.657.6 1.117s.264.979.264 1.557c0 1.31-.439 2.355-1.316 3.137-.879.781-2.084 1.172-3.615 1.172-.391 0-.758-.032-1.102-.098-.846.456-1.268 1.03-1.268 1.722 0 .366.146.637.441.812.297.175.803.263 1.521.263h2.32c1.422 0 2.512.305 3.273.915s1.145 1.498 1.145 2.662c0 1.48-.584 2.61-1.748 3.387-1.166.777-2.865 1.166-5.098 1.166-1.717 0-3.039-.325-3.969-.977s-1.395-1.57-1.395-2.759c0-.813.256-1.518.766-2.111.512-.595 1.229-.997 2.154-1.209-.334-.154-.615-.395-.844-.721-.227-.325-.34-.703-.34-1.135 0-.488.127-.916.383-1.282s.658-.72 1.209-1.062c-.68-.285-1.23-.77-1.658-1.453s-.641-1.465-.641-2.344c0-1.465.432-2.594 1.293-3.388.861-.793 2.082-1.19 3.662-1.19.686 0 1.305.082 1.855.244zm-10.459 15.626c0 .725.299 1.273.896 1.648.6.374 1.457.562 2.574.562 1.668 0 2.902-.255 3.703-.764.803-.509 1.203-1.198 1.203-2.068 0-.725-.219-1.228-.658-1.508-.439-.281-1.264-.422-2.477-.422h-2.383c-.9 0-1.604.22-2.105.66-.503.44-.753 1.069-.753 1.892zm1.076-11.341c0 .937.26 1.645.779 2.124.518.48 1.24.721 2.166.721 1.938 0 2.908-.961 2.908-2.881 0-2.011-.982-3.016-2.945-3.016-.934 0-1.65.256-2.154.769-.502.513-.754 1.274-.754 2.283z"/><path d="m860.738 538.095v8.68c0 1.091.242 1.904.729 2.441.488.537 1.25.806 2.287.806 1.371 0 2.375-.382 3.01-1.147s.951-2.014.951-3.747v-7.032h1.986v13.38h-1.639l-.287-1.795h-.107c-.408.659-.973 1.164-1.693 1.514-.723.351-1.547.525-2.473.525-1.596 0-2.791-.387-3.584-1.16-.795-.772-1.191-2.01-1.191-3.711v-8.753h2.011z"/><path d="m875.777 551.475h-1.986v-18.995h1.986z"/><path d="m887.936 551.475-.395-1.904h-.096c-.654.838-1.307 1.406-1.957 1.703s-1.463.445-2.436.445c-1.301 0-2.32-.342-3.059-1.025s-1.107-1.656-1.107-2.918c0-2.701 2.119-4.117 6.355-4.248l2.227-.073v-.83c0-1.05-.221-1.825-.664-2.325-.443-.501-1.15-.751-2.125-.751-1.094 0-2.33.342-3.709 1.025l-.611-1.551c.646-.357 1.354-.639 2.125-.842.77-.203 1.541-.306 2.314-.306 1.564 0 2.723.354 3.479 1.062.754.708 1.131 1.844 1.131 3.406v9.131h-1.472zm-4.489-1.429c1.236 0 2.209-.346 2.914-1.037.707-.691 1.059-1.66 1.059-2.905v-1.209l-1.986.086c-1.58.057-2.719.307-3.416.75-.699.444-1.047 1.134-1.047 2.069 0 .732.217 1.29.65 1.673.436.382 1.045.573 1.826.573z"/><path d="m897.613 550.046c.352 0 .691-.026 1.018-.079.328-.053.588-.107.779-.165v1.551c-.217.105-.533.193-.951.263-.42.068-.797.104-1.133.104-2.537 0-3.805-1.363-3.805-4.09v-7.959h-1.879v-.977l1.879-.843.838-2.856h1.148v3.101h3.807v1.575h-3.807v7.874c0 .806.188 1.424.562 1.855s.89.646 1.544.646z"/><path d="m907.449 551.719c-1.938 0-3.469-.603-4.59-1.807s-1.682-2.877-1.682-5.018c0-2.156.521-3.869 1.562-5.14 1.041-1.27 2.439-1.904 4.195-1.904 1.643 0 2.943.552 3.902 1.654.957 1.104 1.436 2.558 1.436 4.364v1.282h-9.037c.041 1.57.43 2.763 1.168 3.576.738.814 1.777 1.221 3.117 1.221 1.412 0 2.809-.301 4.189-.903v1.807c-.703.31-1.367.531-1.992.666-.625.134-1.381.202-2.268.202zm-.537-12.171c-1.055 0-1.895.35-2.52 1.05-.627.7-.996 1.668-1.107 2.905h6.857c0-1.277-.279-2.256-.838-2.936s-1.355-1.019-2.392-1.019z"/><path d="m927.887 551.719c-.854 0-1.635-.161-2.34-.482-.707-.321-1.299-.815-1.777-1.483h-.145c.096.781.145 1.522.145 2.223v5.505h-1.986v-19.386h1.615l.275 1.831h.096c.51-.732 1.105-1.261 1.783-1.587.678-.325 1.457-.488 2.334-.488 1.738 0 3.082.606 4.027 1.819s1.418 2.914 1.418 5.103c0 2.197-.48 3.904-1.441 5.121-.963 1.215-2.297 1.824-4.004 1.824zm-.287-12.147c-1.34 0-2.311.378-2.908 1.136-.6.757-.906 1.961-.922 3.613v.451c0 1.88.307 3.225.922 4.035.613.81 1.6 1.214 2.955 1.214 1.133 0 2.021-.468 2.664-1.403s.963-2.226.963-3.87c0-1.668-.32-2.948-.963-3.839s-1.547-1.337-2.711-1.337z"/><path d="m948.002 544.772c0 2.182-.539 3.885-1.615 5.109-1.078 1.225-2.566 1.837-4.465 1.837-1.172 0-2.213-.281-3.123-.843s-1.611-1.367-2.107-2.417c-.494-1.05-.742-2.278-.742-3.687 0-2.181.535-3.88 1.605-5.097 1.068-1.217 2.553-1.825 4.451-1.825 1.836 0 3.293.623 4.375 1.868 1.08 1.247 1.621 2.931 1.621 5.055zm-9.994 0c0 1.709.336 3.012 1.006 3.906.67.896 1.656 1.343 2.957 1.343s2.287-.445 2.961-1.336c.676-.892 1.012-2.195 1.012-3.913 0-1.7-.336-2.992-1.012-3.876-.674-.883-1.668-1.324-2.986-1.324-1.299 0-2.281.436-2.943 1.307-.663.87-.995 2.169-.995 3.893z"/><path d="m959.824 547.824c0 1.245-.455 2.206-1.363 2.881-.91.676-2.188 1.014-3.83 1.014-1.74 0-3.096-.281-4.07-.843v-1.88c.631.326 1.307.582 2.029.77s1.418.28 2.088.28c1.037 0 1.836-.168 2.395-.506s.838-.853.838-1.545c0-.521-.223-.966-.664-1.336-.443-.371-1.307-.808-2.592-1.312-1.221-.464-2.088-.869-2.604-1.215-.514-.346-.896-.738-1.148-1.178s-.377-.965-.377-1.575c0-1.091.434-1.951 1.305-2.582.869-.631 2.062-.946 3.578-.946 1.412 0 2.793.293 4.141.879l-.705 1.648c-1.316-.554-2.51-.83-3.58-.83-.941 0-1.65.15-2.129.451-.479.302-.719.717-.719 1.246 0 .357.09.663.27.915s.469.492.867.721c.398.228 1.166.558 2.299.988 1.555.578 2.605 1.16 3.152 1.746s.819 1.323.819 2.209z"/><path d="m967.17 550.046c.352 0 .689-.026 1.018-.079.326-.053.586-.107.777-.165v1.551c-.215.105-.533.193-.951.263-.418.068-.795.104-1.131.104-2.537 0-3.807-1.363-3.807-4.09v-7.959h-1.879v-.977l1.879-.843.838-2.856h1.15v3.101h3.805v1.575h-3.805v7.874c0 .806.186 1.424.562 1.855.374.431.89.646 1.544.646z"/><path d="m979.926 547.824c0 1.245-.455 2.206-1.363 2.881-.91.676-2.188 1.014-3.83 1.014-1.74 0-3.096-.281-4.07-.843v-1.88c.631.326 1.307.582 2.029.77s1.418.28 2.088.28c1.037 0 1.836-.168 2.395-.506s.838-.853.838-1.545c0-.521-.223-.966-.664-1.336-.443-.371-1.307-.808-2.592-1.312-1.221-.464-2.088-.869-2.604-1.215-.514-.346-.896-.738-1.148-1.178s-.377-.965-.377-1.575c0-1.091.434-1.951 1.305-2.582.869-.631 2.062-.946 3.578-.946 1.412 0 2.793.293 4.141.879l-.705 1.648c-1.316-.554-2.51-.83-3.58-.83-.941 0-1.65.15-2.129.451-.479.302-.719.717-.719 1.246 0 .357.09.663.27.915s.469.492.867.721c.398.228 1.166.558 2.299.988 1.555.578 2.605 1.16 3.152 1.746s.819 1.323.819 2.209z"/><path d="m985.117 548.569.18.28c-.207.814-.508 1.761-.898 2.839s-.797 2.081-1.221 3.009h-1.496c.217-.847.453-1.892.713-3.137.26-1.246.441-2.242.545-2.991z"/><path d="m376.053 565.381c.582 0 1.105.049 1.568.146l-.275 1.88c-.543-.122-1.021-.183-1.436-.183-1.062 0-1.969.439-2.723 1.318s-1.131 1.974-1.131 3.284v7.178h-1.987v-13.38h1.64l.228 2.479h.096c.486-.871 1.073-1.542 1.759-2.015.685-.471 1.438-.707 2.261-.707z"/><path d="m388.018 579.005-.395-1.904h-.096c-.654.838-1.307 1.406-1.957 1.703s-1.462.445-2.436.445c-1.301 0-2.32-.342-3.058-1.025-.738-.684-1.107-1.656-1.107-2.918 0-2.701 2.119-4.117 6.355-4.248l2.226-.073v-.83c0-1.05-.222-1.825-.665-2.325-.443-.501-1.151-.751-2.124-.751-1.093 0-2.33.342-3.71 1.025l-.61-1.551c.646-.357 1.354-.639 2.125-.842.77-.203 1.542-.306 2.316-.306 1.563 0 2.723.354 3.477 1.062s1.131 1.844 1.131 3.406v9.131h-1.472zm-4.488-1.429c1.237 0 2.208-.346 2.914-1.037.707-.691 1.06-1.66 1.06-2.905v-1.209l-1.987.086c-1.58.057-2.719.307-3.417.75-.698.444-1.047 1.134-1.047 2.069 0 .732.217 1.29.652 1.673.434.383 1.043.573 1.825.573z"/><path d="m402.389 577.21h-.107c-.917 1.359-2.29 2.039-4.117 2.039-1.716 0-3.05-.599-4.003-1.795-.954-1.196-1.43-2.896-1.43-5.103 0-2.205.479-3.918 1.436-5.14.958-1.221 2.29-1.831 3.998-1.831 1.779 0 3.144.659 4.093 1.978h.155l-.083-.964-.048-.94v-5.444h1.987v18.995h-1.616zm-3.973.342c1.356 0 2.34-.376 2.95-1.129s.916-1.967.916-3.644v-.428c0-1.896-.31-3.249-.928-4.059s-1.606-1.215-2.962-1.215c-1.165 0-2.057.462-2.675 1.386s-.927 2.228-.927 3.912c0 1.709.307 2.999.921 3.87s1.516 1.307 2.705 1.307z"/><path d="m408.191 562c0-.464.111-.804.335-1.02.223-.216.503-.323.838-.323.319 0 .594.109.826.329s.347.558.347 1.014-.116.795-.347 1.02c-.231.224-.507.335-.826.335-.335 0-.615-.111-.838-.335-.224-.225-.335-.564-.335-1.02zm2.154 17.005h-1.987v-13.38h1.987z"/><path d="m425.758 572.303c0 2.182-.539 3.885-1.616 5.109s-2.565 1.837-4.464 1.837c-1.173 0-2.214-.281-3.124-.843-.909-.562-1.611-1.367-2.106-2.417s-.742-2.278-.742-3.687c0-2.181.534-3.88 1.604-5.097s2.553-1.825 4.453-1.825c1.835 0 3.293.623 4.374 1.868s1.621 2.931 1.621 5.055zm-9.994 0c0 1.709.335 3.012 1.005 3.906.67.896 1.655 1.343 2.956 1.343 1.3 0 2.288-.445 2.962-1.336.674-.892 1.011-2.195 1.011-3.913 0-1.7-.337-2.992-1.011-3.876-.675-.883-1.67-1.324-2.986-1.324-1.301 0-2.282.436-2.944 1.307-.662.869-.993 2.168-.993 3.893z"/><path d="m443.824 575.354c0 1.245-.455 2.206-1.364 2.881-.91.676-2.186 1.014-3.83 1.014-1.74 0-3.096-.281-4.069-.843v-1.88c.63.326 1.306.582 2.028.77s1.418.28 2.089.28c1.037 0 1.835-.168 2.394-.506.558-.338.838-.853.838-1.545 0-.521-.222-.966-.665-1.336-.443-.371-1.307-.808-2.591-1.312-1.221-.464-2.089-.869-2.604-1.215s-.897-.738-1.149-1.178c-.251-.439-.377-.965-.377-1.575 0-1.091.435-1.951 1.305-2.582s2.062-.946 3.579-.946c1.412 0 2.792.293 4.141.879l-.706 1.648c-1.317-.554-2.51-.83-3.579-.83-.942 0-1.652.15-2.13.451-.479.302-.718.717-.718 1.246 0 .357.09.663.269.915.18.252.469.492.868.721.398.228 1.165.558 2.298.988 1.556.578 2.607 1.16 3.153 1.746.547.586.82 1.323.82 2.209z"/><path d="m453.038 579.249c-.854 0-1.634-.161-2.34-.482s-1.299-.815-1.777-1.483h-.144c.096.781.144 1.522.144 2.223v5.505h-1.987v-19.386h1.616l.275 1.831h.096c.51-.732 1.105-1.261 1.783-1.587.678-.325 1.456-.488 2.334-.488 1.739 0 3.082.606 4.027 1.819s1.418 2.914 1.418 5.103c0 2.197-.48 3.904-1.442 5.121-.962 1.216-2.296 1.824-4.003 1.824zm-.288-12.146c-1.34 0-2.31.378-2.908 1.136-.598.757-.906 1.961-.921 3.613v.451c0 1.88.307 3.225.921 4.035s1.6 1.214 2.957 1.214c1.133 0 2.021-.468 2.663-1.403s.963-2.226.963-3.87c0-1.668-.321-2.948-.963-3.839-.643-.892-1.547-1.337-2.712-1.337z"/><path d="m467.373 579.249c-1.939 0-3.469-.603-4.59-1.807s-1.682-2.877-1.682-5.018c0-2.156.521-3.869 1.562-5.14 1.041-1.27 2.439-1.904 4.195-1.904 1.644 0 2.944.552 3.901 1.654.958 1.104 1.437 2.558 1.437 4.364v1.282h-9.036c.04 1.57.429 2.763 1.167 3.576.738.814 1.777 1.221 3.118 1.221 1.412 0 2.809-.301 4.189-.903v1.807c-.702.31-1.367.531-1.993.666s-1.382.202-2.268.202zm-.539-12.171c-1.053 0-1.893.35-2.52 1.05s-.996 1.668-1.107 2.905h6.858c0-1.277-.279-2.256-.838-2.936s-1.355-1.019-2.393-1.019z"/><path d="m480.703 579.249c-1.899 0-3.369-.596-4.41-1.788-1.042-1.192-1.562-2.879-1.562-5.061 0-2.237.528-3.967 1.586-5.188 1.057-1.221 2.563-1.831 4.518-1.831.63 0 1.26.069 1.891.208s1.125.301 1.484.488l-.61 1.721c-.439-.179-.918-.327-1.437-.445-.519-.117-.978-.177-1.376-.177-2.665 0-3.998 1.733-3.998 5.2 0 1.645.325 2.905.975 3.784s1.614 1.318 2.891 1.318c1.093 0 2.214-.239 3.363-.72v1.794c-.877.466-1.982.697-3.315.697z"/><path d="m491.245 577.576c.351 0 .69-.026 1.017-.079s.587-.107.778-.165v1.551c-.216.105-.533.193-.952.263-.419.068-.796.104-1.131.104-2.538 0-3.806-1.363-3.806-4.09v-7.96h-1.879v-.977l1.879-.843.838-2.856h1.149v3.101h3.806v1.575h-3.806v7.874c0 .806.188 1.424.562 1.855s.89.647 1.545.647z"/><path d="m501.523 565.381c.582 0 1.105.049 1.568.146l-.275 1.88c-.543-.122-1.021-.183-1.436-.183-1.062 0-1.969.439-2.723 1.318s-1.131 1.974-1.131 3.284v7.178h-1.987v-13.38h1.64l.228 2.479h.096c.486-.871 1.073-1.542 1.759-2.015.685-.471 1.439-.707 2.261-.707z"/><path d="m507.289 565.625v8.68c0 1.091.243 1.904.73 2.441.486.537 1.249.806 2.286.806 1.372 0 2.375-.382 3.01-1.147.634-.765.952-2.014.952-3.747v-7.032h1.987v13.38h-1.64l-.288-1.795h-.107c-.407.659-.972 1.164-1.694 1.514-.722.351-1.546.525-2.471.525-1.596 0-2.791-.387-3.584-1.16-.794-.772-1.191-2.01-1.191-3.711v-8.753h2.01z"/><path d="m537.063 579.005v-8.704c0-1.066-.223-1.865-.67-2.398s-1.141-.8-2.083-.8c-1.237 0-2.15.362-2.741 1.087-.591.724-.886 1.839-.886 3.345v7.471h-1.987v-8.704c0-1.066-.224-1.865-.67-2.398s-1.145-.8-2.094-.8c-1.245 0-2.156.381-2.735 1.142s-.868 2.008-.868 3.741v7.02h-1.987v-13.38h1.616l.323 1.831h.096c.375-.65.904-1.159 1.586-1.525s1.446-.55 2.292-.55c2.05 0 3.391.757 4.021 2.271h.096c.391-.699.958-1.253 1.7-1.66.742-.406 1.588-.61 2.537-.61 1.484 0 2.595.389 3.333 1.166s1.107 2.021 1.107 3.729v8.729h-1.986z"/><path d="m557.332 579.005-.395-1.904h-.096c-.654.838-1.307 1.406-1.957 1.703s-1.462.445-2.436.445c-1.301 0-2.32-.342-3.058-1.025-.738-.684-1.107-1.656-1.107-2.918 0-2.701 2.119-4.117 6.355-4.248l2.226-.073v-.83c0-1.05-.222-1.825-.665-2.325-.443-.501-1.151-.751-2.124-.751-1.093 0-2.33.342-3.71 1.025l-.61-1.551c.646-.357 1.354-.639 2.125-.842.77-.203 1.542-.306 2.316-.306 1.563 0 2.723.354 3.477 1.062s1.131 1.844 1.131 3.406v9.131h-1.472zm-4.488-1.429c1.237 0 2.208-.346 2.914-1.037.707-.691 1.06-1.66 1.06-2.905v-1.209l-1.987.086c-1.58.057-2.719.307-3.417.75-.698.444-1.047 1.134-1.047 2.069 0 .732.217 1.29.652 1.673.434.383 1.043.573 1.825.573z"/><path d="m571.75 579.005v-8.655c0-1.091-.243-1.904-.73-2.441s-1.249-.806-2.286-.806c-1.373 0-2.378.378-3.016 1.136-.639.757-.958 2.006-.958 3.747v7.02h-1.987v-13.38h1.616l.323 1.831h.096c.407-.659.977-1.169 1.711-1.531s1.552-.544 2.454-.544c1.58 0 2.769.389 3.566 1.166s1.197 2.021 1.197 3.729v8.729h-1.986z"/><path d="m586.625 577.21h-.107c-.917 1.359-2.29 2.039-4.117 2.039-1.716 0-3.05-.599-4.003-1.795-.954-1.196-1.43-2.896-1.43-5.103 0-2.205.479-3.918 1.436-5.14.958-1.221 2.29-1.831 3.998-1.831 1.779 0 3.144.659 4.093 1.978h.155l-.083-.964-.048-.94v-5.444h1.987v18.995h-1.616zm-3.974.342c1.356 0 2.34-.376 2.95-1.129s.916-1.967.916-3.644v-.428c0-1.896-.31-3.249-.928-4.059s-1.606-1.215-2.962-1.215c-1.165 0-2.057.462-2.675 1.386s-.927 2.228-.927 3.912c0 1.709.307 2.999.921 3.87s1.516 1.307 2.705 1.307z"/><path d="m604.081 579.249c-1.899 0-3.369-.596-4.41-1.788-1.042-1.192-1.562-2.879-1.562-5.061 0-2.237.528-3.967 1.586-5.188 1.057-1.221 2.563-1.831 4.518-1.831.63 0 1.26.069 1.891.208s1.125.301 1.484.488l-.61 1.721c-.439-.179-.918-.327-1.437-.445-.519-.117-.978-.177-1.376-.177-2.665 0-3.998 1.733-3.998 5.2 0 1.645.325 2.905.975 3.784s1.614 1.318 2.891 1.318c1.093 0 2.214-.239 3.363-.72v1.794c-.877.466-1.982.697-3.315.697z"/><path d="m621.708 572.303c0 2.182-.539 3.885-1.616 5.109s-2.565 1.837-4.464 1.837c-1.173 0-2.214-.281-3.124-.843-.909-.562-1.611-1.367-2.106-2.417s-.742-2.278-.742-3.687c0-2.181.534-3.88 1.604-5.097s2.553-1.825 4.453-1.825c1.835 0 3.293.623 4.374 1.868s1.621 2.931 1.621 5.055zm-9.994 0c0 1.709.335 3.012 1.005 3.906.67.896 1.655 1.343 2.956 1.343 1.3 0 2.288-.445 2.962-1.336.674-.892 1.011-2.195 1.011-3.913 0-1.7-.337-2.992-1.011-3.876-.675-.883-1.67-1.324-2.986-1.324-1.301 0-2.282.436-2.944 1.307-.662.869-.993 2.168-.993 3.893z"/><path d="m641.789 579.005v-8.704c0-1.066-.225-1.865-.67-2.398-.447-.533-1.143-.8-2.084-.8-1.236 0-2.149.362-2.74 1.087-.591.724-.886 1.839-.886 3.345v7.471h-1.987v-8.704c0-1.066-.224-1.865-.67-2.398s-1.145-.8-2.094-.8c-1.245 0-2.156.381-2.735 1.142s-.868 2.008-.868 3.741v7.02h-1.987v-13.38h1.616l.323 1.831h.096c.375-.65.904-1.159 1.586-1.525s1.446-.55 2.292-.55c2.05 0 3.391.757 4.021 2.271h.096c.391-.699.958-1.253 1.7-1.66.742-.406 1.588-.61 2.538-.61 1.483 0 2.594.389 3.333 1.166s1.107 2.021 1.107 3.729v8.729h-1.987z"/><path d="m664.465 579.005v-8.704c0-1.066-.223-1.865-.67-2.398s-1.141-.8-2.082-.8c-1.236 0-2.15.362-2.74 1.087-.592.724-.887 1.839-.887 3.345v7.471h-1.986v-8.704c0-1.066-.223-1.865-.67-2.398s-1.145-.8-2.096-.8c-1.244 0-2.156.381-2.734 1.142s-.867 2.008-.867 3.741v7.02h-1.986v-13.38h1.615l.322 1.831h.096c.375-.65.904-1.159 1.586-1.525.684-.366 1.447-.55 2.293-.55 2.051 0 3.391.757 4.021 2.271h.096c.391-.699.957-1.253 1.699-1.66.742-.406 1.588-.61 2.537-.61 1.484 0 2.596.389 3.334 1.166s1.107 2.021 1.107 3.729v8.729h-1.988z"/><path d="m672.289 565.625v8.68c0 1.091.244 1.904.73 2.441s1.248.806 2.285.806c1.373 0 2.377-.382 3.012-1.147.633-.765.951-2.014.951-3.747v-7.032h1.986v13.38h-1.641l-.287-1.795h-.107c-.406.659-.971 1.164-1.693 1.514-.723.351-1.545.525-2.471.525-1.596 0-2.791-.387-3.586-1.16-.793-.772-1.189-2.01-1.189-3.711v-8.753h2.01z"/><path d="m694.32 579.005v-8.655c0-1.091-.244-1.904-.73-2.441s-1.248-.806-2.285-.806c-1.373 0-2.379.378-3.016 1.136-.639.757-.959 2.006-.959 3.747v7.02h-1.986v-13.38h1.617l.322 1.831h.096c.406-.659.977-1.169 1.711-1.531s1.553-.544 2.453-.544c1.58 0 2.77.389 3.568 1.166.797.777 1.195 2.021 1.195 3.729v8.729h-1.986z"/><path d="m700.098 562c0-.464.111-.804.336-1.02.223-.216.502-.323.836-.323.32 0 .596.109.826.329.232.22.348.558.348 1.014s-.115.795-.348 1.02c-.23.224-.506.335-.826.335-.334 0-.613-.111-.836-.335-.225-.225-.336-.564-.336-1.02zm2.154 17.005h-1.986v-13.38h1.986z"/><path d="m711.584 579.249c-1.898 0-3.369-.596-4.41-1.788s-1.562-2.879-1.562-5.061c0-2.237.529-3.967 1.586-5.188 1.059-1.221 2.564-1.831 4.52-1.831.629 0 1.26.069 1.891.208s1.125.301 1.484.488l-.611 1.721c-.439-.179-.918-.327-1.436-.445-.52-.117-.979-.177-1.377-.177-2.664 0-3.998 1.733-3.998 5.2 0 1.645.326 2.905.977 3.784s1.613 1.318 2.891 1.318c1.092 0 2.213-.239 3.363-.72v1.794c-.881.466-1.986.697-3.318.697z"/><path d="m725.955 579.005-.395-1.904h-.096c-.654.838-1.307 1.406-1.957 1.703s-1.463.445-2.436.445c-1.301 0-2.32-.342-3.059-1.025s-1.107-1.656-1.107-2.918c0-2.701 2.119-4.117 6.355-4.248l2.227-.073v-.83c0-1.05-.221-1.825-.664-2.325-.443-.501-1.15-.751-2.125-.751-1.094 0-2.33.342-3.709 1.025l-.611-1.551c.646-.357 1.354-.639 2.125-.842.77-.203 1.541-.306 2.314-.306 1.564 0 2.723.354 3.479 1.062.754.708 1.131 1.844 1.131 3.406v9.131h-1.472zm-4.488-1.429c1.236 0 2.209-.346 2.914-1.037.707-.691 1.059-1.66 1.059-2.905v-1.209l-1.986.086c-1.58.057-2.719.307-3.416.75-.699.444-1.047 1.134-1.047 2.069 0 .732.217 1.29.65 1.673.435.383 1.045.573 1.826.573z"/><path d="m735.635 577.576c.352 0 .689-.026 1.018-.079.326-.053.586-.107.777-.165v1.551c-.215.105-.533.193-.951.263-.418.068-.795.104-1.131.104-2.537 0-3.807-1.363-3.807-4.09v-7.96h-1.879v-.977l1.879-.843.838-2.856h1.15v3.101h3.805v1.575h-3.805v7.874c0 .806.186 1.424.562 1.855.374.432.889.647 1.544.647z"/><path d="m739.76 562c0-.464.113-.804.336-1.02s.502-.323.838-.323c.318 0 .594.109.826.329.23.22.348.558.348 1.014s-.117.795-.348 1.02c-.232.224-.508.335-.826.335-.336 0-.615-.111-.838-.335-.223-.225-.336-.564-.336-1.02zm2.154 17.005h-1.986v-13.38h1.986z"/><path d="m757.328 572.303c0 2.182-.539 3.885-1.617 5.109-1.076 1.225-2.564 1.837-4.463 1.837-1.174 0-2.215-.281-3.125-.843-.908-.562-1.611-1.367-2.105-2.417s-.742-2.278-.742-3.687c0-2.181.535-3.88 1.604-5.097s2.553-1.825 4.453-1.825c1.834 0 3.293.623 4.373 1.868 1.081 1.246 1.622 2.931 1.622 5.055zm-9.994 0c0 1.709.336 3.012 1.006 3.906.67.896 1.654 1.343 2.955 1.343s2.289-.445 2.963-1.336c.674-.892 1.012-2.195 1.012-3.913 0-1.7-.338-2.992-1.012-3.876-.674-.883-1.67-1.324-2.986-1.324-1.301 0-2.281.436-2.943 1.307-.665.869-.995 2.168-.995 3.893z"/><path d="m769.664 579.005v-8.655c0-1.091-.244-1.904-.73-2.441s-1.25-.806-2.287-.806c-1.371 0-2.377.378-3.016 1.136-.639.757-.957 2.006-.957 3.747v7.02h-1.986v-13.38h1.615l.322 1.831h.096c.408-.659.979-1.169 1.713-1.531s1.551-.544 2.453-.544c1.58 0 2.77.389 3.566 1.166.799.777 1.197 2.021 1.197 3.729v8.729h-1.986z"/><path d="m784.07 575.354c0 1.245-.455 2.206-1.363 2.881-.91.676-2.188 1.014-3.83 1.014-1.74 0-3.096-.281-4.07-.843v-1.88c.631.326 1.307.582 2.029.77s1.418.28 2.088.28c1.037 0 1.836-.168 2.395-.506s.838-.853.838-1.545c0-.521-.223-.966-.664-1.336-.443-.371-1.307-.808-2.592-1.312-1.221-.464-2.088-.869-2.604-1.215-.514-.346-.896-.738-1.148-1.178s-.377-.965-.377-1.575c0-1.091.434-1.951 1.305-2.582.869-.631 2.062-.946 3.578-.946 1.412 0 2.793.293 4.141.879l-.705 1.648c-1.316-.554-2.51-.83-3.58-.83-.941 0-1.65.15-2.129.451-.479.302-.719.717-.719 1.246 0 .357.09.663.27.915s.469.492.867.721c.398.228 1.166.558 2.299.988 1.555.578 2.605 1.16 3.152 1.746s.819 1.323.819 2.209z"/><path d="m802.4 579.005v-8.655c0-1.091-.244-1.904-.73-2.441s-1.248-.806-2.285-.806c-1.373 0-2.379.378-3.016 1.136-.639.757-.959 2.006-.959 3.747v7.02h-1.986v-13.38h1.617l.322 1.831h.096c.406-.659.977-1.169 1.711-1.531s1.553-.544 2.453-.544c1.58 0 2.77.389 3.568 1.166.797.777 1.195 2.021 1.195 3.729v8.729h-1.986z"/><path d="m813.887 579.249c-1.939 0-3.469-.603-4.59-1.807s-1.682-2.877-1.682-5.018c0-2.156.521-3.869 1.562-5.14 1.041-1.27 2.439-1.904 4.193-1.904 1.645 0 2.945.552 3.902 1.654.957 1.104 1.436 2.558 1.436 4.364v1.282h-9.035c.039 1.57.428 2.763 1.166 3.576.738.814 1.777 1.221 3.119 1.221 1.412 0 2.809-.301 4.188-.903v1.807c-.701.31-1.365.531-1.992.666s-1.383.202-2.267.202zm-.539-12.171c-1.053 0-1.893.35-2.52 1.05-.625.7-.994 1.668-1.107 2.905h6.859c0-1.277-.279-2.256-.838-2.936s-1.357-1.019-2.394-1.019z"/><path d="m826.211 577.576c.352 0 .691-.026 1.018-.079.328-.053.588-.107.779-.165v1.551c-.217.105-.533.193-.951.263-.42.068-.797.104-1.133.104-2.537 0-3.805-1.363-3.805-4.09v-7.96h-1.879v-.977l1.879-.843.838-2.856h1.148v3.101h3.807v1.575h-3.807v7.874c0 .806.188 1.424.562 1.855s.89.647 1.544.647z"/><path d="m841.217 579.005-2.406-7.85c-.15-.479-.434-1.57-.85-3.271h-.096c-.318 1.424-.598 2.523-.838 3.296l-2.477 7.825h-2.299l-3.578-13.38h2.082c.846 3.361 1.49 5.921 1.934 7.679s.695 2.942.76 3.553h.096c.088-.464.23-1.064.426-1.801s.365-1.32.508-1.752l2.406-7.679h2.154l2.346 7.679c.447 1.4.75 2.576.91 3.528h.096c.031-.293.117-.745.256-1.355.141-.61.973-3.894 2.496-9.852h2.059l-3.627 13.38z"/><path d="m860.771 572.303c0 2.182-.539 3.885-1.617 5.109-1.076 1.225-2.564 1.837-4.463 1.837-1.174 0-2.215-.281-3.125-.843-.908-.562-1.611-1.367-2.105-2.417s-.742-2.278-.742-3.687c0-2.181.535-3.88 1.604-5.097s2.553-1.825 4.453-1.825c1.834 0 3.293.623 4.373 1.868 1.081 1.246 1.622 2.931 1.622 5.055zm-9.994 0c0 1.709.336 3.012 1.006 3.906.67.896 1.654 1.343 2.955 1.343s2.289-.445 2.963-1.336c.674-.892 1.012-2.195 1.012-3.913 0-1.7-.338-2.992-1.012-3.876-.674-.883-1.67-1.324-2.986-1.324-1.301 0-2.281.436-2.943 1.307-.665.869-.995 2.168-.995 3.893z"/><path d="m870.115 565.381c.582 0 1.104.049 1.566.146l-.275 1.88c-.541-.122-1.021-.183-1.436-.183-1.061 0-1.969.439-2.723 1.318s-1.131 1.974-1.131 3.284v7.178h-1.986v-13.38h1.639l.229 2.479h.096c.486-.871 1.072-1.542 1.76-2.015.685-.471 1.439-.707 2.261-.707z"/><path d="m875.977 572.156c.344-.496.865-1.147 1.568-1.953l4.236-4.578h2.357l-5.312 5.701 5.684 7.679h-2.404l-4.633-6.323-1.496 1.318v5.005h-1.963v-18.995h1.963v10.071c0 .448-.031 1.14-.096 2.075z"/><path d="m895.219 575.354c0 1.245-.455 2.206-1.363 2.881-.91.676-2.188 1.014-3.83 1.014-1.74 0-3.096-.281-4.07-.843v-1.88c.631.326 1.307.582 2.029.77s1.418.28 2.088.28c1.037 0 1.836-.168 2.395-.506s.838-.853.838-1.545c0-.521-.223-.966-.664-1.336-.443-.371-1.307-.808-2.592-1.312-1.221-.464-2.088-.869-2.604-1.215-.514-.346-.896-.738-1.148-1.178s-.377-.965-.377-1.575c0-1.091.434-1.951 1.305-2.582.869-.631 2.062-.946 3.578-.946 1.412 0 2.793.293 4.141.879l-.705 1.648c-1.316-.554-2.51-.83-3.58-.83-.941 0-1.65.15-2.129.451-.479.302-.719.717-.719 1.246 0 .357.09.663.27.915s.469.492.867.721c.398.228 1.166.558 2.299.988 1.555.578 2.605 1.16 3.152 1.746s.819 1.323.819 2.209z"/><path d="m387.132 474.679h-15.732v-27.221h15.732v4.729h-9.94v5.977h9.249v4.729h-9.249v7.019h9.94z"/><path d="m407.065 474.679-.766-2.663h-.299c-.61.968-1.476 1.716-2.597 2.244s-2.398.792-3.83.792c-2.454 0-4.304-.655-5.549-1.964s-1.868-3.193-1.868-5.651v-13.573h5.699v12.158c0 1.502.268 2.628.803 3.379s1.389 1.126 2.56 1.126c1.594 0 2.747-.531 3.457-1.592s1.065-2.82 1.065-5.278v-9.793h5.699v20.816h-4.374z"/><path d="m428.96 453.472c.772 0 1.414.056 1.924.167l-.43 5.325c-.461-.124-1.021-.186-1.682-.186-1.819 0-3.235.465-4.25 1.396-1.016.931-1.523 2.234-1.523 3.91v10.594h-5.699v-20.816h4.316l.84 3.5h.28c.648-1.167 1.523-2.107 2.625-2.821 1.104-.712 2.303-1.069 3.599-1.069z"/><path d="m453.545 464.234c0 3.389-.897 6.039-2.691 7.95-1.793 1.912-4.291 2.868-7.492 2.868-2.005 0-3.774-.438-5.306-1.313s-2.709-2.132-3.531-3.77c-.822-1.639-1.233-3.55-1.233-5.735 0-3.401.891-6.044 2.672-7.932 1.781-1.886 4.285-2.83 7.511-2.83 2.005 0 3.774.435 5.306 1.304s2.709 2.116 3.531 3.742 1.233 3.531 1.233 5.716zm-14.442 0c0 2.061.339 3.619 1.018 4.673.679 1.055 1.784 1.583 3.316 1.583 1.52 0 2.613-.524 3.279-1.573s1-2.609 1-4.683c0-2.06-.336-3.605-1.009-4.636-.673-1.03-1.775-1.545-3.307-1.545-1.52 0-2.616.512-3.289 1.536-.672 1.024-1.008 2.572-1.008 4.645z"/><path d="m469.611 475.052c-2.454 0-4.378-.888-5.773-2.663h-.299c.199 1.738.299 2.743.299 3.016v8.435h-5.699v-29.977h4.634l.803 2.7h.262c1.333-2.06 3.307-3.091 5.923-3.091 2.466 0 4.397.95 5.792 2.849s2.093 4.537 2.093 7.913c0 2.222-.327 4.152-.981 5.791s-1.585 2.886-2.793 3.743-2.629 1.284-4.261 1.284zm-1.682-17.037c-1.408 0-2.435.432-3.083 1.294-.647.863-.984 2.287-1.009 4.273v.614c0 2.234.333 3.835 1 4.804s1.722 1.452 3.167 1.452c2.553 0 3.831-2.098 3.831-6.293 0-2.048-.315-3.584-.944-4.608s-1.617-1.536-2.962-1.536z"/><path d="m491.692 475.052c-3.363 0-5.991-.925-7.884-2.774-1.894-1.849-2.84-4.468-2.84-7.857 0-3.488.875-6.185 2.625-8.09s4.169-2.858 7.258-2.858c2.952 0 5.25.838 6.895 2.514s2.466 3.991 2.466 6.945v2.756h-13.471c.062 1.613.542 2.874 1.439 3.779.896.906 2.155 1.359 3.774 1.359 1.258 0 2.448-.13 3.569-.391s2.292-.676 3.513-1.248v4.394c-.997.497-2.062.866-3.195 1.108s-2.517.363-4.149.363zm-.803-17.539c-1.208 0-2.155.382-2.84 1.145s-1.078 1.846-1.177 3.249h7.997c-.025-1.403-.392-2.486-1.102-3.249s-1.67-1.145-2.878-1.145z"/><path d="m517.997 474.679-1.102-2.83h-.149c-.959 1.204-1.946 2.039-2.961 2.504-1.016.465-2.339.698-3.971.698-2.005 0-3.584-.571-4.736-1.713s-1.728-2.768-1.728-4.878c0-2.209.775-3.838 2.326-4.887s3.889-1.629 7.016-1.741l3.625-.111v-.913c0-2.11-1.084-3.165-3.251-3.165-1.669 0-3.631.502-5.886 1.508l-1.887-3.835c2.404-1.253 5.07-1.88 7.997-1.88 2.802 0 4.951.608 6.446 1.825s2.242 3.066 2.242 5.548v13.871h-3.981zm-1.682-9.644-2.205.074c-1.657.05-2.89.348-3.699.894-.81.546-1.214 1.377-1.214 2.495 0 1.602.921 2.402 2.765 2.402 1.32 0 2.376-.378 3.167-1.136.791-.757 1.187-1.762 1.187-3.016v-1.713z"/><path d="m547.011 474.679h-5.699v-12.158c0-1.501-.268-2.628-.803-3.379-.536-.75-1.389-1.126-2.56-1.126-1.594 0-2.747.531-3.457 1.592s-1.065 2.821-1.065 5.278v9.793h-5.699v-20.816h4.354l.766 2.663h.317c.635-1.005 1.51-1.766 2.625-2.281 1.114-.515 2.382-.773 3.802-.773 2.429 0 4.272.655 5.53 1.964 1.258 1.31 1.887 3.2 1.887 5.669v13.574z"/><path d="m574.639 451.871c-2.18 0-3.868.816-5.063 2.448-1.196 1.632-1.793 3.907-1.793 6.824 0 6.07 2.286 9.105 6.857 9.105 1.918 0 4.241-.478 6.969-1.434v4.841c-2.242.931-4.746 1.396-7.511 1.396-3.974 0-7.013-1.201-9.118-3.603s-3.157-5.849-3.157-10.343c0-2.83.517-5.309 1.551-7.438s2.519-3.761 4.456-4.897 4.207-1.704 6.81-1.704c2.653 0 5.319.64 7.997 1.918l-1.869 4.692c-1.021-.484-2.049-.906-3.083-1.266-1.035-.359-2.05-.539-3.046-.539z"/><path d="m605.839 464.234c0 3.389-.897 6.039-2.691 7.95-1.793 1.912-4.291 2.868-7.492 2.868-2.005 0-3.774-.438-5.306-1.313s-2.709-2.132-3.531-3.77c-.822-1.639-1.233-3.55-1.233-5.735 0-3.401.891-6.044 2.672-7.932 1.781-1.886 4.285-2.83 7.511-2.83 2.005 0 3.774.435 5.306 1.304s2.709 2.116 3.531 3.742 1.233 3.531 1.233 5.716zm-14.443 0c0 2.061.339 3.619 1.018 4.673.679 1.055 1.784 1.583 3.316 1.583 1.52 0 2.613-.524 3.279-1.573s1-2.609 1-4.683c0-2.06-.336-3.605-1.009-4.636-.673-1.03-1.775-1.545-3.307-1.545-1.52 0-2.616.512-3.289 1.536-.672 1.024-1.008 2.572-1.008 4.645z"/><path d="m629.714 474.679h-5.699v-12.158c0-1.501-.268-2.628-.803-3.379-.536-.75-1.389-1.126-2.56-1.126-1.594 0-2.747.531-3.457 1.592s-1.065 2.821-1.065 5.278v9.793h-5.699v-20.816h4.354l.766 2.663h.317c.635-1.005 1.51-1.766 2.625-2.281 1.114-.515 2.382-.773 3.802-.773 2.429 0 4.272.655 5.53 1.964 1.258 1.31 1.887 3.2 1.887 5.669v13.574z"/><path d="m647.014 458.127h-4.934v16.552h-5.698v-16.552h-3.139v-2.737l3.139-1.527v-1.527c0-2.371.585-4.102 1.756-5.194s3.045-1.639 5.624-1.639c1.969 0 3.719.292 5.25.875l-1.457 4.171c-1.146-.36-2.205-.54-3.176-.54-.811 0-1.395.239-1.756.717s-.543 1.089-.543 1.834v1.303h4.934z"/><path d="m659.622 475.052c-3.363 0-5.991-.925-7.885-2.774s-2.84-4.468-2.84-7.857c0-3.488.875-6.185 2.625-8.09s4.17-2.858 7.259-2.858c2.952 0 5.25.838 6.895 2.514s2.467 3.991 2.467 6.945v2.756h-13.472c.062 1.613.542 2.874 1.438 3.779.897.906 2.155 1.359 3.774 1.359 1.258 0 2.447-.13 3.568-.391s2.292-.676 3.513-1.248v4.394c-.996.497-2.062.866-3.194 1.108-1.133.242-2.516.363-4.148.363zm-.803-17.539c-1.209 0-2.155.382-2.841 1.145-.685.763-1.077 1.846-1.177 3.249h7.997c-.025-1.403-.393-2.486-1.103-3.249s-1.668-1.145-2.876-1.145z"/><path d="m684.319 453.472c.772 0 1.413.056 1.924.167l-.43 5.325c-.461-.124-1.021-.186-1.681-.186-1.819 0-3.236.465-4.251 1.396-1.016.931-1.522 2.234-1.522 3.91v10.594h-5.699v-20.816h4.316l.841 3.5h.28c.647-1.167 1.522-2.107 2.625-2.821s2.301-1.069 3.597-1.069z"/><path d="m699.376 475.052c-3.363 0-5.991-.925-7.885-2.774s-2.84-4.468-2.84-7.857c0-3.488.875-6.185 2.625-8.09s4.17-2.858 7.259-2.858c2.952 0 5.25.838 6.895 2.514s2.467 3.991 2.467 6.945v2.756h-13.472c.062 1.613.542 2.874 1.438 3.779.897.906 2.155 1.359 3.774 1.359 1.258 0 2.447-.13 3.568-.391s2.292-.676 3.513-1.248v4.394c-.996.497-2.062.866-3.194 1.108-1.133.242-2.516.363-4.148.363zm-.803-17.539c-1.209 0-2.155.382-2.841 1.145-.685.763-1.077 1.846-1.177 3.249h7.997c-.025-1.403-.393-2.486-1.103-3.249s-1.668-1.145-2.876-1.145z"/><path d="m731.696 474.679h-5.699v-12.158c0-1.501-.268-2.628-.803-3.379-.536-.75-1.39-1.126-2.56-1.126-1.595 0-2.747.531-3.457 1.592s-1.064 2.821-1.064 5.278v9.793h-5.699v-20.816h4.354l.766 2.663h.318c.635-1.005 1.51-1.766 2.625-2.281 1.114-.515 2.382-.773 3.802-.773 2.43 0 4.272.655 5.53 1.964 1.259 1.31 1.888 3.2 1.888 5.669v13.574z"/><path d="m745.931 475.052c-6.502 0-9.753-3.556-9.753-10.669 0-3.538.885-6.24 2.653-8.108s4.304-2.802 7.604-2.802c2.416 0 4.584.472 6.502 1.415l-1.682 4.394c-.896-.36-1.731-.654-2.504-.884-.772-.229-1.544-.344-2.316-.344-2.965 0-4.447 2.098-4.447 6.293 0 4.071 1.482 6.107 4.447 6.107 1.096 0 2.111-.146 3.045-.438.935-.292 1.869-.748 2.803-1.369v4.86c-.922.583-1.853.987-2.793 1.21s-2.127.335-3.559.335z"/><path d="m766.461 475.052c-3.363 0-5.991-.925-7.885-2.774s-2.84-4.468-2.84-7.857c0-3.488.875-6.185 2.625-8.09s4.17-2.858 7.259-2.858c2.952 0 5.25.838 6.895 2.514s2.467 3.991 2.467 6.945v2.756h-13.472c.062 1.613.542 2.874 1.438 3.779.897.906 2.155 1.359 3.774 1.359 1.258 0 2.447-.13 3.568-.391s2.292-.676 3.513-1.248v4.394c-.996.497-2.062.866-3.194 1.108-1.133.242-2.516.363-4.148.363zm-.803-17.539c-1.209 0-2.155.382-2.841 1.145-.685.763-1.077 1.846-1.177 3.249h7.997c-.025-1.403-.393-2.486-1.103-3.249s-1.668-1.145-2.876-1.145z"/><path d="m808.308 464.234c0 3.389-.897 6.039-2.69 7.95-1.794 1.912-4.292 2.868-7.492 2.868-2.006 0-3.774-.438-5.307-1.313-1.532-.875-2.709-2.132-3.531-3.77-.822-1.639-1.233-3.55-1.233-5.735 0-3.401.891-6.044 2.672-7.932 1.781-1.886 4.285-2.83 7.511-2.83 2.006 0 3.774.435 5.307 1.304 1.532.869 2.709 2.116 3.531 3.742s1.232 3.531 1.232 5.716zm-14.444 0c0 2.061.34 3.619 1.019 4.673.679 1.055 1.784 1.583 3.316 1.583 1.52 0 2.612-.524 3.279-1.573.666-1.049.999-2.609.999-4.683 0-2.06-.336-3.605-1.009-4.636-.672-1.03-1.774-1.545-3.307-1.545-1.52 0-2.616.512-3.288 1.536s-1.009 2.572-1.009 4.645z"/><path d="m824.448 458.127h-4.933v16.552h-5.698v-16.552h-3.14v-2.737l3.14-1.527v-1.527c0-2.371.585-4.102 1.756-5.194s3.046-1.639 5.624-1.639c1.968 0 3.718.292 5.25.875l-1.457 4.171c-1.146-.36-2.205-.54-3.177-.54-.81 0-1.395.239-1.756.717s-.542 1.089-.542 1.834v1.303h4.933z"/><path d="m856.746 455.949c0 2.93-.919 5.17-2.756 6.721-1.837 1.552-4.45 2.328-7.838 2.328h-2.485v9.682h-5.792v-27.221h8.726c3.313 0 5.833.71 7.558 2.132 1.725 1.421 2.587 3.54 2.587 6.358zm-13.079 4.319h1.906c1.781 0 3.113-.351 3.998-1.052s1.327-1.722 1.327-3.063c0-1.353-.371-2.352-1.112-2.998-.741-.645-1.902-.968-3.484-.968h-2.635z"/><path d="m880.323 464.234c0 3.389-.897 6.039-2.69 7.95-1.794 1.912-4.292 2.868-7.492 2.868-2.006 0-3.774-.438-5.307-1.313-1.532-.875-2.709-2.132-3.531-3.77-.822-1.639-1.233-3.55-1.233-5.735 0-3.401.891-6.044 2.672-7.932 1.781-1.886 4.285-2.83 7.511-2.83 2.006 0 3.774.435 5.307 1.304 1.532.869 2.709 2.116 3.531 3.742s1.232 3.531 1.232 5.716zm-14.443 0c0 2.061.34 3.619 1.019 4.673.679 1.055 1.784 1.583 3.316 1.583 1.52 0 2.612-.524 3.279-1.573.666-1.049.999-2.609.999-4.683 0-2.06-.336-3.605-1.009-4.636-.672-1.03-1.774-1.545-3.307-1.545-1.52 0-2.616.512-3.288 1.536s-1.009 2.572-1.009 4.645z"/><path d="m899.489 468.498c0 2.135-.744 3.761-2.232 4.878s-3.715 1.676-6.68 1.676c-1.52 0-2.814-.103-3.886-.308-1.071-.205-2.074-.505-3.009-.903v-4.692c1.059.497 2.252.912 3.578 1.248 1.327.335 2.494.502 3.504.502 2.067 0 3.102-.596 3.102-1.787 0-.447-.138-.81-.411-1.089-.274-.279-.748-.596-1.42-.95-.673-.354-1.569-.766-2.69-1.238-1.607-.67-2.787-1.291-3.541-1.862s-1.302-1.226-1.645-1.964c-.343-.739-.514-1.648-.514-2.728 0-1.849.72-3.28 2.158-4.292s3.479-1.518 6.119-1.518c2.516 0 4.964.546 7.343 1.639l-1.719 4.096c-1.047-.447-2.024-.813-2.934-1.099-.909-.285-1.838-.428-2.784-.428-1.682 0-2.522.453-2.522 1.359 0 .509.271.949.813 1.322.541.373 1.728.925 3.559 1.657 1.632.658 2.828 1.272 3.588 1.843s1.32 1.229 1.682 1.974c.361.746.541 1.634.541 2.664z"/><path d="m912.623 470.527c.996 0 2.191-.217 3.587-.652v4.227c-1.42.633-3.164.95-5.231.95-2.279 0-3.939-.574-4.979-1.723-1.04-1.148-1.56-2.87-1.56-5.167v-10.036h-2.729v-2.402l3.139-1.899 1.645-4.394h3.644v4.431h5.848v4.264h-5.848v10.036c0 .807.228 1.403.682 1.788.453.385 1.054.577 1.802.577z"/><path d="m933.583 474.679-1.103-2.83h-.149c-.959 1.204-1.946 2.039-2.961 2.504-1.016.465-2.339.698-3.971.698-2.006 0-3.584-.571-4.736-1.713s-1.729-2.768-1.729-4.878c0-2.209.775-3.838 2.326-4.887s3.89-1.629 7.017-1.741l3.624-.111v-.913c0-2.11-1.083-3.165-3.251-3.165-1.669 0-3.631.502-5.885 1.508l-1.888-3.835c2.404-1.253 5.069-1.88 7.997-1.88 2.803 0 4.951.608 6.446 1.825 1.494 1.217 2.241 3.066 2.241 5.548v13.871h-3.978zm-1.682-9.644-2.204.074c-1.657.05-2.891.348-3.7.894s-1.214 1.377-1.214 2.495c0 1.602.922 2.402 2.765 2.402 1.32 0 2.376-.378 3.167-1.136.791-.757 1.187-1.762 1.187-3.016v-1.713z"/><path d="m949.015 474.679h-5.699v-28.971h5.699z"/><path d="m384.217 517.68-1.102-2.83h-.149c-.959 1.203-1.946 2.038-2.961 2.504-1.016.465-2.339.698-3.971.698-2.005 0-3.584-.571-4.736-1.713s-1.728-2.769-1.728-4.878c0-2.209.775-3.838 2.326-4.887s3.889-1.629 7.016-1.741l3.625-.111v-.913c0-2.11-1.084-3.165-3.251-3.165-1.669 0-3.631.502-5.886 1.508l-1.887-3.835c2.404-1.253 5.07-1.88 7.997-1.88 2.802 0 4.951.608 6.446 1.825s2.242 3.066 2.242 5.548v13.872h-3.981zm-1.681-9.645-2.205.074c-1.657.05-2.89.348-3.699.894-.81.546-1.214 1.377-1.214 2.495 0 1.602.921 2.402 2.765 2.402 1.32 0 2.376-.378 3.167-1.136.791-.757 1.187-1.762 1.187-3.016v-1.713z"/><path d="m413.231 517.68h-5.699v-12.159c0-1.501-.268-2.628-.803-3.379-.536-.75-1.389-1.126-2.56-1.126-1.594 0-2.747.531-3.457 1.592s-1.065 2.821-1.065 5.278v9.794h-5.699v-20.816h4.354l.766 2.663h.317c.635-1.005 1.51-1.766 2.625-2.281 1.114-.515 2.382-.773 3.802-.773 2.429 0 4.272.655 5.53 1.964 1.258 1.31 1.887 3.2 1.887 5.669v13.574z"/><path d="m425.597 518.052c-2.454 0-4.381-.95-5.783-2.849-1.401-1.899-2.102-4.531-2.102-7.895 0-3.414.713-6.073 2.14-7.979 1.426-1.905 3.391-2.858 5.895-2.858 2.628 0 4.634 1.018 6.017 3.054h.187c-.287-1.552-.43-2.936-.43-4.152v-6.666h5.717v28.971h-4.372l-1.102-2.7h-.243c-1.297 2.049-3.271 3.074-5.924 3.074zm1.999-4.525c1.458 0 2.525-.422 3.205-1.266.679-.844 1.049-2.278 1.112-4.301v-.614c0-2.234-.346-3.835-1.037-4.804s-1.815-1.452-3.373-1.452c-1.271 0-2.258.537-2.961 1.61-.704 1.074-1.056 2.635-1.056 4.683s.355 3.584 1.065 4.608c.709 1.025 1.724 1.536 3.045 1.536z"/><path d="m463.894 517.68h-5.792v-22.417h-7.417v-4.804h20.627v4.804h-7.417v22.417z"/><path d="m484.406 518.052c-3.363 0-5.991-.925-7.884-2.774-1.894-1.85-2.84-4.468-2.84-7.857 0-3.488.875-6.185 2.625-8.09s4.169-2.858 7.258-2.858c2.952 0 5.25.838 6.895 2.514s2.466 3.991 2.466 6.945v2.756h-13.471c.062 1.613.542 2.874 1.439 3.779.896.906 2.155 1.359 3.774 1.359 1.258 0 2.448-.13 3.569-.392 1.121-.26 2.292-.676 3.513-1.247v4.394c-.997.497-2.062.866-3.195 1.108s-2.517.363-4.149.363zm-.803-17.539c-1.208 0-2.155.382-2.84 1.145s-1.078 1.846-1.177 3.249h7.997c-.025-1.403-.392-2.486-1.102-3.249s-1.67-1.145-2.878-1.145z"/><path d="m503.143 517.68h-5.699v-28.971h5.699z"/><path d="m518.461 518.052c-3.363 0-5.991-.925-7.884-2.774-1.894-1.85-2.84-4.468-2.84-7.857 0-3.488.875-6.185 2.625-8.09s4.169-2.858 7.258-2.858c2.952 0 5.25.838 6.895 2.514s2.466 3.991 2.466 6.945v2.756h-13.471c.062 1.613.542 2.874 1.439 3.779.896.906 2.155 1.359 3.774 1.359 1.258 0 2.448-.13 3.569-.392 1.121-.26 2.292-.676 3.513-1.247v4.394c-.997.497-2.062.866-3.195 1.108s-2.517.363-4.149.363zm-.803-17.539c-1.208 0-2.155.382-2.84 1.145s-1.078 1.846-1.177 3.249h7.997c-.025-1.403-.392-2.486-1.102-3.249s-1.67-1.145-2.878-1.145z"/><path d="m539.982 518.052c-6.502 0-9.753-3.556-9.753-10.669 0-3.538.884-6.24 2.653-8.108s4.303-2.802 7.604-2.802c2.417 0 4.583.472 6.502 1.415l-1.682 4.394c-.897-.36-1.731-.654-2.503-.884-.772-.229-1.545-.344-2.317-.344-2.965 0-4.447 2.098-4.447 6.293 0 4.071 1.482 6.107 4.447 6.107 1.096 0 2.111-.146 3.045-.438s1.868-.748 2.803-1.369v4.859c-.922.584-1.853.987-2.793 1.211-.94.222-2.126.335-3.559.335z"/><path d="m570.042 507.234c0 3.389-.897 6.04-2.691 7.95-1.793 1.912-4.291 2.868-7.492 2.868-2.005 0-3.774-.438-5.306-1.313s-2.709-2.131-3.531-3.77-1.233-3.55-1.233-5.735c0-3.401.891-6.044 2.672-7.932 1.781-1.886 4.285-2.83 7.511-2.83 2.005 0 3.774.435 5.306 1.304s2.709 2.116 3.531 3.742 1.233 3.531 1.233 5.716zm-14.442 0c0 2.061.339 3.619 1.018 4.673.679 1.056 1.784 1.583 3.316 1.583 1.52 0 2.613-.524 3.279-1.574.666-1.049 1-2.609 1-4.683 0-2.06-.336-3.605-1.009-4.636-.673-1.03-1.775-1.545-3.307-1.545-1.52 0-2.616.512-3.289 1.536-.672 1.025-1.008 2.573-1.008 4.646z"/><path d="m593.339 517.68h-5.699v-12.159c0-1.501-.252-2.628-.757-3.379-.504-.75-1.298-1.126-2.382-1.126-1.457 0-2.516.534-3.176 1.602s-.99 2.824-.99 5.269v9.794h-5.699v-20.816h4.354l.766 2.663h.317c.561-.956 1.37-1.704 2.429-2.244s2.273-.81 3.644-.81c3.126 0 5.244 1.018 6.353 3.054h.504c.561-.968 1.385-1.719 2.476-2.253 1.09-.534 2.32-.801 3.69-.801 2.367 0 4.157.605 5.372 1.815s1.822 3.15 1.822 5.818v13.574h-5.717v-12.159c0-1.501-.252-2.628-.757-3.379-.504-.75-1.298-1.126-2.382-1.126-1.396 0-2.438.497-3.13 1.49s-1.037 2.569-1.037 4.729v10.444z"/><path d="m630.798 517.68h-5.699v-12.159c0-1.501-.252-2.628-.757-3.379-.504-.75-1.298-1.126-2.382-1.126-1.457 0-2.516.534-3.176 1.602s-.99 2.824-.99 5.269v9.794h-5.699v-20.816h4.354l.766 2.663h.317c.561-.956 1.37-1.704 2.429-2.244s2.273-.81 3.644-.81c3.126 0 5.244 1.018 6.353 3.054h.504c.561-.968 1.385-1.719 2.476-2.253 1.09-.534 2.32-.801 3.69-.801 2.367 0 4.157.605 5.372 1.815 1.214 1.21 1.821 3.15 1.821 5.818v13.574h-5.717v-12.159c0-1.501-.252-2.628-.757-3.379-.504-.75-1.298-1.126-2.382-1.126-1.396 0-2.438.497-3.13 1.49s-1.037 2.569-1.037 4.729z"/><path d="m664.351 517.68-.766-2.663h-.299c-.611.968-1.477 1.716-2.598 2.243s-2.397.792-3.83.792c-2.454 0-4.304-.655-5.549-1.964-1.246-1.311-1.869-3.193-1.869-5.651v-13.573h5.699v12.158c0 1.502.268 2.628.803 3.379.536.751 1.39 1.126 2.561 1.126 1.594 0 2.746-.531 3.456-1.592s1.065-2.82 1.065-5.278v-9.793h5.698v20.816z"/><path d="m693.869 517.68h-5.699v-12.159c0-1.501-.268-2.628-.803-3.379-.536-.75-1.39-1.126-2.56-1.126-1.595 0-2.747.531-3.457 1.592s-1.064 2.821-1.064 5.278v9.794h-5.699v-20.816h4.354l.766 2.663h.318c.635-1.005 1.51-1.766 2.625-2.281 1.114-.515 2.382-.773 3.802-.773 2.43 0 4.272.655 5.53 1.964 1.259 1.31 1.888 3.2 1.888 5.669v13.574z"/><path d="m699.377 491.482c0-1.849 1.034-2.774 3.102-2.774s3.102.925 3.102 2.774c0 .881-.258 1.567-.775 2.058-.517.49-1.292.735-2.326.735-2.069 0-3.103-.931-3.103-2.793zm5.942 26.198h-5.699v-20.816h5.699z"/><path d="m719.666 518.052c-6.502 0-9.753-3.556-9.753-10.669 0-3.538.885-6.24 2.653-8.108s4.304-2.802 7.604-2.802c2.416 0 4.584.472 6.502 1.415l-1.682 4.394c-.896-.36-1.731-.654-2.504-.884-.772-.229-1.544-.344-2.316-.344-2.965 0-4.447 2.098-4.447 6.293 0 4.071 1.482 6.107 4.447 6.107 1.096 0 2.111-.146 3.045-.438.935-.292 1.869-.748 2.803-1.369v4.859c-.922.584-1.853.987-2.793 1.211-.94.222-2.126.335-3.559.335z"/><path d="m744.008 517.68-1.103-2.83h-.149c-.959 1.203-1.946 2.038-2.961 2.504-1.016.465-2.339.698-3.971.698-2.006 0-3.584-.571-4.736-1.713s-1.729-2.769-1.729-4.878c0-2.209.775-3.838 2.326-4.887s3.89-1.629 7.017-1.741l3.624-.111v-.913c0-2.11-1.083-3.165-3.251-3.165-1.669 0-3.631.502-5.885 1.508l-1.888-3.835c2.404-1.253 5.069-1.88 7.997-1.88 2.803 0 4.951.608 6.446 1.825 1.494 1.217 2.241 3.066 2.241 5.548v13.872h-3.978zm-1.682-9.645-2.204.074c-1.657.05-2.891.348-3.7.894s-1.214 1.377-1.214 2.495c0 1.602.922 2.402 2.765 2.402 1.32 0 2.376-.378 3.167-1.136.791-.757 1.187-1.762 1.187-3.016v-1.713z"/><path d="m762.541 513.527c.996 0 2.191-.217 3.587-.652v4.227c-1.42.633-3.164.95-5.231.95-2.279 0-3.939-.574-4.979-1.723-1.04-1.147-1.56-2.87-1.56-5.167v-10.036h-2.729v-2.402l3.139-1.899 1.645-4.394h3.644v4.431h5.848v4.264h-5.848v10.036c0 .807.228 1.403.682 1.788.453.385 1.054.577 1.802.577z"/><path d="m769.992 491.482c0-1.849 1.034-2.774 3.102-2.774s3.102.925 3.102 2.774c0 .881-.258 1.567-.775 2.058-.517.49-1.292.735-2.326.735-2.069 0-3.103-.931-3.103-2.793zm5.943 26.198h-5.699v-20.816h5.699z"/><path d="m800.782 507.234c0 3.389-.897 6.04-2.69 7.95-1.794 1.912-4.292 2.868-7.492 2.868-2.006 0-3.774-.438-5.307-1.313-1.532-.875-2.709-2.131-3.531-3.77s-1.233-3.55-1.233-5.735c0-3.401.891-6.044 2.672-7.932 1.781-1.886 4.285-2.83 7.511-2.83 2.006 0 3.774.435 5.307 1.304 1.532.869 2.709 2.116 3.531 3.742s1.232 3.531 1.232 5.716zm-14.443 0c0 2.061.34 3.619 1.019 4.673.679 1.056 1.784 1.583 3.316 1.583 1.52 0 2.612-.524 3.279-1.574.666-1.049.999-2.609.999-4.683 0-2.06-.336-3.605-1.009-4.636-.672-1.03-1.774-1.545-3.307-1.545-1.52 0-2.616.512-3.288 1.536-.672 1.025-1.009 2.573-1.009 4.646z"/><path d="m824.657 517.68h-5.699v-12.159c0-1.501-.268-2.628-.803-3.379-.536-.75-1.39-1.126-2.56-1.126-1.595 0-2.747.531-3.457 1.592s-1.064 2.821-1.064 5.278v9.794h-5.699v-20.816h4.354l.766 2.663h.318c.635-1.005 1.51-1.766 2.625-2.281 1.114-.515 2.382-.773 3.802-.773 2.43 0 4.272.655 5.53 1.964 1.259 1.31 1.888 3.2 1.888 5.669v13.574z"/><path d="m844.982 511.498c0 2.135-.744 3.761-2.232 4.878s-3.715 1.676-6.68 1.676c-1.52 0-2.814-.103-3.886-.308s-2.074-.506-3.009-.902v-4.692c1.059.497 2.252.912 3.578 1.247 1.327.336 2.494.503 3.504.503 2.067 0 3.102-.596 3.102-1.787 0-.447-.138-.81-.411-1.089-.274-.279-.748-.596-1.42-.95-.673-.354-1.569-.766-2.69-1.238-1.607-.67-2.787-1.291-3.541-1.862s-1.302-1.226-1.645-1.964c-.343-.739-.514-1.648-.514-2.728 0-1.849.72-3.28 2.158-4.292s3.479-1.518 6.119-1.518c2.516 0 4.964.546 7.343 1.639l-1.719 4.096c-1.047-.447-2.024-.813-2.934-1.099-.909-.285-1.838-.428-2.784-.428-1.682 0-2.522.453-2.522 1.359 0 .509.271.949.813 1.322.541.373 1.728.925 3.559 1.657 1.632.658 2.828 1.272 3.588 1.843s1.32 1.229 1.682 1.974c.361.745.541 1.633.541 2.663z"/><path d="m876.31 517.68-1.98-6.48h-9.959l-1.98 6.48h-6.24l9.641-27.333h7.082l9.678 27.333zm-3.364-11.321c-1.831-5.871-2.861-9.191-3.092-9.961s-.396-1.378-.495-1.825c-.411 1.589-1.589 5.518-3.531 11.786z"/><path d="m892.039 518.052c-2.454 0-4.381-.95-5.782-2.849s-2.103-4.531-2.103-7.895c0-3.414.713-6.073 2.14-7.979 1.426-1.905 3.391-2.858 5.895-2.858 2.628 0 4.634 1.018 6.017 3.054h.187c-.286-1.552-.43-2.936-.43-4.152v-6.666h5.718v28.971h-4.372l-1.103-2.7h-.243c-1.297 2.049-3.271 3.074-5.924 3.074zm1.999-4.525c1.458 0 2.525-.422 3.204-1.266.68-.844 1.05-2.278 1.112-4.301v-.614c0-2.234-.346-3.835-1.037-4.804s-1.815-1.452-3.372-1.452c-1.271 0-2.258.537-2.962 1.61-.704 1.074-1.056 2.635-1.056 4.683s.355 3.584 1.065 4.608c.711 1.025 1.726 1.536 3.046 1.536z"/><path d="m928.228 517.68h-5.699v-12.159c0-1.501-.252-2.628-.756-3.379-.505-.75-1.299-1.126-2.383-1.126-1.457 0-2.516.534-3.176 1.602-.661 1.067-.99 2.824-.99 5.269v9.794h-5.699v-20.816h4.354l.766 2.663h.318c.561-.956 1.37-1.704 2.429-2.244s2.273-.81 3.644-.81c3.126 0 5.243 1.018 6.353 3.054h.504c.561-.968 1.386-1.719 2.476-2.253s2.32-.801 3.69-.801c2.366 0 4.157.605 5.372 1.815 1.214 1.21 1.821 3.15 1.821 5.818v13.574h-5.717v-12.159c0-1.501-.253-2.628-.757-3.379-.505-.75-1.299-1.126-2.383-1.126-1.395 0-2.438.497-3.129 1.49s-1.037 2.569-1.037 4.729v10.444z"/><path d="m946.74 491.482c0-1.849 1.034-2.774 3.102-2.774s3.102.925 3.102 2.774c0 .881-.258 1.567-.775 2.058-.517.49-1.292.735-2.326.735-2.069 0-3.103-.931-3.103-2.793zm5.943 26.198h-5.699v-20.816h5.699z"/><path d="m977.828 517.68h-5.699v-12.159c0-1.501-.268-2.628-.803-3.379-.536-.75-1.39-1.126-2.56-1.126-1.595 0-2.747.531-3.457 1.592s-1.064 2.821-1.064 5.278v9.794h-5.699v-20.816h4.354l.766 2.663h.318c.635-1.005 1.51-1.766 2.625-2.281 1.114-.515 2.382-.773 3.802-.773 2.43 0 4.272.655 5.53 1.964 1.259 1.31 1.888 3.2 1.888 5.669v13.574z"/><path d="m983.337 491.482c0-1.849 1.034-2.774 3.102-2.774s3.102.925 3.102 2.774c0 .881-.258 1.567-.775 2.058-.517.49-1.292.735-2.326.735-2.069 0-3.103-.931-3.103-2.793zm5.942 26.198h-5.699v-20.816h5.699z"/><path d="m1009.716 511.498c0 2.135-.744 3.761-2.232 4.878s-3.715 1.676-6.68 1.676c-1.52 0-2.814-.103-3.886-.308s-2.074-.506-3.009-.902v-4.692c1.059.497 2.252.912 3.578 1.247 1.327.336 2.494.503 3.504.503 2.067 0 3.102-.596 3.102-1.787 0-.447-.138-.81-.411-1.089-.274-.279-.748-.596-1.42-.95-.673-.354-1.569-.766-2.69-1.238-1.607-.67-2.787-1.291-3.541-1.862s-1.302-1.226-1.645-1.964c-.343-.739-.514-1.648-.514-2.728 0-1.849.72-3.28 2.158-4.292s3.479-1.518 6.119-1.518c2.516 0 4.964.546 7.343 1.639l-1.719 4.096c-1.047-.447-2.024-.813-2.934-1.099-.909-.285-1.838-.428-2.784-.428-1.682 0-2.522.453-2.522 1.359 0 .509.271.949.813 1.322.541.373 1.728.925 3.559 1.657 1.632.658 2.828 1.272 3.588 1.843s1.32 1.229 1.682 1.974c.36.745.541 1.633.541 2.663z"/><path d="m1022.85 513.527c.996 0 2.191-.217 3.587-.652v4.227c-1.42.633-3.164.95-5.231.95-2.279 0-3.939-.574-4.979-1.723-1.04-1.147-1.56-2.87-1.56-5.167v-10.036h-2.729v-2.402l3.139-1.899 1.645-4.394h3.644v4.431h5.848v4.264h-5.848v10.036c0 .807.228 1.403.682 1.788.453.385 1.054.577 1.802.577z"/><path d="m1042.203 496.472c.772 0 1.413.056 1.924.167l-.43 5.325c-.461-.124-1.021-.186-1.681-.186-1.819 0-3.236.465-4.251 1.396-1.016.931-1.522 2.234-1.522 3.91v10.595h-5.699v-20.816h4.316l.841 3.5h.28c.647-1.167 1.522-2.107 2.625-2.821s2.301-1.07 3.597-1.07z"/><path d="m1061.071 517.68-1.103-2.83h-.149c-.959 1.203-1.946 2.038-2.961 2.504-1.016.465-2.339.698-3.971.698-2.006 0-3.584-.571-4.736-1.713s-1.729-2.769-1.729-4.878c0-2.209.775-3.838 2.326-4.887s3.89-1.629 7.017-1.741l3.624-.111v-.913c0-2.11-1.083-3.165-3.251-3.165-1.669 0-3.631.502-5.885 1.508l-1.888-3.835c2.404-1.253 5.069-1.88 7.997-1.88 2.803 0 4.951.608 6.446 1.825 1.494 1.217 2.241 3.066 2.241 5.548v13.872h-3.978zm-1.681-9.645-2.204.074c-1.657.05-2.891.348-3.7.894s-1.214 1.377-1.214 2.495c0 1.602.922 2.402 2.765 2.402 1.32 0 2.376-.378 3.167-1.136.791-.757 1.187-1.762 1.187-3.016v-1.713z"/><path d="m1079.604 513.527c.996 0 2.191-.217 3.587-.652v4.227c-1.42.633-3.164.95-5.231.95-2.279 0-3.939-.574-4.979-1.723-1.04-1.147-1.56-2.87-1.56-5.167v-10.036h-2.729v-2.402l3.139-1.899 1.645-4.394h3.644v4.431h5.848v4.264h-5.848v10.036c0 .807.228 1.403.682 1.788.453.385 1.053.577 1.802.577z"/><path d="m1087.055 491.482c0-1.849 1.034-2.774 3.102-2.774s3.102.925 3.102 2.774c0 .881-.258 1.567-.775 2.058-.517.49-1.292.735-2.326.735-2.069 0-3.103-.931-3.103-2.793zm5.942 26.198h-5.699v-20.816h5.699z"/><path d="m1117.845 507.234c0 3.389-.897 6.04-2.69 7.95-1.794 1.912-4.292 2.868-7.492 2.868-2.006 0-3.774-.438-5.307-1.313-1.532-.875-2.709-2.131-3.531-3.77s-1.233-3.55-1.233-5.735c0-3.401.891-6.044 2.672-7.932 1.781-1.886 4.285-2.83 7.511-2.83 2.006 0 3.774.435 5.307 1.304 1.532.869 2.709 2.116 3.531 3.742s1.232 3.531 1.232 5.716zm-14.444 0c0 2.061.34 3.619 1.019 4.673.679 1.056 1.784 1.583 3.316 1.583 1.52 0 2.612-.524 3.279-1.574.666-1.049.999-2.609.999-4.683 0-2.06-.336-3.605-1.009-4.636-.672-1.03-1.774-1.545-3.307-1.545-1.52 0-2.616.512-3.288 1.536-.672 1.025-1.009 2.573-1.009 4.646z"/><path d="m1141.72 517.68h-5.699v-12.159c0-1.501-.268-2.628-.803-3.379-.536-.75-1.39-1.126-2.56-1.126-1.595 0-2.747.531-3.457 1.592s-1.064 2.821-1.064 5.278v9.794h-5.699v-20.816h4.354l.766 2.663h.318c.635-1.005 1.51-1.766 2.625-2.281 1.114-.515 2.382-.773 3.802-.773 2.43 0 4.272.655 5.53 1.964 1.259 1.31 1.888 3.2 1.888 5.669v13.574z"/><path d="m1162.045 511.498c0 2.135-.744 3.761-2.232 4.878s-3.715 1.676-6.68 1.676c-1.52 0-2.814-.103-3.886-.308s-2.074-.506-3.009-.902v-4.692c1.059.497 2.252.912 3.578 1.247 1.327.336 2.494.503 3.504.503 2.067 0 3.102-.596 3.102-1.787 0-.447-.138-.81-.411-1.089-.274-.279-.748-.596-1.42-.95-.673-.354-1.569-.766-2.69-1.238-1.607-.67-2.787-1.291-3.541-1.862s-1.302-1.226-1.645-1.964c-.343-.739-.514-1.648-.514-2.728 0-1.849.72-3.28 2.158-4.292s3.479-1.518 6.119-1.518c2.516 0 4.964.546 7.343 1.639l-1.719 4.096c-1.047-.447-2.024-.813-2.934-1.099-.909-.285-1.838-.428-2.784-.428-1.682 0-2.522.453-2.522 1.359 0 .509.271.949.813 1.322.541.373 1.728.925 3.559 1.657 1.632.658 2.828 1.272 3.588 1.843s1.32 1.229 1.682 1.974c.36.745.541 1.633.541 2.663z"/></g></svg>