<?xml version="1.0" encoding="utf-8"?>
<!-- Generator: Adobe Illustrator 22.0.0, SVG Export Plug-In . SVG Version: 6.00 Build 0)  -->
<svg version="1.1" id="Capa_1" xmlns="http://www.w3.org/2000/svg" xmlns:xlink="http://www.w3.org/1999/xlink" x="0px" y="0px"
	 viewBox="0 0 556.7 406.2" style="enable-background:new 0 0 556.7 406.2;" xml:space="preserve">
<style type="text/css">
	.st0{fill:#757679;}
	.st1{fill:#8DBA38;}
	.st2{fill:#6B9B3B;}
	.st3{fill:#FFFFFF;}
	.st4{fill:#C6D420;}
</style>
<g>
	<rect x="16.8" y="307.9" class="st0" width="3.5" height="34.9"/>
	<polygon class="st0" points="29.9,307.9 34.6,307.9 54.1,336.8 54.2,336.8 54.2,307.9 57.6,307.9 57.6,342.8 54.2,342.8 
		33.5,312.1 33.4,312.1 33.4,342.8 29.9,342.8 	"/>
	<path class="st0" d="M68.2,333c0.2,4.4,3,7.2,7.3,7.2c3.7,0,7-2.8,7-6.9c0-5.4-5.4-6.7-7.8-7.4c-3.2-0.9-9-2.3-9-9.2
		c0-5.4,4.3-9.4,9.8-9.4c5.7,0,9.7,4.4,9.7,9.5h-3.5c0-3.5-2.9-6.3-6.2-6.3c-4,0-6.3,3.1-6.3,6.1c0,4.2,3.7,5.2,8.3,6.5
		c8.6,2.3,8.5,9,8.5,10.1c0,5.4-4.3,10.2-10.5,10.2c-4.5,0-10.6-2.7-10.7-10.4H68.2z"/>
	<polygon class="st0" points="98,311.1 90,311.1 90,307.9 109.4,307.9 109.4,311.1 101.5,311.1 101.5,342.8 98,342.8 	"/>
	<rect x="115.8" y="307.9" class="st0" width="3.5" height="34.9"/>
	<polygon class="st0" points="133.7,311.1 125.7,311.1 125.7,307.9 145.1,307.9 145.1,311.1 137.2,311.1 137.2,342.8 133.7,342.8 	
		"/>
	<path class="st0" d="M155,307.9v21.7c0,2.5,0.4,4.9,1.2,6.3c2.1,3.9,5.6,4.3,7.2,4.3c1.6,0,5.1-0.4,7.2-4.3
		c0.8-1.5,1.2-3.8,1.2-6.3v-21.7h3.5v21.7c0,2.9-0.5,5.4-1.3,7.3c-2.4,5.2-7.3,6.5-10.5,6.5c-3.2,0-8.1-1.3-10.6-6.5
		c-0.8-1.8-1.3-4.3-1.3-7.3v-21.7H155z"/>
	<polygon class="st0" points="189.6,311.1 181.6,311.1 181.6,307.9 201,307.9 201,311.1 193.1,311.1 193.1,342.8 189.6,342.8 	"/>
	<path class="st0" d="M224.3,307.3c9.8,0,18.5,7.8,18.5,18s-8.7,18-18.5,18c-9.9,0-18.4-8.1-18.4-17.8
		C205.9,314.6,215,307.3,224.3,307.3 M224.3,340.2c8.1,0,15-6.5,15-14.8c0-8.1-6.7-14.9-15-14.9c-7.9,0-14.9,6.4-14.9,15.1
		C209.4,333.5,216.2,340.2,224.3,340.2"/>
	<polygon class="st0" points="266.1,307.9 283.8,307.9 283.8,311.1 269.6,311.1 269.6,323.7 283.2,323.7 283.2,326.9 269.6,326.9 
		269.6,342.8 266.1,342.8 	"/>
	<polygon class="st0" points="291.5,307.9 310.6,307.9 310.6,311.1 295,311.1 295,323.6 310,323.6 310,326.8 295,326.8 295,339.6 
		310.6,339.6 310.6,342.8 291.5,342.8 	"/>
	<path class="st0" d="M319.4,307.9h10.2c4.3,0,8.5,1,11.4,2.9c6.1,3.8,7.9,10.5,7.9,14.6c0,3.2-1.3,10.2-7.9,14.5
		c-2.8,1.8-7.1,2.9-11.4,2.9h-10.2V307.9z M322.9,339.6h5c3.2,0,8,0,12-2.8c2.1-1.8,5.5-5.4,5.5-11.5c0-4.6-2.3-8.9-5.9-11.5
		c-3.1-2-6.4-2.7-11.5-2.7h-5V339.6z"/>
	<polygon class="st0" points="356.8,307.9 375.9,307.9 375.9,311.1 360.3,311.1 360.3,323.6 375.3,323.6 375.3,326.8 360.3,326.8 
		360.3,339.6 375.9,339.6 375.9,342.8 356.8,342.8 	"/>
	<path class="st0" d="M384.5,307.9h8.9c4.7,0,7,0.6,8.6,1.3c3.9,1.8,6.2,5.7,6.2,9.9c0,5-3.6,10.2-10.4,10.6l9.8,13h-4.4L391.4,327
		c4.4,0,5.9,0,7.5-0.5c3.8-1.1,5.7-4.3,5.7-7.4c0-2.7-1.6-5.6-3.8-6.7c-2.1-1.1-3.9-1.3-6.8-1.3H388v31.7h-3.5V307.9z"/>
	<path class="st0" d="M427.8,307.9h3.9l15,34.9h-3.8l-5-11.7h-16.2l-5.1,11.7h-3.6L427.8,307.9z M422.9,327.9h13.5l-6.7-16
		L422.9,327.9z"/>
	<polygon class="st0" points="453.5,307.9 457,307.9 457,339.6 471.4,339.6 471.4,342.8 453.5,342.8 	"/>
	<path class="st0" d="M493,307.9h10.2c4.3,0,8.5,1,11.3,2.9c6.1,3.8,7.9,10.5,7.9,14.6c0,3.2-1.3,10.2-7.9,14.5
		c-2.8,1.8-7.1,2.9-11.3,2.9H493V307.9z M496.4,339.6h5c3.2,0,8,0,12-2.8c2.1-1.8,5.5-5.4,5.5-11.5c0-4.6-2.3-8.9-5.9-11.5
		c-3.1-2-6.4-2.7-11.5-2.7h-5V339.6z"/>
	<polygon class="st0" points="530.3,307.9 549.4,307.9 549.4,311.1 533.8,311.1 533.8,323.6 548.9,323.6 548.9,326.8 533.8,326.8 
		533.8,339.6 549.4,339.6 549.4,342.8 530.3,342.8 	"/>
	<polygon class="st0" points="20.2,398 20.2,367.8 13.6,367.8 13.6,363.1 32,363.1 32,367.8 25.3,367.8 25.3,398 	"/>
	<polygon class="st0" points="36.3,398 36.3,363.1 55.1,363.1 55.1,367.8 41.4,367.8 41.4,378.1 55.1,378.1 55.1,382.7 41.4,382.7 
		41.4,393.3 55.1,393.3 55.1,398 	"/>
	<polygon class="st0" points="62.2,398 62.2,363.1 67.3,363.1 67.3,393.3 79.4,393.3 79.4,398 	"/>
	<polygon class="st0" points="83.3,398 83.3,363.1 102.1,363.1 102.1,367.8 88.4,367.8 88.4,378.1 102.1,378.1 102.1,382.7 
		88.4,382.7 88.4,393.3 102.1,393.3 102.1,398 	"/>
	<path class="st0" d="M135.1,372c-1-1.2-4.1-4.9-9.8-4.9c-7.3,0-13,6-13,13.3c0,7.5,6,13.5,12.9,13.5c3.7,0,7.1-1.8,9.5-4.6h6.3
		c-3.9,6.8-10.4,9.3-15.8,9.3c-9.9,0-17.9-8.3-17.9-18.2c0-10.2,8.2-17.9,17.9-17.9c2.6,0,6.9,0.7,10.6,3.4c3.2,2.3,4.5,4.6,5.4,6.2
		H135.1z"/>
	<path class="st0" d="M163.1,398.6c-10.4,0-18.1-8.5-18.1-18.1c0-9.5,7.5-18.1,18.1-18.1c10.4,0,18.1,8.2,18.1,18.2
		C181.2,390.2,173.4,398.6,163.1,398.6 M163.1,367.1c-9,0-13,7.9-13,13.4c0,5.7,4.1,13.4,13,13.4c9,0,13-7.8,13-13.3
		C176.1,374.5,171.7,367.1,163.1,367.1"/>
	<polygon class="st0" points="219.2,398 219.2,368.6 219.1,368.6 207.4,398 204.3,398 192.5,368.6 192.4,368.6 192.4,398 187.3,398 
		187.3,363.1 195.3,363.1 205.8,389.8 216.3,363.1 224.3,363.1 224.3,398 	"/>
	<path class="st0" d="M255.4,386.7c0,4-1.3,6.8-3.5,8.9c-2.2,1.8-4.9,3-8.1,3c-3.2,0-6-1.2-8.1-3c-2.2-2.1-3.5-5-3.5-8.9v-23.6h5.1
		v23.5c0,6.5,4.7,7.4,6.6,7.4c1.9,0,6.6-0.9,6.6-7.4v-23.5h5.1V386.7z"/>
	<polygon class="st0" points="285.6,398 268.4,371.1 268.3,371.1 268.3,398 263.2,398 263.2,363.1 268.8,363.1 285.7,389.7 
		285.8,389.7 285.8,363.1 290.9,363.1 290.9,398 	"/>
	<rect x="298.8" y="363.1" class="st0" width="5.1" height="34.9"/>
	<path class="st0" d="M337.8,372c-1-1.2-4.1-4.9-9.8-4.9c-7.3,0-13,6-13,13.3c0,7.5,6,13.5,12.9,13.5c3.7,0,7.1-1.8,9.5-4.6h6.3
		c-3.9,6.8-10.4,9.3-15.8,9.3c-9.9,0-17.9-8.3-17.9-18.2c0-10.2,8.2-17.9,17.9-17.9c2.6,0,6.9,0.7,10.6,3.4c3.2,2.3,4.5,4.6,5.4,6.2
		H337.8z"/>
	<path class="st0" d="M370.2,398l-3.9-10.3h-12.5l-3.9,10.3h-5.4l13.2-34.9h4.6l13.2,34.9H370.2z M364.6,383.1l-4.4-13.3H360
		l-4.5,13.3H364.6z"/>
	<path class="st0" d="M404.7,372c-1-1.2-4.1-4.9-9.8-4.9c-7.3,0-13,6-13,13.3c0,7.5,6,13.5,12.9,13.5c3.7,0,7.1-1.8,9.5-4.6h6.3
		c-3.9,6.8-10.4,9.3-15.8,9.3c-9.9,0-17.9-8.3-17.9-18.2c0-10.2,8.2-17.9,17.9-17.9c2.6,0,6.9,0.7,10.6,3.4c3.2,2.3,4.5,4.6,5.4,6.2
		H404.7z"/>
	<rect x="416.2" y="363.1" class="st0" width="5.1" height="34.9"/>
	<path class="st0" d="M445.5,398.6c-10.4,0-18.1-8.5-18.1-18.1c0-9.5,7.5-18.1,18.1-18.1c10.4,0,18.1,8.2,18.1,18.2
		C463.7,390.2,455.9,398.6,445.5,398.6 M445.5,367.1c-9,0-13,7.9-13,13.4c0,5.7,4.1,13.4,13,13.4c9,0,13-7.8,13-13.3
		C458.6,374.5,454.2,367.1,445.5,367.1"/>
	<polygon class="st0" points="492.2,398 475,371.1 474.9,371.1 474.9,398 469.8,398 469.8,363.1 475.4,363.1 492.3,389.7 
		492.4,389.7 492.4,363.1 497.5,363.1 497.5,398 	"/>
	<polygon class="st0" points="504.9,398 504.9,363.1 523.7,363.1 523.7,367.8 510,367.8 510,378.1 523.7,378.1 523.7,382.7 
		510,382.7 510,393.3 523.7,393.3 523.7,398 	"/>
	<path class="st0" d="M533.1,387.7c0,1.2,0.5,6.3,5.7,6.3c3.2,0,5.6-2.2,5.6-5.9c0-3.9-3.2-4.8-5.6-5.7c-4.7-1.8-5.8-2.4-7.4-3.9
		c-1.6-1.6-2.4-4.1-2.4-6.5c0-4.1,3.2-9.5,9.8-9.5c5.8,0,10,3.8,10,9.7h-5.1c0-3.9-2.8-5-4.9-5c-3,0-4.7,2.7-4.7,4.8
		c0,3.3,3.2,4.2,4.7,4.8c4.4,1.7,10.7,3,10.7,11.4c0,6.1-4.3,10.5-10.7,10.5c-4.8,0-10.7-3.2-10.7-11H533.1z"/>
	<path class="st0" d="M439.8,113.8h-34v-6.9c0-11.4,5.8-17.5,16.6-17.5c6,0,11.3,0.9,17.6,3V60.7c-8.4-2.6-17.2-3.7-28.4-3.7
		c-14.5,0-25.5,3.8-32.9,11.1c-7.6,7.6-11.4,19.3-11.4,34.9v10.8h-23.4v31.3h23.4v112.4h39.1V145.1h33.4V113.8z"/>
	<polygon class="st0" points="321.3,257.6 321.3,114 258.8,114 258.8,145.2 282.9,145.2 282.9,257.6 	"/>
	<path class="st0" d="M324,77.5c0,12.6-10.2,22.8-22.8,22.8c-12.6,0-22.8-10.2-22.8-22.8c0-12.6,10.2-22.8,22.8-22.8
		C313.8,54.7,324,64.9,324,77.5"/>
	<path class="st0" d="M488.9,246.4c7.4,7.4,18.5,11.2,32.9,11.2c8.9,0,16.2-0.7,22.9-2.3v-31.6c-4.1,1-8,1.5-12.2,1.5
		c-10.9,0-16.6-6-16.6-17.5v-62.5h34v-31.3h-33.4V57h-39.1v56.8h-21.8v31.3h21.8v66.4C477.5,227.1,481.3,238.8,488.9,246.4"/>
	<path class="st1" d="M93.1,193.9c-22.8-12.6-37.5-37.3-36.6-64.4l0.5-7c2-15.5,7.7-27.7,15.7-35.9c3.2-23.2,10.2-45,20.4-61.1
		c-39.5-12.6-74.6,15-81.3,67.2L11,103.1c-1.6,53.4,37.5,100.4,91.7,107.4c11.7,1.5,22.6,1.5,32.8,0.3
		C118.9,211.3,104.1,205.5,93.1,193.9"/>
	<path class="st1" d="M207.1,42.1C171.6-3.8,122.3-13.8,96.9,19.9c-1.3,1.8-2.6,3.7-3.9,5.7c2.3,0.8,4.6,1.6,6.9,2.6
		c1.2-1.9,2.4-3.8,3.7-5.5c18.8-25,55.3-17.6,81.7,16.5c20.1,26.1,21.1,61,5.2,87.6c2.8,7.4,4.8,14.6,5.8,21.5
		c4.7,33.3-21,57.6-60.8,62.4c16.6-0.6,34.9-7.4,52.7-21.2l7.8-6.7C234.9,146.2,240.4,85.3,207.1,42.1"/>
	<path class="st2" d="M85,78c1.8-18.7,7-36.6,15-49.8c-2.3-1-4.6-1.9-6.9-2.6C82.8,41.7,75.8,63.5,72.7,86.7
		C76.3,82.9,80.5,80,85,78"/>
	<path class="st2" d="M196.2,148.3c-1-6.9-3-14.2-5.8-21.5c-3.6,6-8.1,11.6-13.3,16.6c2.3,5.7,3.9,11.4,4.7,16.7
		c4,28.3-24.3,47.1-63.3,42.1c-9.2-1.2-17.7-4.1-25.4-8.3c11,11.6,25.8,17.4,42.3,16.8C175.2,205.9,200.9,181.5,196.2,148.3"/>
	<path class="st3" d="M171.2,148.5c-34.1,26.3-70.6,18.9-81.6-16.5c-5.1-16.4-6.4-35.6-4.6-54c-4.5,2-8.6,4.9-12.3,8.7
		c-3.7,27.2-2.3,56.3,5.3,80.7c3.4,10.9,8.6,19.7,15.1,26.5c7.6,4.2,16.2,7.1,25.4,8.3c39,5,67.3-13.8,63.3-42.1
		c-0.8-5.4-2.4-11-4.7-16.7c0,0,0,0-0.1,0.1L171.2,148.5z"/>
	<path class="st4" d="M171.2,148.5c-34.1,26.3-70.6,18.9-81.6-16.5c-5.1-16.4-6.4-35.6-4.6-54c-4.5,2-8.6,4.9-12.3,8.7
		c-3.7,27.2-2.3,56.3,5.3,80.7c3.4,10.9,8.6,19.7,15.1,26.5c7.6,4.2,16.2,7.1,25.4,8.3c39,5,67.3-13.8,63.3-42.1
		c-0.8-5.4-2.4-11-4.7-16.7c0,0,0,0-0.1,0.1L171.2,148.5z"/>
	<path class="st4" d="M120.3,80.5c24.3,12.8,46.9,38.6,56.8,62.9c5.3-5,9.7-10.6,13.3-16.6c-13.9-36.9-48.2-76.8-85.1-96.2
		c-1.8-1-3.6-1.7-5.4-2.4C92,41.4,86.8,59.2,85,78C95.4,73.4,107.7,73.9,120.3,80.5"/>
</g>
</svg>
