<svg xmlns:xlink="http://www.w3.org/1999/xlink" xmlns="http://www.w3.org/2000/svg" preserveAspectRatio="xMidYMid slice" width="280" height="97" viewBox="0 0 324.42 111.63"><defs><style>.cls-1{fill:#fdb945;}.cls-2{fill:#629080;}.cls-3{fill:#231f20;}</style></defs><title>Icasa</title><path class="cls-1" d="M55.91,29.78A45.75,45.75,0,0,0,56,88.18,45.12,45.12,0,0,0,67.65,58c-.17-16.85-9.82-26.44-11.75-28.19"/><path class="cls-2" d="M41.92,58.94c0-24.12,18.42-43.67,41.14-43.67q.89,0,1.76,0c-21.9,1-39.38,20.14-39.38,43.63s17.47,42.65,39.38,43.63q-.88,0-1.76,0c-22.72,0-41.14-19.55-41.14-43.67"/><path class="cls-2" d="M37.25,17a2.25,2.25,0,1,1,2.25,2.33A2.29,2.29,0,0,1,37.25,17"/><path class="cls-2" d="M49.91,22.93a2.25,2.25,0,1,1,2.25,2.33,2.29,2.29,0,0,1-2.25-2.33"/><path class="cls-2" d="M59.84,32.34a2.25,2.25,0,1,1,2.25,2.33,2.29,2.29,0,0,1-2.25-2.33"/><path class="cls-2" d="M66.5,44.61a2.25,2.25,0,1,1,2.25,2.33,2.29,2.29,0,0,1-2.25-2.33"/><path class="cls-2" d="M68.46,58.4a2.25,2.25,0,1,1,2.25,2.33,2.29,2.29,0,0,1-2.25-2.33"/><path class="cls-2" d="M66.19,72.56a2.25,2.25,0,1,1,2.25,2.33,2.29,2.29,0,0,1-2.25-2.33"/><path class="cls-2" d="M37.39,100a2.25,2.25,0,1,1,2.25,2.33A2.29,2.29,0,0,1,37.39,100"/><path class="cls-2" d="M49.78,94.25A2.25,2.25,0,1,1,52,96.58a2.29,2.29,0,0,1-2.25-2.33"/><path class="cls-2" d="M59.89,84.53a2.25,2.25,0,1,1,2.25,2.33,2.29,2.29,0,0,1-2.25-2.33"/><path class="cls-3" d="M102.09,65.26h3.16c-1.64-4.32-3.32-8.69-4.81-13H96.87c-2.2,4.38-4.51,8.75-6.88,13h3.26c.71-1.54,4.46-9.49,5.21-10.94,0,0,3.18,9.38,3.63,10.94"/><path class="cls-3" d="M14.75,65.26c.08-5.67.24-9.32.51-13H12.16c0,5.22-.28,9.09-.53,13Z"/><path class="cls-3" d="M35.25,52.36a18.23,18.23,0,0,0-3.4-.37C27.31,52,24,54.49,24,59.16c0,4.24,3.33,6.33,7.2,6.33a20.89,20.89,0,0,0,3.56-.35l.36-2.29a12.83,12.83,0,0,1-3.44.57C28.9,63.42,27,61.84,27,59c0-3,2.22-4.94,5.22-4.94a11.29,11.29,0,0,1,3.13.55Z"/><path class="cls-3" d="M60.14,65.26h3.16c-1.64-4.32-3.32-8.69-4.81-13H54.92c-2.2,4.38-4.51,8.75-6.88,13H51.3c.71-1.54,4.46-9.49,5.21-10.94,0,0,3.18,9.38,3.63,10.94"/><path class="cls-3" d="M84.06,52.34A15.32,15.32,0,0,0,80.93,52c-2.33,0-4.57,1-4.57,3.32,0,3.2,5.1,4.59,5.1,6.64,0,1.11-1.23,1.46-2.16,1.46a8.59,8.59,0,0,1-3.48-.84L76,65a17.08,17.08,0,0,0,3.72.51c3.66,0,4.69-2.07,4.69-3.52,0-3.09-5.11-4.43-5.11-6.45,0-.86.91-1.47,2.16-1.47a8.2,8.2,0,0,1,2.75.57Z"/><path class="cls-3" d="M287.21,64.53l1.45-3.8,1.44,3.8Zm2.21-4.7H288l-3,7.74h1.11l.81-2.16h3.56l.81,2.16h1.17Zm-5,6h-.08a4.15,4.15,0,0,1-2.78,1,3.19,3.19,0,0,1-1.09-.19,2.41,2.41,0,0,1-.9-.57,2.76,2.76,0,0,1-.61-1,3.77,3.77,0,0,1-.24-1.4,4.07,4.07,0,0,1,.21-1.37,2.66,2.66,0,0,1,.59-1,2.46,2.46,0,0,1,.89-.59,3.14,3.14,0,0,1,1.13-.19,4.15,4.15,0,0,1,1.43.24,4.94,4.94,0,0,1,1.35.78h.08V60.37a7.28,7.28,0,0,0-1.47-.53,6,6,0,0,0-1.32-.15,4.89,4.89,0,0,0-1.65.26,3.51,3.51,0,0,0-1.27.77,3.42,3.42,0,0,0-.83,1.27,4.77,4.77,0,0,0-.29,1.71,4.83,4.83,0,0,0,.3,1.77,3.26,3.26,0,0,0,2.1,2,5.25,5.25,0,0,0,1.63.24,4.91,4.91,0,0,0,.87-.07,6.89,6.89,0,0,0,.73-.17,5.53,5.53,0,0,0,.64-.23l.55-.23Zm-8.22,1h-1.08V60.62h1.08v-.79H272.9v.79H274v6.16H272.9v.79h3.25Zm-6.64-4.05a1.38,1.38,0,0,1-.37.5,1.48,1.48,0,0,1-.66.32,4.16,4.16,0,0,1-.91.09h-1.11V60.72h1.29a4.25,4.25,0,0,1,.77.06,1.59,1.59,0,0,1,.57.21,1,1,0,0,1,.41.43,1.33,1.33,0,0,1,.13.59,1.87,1.87,0,0,1-.12.72m-.42,1.46a2.72,2.72,0,0,0,1.23-.85,2.19,2.19,0,0,0,.45-1.4,1.9,1.9,0,0,0-.25-1,2,2,0,0,0-.7-.67,2.71,2.71,0,0,0-.9-.32,7,7,0,0,0-1.24-.09h-2.31v7.74h1.09V64.49H268l2.75,3.08h1.42Zm-5-4.35h-5.26v7.74H260V63.84h3.58v-.91H260V60.75h4.16Zm-11.71,4.7,1.45-3.8,1.44,3.8Zm2.21-4.7h-1.46l-3,7.74h1.11l.81-2.16h3.56l.81,2.16h1.17Zm-9.69,0h-1.09v3h-4.11v-3h-1.09v7.74h1.09V63.78h4.11v3.79h1.09Zm-7.4,0h-7v.91h2.94v6.82h1.09V60.75h2.94Zm-8,0h-1.1v4.71a4.13,4.13,0,0,1-.09.95,1.89,1.89,0,0,1-.31.68,1.49,1.49,0,0,1-.66.51,3.06,3.06,0,0,1-2,0,1.5,1.5,0,0,1-.66-.51,1.9,1.9,0,0,1-.31-.66,4.23,4.23,0,0,1-.09-1V59.83h-1.09v4.63a4.8,4.8,0,0,0,.2,1.48,2.43,2.43,0,0,0,.64,1,2.56,2.56,0,0,0,1,.57,4.3,4.3,0,0,0,1.35.19,4.37,4.37,0,0,0,1.33-.18,2.63,2.63,0,0,0,1-.58,2.35,2.35,0,0,0,.64-1,4.91,4.91,0,0,0,.2-1.47Zm-9.8,6.2a2.77,2.77,0,0,1-3.91,0,3.37,3.37,0,0,1-.73-2.33,3.42,3.42,0,0,1,.72-2.33,2.77,2.77,0,0,1,3.93,0,3.42,3.42,0,0,1,.72,2.33,3.37,3.37,0,0,1-.73,2.33m-.37-6.09a4.36,4.36,0,0,0-1.59-.27,4.47,4.47,0,0,0-1.57.27,3.2,3.2,0,0,0-1.21.78,3.58,3.58,0,0,0-.77,1.29,5.59,5.59,0,0,0,0,3.41,3.49,3.49,0,0,0,.77,1.26,3.26,3.26,0,0,0,1.21.78,4.81,4.81,0,0,0,3.16,0,3.29,3.29,0,0,0,1.2-.79,3.45,3.45,0,0,0,.77-1.26,5.52,5.52,0,0,0,0-3.42,3.5,3.5,0,0,0-.77-1.27,3.31,3.31,0,0,0-1.2-.78m-7.16,4.12a2.92,2.92,0,0,0-1.38-.69c-.3-.07-.67-.14-1.11-.21l-1-.18a1.85,1.85,0,0,1-.94-.42,1.05,1.05,0,0,1-.26-.76,1,1,0,0,1,.53-.88,2.58,2.58,0,0,1,1.41-.34,5.09,5.09,0,0,1,1.57.25,3.87,3.87,0,0,1,1.23.62h.08V60.23a7.56,7.56,0,0,0-2.87-.54,3.74,3.74,0,0,0-2.22.62,2,2,0,0,0-.35,3,3.13,3.13,0,0,0,1.62.75l1,.17a8.66,8.66,0,0,1,.9.17,1.87,1.87,0,0,1,.82.38,1,1,0,0,1,.27.76,1.09,1.09,0,0,1-.57,1,3,3,0,0,1-1.58.36,5,5,0,0,1-1.54-.26,4.67,4.67,0,0,1-1.44-.75h-.08v1.29a8.5,8.5,0,0,0,1.45.46,7.45,7.45,0,0,0,1.6.16,4.68,4.68,0,0,0,1.42-.19,3.41,3.41,0,0,0,1-.52,2.16,2.16,0,0,0,.63-.75,2,2,0,0,0,.22-.89,1.75,1.75,0,0,0-.46-1.29m-10.75-4.23h-5.26v7.74h1.09V63.84h3.58v-.91h-3.58V60.75h4.16ZM192.63,66a2.77,2.77,0,0,1-3.91,0A3.36,3.36,0,0,1,188,63.7a3.42,3.42,0,0,1,.72-2.33,2.77,2.77,0,0,1,3.93,0,3.41,3.41,0,0,1,.72,2.33,3.37,3.37,0,0,1-.73,2.33m-.37-6.09a4.36,4.36,0,0,0-1.59-.27,4.47,4.47,0,0,0-1.57.27,3.19,3.19,0,0,0-1.21.78,3.58,3.58,0,0,0-.77,1.29,5.59,5.59,0,0,0,0,3.41,3.48,3.48,0,0,0,.77,1.26,3.27,3.27,0,0,0,1.21.78,4.8,4.8,0,0,0,3.16,0,3.28,3.28,0,0,0,1.2-.79,3.47,3.47,0,0,0,.77-1.26,5,5,0,0,0,.27-1.71,5.11,5.11,0,0,0-.27-1.71,3.5,3.5,0,0,0-.77-1.27,3.34,3.34,0,0,0-1.2-.78M181,59.83l-2.27,3.46-2.25-3.46H175.3l2.91,4.45v3.28h1.1V64.18l2.9-4.34Zm-5.77,0h-7v.91h2.94v6.82h1.09V60.75h2.94Zm-7.74,6.95h-1.08V60.62h1.08v-.79h-3.25v.79h1.08v6.16h-1.08v.79h3.25Zm-6.64-4.05a1.38,1.38,0,0,1-.37.5,1.47,1.47,0,0,1-.66.32,4.16,4.16,0,0,1-.91.09h-1.1V60.72h1.29a4.28,4.28,0,0,1,.77.06,1.59,1.59,0,0,1,.56.21,1,1,0,0,1,.41.43A1.33,1.33,0,0,1,161,62a1.87,1.87,0,0,1-.12.72m-.42,1.46a2.72,2.72,0,0,0,1.23-.85,2.19,2.19,0,0,0,.45-1.4,1.9,1.9,0,0,0-.25-1,2,2,0,0,0-.7-.67,2.7,2.7,0,0,0-.9-.32,7,7,0,0,0-1.24-.09h-2.31v7.74h1.1V64.49h1.54l2.75,3.08h1.42ZM153.16,66a2.77,2.77,0,0,1-3.91,0,3.37,3.37,0,0,1-.73-2.33,3.43,3.43,0,0,1,.72-2.33,2.77,2.77,0,0,1,3.93,0,3.42,3.42,0,0,1,.72,2.33,3.37,3.37,0,0,1-.73,2.33m-.37-6.09a4.36,4.36,0,0,0-1.59-.27,4.46,4.46,0,0,0-1.57.27,3.2,3.2,0,0,0-1.21.78,3.56,3.56,0,0,0-.77,1.29,5.57,5.57,0,0,0,0,3.41,3.49,3.49,0,0,0,.77,1.26,3.27,3.27,0,0,0,1.21.78,4.81,4.81,0,0,0,3.16,0,3.29,3.29,0,0,0,1.2-.79,3.45,3.45,0,0,0,.77-1.26,5.53,5.53,0,0,0,0-3.42,3.46,3.46,0,0,0-.77-1.27,3.31,3.31,0,0,0-1.2-.78m-7.15-.11h-1.1v3h-4.11v-3h-1.09v7.74h1.09V63.78h4.11v3.79h1.1Zm-7.4,0h-7v.91h2.94v6.82h1.09V60.75h2.94Zm-8,0h-1.09v4.71a4.13,4.13,0,0,1-.09.95,1.89,1.89,0,0,1-.31.68,1.49,1.49,0,0,1-.66.51,3.06,3.06,0,0,1-2,0,1.5,1.5,0,0,1-.66-.51,1.9,1.9,0,0,1-.31-.66,4.23,4.23,0,0,1-.09-1V59.83H124v4.63a4.8,4.8,0,0,0,.2,1.48,2.43,2.43,0,0,0,.64,1,2.56,2.56,0,0,0,1,.57,4.29,4.29,0,0,0,1.35.19,4.38,4.38,0,0,0,1.33-.18,2.63,2.63,0,0,0,1-.58,2.36,2.36,0,0,0,.64-1,4.91,4.91,0,0,0,.2-1.47Zm-12.59,4.7,1.45-3.8,1.44,3.8Zm2.21-4.7h-1.46l-3,7.74h1.11l.81-2.16h3.56l.81,2.16h1.17Z"/><path class="cls-3" d="M310.34,53.39A2.92,2.92,0,0,0,309,52.7c-.3-.07-.67-.14-1.1-.21l-1-.18a1.86,1.86,0,0,1-.93-.42,1.05,1.05,0,0,1-.26-.76,1,1,0,0,1,.53-.88,2.58,2.58,0,0,1,1.41-.34,5.08,5.08,0,0,1,1.57.25,3.88,3.88,0,0,1,1.24.62h.08V49.56a7.56,7.56,0,0,0-2.88-.54,3.73,3.73,0,0,0-2.22.62,1.88,1.88,0,0,0-.87,1.59A1.86,1.86,0,0,0,305,52.6a3.1,3.1,0,0,0,1.62.74l1,.17a8.65,8.65,0,0,1,.9.17,1.86,1.86,0,0,1,.81.38,1,1,0,0,1,.27.76,1.09,1.09,0,0,1-.57,1,3,3,0,0,1-1.58.36,5,5,0,0,1-1.54-.26,4.67,4.67,0,0,1-1.44-.75h-.08v1.29a8.66,8.66,0,0,0,1.45.46,7.46,7.46,0,0,0,1.6.16,4.69,4.69,0,0,0,1.42-.19,3.38,3.38,0,0,0,1-.52,2.14,2.14,0,0,0,.63-.75,2,2,0,0,0,.22-.89,1.75,1.75,0,0,0-.46-1.29m-7.71-4.23h-1v6.32L298,49.16h-1.7v7.74h1V50l3.9,6.92h1.35Zm-9.88,6.2a2.77,2.77,0,0,1-3.91,0A3.36,3.36,0,0,1,288.1,53a3.42,3.42,0,0,1,.72-2.33,2.77,2.77,0,0,1,3.93,0,3.41,3.41,0,0,1,.72,2.33,3.37,3.37,0,0,1-.73,2.33m-.37-6.09a4.36,4.36,0,0,0-1.59-.27,4.44,4.44,0,0,0-1.57.27A3.18,3.18,0,0,0,288,50a3.58,3.58,0,0,0-.77,1.29,5.58,5.58,0,0,0,0,3.41A3.48,3.48,0,0,0,288,56a3.26,3.26,0,0,0,1.21.78,4.8,4.8,0,0,0,3.16,0,3.27,3.27,0,0,0,1.2-.79,3.45,3.45,0,0,0,.77-1.26,5,5,0,0,0,.27-1.71,5.11,5.11,0,0,0-.27-1.71,3.5,3.5,0,0,0-.77-1.27,3.34,3.34,0,0,0-1.2-.78m-6.8,6.84h-1.08V49.94h1.08v-.79h-3.25v.79h1.08V56.1h-1.08v.79h3.25Zm-4-6.95h-7v.91h2.94v6.82h1.1V50.07h2.94Zm-11.66,4.7,1.45-3.8,1.44,3.8Zm2.21-4.7h-1.46l-3,7.74h1.11l.81-2.16h3.56l.81,2.16h1.17Zm-5,6H267a4.17,4.17,0,0,1-2.78,1,3.19,3.19,0,0,1-1.09-.19,2.42,2.42,0,0,1-.9-.57,2.81,2.81,0,0,1-.61-1,3.77,3.77,0,0,1-.23-1.4,4.07,4.07,0,0,1,.21-1.37,2.68,2.68,0,0,1,.59-1,2.48,2.48,0,0,1,.89-.59,3.17,3.17,0,0,1,1.13-.19,4.14,4.14,0,0,1,1.43.24,5,5,0,0,1,1.35.78h.08V49.69a7.33,7.33,0,0,0-1.47-.53,6,6,0,0,0-1.32-.15,4.9,4.9,0,0,0-1.65.26,3.51,3.51,0,0,0-1.27.77,3.42,3.42,0,0,0-.83,1.27,5.31,5.31,0,0,0,0,3.48,3.25,3.25,0,0,0,2.1,2,5.26,5.26,0,0,0,1.63.24,4.9,4.9,0,0,0,.87-.07,6.8,6.8,0,0,0,.73-.17,5.43,5.43,0,0,0,.64-.23l.55-.23Zm-8.22,1h-1.08V49.94h1.08v-.79h-3.25v.79h1.08V56.1h-1.08v.79h3.25Zm-5.09-6.95h-1v6.32l-3.56-6.32h-1.7v7.74h1V50l3.9,6.92h1.35Zm-8.37,0h-1.1v4.71a4.13,4.13,0,0,1-.09.95,1.87,1.87,0,0,1-.31.68,1.49,1.49,0,0,1-.66.51,3,3,0,0,1-2,0,1.5,1.5,0,0,1-.66-.51,1.9,1.9,0,0,1-.31-.66,4.23,4.23,0,0,1-.09-1V49.16h-1.09v4.63a4.81,4.81,0,0,0,.2,1.48,2.44,2.44,0,0,0,.64,1,2.56,2.56,0,0,0,1,.57,4.31,4.31,0,0,0,1.35.19,4.38,4.38,0,0,0,1.33-.18,2.62,2.62,0,0,0,1-.58,2.35,2.35,0,0,0,.64-1,4.91,4.91,0,0,0,.2-1.47Zm-8.41,0h-1.52l-2.12,4.31-2.2-4.31h-1.49v7.74h1V50.23l2.27,4.54h.65l2.29-4.54v6.67H237Zm-9.54,0h-1.52l-2.12,4.31-2.19-4.31H220.1v7.74h1V50.23l2.27,4.54H224l2.29-4.54v6.67h1.09Zm-10.93,6.2a2.77,2.77,0,0,1-3.91,0,3.37,3.37,0,0,1-.73-2.33,3.43,3.43,0,0,1,.72-2.33,2.78,2.78,0,0,1,3.93,0,3.42,3.42,0,0,1,.72,2.33,3.36,3.36,0,0,1-.73,2.33m-.37-6.09a4.37,4.37,0,0,0-1.59-.27,4.43,4.43,0,0,0-1.57.27,3.16,3.16,0,0,0-1.21.78,3.56,3.56,0,0,0-.77,1.29,5.56,5.56,0,0,0,0,3.41,3.46,3.46,0,0,0,.77,1.26,3.25,3.25,0,0,0,1.21.78,4.81,4.81,0,0,0,3.16,0,3.27,3.27,0,0,0,1.2-.79,3.43,3.43,0,0,0,.77-1.26,5,5,0,0,0,.27-1.71,5.07,5.07,0,0,0-.27-1.71,3.46,3.46,0,0,0-.77-1.27,3.32,3.32,0,0,0-1.2-.78m-6.49,5.86h-.08a4.17,4.17,0,0,1-2.78,1,3.19,3.19,0,0,1-1.09-.19,2.41,2.41,0,0,1-.9-.57,2.81,2.81,0,0,1-.61-1,3.77,3.77,0,0,1-.23-1.4,4.07,4.07,0,0,1,.21-1.37,2.66,2.66,0,0,1,.59-1,2.48,2.48,0,0,1,.89-.59,3.17,3.17,0,0,1,1.13-.19,4.15,4.15,0,0,1,1.43.24,5,5,0,0,1,1.35.78h.08V49.69a7.36,7.36,0,0,0-1.47-.53,6,6,0,0,0-1.32-.15,4.89,4.89,0,0,0-1.65.26,3.51,3.51,0,0,0-1.27.77,3.42,3.42,0,0,0-.83,1.27,4.77,4.77,0,0,0-.29,1.71,4.83,4.83,0,0,0,.3,1.77,3.26,3.26,0,0,0,2.1,2,5.26,5.26,0,0,0,1.63.24,4.91,4.91,0,0,0,.87-.07,6.89,6.89,0,0,0,.73-.17,5.53,5.53,0,0,0,.64-.23l.55-.23Zm-11.45-6h-7v.91h2.94v6.82h1.09V50.07h2.94Zm-8.06,0h-1v6.32l-3.56-6.32h-1.7v7.74h1V50l3.9,6.92h1.35Zm-8,6.82h-4.33V53.1h4.33v-.91h-4.33V50.07h4.33v-.91h-5.42v7.74h5.42Zm-8.64-1.46a2.38,2.38,0,0,1-.92,1,3.18,3.18,0,0,1-1.08.41,7.61,7.61,0,0,1-1.38.11h-1V50h1a7.34,7.34,0,0,1,1.31.1,3.54,3.54,0,0,1,1,.36,2.4,2.4,0,0,1,1,1,3.2,3.2,0,0,1,.34,1.53,3.3,3.3,0,0,1-.31,1.51m1-3.44a3.56,3.56,0,0,0-1.31-1.32,4.36,4.36,0,0,0-1.2-.45,8.9,8.9,0,0,0-1.91-.16H168v7.74H170a9.22,9.22,0,0,0,1.83-.14,4.23,4.23,0,0,0,1.26-.47,3.55,3.55,0,0,0,1.3-1.33,3.8,3.8,0,0,0,.49-1.91,3.87,3.87,0,0,0-.47-1.95m-8.68-1.93h-1v6.32l-3.56-6.32h-1.7v7.74h1V50l3.9,6.92h1.35Zm-8,6.82h-4.33V53.1h4.33v-.91h-4.33V50.07h4.33v-.91h-5.42v7.74h5.42Zm-8.11-3.84a1.49,1.49,0,0,1-.37.53,1.56,1.56,0,0,1-.67.36,4.25,4.25,0,0,1-1.08.11h-.92V50h1.08a4.4,4.4,0,0,1,.86.07,1.87,1.87,0,0,1,.61.23,1.18,1.18,0,0,1,.45.48,1.52,1.52,0,0,1,.15.7,1.68,1.68,0,0,1-.11.62m1-1.76a2.14,2.14,0,0,0-.73-.74,2.94,2.94,0,0,0-.91-.37,5.79,5.79,0,0,0-1.26-.12h-2.23v7.74h1.1V54h1.09a4.57,4.57,0,0,0,1.47-.2,2.78,2.78,0,0,0,1-.6,2.28,2.28,0,0,0,.53-.76,2.37,2.37,0,0,0,.19-1,2.19,2.19,0,0,0-.26-1.12M143.77,56h-4.33V53.1h4.33v-.91h-4.33V50.07h4.33v-.91h-5.42v7.74h5.42Zm-8.64-1.46a2.37,2.37,0,0,1-.92,1,3.21,3.21,0,0,1-1.08.41,7.63,7.63,0,0,1-1.38.11h-1V50h1a7.33,7.33,0,0,1,1.31.1,3.53,3.53,0,0,1,1,.36,2.4,2.4,0,0,1,1,1,3.18,3.18,0,0,1,.34,1.53,3.3,3.3,0,0,1-.31,1.51m1-3.44a3.55,3.55,0,0,0-1.31-1.32,4.36,4.36,0,0,0-1.2-.45,8.9,8.9,0,0,0-1.92-.16h-2.06v7.74h2.08a9.24,9.24,0,0,0,1.83-.14,4.2,4.2,0,0,0,1.26-.47,3.52,3.52,0,0,0,1.3-1.33,3.78,3.78,0,0,0,.49-1.91,3.85,3.85,0,0,0-.47-1.95m-8.67-1.93h-1v6.32l-3.56-6.32h-1.7v7.74h1V50l3.9,6.92h1.36Zm-8.14,6.95h-1.08V49.94h1.08v-.79H116v.79h1.08V56.1H116v.79h3.25Z"/></svg>