<svg height="319.038735" viewBox="0 0 55.950001 56.799999" width="313.441564" xmlns="http://www.w3.org/2000/svg"><g fill="#034ea2" transform="translate(0 -995.56217)"><g fill-rule="evenodd"><path d="m16.560701 1012.724c-1.7875-.8062-3.485-1.0512-5.10375-.7924 2.63625-2.3775 5.35875-4.6075 8.3725-4.9025.95375-.094 1.97-.2288 3.06625.215 2.04875.8262 3.63 1.9312 5.14375 2.7187 5.15 2.6775 8.37875 3.93 16.808752.915 2.47125-.885 4.32625-2.1625 5.9625-3.7712 1.65625-.8713 3.075-.7875 4.0425.06-5.4375 7.4137-10.7675 9.7499-16.078752 11.0724-6.5925 1.6413-10.4775.9263-16.18375-1.8275-2.2575-1.09-3.84875-2.7025-6.03-3.6875"/><path d="m6.605701 1026.404c-2.23125-1.0062-4.3525-1.3125-6.37374999-.9887 3.29374999-2.9688 6.69249999-5.7538 10.45749999-6.1225 1.19-.1163 2.45875-.285 3.82625.2675 2.55875 1.0325 4.53875 2.4062 6.42375 3.3962 6.49875 3.4113 12.23875 5.4138 22.438752 1.3225 3.04125-1.2187 5.4025-2.6987 7.44375-4.7075 2.06875-1.09 3.84125-.9837 5.05.074-6.79125 9.2588-13.412502 12.3188-20.017502 14.0688-8.3375 2.2062-14.695 1.37-21.5975-2.4038-2.7475-1.5025-4.9275-3.6775-7.65125-4.9062"/><path d="m36.950701 995.68907c3.11625 0 5.6425 2.58 5.6425 5.76253 0 3.1825-2.52625 5.7625-5.6425 5.7625-3.1175 0-5.6425-2.58-5.6425-5.7625 0-3.18253 2.525-5.76253 5.6425-5.76253"/></g><path d="m13.551951 1040.4678h7.8875v2.1175h-2.57625v9.7325h-2.7325v-9.7325h-2.57875zm12.03625 1.98v3.0412h.58125c.66625 0 1.16125-.12 1.45125-.3587.29-.2225.445-.5988.445-1.1275 0-.5638-.1375-.9738-.41-1.2138-.25625-.2212-.75125-.3412-1.4525-.3412zm-2.6625-1.98h2.8c.13625 0 .29 0 .44375-.018h.23875c1.5025 0 2.595.2575 3.2975.7687.68125.495 1.02375 1.315 1.02375 2.425 0 .7338-.18875 1.3313-.565 1.81-.375.4613-.93875.785-1.655.9738.35875.085.63125.255.85375.495.205.2375.41.7.63125 1.3825l1.2975 4.0125h-2.8l-.93875-3.3638c-.17125-.615-.35875-1.0075-.56375-1.195s-.49625-.29-.8875-.29h-.51375v4.8488h-2.6625v-11.85zm13.71125 2.3387-1.4175 4.8163h2.68125zm-1.52-2.3387h3.1425l3.6725 11.85h-2.81875l-.6825-2.6463h-3.80875l-.7175 2.6463h-2.64625zm7.855002 0h2.715v11.8501h-2.715z"/></g></svg>