<?xml version="1.0" encoding="UTF-8" standalone="no"?>
<!DOCTYPE svg PUBLIC "-//W3C//DTD SVG 1.1//EN" "http://www.w3.org/Graphics/SVG/1.1/DTD/svg11.dtd">
<svg width="100%" height="100%" viewBox="0 0 2048 800" version="1.1" xmlns="http://www.w3.org/2000/svg" xmlns:xlink="http://www.w3.org/1999/xlink" xml:space="preserve" xmlns:serif="http://www.serif.com/" style="fill-rule:evenodd;clip-rule:evenodd;stroke-linejoin:round;stroke-miterlimit:2;">
    <g id="_1073_soumu.eps" serif:id="1073_soumu.eps" transform="matrix(1.04516,0,0,1.04516,288.006,588.252)">
        <g transform="matrix(1,0,0,1,-262.5,-425)">
            <g transform="matrix(4.16667,0,0,4.16667,0,0)">
                <path d="M97.738,20.815L125.293,20.815L125.293,143.053L0.878,143.053L0.878,84.207C0.878,82.79 1.707,82.488 2.495,83.622C11.575,96.674 25.663,102.931 41.135,102.875C53.421,102.822 61.846,99.683 70.513,93.444C72.087,92.31 71.687,91.784 69.953,92.634C63.513,95.786 56.285,97.553 48.633,97.553C24.305,97.553 4.151,79.691 0.568,56.374C0.204,53.996 0.007,51.559 0,49.083L0,48.927C0,22.071 21.77,0.306 48.633,0.306L48.787,0.306C77.294,0.306 100.407,23.412 100.407,51.924C100.407,85.098 73.241,111.912 40.335,111.998C31.741,112.021 17.83,108.09 10.272,104.185C8.942,103.501 8.609,103.985 9.794,104.928C18.301,111.649 32.145,117.162 47.37,116.715C81.65,115.726 107.047,96.081 107.047,57.344C107.047,44.885 102.738,33.388 96.192,23.832C95.097,22.24 95.702,20.815 97.738,20.815Z" style="fill:rgb(246,139,30);fill-rule:nonzero;"/>
                <path d="M13.455,50.998C7.149,44.689 10.332,31.268 18.541,23.067C26.742,14.858 40.158,11.672 46.467,17.988C52.77,24.296 49.583,37.706 41.382,45.913C33.177,54.116 19.765,57.3 13.455,50.998Z" style="fill:rgb(246,139,30);fill-rule:nonzero;"/>
                <path d="M13.973,50.274C7.902,44.204 10.975,31.28 18.858,23.405C26.734,15.517 39.655,12.445 45.726,18.521C51.796,24.592 48.72,37.51 40.84,45.391C32.965,53.27 20.047,56.343 13.973,50.274Z" style="fill:rgb(247,143,38);fill-rule:nonzero;"/>
                <path d="M14.495,49.55C8.66,43.715 11.619,31.286 19.176,23.735C26.726,16.177 39.153,13.218 44.988,19.057C50.823,24.894 47.86,37.315 40.311,44.873C32.757,52.427 20.334,55.387 14.495,49.55Z" style="fill:rgb(247,147,45);fill-rule:nonzero;"/>
                <path d="M15.013,48.828C9.409,43.229 12.258,31.292 19.49,24.068C26.714,16.836 38.651,13.987 44.251,19.591C49.85,25.19 47.001,37.123 39.773,44.351C32.549,51.581 20.616,54.428 15.013,48.828Z" style="fill:rgb(248,151,54);fill-rule:nonzero;"/>
                <path d="M15.535,48.106C10.17,42.74 12.902,31.3 19.808,24.402C26.706,17.495 38.145,14.76 43.513,20.13C48.877,25.492 46.138,36.927 39.239,43.833C32.337,50.738 20.903,53.471 15.535,48.106Z" style="fill:rgb(248,155,63);fill-rule:nonzero;"/>
                <path d="M16.053,47.386C10.924,42.256 13.545,31.308 20.126,24.735C26.698,18.151 37.642,15.534 42.775,20.664C47.904,25.794 45.278,36.737 38.702,43.315C32.129,49.888 21.185,52.515 16.053,47.386Z" style="fill:rgb(249,159,71);fill-rule:nonzero;"/>
                <path d="M16.575,46.662C11.681,41.767 14.189,31.316 20.443,25.069C26.69,18.814 37.14,16.303 42.037,21.2C46.93,26.095 44.419,36.542 38.168,42.793C31.918,49.044 21.472,51.555 16.575,46.662Z" style="fill:rgb(249,163,80);fill-rule:nonzero;"/>
                <path d="M17.092,45.94C12.435,41.279 14.832,31.324 20.761,25.398C26.683,19.473 36.638,17.075 41.292,21.741C45.958,26.397 43.556,36.346 37.63,42.275C31.71,48.2 21.754,50.598 17.092,45.94Z" style="fill:rgb(250,167,88);fill-rule:nonzero;"/>
                <path d="M17.614,45.218C13.192,40.792 15.476,31.331 21.075,25.732C26.675,20.132 36.132,17.854 40.558,22.273C44.98,26.699 42.696,36.154 37.097,41.759C31.498,47.353 22.041,49.64 17.614,45.218Z" style="fill:rgb(250,171,97);fill-rule:nonzero;"/>
                <path d="M18.132,44.496C13.945,40.305 16.119,31.339 21.393,26.065C26.663,20.791 35.633,18.619 39.82,22.814C44.007,27.001 41.829,35.962 36.559,41.24C31.29,46.509 22.323,48.683 18.132,44.496Z" style="fill:rgb(251,176,104);fill-rule:nonzero;"/>
                <path d="M18.654,43.776C14.703,39.821 16.763,31.349 21.711,26.399C26.655,21.45 35.127,19.392 39.083,23.348C43.034,27.297 40.974,35.767 36.026,40.72C31.078,45.661 22.609,47.726 18.654,43.776Z" style="fill:rgb(251,180,112);fill-rule:nonzero;"/>
                <path d="M19.172,43.052C15.456,39.332 17.402,31.351 22.029,26.734C26.647,22.112 34.625,20.159 38.345,23.884C42.061,27.599 40.11,35.573 35.488,40.2C30.87,44.818 22.892,46.768 19.172,43.052Z" style="fill:rgb(252,185,120);fill-rule:nonzero;"/>
                <path d="M19.694,42.328C16.213,38.846 18.046,31.357 22.343,27.066C26.64,22.771 34.123,20.933 37.607,24.417C41.087,27.9 39.252,35.381 34.955,39.678C30.658,43.974 23.179,45.813 19.694,42.328Z" style="fill:rgb(252,189,128);fill-rule:nonzero;"/>
                <path d="M20.212,41.604C16.967,38.359 18.689,31.367 22.661,27.401C26.632,23.432 33.62,21.706 36.869,24.951C40.115,28.202 38.384,35.185 34.421,39.159C30.45,43.127 23.461,44.853 20.212,41.604Z" style="fill:rgb(252,194,135);fill-rule:nonzero;"/>
                <path d="M20.734,40.882C17.724,37.874 19.333,31.374 22.979,27.739C26.62,24.088 33.118,22.477 36.127,25.491C39.141,28.498 37.529,34.994 33.879,38.642C30.242,42.283 23.748,43.896 20.734,40.882Z" style="fill:rgb(253,198,143);fill-rule:nonzero;"/>
                <path d="M21.252,40.16C18.478,37.384 19.977,31.384 23.296,28.069C26.612,24.747 32.616,23.25 35.39,26.026C38.168,28.8 36.666,34.8 33.35,38.12C30.03,41.435 24.03,42.94 21.252,40.16Z" style="fill:rgb(253,203,152);fill-rule:nonzero;"/>
                <path d="M21.774,39.438C19.235,36.899 20.62,31.39 23.614,28.4C26.604,25.406 32.109,24.023 34.652,26.56C37.191,29.102 35.806,34.604 32.812,37.602C29.822,40.594 24.316,41.981 21.774,39.438Z" style="fill:rgb(254,207,160);fill-rule:nonzero;"/>
                <path d="M22.292,38.718C19.988,36.413 21.264,31.398 23.928,28.736C26.596,26.065 31.607,24.79 33.915,27.099C36.218,29.403 34.939,34.411 32.278,37.084C29.61,39.75 24.599,41.024 22.292,38.718Z" style="fill:rgb(254,212,168);fill-rule:nonzero;"/>
                <path d="M22.814,37.994C20.742,35.922 21.903,31.406 24.242,29.063C26.588,26.726 31.101,25.563 33.177,27.633C35.245,29.705 34.084,34.219 31.741,36.562C29.402,38.901 24.885,40.064 22.814,37.994Z" style="fill:rgb(254,216,177);fill-rule:nonzero;"/>
                <path d="M23.335,37.272C21.499,35.438 22.547,31.414 24.564,29.397C26.581,27.384 30.603,26.334 32.439,28.168C34.272,30.007 33.22,34.025 31.207,36.042C29.19,38.055 25.168,39.109 23.335,37.272Z" style="fill:rgb(254,221,186);fill-rule:nonzero;"/>
                <path d="M23.854,36.55C22.256,34.953 23.19,31.422 24.881,29.73C26.569,28.043 30.101,27.105 31.702,28.702C33.298,30.303 32.361,33.831 30.669,35.526C28.982,37.209 25.455,38.151 23.854,36.55Z" style="fill:rgb(255,225,194);fill-rule:nonzero;"/>
                <path d="M24.376,35.83C23.01,34.463 23.834,31.429 25.199,30.064C26.561,28.708 29.598,27.878 30.96,29.242C32.325,30.605 31.498,33.638 30.136,35.004C28.77,36.366 25.737,37.194 24.376,35.83Z" style="fill:rgb(255,229,203);fill-rule:nonzero;"/>
            </g>
        </g>
    </g>
    <g transform="matrix(19.9085,0,0,19.9085,-18966.5,-9139.45)">
        <path d="M1002.41,489.593C1001.72,488.657 1000.88,487.817 999.893,487.097L998.861,487.937C999.725,488.657 1000.54,489.521 1001.28,490.601L1002.41,489.593ZM1006.33,493.697C1005.87,492.233 1005.15,490.745 1004.21,489.281L1002.99,489.857C1003.69,491.009 1004.38,492.545 1005.03,494.465L1006.33,493.697ZM998.021,494.369C998.021,494.969 998.213,495.377 998.597,495.617C998.909,495.809 999.533,495.905 1000.54,495.905C1001.76,495.905 1002.56,495.761 1002.92,495.521C1003.35,495.209 1003.59,494.129 1003.61,492.305L1002.2,491.849C1002.17,492.953 1002.12,493.649 1002.05,493.937C1001.93,494.297 1001.45,494.465 1000.57,494.465C1000.18,494.465 999.917,494.465 999.749,494.393C999.533,494.321 999.413,494.105 999.413,493.745L999.413,489.113L998.021,489.113L998.021,494.369ZM996.029,495.113C996.581,493.793 996.965,492.017 997.181,489.785L995.837,489.521C995.669,491.249 995.333,492.857 994.757,494.273L996.029,495.113ZM1006.01,481.745C1004.4,480.401 1003.06,478.817 1001.98,476.993L1000.81,477.593C1001.81,479.585 1003.18,481.385 1004.88,482.969L1006.01,481.745ZM995.861,483.641C997.349,481.961 998.453,479.945 999.197,477.617L997.901,477.161C997.181,479.273 996.173,481.097 994.853,482.561L995.861,483.641ZM994.637,492.521C994.253,490.649 993.821,489.257 993.389,488.273L992.189,488.657C992.597,489.881 992.933,491.369 993.221,493.121L994.637,492.521ZM988.205,494.633C988.733,493.049 989.045,491.129 989.189,488.825L987.821,488.657C987.653,490.649 987.341,492.425 986.813,493.913L988.205,494.633ZM996.725,485.585C996.389,485.585 995.861,485.609 995.165,485.609L995.621,487.073C998.693,486.905 1001.33,486.665 1003.52,486.353C1003.54,486.377 1003.76,486.785 1004.21,487.625L1005.53,486.713C1004.6,485.153 1003.59,483.737 1002.46,482.537L1001.38,483.209C1001.96,483.953 1002.46,484.673 1002.87,485.297C1002.51,485.345 1001.09,485.417 998.669,485.537C999.365,484.241 1000.06,482.681 1000.71,480.857L999.317,480.449C998.765,482.177 998.021,483.905 997.133,485.585L996.725,485.585ZM989.813,484.169C989.741,484.289 989.573,484.505 989.357,484.817C988.997,485.297 988.733,485.681 988.517,485.969C988.157,485.993 987.509,486.017 986.573,486.041L987.077,487.481C988.373,487.385 989.357,487.313 990.005,487.241L990.221,487.217L990.221,496.097L991.613,496.097L991.613,487.049C992.621,486.929 993.245,486.809 993.437,486.761C993.485,486.929 993.653,487.385 993.869,488.105L995.141,487.481C994.637,486.017 994.061,484.673 993.365,483.473L992.189,483.953C992.477,484.481 992.765,485.057 993.053,485.705C992.621,485.753 991.973,485.777 991.109,485.849L990.029,485.897C991.301,484.409 992.645,482.441 994.133,480.017L992.837,479.225C992.309,480.233 991.541,481.529 990.581,483.041C990.245,482.537 989.885,482.033 989.525,481.553C990.389,480.449 991.277,479.009 992.213,477.305L990.821,476.585C990.245,478.049 989.525,479.369 988.709,480.569C988.397,480.209 988.109,479.921 987.869,479.657L986.909,480.665C987.869,481.625 988.853,482.825 989.813,484.169Z" style="fill-rule:nonzero;"/>
        <path d="M1015.88,482.321C1017.25,481.097 1018.42,479.801 1019.43,478.505L1018.59,477.641L1011.51,477.641L1011.51,478.961L1017.29,478.961C1016.69,479.753 1015.93,480.569 1015.01,481.433C1014.56,480.977 1014.1,480.569 1013.64,480.209L1012.59,480.977C1013.74,481.961 1014.77,483.113 1015.71,484.457L1016.86,483.497C1016.38,482.873 1016.02,482.489 1015.88,482.321ZM1014.68,493.937C1014.68,494.465 1014.46,494.705 1014.03,494.705C1013.5,494.705 1012.9,494.633 1012.23,494.465L1012.42,495.953C1013.19,496.073 1013.86,496.145 1014.44,496.145C1015.54,496.145 1016.09,495.617 1016.09,494.633L1016.09,485.945L1017.92,485.945C1017.53,487.121 1017.12,488.177 1016.67,489.113L1017.92,489.761C1018.57,488.465 1019.07,486.953 1019.48,485.273L1018.78,484.625L1010.88,484.625L1010.88,485.945L1014.51,485.945C1013.67,488.297 1012.33,490.337 1010.48,492.065L1011.27,493.361C1012.69,491.993 1013.81,490.313 1014.68,488.321L1014.68,493.937ZM1024.73,482.873C1023.77,482.129 1023,481.241 1022.36,480.257L1022.4,480.209L1022.43,480.137L1026.49,480.137C1026.12,481.097 1025.53,481.985 1024.73,482.873ZM1023.77,483.761C1022.69,484.625 1021.28,485.297 1019.43,485.825L1020.22,487.025C1022.09,486.425 1023.65,485.609 1024.9,484.577C1026.12,485.369 1027.64,486.065 1029.37,486.665L1030.2,485.393C1028.5,484.985 1027.09,484.409 1025.88,483.689C1026.87,482.585 1027.57,481.385 1027.95,480.137L1029.61,480.137L1029.61,478.841L1022.98,478.841C1023.17,478.289 1023.39,477.689 1023.56,476.993L1022.19,476.633C1021.66,478.841 1020.68,480.809 1019.21,482.513L1020.15,483.545C1020.73,482.897 1021.25,482.201 1021.71,481.457C1022.24,482.273 1022.93,483.041 1023.77,483.761ZM1027.76,489.521C1027.68,491.441 1027.57,492.737 1027.42,493.481C1027.28,494.081 1026.94,494.393 1026.32,494.393C1025.5,494.393 1024.78,494.297 1024.06,494.105L1024.3,495.641C1025.26,495.761 1026.05,495.785 1026.72,495.785C1027.83,495.785 1028.5,495.377 1028.72,494.537C1028.98,493.625 1029.15,491.489 1029.2,488.225L1024.83,488.225L1024.83,486.065L1023.39,486.065L1023.39,488.321L1019.36,488.321L1019.36,489.641L1023.32,489.641C1022.93,492.137 1021.25,493.913 1018.28,494.921L1019.33,496.193C1022.74,494.777 1024.57,492.545 1024.81,489.521L1027.76,489.521Z" style="fill-rule:nonzero;"/>
        <path d="M1036.57,484.145C1038.61,482.777 1040.21,481.073 1041.39,479.033L1039.97,478.385C1038.82,480.377 1037.31,481.913 1035.44,482.969L1036.57,484.145ZM1054.13,482.609C1052.57,480.929 1050.87,479.417 1049.02,478.073L1047.85,478.889C1049.69,480.377 1051.35,481.961 1052.77,483.689L1054.13,482.609ZM1050.12,492.257L1050.12,493.913L1040.55,493.913L1040.55,492.257L1050.12,492.257ZM1050.12,489.521L1050.12,491.105L1040.55,491.105L1040.55,489.521L1050.12,489.521ZM1050.12,486.809L1050.12,488.393L1040.55,488.393L1040.55,486.809L1050.12,486.809ZM1043.26,485.633C1045.97,484.361 1048.18,483.113 1049.88,481.841L1048.68,480.953C1047.53,481.817 1046.31,482.609 1045.11,483.281C1045.3,483.041 1045.4,482.729 1045.4,482.321L1045.4,476.681L1043.86,476.681L1043.86,481.745C1043.86,482.249 1043.6,482.513 1043.09,482.513C1042.49,482.513 1041.8,482.417 1041.03,482.297L1041.34,483.689C1042.35,483.785 1043.07,483.809 1043.55,483.809C1043.86,483.809 1044.1,483.785 1044.27,483.737C1041.49,485.273 1038.32,486.521 1034.79,487.505L1035.63,488.825C1036.73,488.441 1037.84,488.009 1039.01,487.529L1039.01,496.097L1040.55,496.097L1040.55,495.113L1050.12,495.113L1050.12,496.097L1051.64,496.097L1051.64,485.633L1043.26,485.633Z" style="fill-rule:nonzero;"/>
    </g>
</svg>
