<?xml version="1.0" encoding="UTF-8" standalone="no"?>
<!-- Created with Inkscape (http://www.inkscape.org/) -->

<svg
   xmlns:dc="http://purl.org/dc/elements/1.1/"
   xmlns:cc="http://creativecommons.org/ns#"
   xmlns:rdf="http://www.w3.org/1999/02/22-rdf-syntax-ns#"
   xmlns:svg="http://www.w3.org/2000/svg"
   xmlns="http://www.w3.org/2000/svg"
   xmlns:sodipodi="http://sodipodi.sourceforge.net/DTD/sodipodi-0.dtd"
   xmlns:inkscape="http://www.inkscape.org/namespaces/inkscape"
   version="1.1"
   id="svg2"
   xml:space="preserve"
   width="468.98932"
   height="46.697598"
   viewBox="0 0 468.98932 46.697598"
   sodipodi:docname="Telecommunications_and_Digital_Government_Regulatory_Authority_logo.svg"
   inkscape:version="0.92.4 (5da689c313, 2019-01-14)"><metadata
     id="metadata8"><rdf:RDF><cc:Work
         rdf:about=""><dc:format>image/svg+xml</dc:format><dc:type
           rdf:resource="http://purl.org/dc/dcmitype/StillImage" /><dc:title></dc:title></cc:Work></rdf:RDF></metadata><defs
     id="defs6"><clipPath
       clipPathUnits="userSpaceOnUse"
       id="clipPath18"><path
         d="M 0,80.07 H 383.628 V 0 H 0 Z"
         id="path16"
         inkscape:connector-curvature="0" /></clipPath></defs><sodipodi:namedview
     pagecolor="#ffffff"
     bordercolor="#666666"
     borderopacity="1"
     objecttolerance="10"
     gridtolerance="10"
     guidetolerance="10"
     inkscape:pageopacity="0"
     inkscape:pageshadow="2"
     inkscape:window-width="1366"
     inkscape:window-height="705"
     id="namedview4"
     showgrid="false"
     fit-margin-top="0"
     fit-margin-left="0"
     fit-margin-right="0"
     fit-margin-bottom="0"
     inkscape:zoom="3.1593708"
     inkscape:cx="131.43289"
     inkscape:cy="25.79947"
     inkscape:window-x="-8"
     inkscape:window-y="-8"
     inkscape:window-maximized="1"
     inkscape:current-layer="g10" /><g
     id="g10"
     inkscape:groupmode="layer"
     inkscape:label="TDRA final logo-01"
     transform="matrix(1.3333333,0,0,-1.3333333,-21.630266,76.729731)"><g
       id="g12"><g
         id="g14"
         clip-path="url(#clipPath18)"><g
           id="g20"
           transform="translate(169.3379,34.4067)"><path
             d="m 0,0 h -1.562 v 6.309 c 0,0.45 0.197,0.81 0.588,1.079 0.265,0.182 0.559,0.273 0.883,0.273 H 2.211 V 6.33 H 0 Z M 1.623,7.661 -0.973,6.33 h -2.658 v 1.331 z"
             style="fill:#3f4c61;fill-opacity:1;fill-rule:nonzero;stroke:none"
             id="path22"
             inkscape:connector-curvature="0" /></g><g
           id="g24"
           transform="translate(174.0747,37.5317)"><path
             d="m 0,0 v -1.795 h 3.976 l 0.008,-1.33 h -4.075 c -0.494,0 -0.889,0.185 -1.187,0.555 -0.189,0.242 -0.284,0.507 -0.284,0.796 v 4.958 c 0,0.45 0.196,0.81 0.588,1.079 0.264,0.181 0.559,0.273 0.883,0.273 H 4.024 L 3.976,3.205 H 0 V 1.331 H 3.662 V 0 Z"
             style="fill:#3f4c61;fill-opacity:1;fill-rule:nonzero;stroke:none"
             id="path26"
             inkscape:connector-curvature="0" /></g><g
           id="g28"
           transform="translate(181.479,35.7378)"><path
             d="m 0,0 h 3.672 l 0.003,-1.331 h -3.766 c -0.501,0 -0.897,0.187 -1.187,0.564 -0.181,0.236 -0.274,0.497 -0.274,0.787 V 6.329 H 0 Z"
             style="fill:#3f4c61;fill-opacity:1;fill-rule:nonzero;stroke:none"
             id="path30"
             inkscape:connector-curvature="0" /></g><g
           id="g32"
           transform="translate(168.398,30.1206)"><path
             d="M 0,0 H 0.939 C 1.535,0 2.113,-0.131 2.672,-0.394 2.905,-0.51 3.09,-0.632 3.225,-0.76 L 1.999,-1.703 c -0.215,0.275 -0.512,0.436 -0.894,0.485 -0.061,0.006 -0.116,0.01 -0.166,0.01 H 0 c -0.418,0 -0.755,-0.187 -1.014,-0.559 -0.178,-0.262 -0.267,-0.555 -0.267,-0.879 v -1.666 c 0,-0.476 0.171,-0.858 0.515,-1.145 0.241,-0.195 0.501,-0.292 0.784,-0.292 h 1.815 v 2.261 h 1.42 V -5.731 C 3.253,-6.146 3.074,-6.476 2.718,-6.72 2.478,-6.879 2.213,-6.958 1.925,-6.958 H 0.018 c -0.762,0 -1.41,0.268 -1.944,0.806 -0.51,0.512 -0.765,1.126 -0.765,1.84 v 1.666 c 0,0.751 0.273,1.386 0.821,1.905 C -1.349,-0.246 -0.726,0 0,0"
             style="fill:#3f4c61;fill-opacity:1;fill-rule:nonzero;stroke:none"
             id="path34"
             inkscape:connector-curvature="0" /></g><g
           id="g36"
           transform="translate(175.2988,24.2788)"><path
             d="M 0,0 H 0.94 C 1.365,0 1.706,0.189 1.963,0.568 2.141,0.83 2.231,1.12 2.231,1.438 V 3.287 C 2.231,3.771 2.056,4.153 1.706,4.441 1.478,4.63 1.223,4.726 0.94,4.726 H 0 c -0.424,0 -0.765,-0.187 -1.022,-0.56 C -1.207,3.903 -1.299,3.61 -1.299,3.287 V 1.438 c 0,-0.476 0.172,-0.858 0.516,-1.144 C -0.543,0.098 -0.283,0 0,0 M 0.94,-1.208 H 0 c -0.762,0 -1.41,0.269 -1.944,0.806 -0.51,0.512 -0.764,1.127 -0.764,1.84 v 1.849 c 0,0.745 0.27,1.377 0.81,1.896 C -1.364,5.684 -0.731,5.934 0,5.934 H 0.94 C 1.702,5.934 2.351,5.665 2.885,5.128 3.394,4.614 3.649,4.002 3.649,3.287 V 1.438 C 3.649,0.693 3.379,0.062 2.839,-0.457 2.304,-0.958 1.672,-1.208 0.94,-1.208"
             style="fill:#3f4c61;fill-opacity:1;fill-rule:nonzero;stroke:none"
             id="path38"
             inkscape:connector-curvature="0" /></g><g
           id="g40"
           transform="translate(187.94,37.5317)"><path
             d="m 0,0 v -1.795 h 3.977 l 0.001,-1.33 h -4.069 c -0.494,0 -0.889,0.185 -1.187,0.555 -0.189,0.242 -0.284,0.507 -0.284,0.796 v 4.958 c 0,0.45 0.196,0.81 0.588,1.079 0.264,0.181 0.559,0.273 0.883,0.273 H 3.958 L 3.977,3.205 H 0 V 1.331 H 3.662 V 0 Z"
             style="fill:#3f4c61;fill-opacity:1;fill-rule:nonzero;stroke:none"
             id="path42"
             inkscape:connector-curvature="0" /></g><g
           id="g44"
           transform="translate(194.9898,39.1538)"><path
             d="m 0,0 v -1.834 c 0,-0.523 0.188,-0.944 0.567,-1.26 0.265,-0.215 0.552,-0.322 0.863,-0.322 h 1.035 c 0.419,0 0.774,0.141 1.064,0.423 0.041,0.04 0.075,0.077 0.103,0.11 L 4.98,-3.91 C 4.601,-4.268 4.017,-4.519 3.225,-4.667 2.947,-4.721 2.694,-4.747 2.465,-4.747 H 1.43 c -0.838,0 -1.552,0.296 -2.14,0.887 -0.561,0.564 -0.843,1.24 -0.843,2.026 V 0 c 0,0.819 0.298,1.515 0.893,2.086 0.589,0.551 1.285,0.827 2.09,0.827 H 2.465 C 3.12,2.913 3.756,2.769 4.371,2.479 4.628,2.352 4.831,2.218 4.98,2.076 L 3.632,1.038 C 3.394,1.34 3.065,1.518 2.646,1.573 2.58,1.579 2.518,1.583 2.465,1.583 H 1.43 C 0.963,1.583 0.588,1.377 0.304,0.968 0.101,0.678 0,0.356 0,0"
             style="fill:#3f4c61;fill-opacity:1;fill-rule:nonzero;stroke:none"
             id="path46"
             inkscape:connector-curvature="0" /></g><g
           id="g48"
           transform="translate(203.7632,35.6362)"><path
             d="M 0,0 H 1.034 C 1.501,0 1.877,0.209 2.16,0.625 2.356,0.914 2.455,1.233 2.455,1.582 v 2.037 c 0,0.53 -0.193,0.953 -0.578,1.27 C 1.626,5.097 1.345,5.201 1.034,5.201 H 0 C -0.467,5.201 -0.842,4.996 -1.126,4.586 -1.329,4.297 -1.43,3.975 -1.43,3.619 V 1.582 c 0,-0.523 0.19,-0.944 0.568,-1.259 C -0.599,0.107 -0.312,0 0,0 M 1.034,-1.331 H 0 c -0.839,0 -1.553,0.296 -2.14,0.888 -0.561,0.564 -0.842,1.24 -0.842,2.025 v 2.037 c 0,0.819 0.297,1.515 0.892,2.086 0.589,0.55 1.285,0.826 2.09,0.826 h 1.034 c 0.839,0 1.552,-0.296 2.14,-0.887 C 3.735,5.08 4.018,4.405 4.018,3.619 V 1.582 C 4.018,0.762 3.719,0.067 3.125,-0.503 2.536,-1.055 1.839,-1.331 1.034,-1.331"
             style="fill:#3f4c61;fill-opacity:1;fill-rule:nonzero;stroke:none"
             id="path50"
             inkscape:connector-curvature="0" /></g><g
           id="g52"
           transform="translate(216.0864,40.4844)"><path
             d="M 0,0 -1.725,-4.958 H -3.367 L -5.092,0 -5.68,-6.078 h -1.664 l 0.711,6.38 c 0.068,0.571 0.338,0.971 0.812,1.199 0.196,0.087 0.401,0.132 0.618,0.132 0.467,0 0.822,-0.179 1.064,-0.534 0.062,-0.088 0.114,-0.182 0.154,-0.283 l 1.439,-4.192 1.441,4.192 c 0.155,0.416 0.457,0.675 0.903,0.776 0.107,0.027 0.212,0.041 0.314,0.041 0.487,0 0.868,-0.188 1.146,-0.564 C 1.414,0.847 1.507,0.591 1.542,0.302 l 0.71,-6.38 H 0.589 Z"
             style="fill:#3f4c61;fill-opacity:1;fill-rule:nonzero;stroke:none"
             id="path54"
             inkscape:connector-curvature="0" /></g><g
           id="g56"
           transform="translate(226.5845,40.4844)"><path
             d="M 0,0 -1.725,-4.958 H -3.367 L -5.092,0 -5.68,-6.078 h -1.664 l 0.711,6.38 c 0.068,0.571 0.338,0.971 0.812,1.199 0.195,0.087 0.401,0.132 0.618,0.132 0.467,0 0.822,-0.179 1.064,-0.534 0.062,-0.088 0.113,-0.182 0.154,-0.283 l 1.439,-4.192 1.441,4.192 c 0.155,0.416 0.457,0.675 0.903,0.776 0.106,0.027 0.212,0.041 0.313,0.041 0.488,0 0.869,-0.188 1.147,-0.564 C 1.414,0.847 1.507,0.591 1.542,0.302 l 0.71,-6.38 H 0.589 Z"
             style="fill:#3f4c61;fill-opacity:1;fill-rule:nonzero;stroke:none"
             id="path58"
             inkscape:connector-curvature="0" /></g><g
           id="g60"
           transform="translate(229.9614,42.0669)"><path
             d="m 0,0 h 1.562 v -4.747 c 0,-0.531 0.194,-0.954 0.579,-1.27 0.25,-0.209 0.53,-0.312 0.841,-0.312 h 0.832 c 0.467,0 0.842,0.204 1.126,0.614 0.204,0.289 0.304,0.611 0.304,0.968 V 0 h 1.553 v -4.747 c 0,-0.82 -0.298,-1.516 -0.894,-2.087 C 5.315,-7.385 4.618,-7.66 3.814,-7.66 H 2.982 c -0.838,0 -1.551,0.296 -2.14,0.887 C 0.281,-6.209 0,-5.533 0,-4.747 Z"
             style="fill:#3f4c61;fill-opacity:1;fill-rule:nonzero;stroke:none"
             id="path62"
             inkscape:connector-curvature="0" /></g><g
           id="g64"
           transform="translate(239.6987,42.1172)"><path
             d="m 0,0 c 0.568,0 1.028,-0.329 1.38,-0.988 0.054,-0.108 0.112,-0.228 0.173,-0.363 l 2.16,-5.059 v 6.36 H 5.265 V -6.41 C 5.265,-6.84 5.058,-7.193 4.646,-7.468 4.355,-7.664 4.04,-7.76 3.702,-7.76 3.135,-7.76 2.675,-7.431 2.323,-6.773 2.269,-6.666 2.212,-6.545 2.151,-6.41 L -0.01,-1.351 V -7.71 h -1.552 v 6.359 c 0,0.43 0.207,0.783 0.619,1.059 C -0.652,-0.097 -0.337,0 0,0"
             style="fill:#3f4c61;fill-opacity:1;fill-rule:nonzero;stroke:none"
             id="path66"
             inkscape:connector-curvature="0" /></g><path
           d="m 246.484,34.407 h 1.553 v 7.66 h -1.553 z"
           style="fill:#3f4c61;fill-opacity:1;fill-rule:nonzero;stroke:none"
           id="path68"
           inkscape:connector-curvature="0" /><g
           id="g70"
           transform="translate(250.7446,39.1538)"><path
             d="m 0,0 v -1.834 c 0,-0.523 0.189,-0.944 0.568,-1.26 0.264,-0.215 0.551,-0.322 0.862,-0.322 h 1.035 c 0.419,0 0.774,0.141 1.064,0.423 0.041,0.04 0.075,0.077 0.103,0.11 L 4.98,-3.91 C 4.603,-4.268 4.018,-4.519 3.226,-4.667 2.948,-4.721 2.694,-4.747 2.465,-4.747 H 1.43 c -0.838,0 -1.551,0.296 -2.14,0.887 -0.561,0.564 -0.841,1.24 -0.841,2.026 V 0 c 0,0.819 0.296,1.515 0.892,2.086 0.588,0.551 1.285,0.827 2.089,0.827 H 2.465 C 3.121,2.913 3.756,2.769 4.372,2.479 4.628,2.352 4.831,2.218 4.98,2.076 L 3.632,1.038 C 3.396,1.34 3.066,1.518 2.648,1.573 2.58,1.579 2.519,1.583 2.465,1.583 H 1.43 C 0.964,1.583 0.589,1.377 0.304,0.968 0.102,0.678 0,0.356 0,0"
             style="fill:#3f4c61;fill-opacity:1;fill-rule:nonzero;stroke:none"
             id="path72"
             inkscape:connector-curvature="0" /></g><g
           id="g74"
           transform="translate(261.7798,35.4243)"><path
             d="m 0,0 h -3.849 l -0.216,1.331 h 3.599 l -1.318,3.76 -2.152,-6.109 h -1.663 l 2.263,6.411 c 0.33,0.893 0.848,1.344 1.552,1.35 0.702,-0.006 1.217,-0.457 1.541,-1.35 L 2.029,-1.018 H 0.366 Z"
             style="fill:#3f4c61;fill-opacity:1;fill-rule:nonzero;stroke:none"
             id="path76"
             inkscape:connector-curvature="0" /></g><g
           id="g78"
           transform="translate(266.9224,34.4067)"><path
             d="m 0,0 h -1.562 v 6.309 c 0,0.45 0.196,0.81 0.588,1.079 0.264,0.182 0.558,0.273 0.883,0.273 H 2.211 V 6.33 H 0 Z M 1.246,7.661 -0.984,6.33 h -2.648 v 1.331 z"
             style="fill:#3f4c61;fill-opacity:1;fill-rule:nonzero;stroke:none"
             id="path80"
             inkscape:connector-curvature="0" /></g><path
           d="m 270.25,34.407 h 1.552 v 7.66 h -1.552 z"
           style="fill:#3f4c61;fill-opacity:1;fill-rule:nonzero;stroke:none"
           id="path82"
           inkscape:connector-curvature="0" /><g
           id="g84"
           transform="translate(275.9595,35.6362)"><path
             d="M 0,0 H 1.034 C 1.501,0 1.877,0.209 2.16,0.625 2.356,0.914 2.455,1.233 2.455,1.582 v 2.037 c 0,0.53 -0.193,0.953 -0.578,1.27 C 1.627,5.097 1.345,5.201 1.034,5.201 H 0 C -0.466,5.201 -0.841,4.996 -1.126,4.586 -1.328,4.297 -1.43,3.975 -1.43,3.619 V 1.582 c 0,-0.523 0.19,-0.944 0.569,-1.259 C -0.599,0.107 -0.311,0 0,0 M 1.034,-1.331 H 0 c -0.838,0 -1.551,0.296 -2.14,0.888 -0.561,0.564 -0.84,1.24 -0.84,2.025 v 2.037 c 0,0.819 0.295,1.515 0.892,2.086 0.587,0.55 1.284,0.826 2.088,0.826 H 1.034 C 1.873,6.531 2.587,6.235 3.175,5.644 3.736,5.08 4.018,4.405 4.018,3.619 V 1.582 C 4.018,0.762 3.719,0.067 3.125,-0.503 2.536,-1.055 1.84,-1.331 1.034,-1.331"
             style="fill:#3f4c61;fill-opacity:1;fill-rule:nonzero;stroke:none"
             id="path86"
             inkscape:connector-curvature="0" /></g><g
           id="g88"
           transform="translate(282.7759,42.1172)"><path
             d="m 0,0 c 0.568,0 1.027,-0.329 1.379,-0.988 0.055,-0.108 0.112,-0.228 0.173,-0.363 l 2.16,-5.059 v 6.36 h 1.553 v -6.36 c 0,-0.43 -0.206,-0.783 -0.62,-1.058 C 4.354,-7.664 4.041,-7.76 3.703,-7.76 c -0.569,0 -1.029,0.329 -1.381,0.987 -0.053,0.107 -0.11,0.228 -0.172,0.363 l -2.161,5.059 V -7.71 h -1.551 v 6.359 c 0,0.43 0.207,0.783 0.619,1.059 C -0.653,-0.097 -0.338,0 0,0"
             style="fill:#3f4c61;fill-opacity:1;fill-rule:nonzero;stroke:none"
             id="path90"
             inkscape:connector-curvature="0" /></g><g
           id="g92"
           transform="translate(289.2368,39.8799)"><path
             d="M 0,0 C 0,0.618 0.291,1.142 0.873,1.572 1.434,1.981 2.104,2.187 2.881,2.187 H 3.915 C 4.544,2.187 5.152,2.042 5.741,1.753 5.984,1.625 6.181,1.491 6.329,1.35 L 4.971,0.312 C 4.747,0.621 4.443,0.799 4.058,0.847 4.01,0.853 3.962,0.856 3.915,0.856 H 2.881 C 2.374,0.856 1.991,0.715 1.733,0.433 1.619,0.292 1.562,0.147 1.562,0 c 0,-0.263 0.281,-0.488 0.841,-0.676 0.177,-0.06 0.474,-0.144 0.893,-0.251 1.015,-0.262 1.725,-0.518 2.131,-0.766 0.662,-0.404 0.997,-0.934 1.004,-1.593 0,-0.612 -0.298,-1.132 -0.893,-1.561 C 4.95,-5.264 4.254,-5.473 3.448,-5.473 H 2.414 c -0.656,0 -1.292,0.144 -1.907,0.433 -0.256,0.127 -0.459,0.263 -0.608,0.404 l 1.338,1.028 c 0.237,-0.296 0.569,-0.472 0.994,-0.524 0.068,-0.007 0.128,-0.01 0.183,-0.01 h 1.034 c 0.549,0 0.961,0.144 1.238,0.433 0.122,0.134 0.183,0.275 0.183,0.423 0,0.296 -0.281,0.54 -0.843,0.736 -0.081,0.034 -0.571,0.172 -1.47,0.414 -1.034,0.275 -1.738,0.608 -2.11,0.997 C 0.148,-0.817 0,-0.437 0,0"
             style="fill:#3f4c61;fill-opacity:1;fill-rule:nonzero;stroke:none"
             id="path94"
             inkscape:connector-curvature="0" /></g><g
           id="g96"
           transform="translate(304.9272,35.4243)"><path
             d="M 0,0 H -3.805 L -3.92,1.331 h 3.454 l -1.318,3.76 -2.151,-6.109 h -1.663 l 2.262,6.411 c 0.33,0.893 0.848,1.344 1.552,1.35 0.703,-0.006 1.218,-0.457 1.541,-1.35 L 2.029,-1.018 H 0.366 Z"
             style="fill:#3f4c61;fill-opacity:1;fill-rule:nonzero;stroke:none"
             id="path98"
             inkscape:connector-curvature="0" /></g><g
           id="g100"
           transform="translate(309.3813,42.1172)"><path
             d="m 0,0 c 0.566,0 1.027,-0.329 1.379,-0.988 0.054,-0.108 0.112,-0.228 0.172,-0.363 l 2.16,-5.059 v 6.36 H 5.264 V -6.41 C 5.264,-6.84 5.057,-7.193 4.645,-7.468 4.354,-7.664 4.039,-7.76 3.701,-7.76 3.134,-7.76 2.673,-7.431 2.322,-6.773 2.268,-6.666 2.21,-6.545 2.149,-6.41 l -2.16,5.059 V -7.71 h -1.551 v 6.359 c 0,0.43 0.206,0.783 0.618,1.059 C -0.653,-0.097 -0.339,0 0,0"
             style="fill:#3f4c61;fill-opacity:1;fill-rule:nonzero;stroke:none"
             id="path102"
             inkscape:connector-curvature="0" /></g><g
           id="g104"
           transform="translate(321.0757,37.3198)"><path
             d="m 0,0 v 1.834 c 0,0.531 -0.193,0.954 -0.578,1.27 -0.251,0.209 -0.531,0.313 -0.842,0.313 h -2.009 v -4.999 h 2.009 c 0.467,0 0.842,0.207 1.126,0.624 C -0.098,-0.67 0,-0.35 0,0 m -4.98,3.396 c 0,0.458 0.195,0.82 0.587,1.089 0.265,0.174 0.556,0.262 0.873,0.262 h 2.1 C -0.582,4.747 0.132,4.451 0.719,3.86 1.28,3.295 1.562,2.62 1.562,1.834 V 0 c 0,-0.82 -0.298,-1.516 -0.892,-2.087 -0.589,-0.551 -1.285,-0.826 -2.09,-0.826 h -3.56 z"
             style="fill:#3f4c61;fill-opacity:1;fill-rule:nonzero;stroke:none"
             id="path106"
             inkscape:connector-curvature="0" /></g><g
           id="g108"
           transform="translate(331.938,37.3198)"><path
             d="m 0,0 v 1.834 c 0,0.531 -0.192,0.954 -0.577,1.27 -0.251,0.209 -0.531,0.313 -0.842,0.313 h -2.009 v -4.999 h 2.009 c 0.467,0 0.842,0.207 1.126,0.624 C -0.097,-0.67 0,-0.35 0,0 m -4.979,3.396 c 0,0.458 0.195,0.82 0.587,1.089 0.264,0.174 0.555,0.262 0.873,0.262 h 2.1 C -0.581,4.747 0.133,4.451 0.72,3.86 1.281,3.295 1.562,2.62 1.562,1.834 V 0 c 0,-0.82 -0.298,-1.516 -0.892,-2.087 -0.588,-0.551 -1.284,-0.826 -2.089,-0.826 h -3.56 z"
             style="fill:#3f4c61;fill-opacity:1;fill-rule:nonzero;stroke:none"
             id="path110"
             inkscape:connector-curvature="0" /></g><path
           d="m 334.778,34.407 h 1.552 v 7.66 h -1.552 z"
           style="fill:#3f4c61;fill-opacity:1;fill-rule:nonzero;stroke:none"
           id="path112"
           inkscape:connector-curvature="0" /><g
           id="g114"
           transform="translate(340.4487,42.0669)"><path
             d="M 0,0 H 1.034 C 1.689,0 2.325,-0.145 2.94,-0.434 3.198,-0.562 3.4,-0.695 3.55,-0.837 L 2.2,-1.875 C 1.963,-1.573 1.636,-1.395 1.217,-1.34 1.148,-1.333 1.088,-1.331 1.034,-1.331 H 0 c -0.46,0 -0.832,-0.205 -1.116,-0.614 -0.196,-0.289 -0.295,-0.612 -0.295,-0.968 v -1.834 c 0,-0.524 0.189,-0.944 0.569,-1.26 0.263,-0.215 0.551,-0.322 0.862,-0.322 H 2.019 V -3.84 H 3.581 V -6.31 C 3.581,-6.767 3.384,-7.129 2.992,-7.398 2.729,-7.573 2.437,-7.66 2.119,-7.66 H 0.02 c -0.839,0 -1.553,0.296 -2.139,0.887 -0.563,0.564 -0.844,1.24 -0.844,2.026 v 1.834 c 0,0.827 0.301,1.525 0.903,2.097 C -1.485,-0.272 -0.798,0 0,0"
             style="fill:#3f4c61;fill-opacity:1;fill-rule:nonzero;stroke:none"
             id="path116"
             inkscape:connector-curvature="0" /></g><path
           d="m 345.45,34.407 h 1.551 v 7.66 h -1.551 z"
           style="fill:#3f4c61;fill-opacity:1;fill-rule:nonzero;stroke:none"
           id="path118"
           inkscape:connector-curvature="0" /><g
           id="g120"
           transform="translate(351.7368,34.4067)"><path
             d="m 0,0 h -1.562 v 6.309 c 0,0.45 0.197,0.81 0.588,1.079 0.264,0.182 0.559,0.273 0.883,0.273 H 2.212 V 6.33 H 0 Z M 1.112,7.661 -1.03,6.33 h -2.601 v 1.331 z"
             style="fill:#3f4c61;fill-opacity:1;fill-rule:nonzero;stroke:none"
             id="path122"
             inkscape:connector-curvature="0" /></g><g
           id="g124"
           transform="translate(358.8979,35.4243)"><path
             d="m 0,0 h -4.078 l 0.642,1.331 h 2.97 l -1.319,3.76 -2.151,-6.109 h -1.663 l 2.262,6.411 c 0.331,0.893 0.849,1.344 1.552,1.35 0.704,-0.006 1.218,-0.457 1.542,-1.35 L 2.029,-1.018 H 0.366 Z"
             style="fill:#3f4c61;fill-opacity:1;fill-rule:nonzero;stroke:none"
             id="path126"
             inkscape:connector-curvature="0" /></g><g
           id="g128"
           transform="translate(363.3608,35.7378)"><path
             d="m 0,0 h 3.672 l 0.007,-1.331 h -3.771 c -0.501,0 -0.895,0.187 -1.185,0.564 -0.183,0.236 -0.274,0.497 -0.274,0.787 V 6.329 H 0 Z"
             style="fill:#3f4c61;fill-opacity:1;fill-rule:nonzero;stroke:none"
             id="path130"
             inkscape:connector-curvature="0" /></g><g
           id="g132"
           transform="translate(183.0943,24.5727)"><path
             d="M 0,0 1.954,5.549 H 3.465 L 1.411,-0.274 C 1.109,-1.087 0.639,-1.496 0,-1.502 c -0.639,0.006 -1.105,0.415 -1.4,1.228 l -2.064,5.823 h 1.511 z"
             style="fill:#3f4c61;fill-opacity:1;fill-rule:nonzero;stroke:none"
             id="path134"
             inkscape:connector-curvature="0" /></g><g
           id="g136"
           transform="translate(188.7158,26.0005)"><path
             d="m 0,0 v -1.629 h 3.612 l 0.021,-1.21 h -3.716 c -0.449,0 -0.808,0.169 -1.078,0.505 -0.173,0.22 -0.258,0.46 -0.258,0.723 v 4.504 c 0,0.409 0.178,0.736 0.534,0.981 0.24,0.164 0.507,0.246 0.802,0.246 H 3.598 L 3.612,2.912 H 0 V 1.209 H 3.326 V 0 Z"
             style="fill:#3f4c61;fill-opacity:1;fill-rule:nonzero;stroke:none"
             id="path138"
             inkscape:connector-curvature="0" /></g><g
           id="g140"
           transform="translate(195.4243,28.9126)"><path
             d="m 0,0 v -5.751 h -1.41 v 5.731 c 0,0.416 0.179,0.747 0.534,0.991 0.239,0.158 0.504,0.237 0.792,0.237 H 1.824 C 2.677,1.208 3.363,0.955 3.879,0.449 4.315,0.015 4.532,-0.52 4.532,-1.153 V -1.419 C 4.532,-2.213 4.217,-2.83 3.584,-3.269 3.344,-3.434 3.079,-3.56 2.791,-3.644 l 1.898,-2.107 h -1.76 l -1.749,1.97 h -1.617 l 0.018,1.209 h 2.243 c 0.576,0 0.967,0.197 1.17,0.593 0.08,0.166 0.12,0.352 0.12,0.56 v 0.266 c 0,0.549 -0.249,0.906 -0.747,1.071 C 2.202,-0.027 2.021,0 1.824,0 Z"
             style="fill:#3f4c61;fill-opacity:1;fill-rule:nonzero;stroke:none"
             id="path142"
             inkscape:connector-curvature="0" /></g><g
           id="g144"
           transform="translate(202.5366,30.1665)"><path
             d="m 0,0 c 0.516,0 0.934,-0.299 1.254,-0.897 0.049,-0.098 0.101,-0.207 0.156,-0.33 l 1.964,-4.596 v 5.777 h 1.409 v -5.777 c 0,-0.391 -0.188,-0.711 -0.562,-0.962 -0.265,-0.176 -0.55,-0.266 -0.857,-0.266 -0.515,0 -0.933,0.299 -1.254,0.899 -0.049,0.096 -0.101,0.207 -0.156,0.329 l -1.963,4.596 v -5.778 h -1.409 v 5.778 c 0,0.391 0.188,0.711 0.563,0.961 C -0.592,-0.088 -0.307,0 0,0"
             style="fill:#3f4c61;fill-opacity:1;fill-rule:nonzero;stroke:none"
             id="path146"
             inkscape:connector-curvature="0" /></g><g
           id="g148"
           transform="translate(215.0591,28.6831)"><path
             d="M 0,0 -1.566,-4.504 H -3.059 L -4.624,0 -5.159,-5.521 H -6.67 l 0.645,5.795 c 0.061,0.519 0.306,0.883 0.737,1.091 0.178,0.078 0.365,0.118 0.561,0.118 0.424,0 0.747,-0.161 0.969,-0.484 0.054,-0.079 0.101,-0.165 0.138,-0.257 l 1.308,-3.809 1.308,3.809 c 0.142,0.378 0.415,0.613 0.82,0.705 0.098,0.025 0.195,0.036 0.286,0.036 0.443,0 0.789,-0.171 1.042,-0.512 C 1.284,0.77 1.37,0.538 1.401,0.274 L 2.046,-5.521 H 0.535 Z"
             style="fill:#3f4c61;fill-opacity:1;fill-rule:nonzero;stroke:none"
             id="path150"
             inkscape:connector-curvature="0" /></g><g
           id="g152"
           transform="translate(219.52,26.0005)"><path
             d="m 0,0 v -1.629 h 3.611 l -0.026,-1.21 h -3.668 c -0.449,0 -0.808,0.169 -1.079,0.505 -0.172,0.22 -0.257,0.46 -0.257,0.723 v 4.504 c 0,0.409 0.178,0.736 0.533,0.981 0.24,0.164 0.508,0.246 0.803,0.246 H 3.639 L 3.611,2.912 H 0 V 1.209 H 3.326 V 0 Z"
             style="fill:#3f4c61;fill-opacity:1;fill-rule:nonzero;stroke:none"
             id="path154"
             inkscape:connector-curvature="0" /></g><g
           id="g156"
           transform="translate(226.2368,30.1665)"><path
             d="m 0,0 c 0.516,0 0.934,-0.299 1.253,-0.897 0.049,-0.098 0.101,-0.207 0.157,-0.33 l 1.963,-4.596 v 5.777 h 1.409 v -5.777 c 0,-0.391 -0.187,-0.711 -0.561,-0.962 -0.265,-0.176 -0.55,-0.266 -0.858,-0.266 -0.515,0 -0.933,0.299 -1.253,0.899 -0.049,0.096 -0.101,0.207 -0.157,0.329 l -1.962,4.596 v -5.778 h -1.41 v 5.778 c 0,0.391 0.188,0.711 0.563,0.961 C -0.593,-0.088 -0.308,0 0,0"
             style="fill:#3f4c61;fill-opacity:1;fill-rule:nonzero;stroke:none"
             id="path158"
             inkscape:connector-curvature="0" /></g><g
           id="g160"
           transform="translate(235.2857,23.1626)"><path
             d="m 0,0 h -1.418 v 5.731 c 0,0.409 0.177,0.736 0.533,0.981 0.239,0.164 0.507,0.246 0.802,0.246 H 2.009 V 5.75 H 0 Z M 0.09,6.958 -0.795,5.75 H -3.3 v 1.208 z"
             style="fill:#3f4c61;fill-opacity:1;fill-rule:nonzero;stroke:none"
             id="path162"
             inkscape:connector-curvature="0" /></g><g
           id="g164"
           transform="translate(242.4819,28.9126)"><path
             d="m 0,0 v -5.751 h -1.41 v 5.731 c 0,0.416 0.179,0.747 0.534,0.991 0.24,0.158 0.504,0.237 0.793,0.237 H 1.824 C 2.678,1.208 3.363,0.955 3.88,0.449 4.315,0.015 4.534,-0.52 4.534,-1.153 v -0.266 c 0,-0.794 -0.317,-1.411 -0.95,-1.85 C 3.345,-3.434 3.08,-3.56 2.792,-3.644 L 4.69,-5.751 H 2.93 l -1.75,1.97 h -1.664 l 0.212,1.209 h 2.096 c 0.577,0 0.968,0.197 1.171,0.593 0.08,0.166 0.12,0.352 0.12,0.56 v 0.266 c 0,0.549 -0.25,0.906 -0.747,1.071 C 2.202,-0.027 2.021,0 1.824,0 Z"
             style="fill:#3f4c61;fill-opacity:1;fill-rule:nonzero;stroke:none"
             id="path166"
             inkscape:connector-curvature="0" /></g><g
           id="g168"
           transform="translate(249.521,26.0005)"><path
             d="m 0,0 v -1.629 h 3.613 l 0.036,-1.21 h -3.731 c -0.448,0 -0.808,0.169 -1.078,0.505 -0.172,0.22 -0.258,0.46 -0.258,0.723 v 4.504 c 0,0.409 0.178,0.736 0.534,0.981 0.239,0.164 0.507,0.246 0.802,0.246 H 3.649 L 3.613,2.912 H 0 V 1.209 H 3.327 V 0 Z"
             style="fill:#3f4c61;fill-opacity:1;fill-rule:nonzero;stroke:none"
             id="path170"
             inkscape:connector-curvature="0" /></g><g
           id="g172"
           transform="translate(257.2065,30.1206)"><path
             d="M 0,0 H 0.94 C 1.536,0 2.113,-0.131 2.672,-0.394 2.905,-0.51 3.09,-0.632 3.226,-0.76 L 2,-1.703 c -0.215,0.275 -0.514,0.436 -0.894,0.485 -0.062,0.006 -0.117,0.01 -0.166,0.01 H 0 c -0.418,0 -0.755,-0.187 -1.013,-0.559 -0.178,-0.262 -0.267,-0.555 -0.267,-0.879 v -1.666 c 0,-0.476 0.171,-0.858 0.515,-1.145 0.241,-0.195 0.501,-0.292 0.784,-0.292 h 1.815 v 2.261 H 3.253 V -5.731 C 3.253,-6.146 3.075,-6.476 2.718,-6.72 2.479,-6.879 2.214,-6.958 1.926,-6.958 H 0.019 c -0.762,0 -1.41,0.268 -1.945,0.806 -0.51,0.512 -0.764,1.126 -0.764,1.84 v 1.666 c 0,0.751 0.272,1.386 0.82,1.905 C -1.349,-0.246 -0.725,0 0,0"
             style="fill:#3f4c61;fill-opacity:1;fill-rule:nonzero;stroke:none"
             id="path174"
             inkscape:connector-curvature="0" /></g><g
           id="g176"
           transform="translate(261.6382,30.1206)"><path
             d="m 0,0 h 1.419 v -4.312 c 0,-0.483 0.176,-0.867 0.526,-1.154 0.226,-0.188 0.483,-0.283 0.765,-0.283 h 0.755 c 0.425,0 0.765,0.186 1.023,0.558 0.184,0.262 0.277,0.555 0.277,0.879 V 0 h 1.41 v -4.312 c 0,-0.745 -0.271,-1.376 -0.812,-1.896 -0.534,-0.5 -1.167,-0.75 -1.898,-0.75 H 2.71 c -0.763,0 -1.409,0.268 -1.944,0.806 C 0.255,-5.64 0,-5.026 0,-4.312 Z"
             style="fill:#3f4c61;fill-opacity:1;fill-rule:nonzero;stroke:none"
             id="path178"
             inkscape:connector-curvature="0" /></g><g
           id="g180"
           transform="translate(270.4272,24.3716)"><path
             d="m 0,0 h 3.336 l 0.018,-1.21 h -3.437 c -0.455,0 -0.814,0.172 -1.078,0.514 -0.166,0.213 -0.249,0.452 -0.249,0.714 V 5.749 H 0 Z"
             style="fill:#3f4c61;fill-opacity:1;fill-rule:nonzero;stroke:none"
             id="path182"
             inkscape:connector-curvature="0" /></g><g
           id="g184"
           transform="translate(279.4966,24.0874)"><path
             d="m 0,0 h -3.68 l 0.409,1.208 h 2.847 l -1.198,3.416 -1.952,-5.549 h -1.512 l 2.054,5.823 c 0.302,0.812 0.771,1.22 1.41,1.227 0.639,-0.007 1.106,-0.415 1.401,-1.227 L 1.843,-0.925 H 0.332 Z"
             style="fill:#3f4c61;fill-opacity:1;fill-rule:nonzero;stroke:none"
             id="path186"
             inkscape:connector-curvature="0" /></g><g
           id="g188"
           transform="translate(284.1685,23.1626)"><path
             d="m 0,0 h -1.419 v 5.731 c 0,0.409 0.178,0.736 0.534,0.981 0.239,0.164 0.507,0.246 0.802,0.246 H 2.009 V 5.75 H 0 Z M 0.591,6.958 -0.543,5.75 h -2.756 v 1.208 z"
             style="fill:#3f4c61;fill-opacity:1;fill-rule:nonzero;stroke:none"
             id="path190"
             inkscape:connector-curvature="0" /></g><g
           id="g192"
           transform="translate(289.5493,24.2788)"><path
             d="M 0,0 H 0.94 C 1.364,0 1.705,0.189 1.963,0.568 2.141,0.83 2.229,1.12 2.229,1.438 V 3.287 C 2.229,3.771 2.056,4.153 1.705,4.441 1.478,4.63 1.224,4.726 0.94,4.726 H 0 c -0.424,0 -0.765,-0.187 -1.023,-0.56 C -1.207,3.903 -1.3,3.61 -1.3,3.287 V 1.438 C -1.3,0.962 -1.127,0.58 -0.783,0.294 -0.544,0.098 -0.283,0 0,0 M 0.94,-1.208 H 0 c -0.762,0 -1.41,0.269 -1.944,0.806 -0.51,0.512 -0.764,1.127 -0.764,1.84 v 1.849 c 0,0.745 0.27,1.377 0.81,1.896 C -1.363,5.684 -0.731,5.934 0,5.934 H 0.94 C 1.701,5.934 2.351,5.665 2.885,5.128 3.395,4.614 3.648,4.002 3.648,3.287 V 1.438 C 3.648,0.693 3.379,0.062 2.839,-0.457 2.304,-0.958 1.672,-1.208 0.94,-1.208"
             style="fill:#3f4c61;fill-opacity:1;fill-rule:nonzero;stroke:none"
             id="path194"
             inkscape:connector-curvature="0" /></g><g
           id="g196"
           transform="translate(295.7329,28.9126)"><path
             d="m 0,0 v -5.751 h -1.41 v 5.731 c 0,0.416 0.179,0.747 0.534,0.991 0.239,0.158 0.504,0.237 0.792,0.237 H 1.824 C 2.678,1.208 3.363,0.955 3.879,0.449 4.315,0.015 4.533,-0.52 4.533,-1.153 V -1.419 C 4.533,-2.213 4.217,-2.83 3.584,-3.269 3.344,-3.434 3.079,-3.56 2.791,-3.644 l 1.898,-2.107 h -1.76 l -1.749,1.97 h -1.424 l -0.018,1.209 h 2.086 c 0.576,0 0.967,0.197 1.17,0.593 0.08,0.166 0.121,0.352 0.121,0.56 v 0.266 c 0,0.549 -0.25,0.906 -0.748,1.071 C 2.202,-0.027 2.021,0 1.824,0 Z"
             style="fill:#3f4c61;fill-opacity:1;fill-rule:nonzero;stroke:none"
             id="path198"
             inkscape:connector-curvature="0" /></g><g
           id="g200"
           transform="translate(314.2661,24.0874)"><path
             d="m 0,0 h -3.737 l 0.319,1.208 h 2.993 l -1.197,3.416 -1.954,-5.549 h -1.511 l 2.054,5.823 c 0.301,0.812 0.771,1.22 1.411,1.227 0.639,-0.007 1.105,-0.415 1.4,-1.227 L 1.842,-0.925 H 0.33 Z"
             style="fill:#3f4c61;fill-opacity:1;fill-rule:nonzero;stroke:none"
             id="path202"
             inkscape:connector-curvature="0" /></g><g
           id="g204"
           transform="translate(316.8452,30.1206)"><path
             d="m 0,0 h 1.419 v -4.312 c 0,-0.483 0.176,-0.867 0.525,-1.154 0.227,-0.188 0.484,-0.283 0.765,-0.283 h 0.756 c 0.424,0 0.764,0.186 1.022,0.558 0.185,0.262 0.277,0.555 0.277,0.879 V 0 h 1.41 v -4.312 c 0,-0.745 -0.27,-1.376 -0.811,-1.896 -0.535,-0.5 -1.167,-0.75 -1.898,-0.75 H 2.709 C 1.947,-6.958 1.3,-6.69 0.766,-6.152 0.255,-5.64 0,-5.026 0,-4.312 Z"
             style="fill:#3f4c61;fill-opacity:1;fill-rule:nonzero;stroke:none"
             id="path206"
             inkscape:connector-curvature="0" /></g><g
           id="g208"
           transform="translate(327.2212,23.1626)"><path
             d="m 0,0 h -1.419 v 5.731 c 0,0.409 0.178,0.736 0.533,0.981 0.24,0.164 0.508,0.246 0.802,0.246 H 2.009 V 5.75 H 0 Z M 0.482,6.958 -0.738,5.75 H -3.3 v 1.208 z"
             style="fill:#3f4c61;fill-opacity:1;fill-rule:nonzero;stroke:none"
             id="path210"
             inkscape:connector-curvature="0" /></g><g
           id="g212"
           transform="translate(331.6528,26.4497)"><path
             d="M 0,0 -0.371,0.76 H 3.032 V 3.671 H 4.451 V -3.288 H 3.032 v 2.839 H 0 V -3.288 H -1.409 V 3.671 H 0 Z"
             style="fill:#3f4c61;fill-opacity:1;fill-rule:nonzero;stroke:none"
             id="path214"
             inkscape:connector-curvature="0" /></g><g
           id="g216"
           transform="translate(339.8726,24.2788)"><path
             d="M 0,0 H 0.939 C 1.363,0 1.705,0.189 1.963,0.568 2.14,0.83 2.229,1.12 2.229,1.438 V 3.287 C 2.229,3.771 2.055,4.153 1.705,4.441 1.478,4.63 1.222,4.726 0.939,4.726 H 0 c -0.424,0 -0.765,-0.187 -1.023,-0.56 C -1.207,3.903 -1.3,3.61 -1.3,3.287 V 1.438 C -1.3,0.962 -1.127,0.58 -0.783,0.294 -0.544,0.098 -0.283,0 0,0 M 0.939,-1.208 H 0 c -0.762,0 -1.41,0.269 -1.944,0.806 -0.511,0.512 -0.764,1.127 -0.764,1.84 v 1.849 c 0,0.745 0.27,1.377 0.81,1.896 C -1.364,5.684 -0.731,5.934 0,5.934 H 0.939 C 1.701,5.934 2.351,5.665 2.885,5.128 3.395,4.614 3.648,4.002 3.648,3.287 V 1.438 C 3.648,0.693 3.379,0.062 2.839,-0.457 2.304,-0.958 1.671,-1.208 0.939,-1.208"
             style="fill:#3f4c61;fill-opacity:1;fill-rule:nonzero;stroke:none"
             id="path218"
             inkscape:connector-curvature="0" /></g><g
           id="g220"
           transform="translate(346.0552,28.9126)"><path
             d="m 0,0 v -5.751 h -1.41 v 5.731 c 0,0.416 0.18,0.747 0.534,0.991 0.24,0.158 0.504,0.237 0.793,0.237 H 1.825 C 2.678,1.208 3.364,0.955 3.88,0.449 4.316,0.015 4.534,-0.52 4.534,-1.153 V -1.419 C 4.534,-2.213 4.217,-2.83 3.585,-3.269 3.345,-3.434 3.08,-3.56 2.792,-3.644 L 4.69,-5.751 H 2.93 l -1.749,1.97 h -1.614 l -0.229,1.209 h 2.487 c 0.576,0 0.967,0.197 1.17,0.593 0.079,0.166 0.12,0.352 0.12,0.56 v 0.266 c 0,0.549 -0.25,0.906 -0.747,1.071 C 2.203,-0.027 2.021,0 1.825,0 Z"
             style="fill:#3f4c61;fill-opacity:1;fill-rule:nonzero;stroke:none"
             id="path222"
             inkscape:connector-curvature="0" /></g><path
           d="m 351.815,23.163 h 1.41 v 6.959 h -1.41 z"
           style="fill:#3f4c61;fill-opacity:1;fill-rule:nonzero;stroke:none"
           id="path224"
           inkscape:connector-curvature="0" /><g
           id="g226"
           transform="translate(357.5278,23.1626)"><path
             d="m 0,0 h -1.419 v 5.731 c 0,0.409 0.178,0.736 0.533,0.981 0.24,0.164 0.508,0.246 0.803,0.246 H 2.009 V 5.75 H 0 Z M 0.274,6.958 -0.644,5.75 h -2.655 v 1.208 z"
             style="fill:#3f4c61;fill-opacity:1;fill-rule:nonzero;stroke:none"
             id="path228"
             inkscape:connector-curvature="0" /></g><g
           id="g230"
           transform="translate(363.3511,27.0991)"><path
             d="M 0,0 1.953,3.021 H 3.465 L 1.4,-0.274 C 1.154,-0.653 0.927,-0.919 0.718,-1.071 v -2.866 h -1.417 v 2.848 c -0.24,0.17 -0.478,0.442 -0.711,0.815 l -2.054,3.295 h 1.51 z"
             style="fill:#3f4c61;fill-opacity:1;fill-rule:nonzero;stroke:none"
             id="path232"
             inkscape:connector-curvature="0" /></g><g
           id="g234"
           transform="translate(304.0298,27.0991)"><path
             d="M 0,0 1.954,3.021 H 3.465 L 1.401,-0.274 C 1.154,-0.653 0.928,-0.919 0.719,-1.071 v -2.866 h -1.418 v 2.848 c -0.24,0.17 -0.478,0.442 -0.71,0.815 l -2.054,3.295 h 1.51 z"
             style="fill:#3f4c61;fill-opacity:1;fill-rule:nonzero;stroke:none"
             id="path236"
             inkscape:connector-curvature="0" /></g><g
           id="g238"
           transform="translate(135.7129,51.0141)"><path
             d="m 0,0 c -1.187,3.395 -3.24,6.01 -6.799,6.01 -3.559,0 -5.613,-2.615 -6.799,-6.01 l -9.947,-28.49 h 7.3 l 1.58,4.541 2.058,5.919 5.808,16.699 9.445,-27.159 h 7.301 z"
             style="fill:#9d805f;fill-opacity:1;fill-rule:nonzero;stroke:none"
             id="path240"
             inkscape:connector-curvature="0" /></g><g
           id="g242"
           transform="translate(168.7417,55.4443)"><path
             d="m 0,0 c -0.084,0 -0.126,0.042 -0.126,0.127 v 1.241 c 0,0.084 0.042,0.127 0.126,0.127 h 1.281 c 0.084,0 0.127,-0.043 0.127,-0.127 V 0.127 C 1.408,0.042 1.365,0 1.281,0 Z m -0.425,-5.104 c 0.32,0 0.574,0.09 0.763,0.271 0.188,0.182 0.284,0.467 0.284,0.855 v 0.874 h -1.009 c -0.319,0 -0.575,-0.076 -0.769,-0.228 -0.193,-0.152 -0.289,-0.431 -0.289,-0.835 0,-0.347 0.096,-0.589 0.289,-0.729 0.194,-0.14 0.437,-0.208 0.731,-0.208 M -1.953,0 C -2.037,0 -2.08,0.042 -2.08,0.127 v 1.241 c 0,0.084 0.043,0.127 0.127,0.127 h 1.268 c 0.084,0 0.127,-0.043 0.127,-0.127 V 0.127 C -0.558,0.042 -0.601,0 -0.685,0 Z m 2.575,-1.57 v 0.544 c 0,0.084 0.042,0.127 0.126,0.127 h 1.547 c 0.084,0 0.126,-0.043 0.126,-0.127 v -3.889 c 0,-0.253 0.049,-0.429 0.146,-0.525 0.098,-0.098 0.252,-0.146 0.463,-0.146 h 0.393 c 0.339,0 0.508,-0.258 0.508,-0.773 0,-0.296 -0.04,-0.496 -0.12,-0.602 C 3.73,-7.066 3.601,-7.119 3.423,-7.119 H 2.105 c -0.415,0 -0.738,0.065 -0.97,0.197 -0.233,0.13 -0.387,0.377 -0.463,0.74 C 0.486,-6.334 0.271,-6.447 0.025,-6.523 -0.22,-6.6 -0.478,-6.638 -0.748,-6.638 c -0.33,0 -0.645,0.047 -0.944,0.139 -0.301,0.094 -0.565,0.237 -0.793,0.431 -0.228,0.194 -0.408,0.447 -0.539,0.761 -0.131,0.312 -0.197,0.692 -0.197,1.14 0,0.506 0.074,0.926 0.222,1.26 0.148,0.334 0.342,0.6 0.583,0.798 0.241,0.198 0.516,0.338 0.825,0.418 0.308,0.08 0.623,0.121 0.944,0.121 z"
             style="fill:#344b61;fill-opacity:1;fill-rule:nonzero;stroke:none"
             id="path244"
             inkscape:connector-curvature="0" /></g><g
           id="g246"
           transform="translate(174.8535,45.7285)"><path
             d="m 0,0 c -0.085,0 -0.127,0.042 -0.127,0.127 v 1.241 c 0,0.084 0.042,0.127 0.127,0.127 h 1.28 c 0.085,0 0.127,-0.043 0.127,-0.127 V 0.127 C 1.407,0.042 1.365,0 1.28,0 Z M -1.953,0 C -2.037,0 -2.08,0.042 -2.08,0.127 v 1.241 c 0,0.084 0.043,0.127 0.127,0.127 h 1.268 c 0.084,0 0.126,-0.043 0.126,-0.127 V 0.127 C -0.559,0.042 -0.601,0 -0.685,0 Z m 0.799,7.803 c 0,0.084 0.042,0.127 0.126,0.127 h 1.523 c 0.084,0 0.126,-0.043 0.126,-0.127 V 4.813 C 0.638,4.603 0.729,4.436 0.894,4.313 1.059,4.19 1.289,4.129 1.584,4.129 H 1.876 C 2.046,4.129 2.172,4.07 2.257,3.952 2.341,3.834 2.383,3.64 2.383,3.369 2.383,2.854 2.214,2.597 1.876,2.597 1.555,2.597 1.276,2.635 1.04,2.71 0.803,2.787 0.604,2.959 0.444,3.23 0.311,2.959 0.111,2.787 -0.153,2.71 -0.418,2.635 -0.781,2.597 -1.243,2.597 h -1.306 c -0.169,0 -0.296,0.052 -0.38,0.158 -0.085,0.105 -0.127,0.302 -0.127,0.589 0,0.287 0.04,0.49 0.12,0.608 0.081,0.118 0.209,0.177 0.387,0.177 h 0.786 c 0.271,0 0.44,0.079 0.508,0.235 0.067,0.157 0.101,0.424 0.101,0.804 z"
             style="fill:#344b61;fill-opacity:1;fill-rule:nonzero;stroke:none"
             id="path248"
             inkscape:connector-curvature="0" /></g><g
           id="g250"
           transform="translate(180.6861,52.3408)"><path
             d="m 0,0 c -0.693,0 -1.04,-0.427 -1.04,-1.279 0,-0.482 0.087,-0.817 0.26,-1.008 0.174,-0.19 0.433,-0.284 0.78,-0.284 0.355,0 0.617,0.094 0.786,0.284 0.169,0.191 0.254,0.526 0.254,1.008 C 1.04,-0.427 0.693,0 0,0 m 0.004,-4.104 c -0.448,0 -0.862,0.057 -1.238,0.171 -0.377,0.114 -0.693,0.314 -0.947,0.601 -0.093,-0.152 -0.215,-0.274 -0.368,-0.367 -0.152,-0.093 -0.31,-0.162 -0.475,-0.209 -0.165,-0.046 -0.328,-0.076 -0.489,-0.088 -0.16,-0.013 -0.303,-0.02 -0.431,-0.02 -0.169,0 -0.295,0.055 -0.38,0.165 -0.084,0.11 -0.126,0.305 -0.126,0.583 0,0.287 0.037,0.49 0.114,0.608 0.075,0.118 0.207,0.177 0.392,0.177 h 0.368 c 0.195,0 0.37,0.081 0.526,0.241 0.157,0.16 0.243,0.46 0.26,0.899 v 0.254 c 0,0.844 0.242,1.492 0.725,1.944 0.482,0.452 1.173,0.678 2.071,0.678 0.856,0 1.538,-0.239 2.047,-0.716 0.508,-0.477 0.762,-1.197 0.762,-2.16 0,-0.059 -0.002,-0.116 -0.006,-0.171 -0.005,-0.054 -0.007,-0.108 -0.007,-0.158 0.017,-0.279 0.097,-0.484 0.241,-0.615 0.144,-0.13 0.326,-0.196 0.545,-0.196 h 0.369 c 0.168,0 0.295,-0.059 0.379,-0.177 0.085,-0.118 0.127,-0.313 0.127,-0.583 0,-0.515 -0.169,-0.773 -0.506,-0.773 -0.153,0 -0.31,0.007 -0.47,0.02 C 3.326,-3.984 3.17,-3.952 3.018,-3.902 2.866,-3.851 2.721,-3.777 2.585,-3.68 2.449,-3.583 2.33,-3.45 2.228,-3.281 1.973,-3.585 1.654,-3.798 1.269,-3.92 0.883,-4.043 0.461,-4.104 0.004,-4.104"
             style="fill:#344b61;fill-opacity:1;fill-rule:nonzero;stroke:none"
             id="path252"
             inkscape:connector-curvature="0" /></g><g
           id="g254"
           transform="translate(188.5855,54.9375)"><path
             d="m 0,0 c -0.084,0 -0.126,0.042 -0.126,0.127 v 1.242 c 0,0.083 0.042,0.126 0.126,0.126 h 1.28 c 0.085,0 0.128,-0.043 0.128,-0.126 V 0.127 C 1.408,0.042 1.365,0 1.28,0 Z m -0.311,-2.597 c -0.689,0 -1.033,-0.412 -1.033,-1.235 0,-0.487 0.086,-0.823 0.259,-1.008 0.172,-0.185 0.43,-0.278 0.774,-0.278 0.345,0 0.603,0.091 0.775,0.272 0.172,0.18 0.259,0.506 0.259,0.976 0,0.849 -0.345,1.273 -1.034,1.273 M -1.953,0 C -2.037,0 -2.08,0.042 -2.08,0.127 v 1.242 c 0,0.083 0.043,0.126 0.127,0.126 h 1.268 c 0.084,0 0.127,-0.043 0.127,-0.126 V 0.127 C -0.558,0.042 -0.601,0 -0.685,0 Z m -1.939,-6.612 c -0.177,0 -0.305,0.052 -0.386,0.159 -0.08,0.107 -0.12,0.313 -0.12,0.62 0,0.272 0.042,0.468 0.127,0.587 0.084,0.12 0.211,0.18 0.379,0.18 h 0.977 c -0.136,0.277 -0.205,0.656 -0.205,1.136 0,0.555 0.079,1.016 0.236,1.383 0.156,0.365 0.366,0.658 0.629,0.877 0.262,0.219 0.563,0.375 0.902,0.467 0.339,0.093 0.686,0.139 1.042,0.139 0.373,0 0.728,-0.046 1.068,-0.139 0.339,-0.093 0.638,-0.249 0.896,-0.469 0.258,-0.22 0.464,-0.513 0.616,-0.88 0.152,-0.368 0.229,-0.83 0.229,-1.387 0,-0.516 -0.072,-0.944 -0.216,-1.286 C 2.137,-5.567 1.941,-5.842 1.691,-6.048 1.441,-6.255 1.145,-6.401 0.802,-6.485 0.458,-6.57 0.088,-6.612 -0.31,-6.612 Z"
             style="fill:#344b61;fill-opacity:1;fill-rule:nonzero;stroke:none"
             id="path256"
             inkscape:connector-curvature="0" /></g><g
           id="g258"
           transform="translate(193.0991,53.5317)"><path
             d="M 0,0 C 0,0.084 0.042,0.127 0.127,0.127 H 1.674 C 1.759,0.127 1.801,0.084 1.801,0 v -2.99 c 0.016,-0.211 0.107,-0.378 0.272,-0.5 0.165,-0.122 0.396,-0.184 0.692,-0.184 h 0.278 c 0.169,0 0.297,-0.059 0.381,-0.177 0.084,-0.118 0.127,-0.313 0.127,-0.583 0,-0.515 -0.169,-0.772 -0.508,-0.772 -0.278,0 -0.52,0.027 -0.723,0.082 -0.202,0.055 -0.376,0.171 -0.519,0.348 v -0.203 c 0,-0.962 -0.186,-1.673 -0.558,-2.134 -0.372,-0.46 -1.007,-0.69 -1.902,-0.69 h -0.584 c -0.084,0 -0.126,0.042 -0.126,0.127 v 1.279 c 0,0.084 0.042,0.126 0.126,0.126 h 0.28 c 0.228,0 0.405,0.036 0.532,0.108 0.127,0.072 0.222,0.178 0.285,0.317 0.064,0.139 0.104,0.31 0.121,0.513 C -0.008,-5.13 0,-4.898 0,-4.637 Z"
             style="fill:#344b61;fill-opacity:1;fill-rule:nonzero;stroke:none"
             id="path260"
             inkscape:connector-curvature="0" /></g><g
           id="g262"
           transform="translate(196.1421,48.3252)"><path
             d="m 0,0 c -0.169,0 -0.295,0.03 -0.38,0.089 -0.085,0.059 -0.127,0.177 -0.127,0.355 0,0.101 0.011,0.215 0.032,0.342 0.021,0.126 0.05,0.244 0.088,0.354 0.038,0.11 0.089,0.203 0.153,0.279 0.063,0.076 0.141,0.114 0.234,0.114 h 0.444 c 0.211,0 0.366,0.049 0.463,0.146 0.097,0.096 0.146,0.272 0.146,0.525 v 6.283 c 0,0.084 0.042,0.127 0.127,0.127 h 1.547 c 0.084,0 0.127,-0.043 0.127,-0.127 V 1.596 C 2.854,1.047 2.739,0.644 2.511,0.387 2.283,0.129 1.902,0 1.37,0 Z"
             style="fill:#344b61;fill-opacity:1;fill-rule:nonzero;stroke:none"
             id="path264"
             inkscape:connector-curvature="0" /></g><g
           id="g266"
           transform="translate(202.2925,48.4521)"><path
             d="m 0,0 c 0,-0.085 -0.042,-0.127 -0.126,-0.127 h -1.523 c -0.085,0 -0.126,0.042 -0.126,0.127 v 8.36 c 0,0.084 0.041,0.127 0.126,0.127 h 1.523 C -0.042,8.487 0,8.444 0,8.36 Z"
             style="fill:#344b61;fill-opacity:1;fill-rule:nonzero;stroke:none"
             id="path268"
             inkscape:connector-curvature="0" /></g><g
           id="g270"
           transform="translate(209.7349,55.4443)"><path
             d="m 0,0 c -0.085,0 -0.127,0.042 -0.127,0.127 v 1.241 c 0,0.084 0.042,0.127 0.127,0.127 h 1.281 c 0.083,0 0.126,-0.043 0.126,-0.127 V 0.127 C 1.407,0.042 1.364,0 1.281,0 Z m -0.425,-5.104 c 0.32,0 0.574,0.09 0.763,0.271 0.188,0.182 0.283,0.467 0.283,0.855 v 0.874 h -1.008 c -0.319,0 -0.575,-0.076 -0.768,-0.228 -0.195,-0.152 -0.29,-0.431 -0.29,-0.835 0,-0.347 0.095,-0.589 0.29,-0.729 0.193,-0.14 0.436,-0.208 0.73,-0.208 M -1.953,0 c -0.084,0 -0.126,0.042 -0.126,0.127 v 1.241 c 0,0.084 0.042,0.127 0.126,0.127 h 1.268 c 0.084,0 0.127,-0.043 0.127,-0.127 V 0.127 C -0.558,0.042 -0.601,0 -0.685,0 Z m 2.574,-1.57 v 0.544 c 0,0.084 0.042,0.127 0.127,0.127 h 1.547 c 0.084,0 0.127,-0.043 0.127,-0.127 v -3.889 c 0,-0.253 0.049,-0.429 0.145,-0.525 0.098,-0.098 0.252,-0.146 0.463,-0.146 h 0.394 c 0.338,0 0.507,-0.258 0.507,-0.773 0,-0.296 -0.04,-0.496 -0.12,-0.602 C 3.729,-7.066 3.602,-7.119 3.424,-7.119 H 2.105 c -0.415,0 -0.738,0.065 -0.97,0.197 -0.233,0.13 -0.387,0.377 -0.463,0.74 C 0.486,-6.334 0.271,-6.447 0.025,-6.523 -0.22,-6.6 -0.478,-6.638 -0.748,-6.638 c -0.33,0 -0.645,0.047 -0.944,0.139 -0.301,0.094 -0.565,0.237 -0.793,0.431 -0.228,0.194 -0.408,0.447 -0.539,0.761 -0.131,0.312 -0.197,0.692 -0.197,1.14 0,0.506 0.075,0.926 0.222,1.26 0.148,0.334 0.343,0.6 0.583,0.798 0.241,0.198 0.517,0.338 0.824,0.418 0.31,0.08 0.624,0.121 0.946,0.121 z"
             style="fill:#344b61;fill-opacity:1;fill-rule:nonzero;stroke:none"
             id="path272"
             inkscape:connector-curvature="0" /></g><g
           id="g274"
           transform="translate(217.2036,52.3408)"><path
             d="m 0,0 c -0.702,0 -1.053,-0.427 -1.053,-1.279 0,-0.482 0.089,-0.817 0.267,-1.008 0.177,-0.19 0.438,-0.284 0.786,-0.284 0.354,0 0.617,0.094 0.786,0.284 0.169,0.191 0.253,0.526 0.253,1.008 C 1.039,-0.427 0.692,0 0,0 m 0.006,-4.104 c -0.449,0 -0.862,0.057 -1.239,0.171 -0.377,0.114 -0.693,0.314 -0.947,0.601 -0.119,-0.168 -0.257,-0.297 -0.413,-0.386 -0.157,-0.089 -0.315,-0.156 -0.475,-0.202 -0.161,-0.047 -0.318,-0.074 -0.47,-0.083 -0.152,-0.008 -0.287,-0.013 -0.406,-0.013 -0.169,0 -0.296,0.055 -0.38,0.165 -0.084,0.11 -0.127,0.305 -0.127,0.583 0,0.295 0.04,0.5 0.121,0.614 0.08,0.114 0.209,0.171 0.386,0.171 h 0.368 c 0.185,0 0.359,0.081 0.519,0.241 0.161,0.16 0.249,0.46 0.267,0.899 v 0.254 c 0,0.498 0.078,0.916 0.235,1.254 0.157,0.337 0.365,0.607 0.622,0.81 0.259,0.203 0.556,0.346 0.89,0.431 0.335,0.084 0.685,0.127 1.049,0.127 0.373,0 0.728,-0.047 1.067,-0.139 C 1.412,1.3 1.711,1.145 1.97,0.925 2.228,0.705 2.434,0.412 2.586,0.044 2.738,-0.323 2.814,-0.785 2.814,-1.343 2.814,-1.858 2.742,-2.293 2.599,-2.647 2.454,-3.002 2.258,-3.287 2.008,-3.502 1.758,-3.718 1.461,-3.872 1.118,-3.965 0.774,-4.058 0.404,-4.104 0.006,-4.104"
             style="fill:#344b61;fill-opacity:1;fill-rule:nonzero;stroke:none"
             id="path276"
             inkscape:connector-curvature="0" /></g><g
           id="g278"
           transform="translate(223.9487,52.3408)"><path
             d="m 0,0 c -0.338,0 -0.599,-0.119 -0.78,-0.354 -0.182,-0.237 -0.273,-0.558 -0.273,-0.963 0,-0.465 0.1,-0.775 0.299,-0.931 0.198,-0.157 0.458,-0.235 0.779,-0.235 h 0.977 v 1.229 C 1.002,-0.418 0.668,0 0,0 m -1.572,-6.612 c -0.084,0 -0.127,0.042 -0.127,0.127 v 1.279 c 0,0.084 0.043,0.126 0.127,0.126 h 1.458 c 0.177,0 0.336,0.016 0.475,0.045 0.14,0.03 0.256,0.082 0.349,0.158 0.093,0.076 0.165,0.184 0.216,0.323 0.051,0.139 0.076,0.319 0.076,0.538 h -1.217 c -0.829,0 -1.465,0.199 -1.909,0.596 -0.444,0.397 -0.665,1.076 -0.665,2.039 0,0.541 0.078,0.996 0.234,1.368 0.158,0.371 0.365,0.672 0.623,0.9 0.258,0.228 0.555,0.392 0.89,0.494 0.334,0.101 0.68,0.152 1.036,0.152 0.372,0 0.728,-0.047 1.068,-0.139 C 1.399,1.3 1.696,1.146 1.951,0.931 2.205,0.716 2.406,0.424 2.555,0.057 2.702,-0.31 2.777,-0.765 2.777,-1.305 V -2.483 H 3.64 c 0.337,0 0.506,-0.253 0.506,-0.76 0,-0.321 -0.04,-0.53 -0.121,-0.627 C 3.945,-3.967 3.816,-4.016 3.64,-4.016 H 2.777 v -0.24 C 2.777,-5.05 2.575,-5.641 2.17,-6.03 1.766,-6.418 1.136,-6.612 0.279,-6.612 Z"
             style="fill:#344b61;fill-opacity:1;fill-rule:nonzero;stroke:none"
             id="path280"
             inkscape:connector-curvature="0" /></g><g
           id="g282"
           transform="translate(230.5298,53.7471)"><path
             d="m 0,0 c 0.414,-0.017 0.786,-0.059 1.115,-0.127 0.33,-0.066 0.612,-0.187 0.844,-0.359 0.232,-0.173 0.412,-0.407 0.539,-0.701 0.127,-0.295 0.19,-0.673 0.19,-1.137 v -0.921 c 0,-0.202 0.086,-0.36 0.26,-0.474 0.173,-0.113 0.407,-0.17 0.703,-0.17 h 0.28 c 0.169,0 0.296,-0.059 0.381,-0.177 0.084,-0.119 0.125,-0.313 0.125,-0.583 0,-0.516 -0.168,-0.773 -0.506,-0.773 -0.356,0 -0.66,0.047 -0.913,0.14 C 2.764,-5.189 2.557,-4.995 2.396,-4.7 2.244,-4.97 2.032,-5.158 1.763,-5.264 1.491,-5.369 1.162,-5.422 0.773,-5.422 h -3.727 c -0.17,0 -0.297,0.059 -0.381,0.177 -0.084,0.119 -0.127,0.33 -0.127,0.634 0,0.287 0.04,0.479 0.121,0.576 0.08,0.097 0.209,0.146 0.387,0.146 h 2.84 c 0.203,0 0.367,0.013 0.494,0.038 0.127,0.025 0.224,0.069 0.292,0.133 0.067,0.063 0.111,0.15 0.133,0.26 0.021,0.11 0.032,0.249 0.032,0.417 v 0.583 c 0,0.338 -0.092,0.583 -0.274,0.735 -0.181,0.152 -0.47,0.228 -0.868,0.228 h -1.901 c -0.085,0 -0.127,0.042 -0.127,0.126 v 1.03 c 0,0.058 0.031,0.121 0.095,0.188 0.063,0.067 0.116,0.126 0.158,0.176 L 0.634,3.23 C 0.685,3.289 0.739,3.302 0.799,3.268 L 1.851,2.381 c 0.067,-0.05 0.085,-0.11 0.05,-0.177 z"
             style="fill:#344b61;fill-opacity:1;fill-rule:nonzero;stroke:none"
             id="path284"
             inkscape:connector-curvature="0" /></g><g
           id="g286"
           transform="translate(235.0308,52.8598)"><path
             d="m 0,0 c 0.296,0.295 0.632,0.539 1.009,0.729 0.375,0.19 0.834,0.285 1.375,0.285 0.558,0 1.029,-0.081 1.414,-0.242 0.385,-0.16 0.697,-0.381 0.938,-0.664 0.242,-0.283 0.416,-0.617 0.527,-1.001 0.109,-0.384 0.164,-0.8 0.164,-1.248 V -2.343 C 5.453,-2.546 5.543,-2.707 5.7,-2.825 5.856,-2.943 6.082,-3.002 6.378,-3.002 H 6.67 c 0.169,0 0.296,-0.059 0.381,-0.177 0.084,-0.118 0.126,-0.313 0.126,-0.583 0,-0.515 -0.169,-0.773 -0.507,-0.773 -0.355,0 -0.664,0.049 -0.926,0.146 C 5.482,-4.292 5.267,-4.083 5.098,-3.762 4.928,-4.065 4.689,-4.271 4.382,-4.376 4.072,-4.482 3.707,-4.535 3.284,-4.535 H -0.57 c -0.169,0 -0.296,0.057 -0.38,0.171 -0.085,0.115 -0.127,0.306 -0.127,0.577 0,0.27 0.037,0.468 0.114,0.596 0.075,0.126 0.207,0.189 0.393,0.189 h 3.144 c 0.203,0 0.368,0.015 0.494,0.044 0.127,0.03 0.227,0.081 0.299,0.152 0.071,0.072 0.122,0.169 0.153,0.292 0.029,0.122 0.043,0.277 0.043,0.463 0,0.21 -0.021,0.408 -0.063,0.594 -0.043,0.186 -0.114,0.349 -0.216,0.488 -0.101,0.14 -0.234,0.249 -0.399,0.33 -0.165,0.08 -0.369,0.12 -0.614,0.12 -0.272,0 -0.512,-0.053 -0.724,-0.158 C 1.336,-0.783 1.142,-0.916 0.964,-1.076 0.904,-1.136 0.845,-1.14 0.786,-1.089 l -0.748,0.9 C -0.038,-0.113 -0.051,-0.05 0,0"
             style="fill:#344b61;fill-opacity:1;fill-rule:nonzero;stroke:none"
             id="path288"
             inkscape:connector-curvature="0" /></g><g
           id="g290"
           transform="translate(241.7007,48.3252)"><path
             d="m 0,0 c -0.169,0 -0.296,0.03 -0.381,0.089 -0.084,0.059 -0.126,0.177 -0.126,0.355 0,0.101 0.01,0.215 0.031,0.342 0.022,0.126 0.051,0.244 0.089,0.354 0.038,0.11 0.089,0.203 0.153,0.279 0.063,0.076 0.141,0.114 0.234,0.114 h 0.443 c 0.212,0 0.367,0.049 0.463,0.146 0.097,0.096 0.147,0.272 0.147,0.525 v 6.283 c 0,0.084 0.042,0.127 0.126,0.127 h 1.548 c 0.084,0 0.127,-0.043 0.127,-0.127 V 1.596 C 2.854,1.047 2.739,0.644 2.511,0.387 2.282,0.129 1.901,0 1.369,0 Z"
             style="fill:#344b61;fill-opacity:1;fill-rule:nonzero;stroke:none"
             id="path292"
             inkscape:connector-curvature="0" /></g><g
           id="g294"
           transform="translate(247.8501,48.4521)"><path
             d="m 0,0 c 0,-0.085 -0.042,-0.127 -0.126,-0.127 h -1.523 c -0.084,0 -0.126,0.042 -0.126,0.127 v 8.36 c 0,0.084 0.042,0.127 0.126,0.127 h 1.523 C -0.042,8.487 0,8.444 0,8.36 Z"
             style="fill:#344b61;fill-opacity:1;fill-rule:nonzero;stroke:none"
             id="path296"
             inkscape:connector-curvature="0" /></g><g
           id="g298"
           transform="translate(251.9712,52.3408)"><path
             d="m 0,0 c -0.347,0 -0.609,-0.119 -0.786,-0.354 -0.178,-0.237 -0.267,-0.558 -0.267,-0.963 0,-0.465 0.1,-0.775 0.298,-0.931 0.199,-0.157 0.459,-0.235 0.78,-0.235 h 0.977 v 1.229 C 1.002,-0.418 0.667,0 0,0 m -1.572,-6.612 c -0.085,0 -0.127,0.042 -0.127,0.127 v 1.279 c 0,0.084 0.042,0.126 0.127,0.126 h 1.458 c 0.169,0 0.321,0.011 0.456,0.032 0.136,0.021 0.252,0.07 0.349,0.146 0.097,0.076 0.173,0.184 0.228,0.323 0.055,0.139 0.083,0.327 0.083,0.563 H 0.469 c -0.507,0 -0.961,0.03 -1.364,0.089 -0.401,0.059 -0.743,0.184 -1.026,0.374 -0.283,0.19 -0.499,0.456 -0.647,0.798 -0.148,0.342 -0.222,0.8 -0.222,1.374 0,0.541 0.079,0.996 0.235,1.368 0.157,0.371 0.365,0.672 0.622,0.9 0.259,0.228 0.556,0.392 0.89,0.494 0.335,0.101 0.681,0.152 1.036,0.152 0.373,0 0.729,-0.047 1.068,-0.139 C 1.399,1.3 1.696,1.146 1.95,0.931 2.204,0.716 2.406,0.424 2.555,0.057 2.702,-0.31 2.776,-0.765 2.776,-1.305 V -4.256 C 2.776,-5.05 2.574,-5.641 2.17,-6.03 1.766,-6.418 1.135,-6.612 0.278,-6.612 Z"
             style="fill:#344b61;fill-opacity:1;fill-rule:nonzero;stroke:none"
             id="path300"
             inkscape:connector-curvature="0" /></g><g
           id="g302"
           transform="translate(264.2075,54.1904)"><path
             d="m 0,0 c -0.085,0 -0.127,0.042 -0.127,0.126 v 1.242 c 0,0.084 0.042,0.126 0.127,0.126 h 1.28 c 0.084,0 0.127,-0.042 0.127,-0.126 V 0.126 C 1.407,0.042 1.364,0 1.28,0 Z M -1.953,0 C -2.038,0 -2.08,0.042 -2.08,0.126 v 1.242 c 0,0.084 0.042,0.126 0.127,0.126 h 1.267 c 0.085,0 0.127,-0.042 0.127,-0.126 V 0.126 C -0.559,0.042 -0.601,0 -0.686,0 Z m 4.47,-4.187 c 0.096,0.098 0.145,0.272 0.145,0.526 v 3.002 c 0,0.084 0.042,0.127 0.127,0.127 h 1.547 c 0.084,0 0.127,-0.043 0.127,-0.127 v -3.61 C 4.463,-4.818 4.349,-5.222 4.12,-5.479 3.892,-5.736 3.504,-5.865 2.954,-5.865 h -6.581 c -0.533,0 -0.913,0.129 -1.141,0.386 -0.228,0.257 -0.342,0.661 -0.342,1.21 v 2.8 c 0,0.084 0.042,0.126 0.126,0.126 h 1.547 c 0.084,0 0.127,-0.042 0.127,-0.126 v -2.192 c 0,-0.254 0.048,-0.428 0.146,-0.526 0.097,-0.097 0.251,-0.146 0.463,-0.146 h 4.742 c 0.22,0 0.378,0.049 0.476,0.146"
             style="fill:#344b61;fill-opacity:1;fill-rule:nonzero;stroke:none"
             id="path304"
             inkscape:connector-curvature="0" /></g><g
           id="g306"
           transform="translate(273.6274,49.8579)"><path
             d="M 0,0 H 1.154 C 1.365,0 1.52,0.049 1.617,0.146 1.714,0.243 1.763,0.418 1.763,0.671 v 6.284 c 0,0.084 0.043,0.127 0.127,0.127 h 1.547 c 0.084,0 0.126,-0.043 0.126,-0.127 V 0.063 C 3.563,-0.486 3.449,-0.889 3.221,-1.146 2.993,-1.404 2.612,-1.532 2.08,-1.532 h -5.896 c -0.085,0 -0.127,0.042 -0.127,0.126 v 1.28 c 0,0.084 0.042,0.126 0.127,0.126 h 2.015 v 5.168 c 0,0.084 0.043,0.127 0.127,0.127 h 1.548 C -0.042,5.295 0,5.252 0,5.168 Z"
             style="fill:#344b61;fill-opacity:1;fill-rule:nonzero;stroke:none"
             id="path308"
             inkscape:connector-curvature="0" /></g><g
           id="g310"
           transform="translate(278.7124,56.8125)"><path
             d="M 0,0 C 0,0.084 0.041,0.127 0.126,0.127 H 1.649 C 1.733,0.127 1.775,0.084 1.775,0 v -6.283 c 0,-0.254 0.048,-0.428 0.146,-0.526 0.097,-0.097 0.252,-0.146 0.463,-0.146 h 0.342 c 0.169,0 0.295,-0.061 0.38,-0.183 0.084,-0.123 0.127,-0.327 0.127,-0.614 0,-0.305 -0.041,-0.503 -0.12,-0.596 C 3.032,-8.44 2.903,-8.487 2.726,-8.487 H 1.473 c -0.53,0 -0.907,0.129 -1.133,0.386 C 0.113,-7.843 0,-7.44 0,-6.891 Z"
             style="fill:#344b61;fill-opacity:1;fill-rule:nonzero;stroke:none"
             id="path312"
             inkscape:connector-curvature="0" /></g><g
           id="g314"
           transform="translate(286.6187,52.3408)"><path
             d="m 0,0 c -0.424,0 -0.841,-0.059 -1.252,-0.177 -0.412,-0.119 -0.783,-0.25 -1.113,-0.393 v -1.418 c 0,-0.094 -0.002,-0.18 -0.007,-0.26 -0.004,-0.081 -0.011,-0.159 -0.019,-0.235 h 2.519 c 0.313,0 0.57,0.008 0.769,0.026 0.2,0.017 0.354,0.059 0.464,0.126 0.111,0.067 0.185,0.173 0.223,0.317 0.038,0.143 0.058,0.342 0.058,0.595 0,0.229 -0.026,0.431 -0.077,0.609 -0.05,0.177 -0.137,0.326 -0.26,0.449 C 1.181,-0.239 1.014,-0.148 0.802,-0.089 0.59,-0.03 0.322,0 0,0 m -4.141,1.292 c 0,0.084 0.042,0.127 0.126,0.127 h 1.524 c 0.084,0 0.126,-0.043 0.126,-0.127 v -0.38 c 0.389,0.169 0.812,0.315 1.27,0.437 0.457,0.122 0.936,0.184 1.437,0.184 1.033,0 1.816,-0.245 2.349,-0.735 0.535,-0.49 0.802,-1.263 0.802,-2.318 v -0.152 c 0,-0.051 -0.005,-0.097 -0.014,-0.14 0.017,-0.202 0.111,-0.365 0.28,-0.487 0.169,-0.123 0.401,-0.184 0.697,-0.184 h 0.279 c 0.169,0 0.296,-0.059 0.381,-0.177 0.084,-0.118 0.126,-0.313 0.126,-0.583 0,-0.515 -0.169,-0.773 -0.507,-0.773 -0.363,0 -0.678,0.053 -0.945,0.159 C 3.524,-3.752 3.315,-3.539 3.163,-3.218 2.977,-3.539 2.709,-3.752 2.358,-3.857 2.007,-3.963 1.54,-4.016 0.957,-4.016 H -1.49 c -0.127,0 -0.261,0.002 -0.4,0.007 -0.139,0.004 -0.272,0.015 -0.4,0.031 -0.126,0.017 -0.24,0.042 -0.342,0.076 -0.101,0.034 -0.173,0.085 -0.216,0.152 -0.143,-0.118 -0.308,-0.191 -0.494,-0.221 -0.186,-0.03 -0.418,-0.045 -0.697,-0.045 h -1.129 c -0.169,0 -0.296,0.053 -0.38,0.159 -0.085,0.105 -0.127,0.306 -0.127,0.602 0,0.32 0.038,0.529 0.114,0.627 0.077,0.097 0.207,0.145 0.393,0.145 h 0.508 c 0.126,0 0.225,0.028 0.297,0.082 0.072,0.055 0.123,0.13 0.152,0.222 0.03,0.093 0.049,0.207 0.058,0.342 0.007,0.135 0.012,0.283 0.012,0.443 z"
             style="fill:#344b61;fill-opacity:1;fill-rule:nonzero;stroke:none"
             id="path316"
             inkscape:connector-curvature="0" /></g><g
           id="g318"
           transform="translate(293.8901,54.9375)"><path
             d="m 0,0 c -0.085,0 -0.127,0.042 -0.127,0.127 v 1.242 c 0,0.083 0.042,0.126 0.127,0.126 h 1.28 c 0.085,0 0.127,-0.043 0.127,-0.126 V 0.127 C 1.407,0.042 1.365,0 1.28,0 Z M -1.953,0 C -2.037,0 -2.08,0.042 -2.08,0.127 v 1.242 c 0,0.083 0.043,0.126 0.127,0.126 h 1.268 c 0.084,0 0.126,-0.043 0.126,-0.126 V 0.127 C -0.559,0.042 -0.601,0 -0.685,0 Z m -0.583,-6.612 c -0.169,0 -0.296,0.052 -0.381,0.158 -0.084,0.105 -0.126,0.293 -0.126,0.564 0,0.54 0.169,0.81 0.507,0.81 h 0.786 c 0.211,0 0.365,0.049 0.463,0.146 0.097,0.097 0.145,0.272 0.145,0.526 v 3.002 c 0,0.084 0.042,0.127 0.126,0.127 h 1.524 c 0.084,0 0.126,-0.043 0.126,-0.127 v -3.61 c 0,-0.549 -0.113,-0.952 -0.34,-1.21 -0.227,-0.257 -0.605,-0.386 -1.133,-0.386 z"
             style="fill:#344b61;fill-opacity:1;fill-rule:nonzero;stroke:none"
             id="path320"
             inkscape:connector-curvature="0" /></g><g
           id="g322"
           transform="translate(299.7222,49.8579)"><path
             d="M 0,0 H 1.154 C 1.365,0 1.52,0.049 1.617,0.146 1.714,0.243 1.763,0.418 1.763,0.671 v 6.284 c 0,0.084 0.042,0.127 0.127,0.127 h 1.547 c 0.084,0 0.126,-0.043 0.126,-0.127 V 0.063 C 3.563,-0.486 3.449,-0.889 3.221,-1.146 2.992,-1.404 2.612,-1.532 2.079,-1.532 h -5.895 c -0.085,0 -0.127,0.042 -0.127,0.126 v 1.28 c 0,0.084 0.042,0.126 0.127,0.126 h 2.015 v 5.168 c 0,0.084 0.043,0.127 0.127,0.127 h 1.547 C -0.042,5.295 0,5.252 0,5.168 Z"
             style="fill:#344b61;fill-opacity:1;fill-rule:nonzero;stroke:none"
             id="path324"
             inkscape:connector-curvature="0" /></g><g
           id="g326"
           transform="translate(306.5825,48.4521)"><path
             d="m 0,0 c 0,-0.085 -0.042,-0.127 -0.126,-0.127 h -1.523 c -0.085,0 -0.126,0.042 -0.126,0.127 v 8.36 c 0,0.084 0.041,0.127 0.126,0.127 h 1.523 C -0.042,8.487 0,8.444 0,8.36 Z"
             style="fill:#344b61;fill-opacity:1;fill-rule:nonzero;stroke:none"
             id="path328"
             inkscape:connector-curvature="0" /></g><g
           id="g330"
           transform="translate(314.9312,52.3408)"><path
             d="m 0,0 c -0.688,0 -1.033,-0.427 -1.033,-1.279 0,-0.482 0.086,-0.817 0.259,-1.008 0.171,-0.19 0.43,-0.284 0.774,-0.284 0.353,0 0.613,0.094 0.782,0.284 0.168,0.191 0.252,0.526 0.252,1.008 C 1.034,-0.427 0.689,0 0,0 m -0.001,-4.104 c -0.382,0 -0.73,0.046 -1.048,0.139 -0.318,0.093 -0.596,0.249 -0.832,0.469 C -1.94,-3.589 -2.005,-3.661 -2.072,-3.711 -2.14,-3.762 -2.205,-3.819 -2.269,-3.883 -2.333,-3.945 -2.386,-4.022 -2.428,-4.11 -2.47,-4.199 -2.491,-4.319 -2.491,-4.472 v -2.14 h -1.801 v 2.406 c 0,0.288 0.034,0.522 0.102,0.704 0.067,0.181 0.154,0.333 0.259,0.456 0.106,0.122 0.22,0.223 0.343,0.303 0.122,0.08 0.241,0.16 0.355,0.241 0.114,0.08 0.212,0.169 0.292,0.266 0.08,0.097 0.128,0.226 0.145,0.387 -0.008,0.076 -0.013,0.156 -0.013,0.241 v 0.265 c 0,0.558 0.078,1.02 0.23,1.387 0.152,0.368 0.357,0.661 0.616,0.881 0.258,0.22 0.557,0.375 0.896,0.469 C -0.729,1.486 -0.372,1.533 0,1.533 0.373,1.533 0.729,1.486 1.067,1.394 1.406,1.3 1.706,1.145 1.964,0.925 2.222,0.705 2.428,0.412 2.58,0.044 2.732,-0.323 2.81,-0.785 2.81,-1.343 2.81,-1.402 2.807,-1.459 2.803,-1.514 2.799,-1.568 2.796,-1.622 2.796,-1.672 2.813,-1.951 2.894,-2.156 3.037,-2.287 3.181,-2.417 3.362,-2.483 3.583,-2.483 h 0.355 c 0.168,0 0.295,-0.059 0.38,-0.177 0.084,-0.118 0.126,-0.313 0.126,-0.583 0,-0.515 -0.169,-0.773 -0.506,-0.773 -0.153,0 -0.307,0.007 -0.463,0.02 -0.157,0.012 -0.309,0.044 -0.456,0.094 -0.149,0.051 -0.29,0.125 -0.427,0.222 -0.136,0.097 -0.26,0.23 -0.37,0.399 C 1.968,-3.585 1.647,-3.798 1.263,-3.92 0.877,-4.043 0.456,-4.104 -0.001,-4.104"
             style="fill:#344b61;fill-opacity:1;fill-rule:nonzero;stroke:none"
             id="path332"
             inkscape:connector-curvature="0" /></g><g
           id="g334"
           transform="translate(321.4429,45.7285)"><path
             d="m 0,0 c -0.085,0 -0.127,0.042 -0.127,0.127 v 1.241 c 0,0.084 0.042,0.127 0.127,0.127 h 1.28 c 0.084,0 0.127,-0.043 0.127,-0.127 V 0.127 C 1.407,0.042 1.364,0 1.28,0 Z M -1.953,0 C -2.037,0 -2.08,0.042 -2.08,0.127 v 1.241 c 0,0.084 0.043,0.127 0.127,0.127 h 1.267 c 0.085,0 0.127,-0.043 0.127,-0.127 V 0.127 C -0.559,0.042 -0.601,0 -0.686,0 Z m 0.799,7.803 c 0,0.084 0.042,0.127 0.126,0.127 h 1.523 c 0.084,0 0.126,-0.043 0.126,-0.127 V 4.813 C 0.638,4.603 0.729,4.436 0.894,4.313 1.059,4.19 1.289,4.129 1.585,4.129 H 1.876 C 2.046,4.129 2.172,4.07 2.257,3.952 2.341,3.834 2.383,3.64 2.383,3.369 2.383,2.854 2.214,2.597 1.876,2.597 1.556,2.597 1.275,2.635 1.039,2.71 0.803,2.787 0.604,2.959 0.444,3.23 0.311,2.959 0.11,2.787 -0.153,2.71 -0.418,2.635 -0.781,2.597 -1.243,2.597 h -1.306 c -0.169,0 -0.296,0.052 -0.381,0.158 -0.084,0.105 -0.127,0.302 -0.127,0.589 0,0.287 0.04,0.49 0.121,0.608 0.081,0.118 0.209,0.177 0.387,0.177 h 0.786 c 0.27,0 0.44,0.079 0.507,0.235 0.068,0.157 0.102,0.424 0.102,0.804 z"
             style="fill:#344b61;fill-opacity:1;fill-rule:nonzero;stroke:none"
             id="path336"
             inkscape:connector-curvature="0" /></g><g
           id="g338"
           transform="translate(328.3022,54.9375)"><path
             d="m 0,0 c -0.084,0 -0.127,0.042 -0.127,0.127 v 1.242 c 0,0.083 0.043,0.126 0.127,0.126 h 1.572 c 0.084,0 0.127,-0.043 0.127,-0.126 V 0.127 C 1.699,0.042 1.656,0 1.572,0 Z m 0.4,-2.597 c -0.432,0 -0.853,-0.059 -1.265,-0.177 -0.411,-0.119 -0.779,-0.249 -1.101,-0.393 v -1.418 c 0,-0.178 -0.013,-0.342 -0.038,-0.495 h 2.52 c 0.313,0 0.569,0.009 0.768,0.026 0.2,0.017 0.355,0.059 0.465,0.127 0.109,0.067 0.185,0.173 0.223,0.316 0.038,0.144 0.057,0.342 0.057,0.595 0,0.229 -0.026,0.431 -0.076,0.609 C 1.901,-3.23 1.814,-3.081 1.691,-2.958 1.568,-2.835 1.403,-2.745 1.195,-2.686 0.988,-2.626 0.723,-2.597 0.4,-2.597 M -4.387,-5.08 c 0.152,0 0.271,0.034 0.355,0.102 0.084,0.067 0.15,0.16 0.196,0.278 0.047,0.118 0.074,0.256 0.082,0.412 0.009,0.157 0.014,0.323 0.014,0.501 v 5.662 c 0.016,0.084 0.058,0.127 0.125,0.127 h 1.524 c 0.083,0 0.125,-0.043 0.125,-0.127 l 0.013,-3.56 c 0.381,0.169 0.799,0.315 1.256,0.437 0.456,0.123 0.933,0.184 1.432,0.184 1.023,0 1.805,-0.247 2.346,-0.741 0.541,-0.494 0.812,-1.264 0.812,-2.312 0,-0.05 -0.002,-0.099 -0.007,-0.146 C 3.882,-4.309 3.88,-4.354 3.88,-4.396 3.896,-4.606 3.988,-4.773 4.152,-4.896 4.317,-5.019 4.548,-5.08 4.844,-5.08 h 0.292 c 0.169,0 0.296,-0.059 0.38,-0.177 0.085,-0.118 0.127,-0.312 0.127,-0.583 0,-0.514 -0.169,-0.772 -0.507,-0.772 -0.365,0 -0.679,0.052 -0.946,0.158 -0.266,0.105 -0.479,0.319 -0.639,0.64 C 3.355,-6.143 3.081,-6.359 2.727,-6.46 2.371,-6.562 1.894,-6.612 1.293,-6.612 h -3.03 c -0.338,0 -0.579,0.089 -0.723,0.266 -0.093,-0.11 -0.285,-0.182 -0.577,-0.216 -0.292,-0.033 -0.594,-0.05 -0.906,-0.05 h -0.99 c -0.169,0 -0.296,0.052 -0.379,0.158 -0.085,0.105 -0.127,0.307 -0.127,0.602 0,0.321 0.038,0.53 0.114,0.627 0.076,0.097 0.207,0.145 0.392,0.145 z"
             style="fill:#344b61;fill-opacity:1;fill-rule:nonzero;stroke:none"
             id="path340"
             inkscape:connector-curvature="0" /></g><g
           id="g342"
           transform="translate(334.604,54.9375)"><path
             d="m 0,0 c -0.084,0 -0.127,0.042 -0.127,0.127 v 1.242 c 0,0.083 0.043,0.126 0.127,0.126 h 1.572 c 0.084,0 0.127,-0.043 0.127,-0.126 V 0.127 C 1.699,0.042 1.656,0 1.572,0 Z M 1.509,-5.979 C 1.365,-6.241 1.167,-6.412 0.913,-6.492 0.659,-6.572 0.305,-6.612 -0.152,-6.612 h -1.014 c -0.169,0 -0.296,0.027 -0.381,0.082 -0.084,0.055 -0.127,0.176 -0.127,0.362 0,0.108 0.009,0.227 0.026,0.354 0.017,0.127 0.046,0.245 0.088,0.355 0.043,0.109 0.098,0.2 0.165,0.272 0.068,0.072 0.152,0.107 0.253,0.107 h 0.419 c 0.262,0 0.429,0.075 0.501,0.222 0.072,0.148 0.108,0.412 0.108,0.792 v 2.66 c 0,0.068 0.061,0.105 0.184,0.114 0.122,0.008 0.23,0.013 0.323,0.013 H 1.56 c 0.085,0 0.127,-0.043 0.127,-0.127 v -2.99 c 0.016,-0.21 0.108,-0.377 0.272,-0.5 C 2.124,-5.019 2.354,-5.08 2.65,-5.08 h 0.292 c 0.169,0 0.295,-0.059 0.38,-0.177 0.084,-0.118 0.127,-0.312 0.127,-0.583 0,-0.514 -0.169,-0.772 -0.507,-0.772 -0.322,0 -0.6,0.038 -0.837,0.113 -0.237,0.077 -0.435,0.25 -0.596,0.52"
             style="fill:#344b61;fill-opacity:1;fill-rule:nonzero;stroke:none"
             id="path344"
             inkscape:connector-curvature="0" /></g><g
           id="g346"
           transform="translate(340.0308,54.9375)"><path
             d="m 0,0 c -0.085,0 -0.126,0.042 -0.126,0.127 v 1.242 c 0,0.083 0.041,0.126 0.126,0.126 h 1.281 c 0.084,0 0.127,-0.043 0.127,-0.126 V 0.127 C 1.408,0.042 1.365,0 1.281,0 Z m -1.952,0 c -0.085,0 -0.127,0.042 -0.127,0.127 v 1.242 c 0,0.083 0.042,0.126 0.127,0.126 h 1.267 c 0.085,0 0.127,-0.043 0.127,-0.126 V 0.127 C -0.558,0.042 -0.6,0 -0.685,0 Z m -0.584,-6.612 c -0.169,0 -0.296,0.052 -0.38,0.158 -0.084,0.105 -0.127,0.293 -0.127,0.564 0,0.54 0.169,0.81 0.507,0.81 h 0.786 c 0.212,0 0.365,0.049 0.463,0.146 0.098,0.097 0.146,0.272 0.146,0.526 v 3.002 c 0,0.084 0.042,0.127 0.125,0.127 h 1.525 c 0.083,0 0.125,-0.043 0.125,-0.127 v -3.61 c 0,-0.549 -0.113,-0.952 -0.34,-1.21 -0.227,-0.257 -0.604,-0.386 -1.133,-0.386 z"
             style="fill:#344b61;fill-opacity:1;fill-rule:nonzero;stroke:none"
             id="path348"
             inkscape:connector-curvature="0" /></g><g
           id="g350"
           transform="translate(348.2095,55.4443)"><path
             d="m 0,0 c -0.085,0 -0.127,0.042 -0.127,0.127 v 1.241 c 0,0.084 0.042,0.127 0.127,0.127 h 1.281 c 0.083,0 0.126,-0.043 0.126,-0.127 V 0.127 C 1.407,0.042 1.364,0 1.281,0 Z m -0.425,-5.104 c 0.32,0 0.573,0.09 0.763,0.271 0.188,0.182 0.283,0.467 0.283,0.855 v 0.874 h -1.008 c -0.319,0 -0.576,-0.076 -0.768,-0.228 -0.195,-0.152 -0.29,-0.431 -0.29,-0.835 0,-0.347 0.095,-0.589 0.29,-0.729 0.192,-0.14 0.436,-0.208 0.73,-0.208 M -1.953,0 c -0.084,0 -0.126,0.042 -0.126,0.127 v 1.241 c 0,0.084 0.042,0.127 0.126,0.127 h 1.268 c 0.084,0 0.127,-0.043 0.127,-0.127 V 0.127 C -0.558,0.042 -0.601,0 -0.685,0 Z m 2.574,-1.57 v 0.544 c 0,0.084 0.042,0.127 0.127,0.127 h 1.547 c 0.084,0 0.127,-0.043 0.127,-0.127 v -3.889 c 0,-0.253 0.048,-0.429 0.145,-0.525 0.098,-0.098 0.251,-0.146 0.463,-0.146 h 0.394 c 0.338,0 0.507,-0.258 0.507,-0.773 0,-0.296 -0.04,-0.496 -0.12,-0.602 -0.082,-0.105 -0.21,-0.158 -0.387,-0.158 h -1.32 c -0.414,0 -0.737,0.065 -0.969,0.197 -0.233,0.13 -0.387,0.377 -0.463,0.74 C 0.486,-6.334 0.271,-6.447 0.025,-6.523 -0.22,-6.6 -0.478,-6.638 -0.748,-6.638 c -0.33,0 -0.646,0.047 -0.945,0.139 -0.3,0.094 -0.565,0.237 -0.792,0.431 -0.229,0.194 -0.409,0.447 -0.539,0.761 -0.131,0.312 -0.197,0.692 -0.197,1.14 0,0.506 0.074,0.926 0.222,1.26 0.148,0.334 0.343,0.6 0.583,0.798 0.241,0.198 0.517,0.338 0.824,0.418 0.309,0.08 0.624,0.121 0.945,0.121 z"
             style="fill:#344b61;fill-opacity:1;fill-rule:nonzero;stroke:none"
             id="path352"
             inkscape:connector-curvature="0" /></g><g
           id="g354"
           transform="translate(352.7104,55.6723)"><path
             d="m 0,0 c -0.051,0.084 -0.093,0.177 -0.127,0.278 -0.033,0.102 -0.051,0.22 -0.051,0.355 0,0.152 0.028,0.302 0.083,0.45 0.055,0.147 0.14,0.281 0.254,0.399 0.113,0.118 0.262,0.213 0.444,0.285 0.181,0.071 0.399,0.108 0.652,0.108 0.27,0 0.514,-0.051 0.729,-0.152 C 2.2,1.622 2.358,1.499 2.46,1.355 2.494,1.312 2.489,1.271 2.447,1.229 L 2.041,0.798 C 2.007,0.764 1.97,0.772 1.928,0.824 1.835,0.908 1.739,0.975 1.643,1.026 1.545,1.077 1.429,1.102 1.293,1.102 1.124,1.102 0.991,1.055 0.895,0.962 0.797,0.87 0.748,0.743 0.748,0.583 0.748,0.43 0.786,0.308 0.862,0.215 0.938,0.122 1.022,0.05 1.115,0 h 1.332 c 0.051,0 0.076,-0.03 0.076,-0.089 v -0.596 c 0,-0.058 -0.025,-0.087 -0.076,-0.087 h -2.89 c -0.051,0 -0.077,0.029 -0.077,0.087 v 0.596 C -0.52,-0.03 -0.494,0 -0.443,0 Z M 1.737,-6.713 C 1.594,-6.976 1.396,-7.146 1.142,-7.227 0.888,-7.307 0.532,-7.347 0.076,-7.347 h -1.014 c -0.169,0 -0.296,0.027 -0.381,0.082 -0.084,0.055 -0.126,0.176 -0.126,0.362 0,0.109 0.008,0.227 0.025,0.354 0.017,0.127 0.046,0.245 0.089,0.355 0.042,0.11 0.097,0.2 0.164,0.272 0.068,0.072 0.152,0.108 0.254,0.108 h 0.419 c 0.262,0 0.429,0.073 0.501,0.221 0.071,0.148 0.107,0.412 0.107,0.792 v 2.66 c 0,0.068 0.062,0.105 0.184,0.114 0.123,0.008 0.23,0.013 0.323,0.013 h 1.167 c 0.085,0 0.127,-0.043 0.127,-0.127 V -5.13 c 0.017,-0.212 0.107,-0.378 0.273,-0.5 0.165,-0.123 0.395,-0.184 0.69,-0.184 H 3.17 c 0.169,0 0.296,-0.06 0.381,-0.178 0.084,-0.118 0.127,-0.312 0.127,-0.583 0,-0.514 -0.17,-0.772 -0.508,-0.772 -0.321,0 -0.601,0.038 -0.837,0.114 -0.236,0.076 -0.436,0.249 -0.596,0.52"
             style="fill:#344b61;fill-opacity:1;fill-rule:nonzero;stroke:none"
             id="path356"
             inkscape:connector-curvature="0" /></g><g
           id="g358"
           transform="translate(358.4165,45.7285)"><path
             d="m 0,0 c -0.085,0 -0.127,0.042 -0.127,0.127 v 1.241 c 0,0.084 0.042,0.127 0.127,0.127 h 1.28 c 0.085,0 0.127,-0.043 0.127,-0.127 V 0.127 C 1.407,0.042 1.365,0 1.28,0 Z m -1.952,0 c -0.085,0 -0.127,0.042 -0.127,0.127 v 1.241 c 0,0.084 0.042,0.127 0.127,0.127 h 1.267 c 0.084,0 0.126,-0.043 0.126,-0.127 V 0.127 C -0.559,0.042 -0.601,0 -0.685,0 Z m 0.798,7.803 c 0,0.084 0.042,0.127 0.127,0.127 h 1.522 c 0.084,0 0.127,-0.043 0.127,-0.127 V 4.813 C 0.639,4.603 0.729,4.436 0.894,4.313 1.059,4.19 1.289,4.129 1.585,4.129 H 1.877 C 2.046,4.129 2.173,4.07 2.257,3.952 2.342,3.834 2.384,3.64 2.384,3.369 2.384,2.854 2.215,2.597 1.877,2.597 1.556,2.597 1.276,2.635 1.04,2.71 0.804,2.787 0.604,2.959 0.444,3.23 0.311,2.959 0.111,2.787 -0.153,2.71 -0.417,2.635 -0.78,2.597 -1.242,2.597 h -1.307 c -0.169,0 -0.296,0.052 -0.38,0.158 -0.085,0.105 -0.127,0.302 -0.127,0.589 0,0.287 0.04,0.49 0.12,0.608 0.082,0.118 0.209,0.177 0.387,0.177 h 0.786 c 0.271,0 0.44,0.079 0.508,0.235 0.068,0.157 0.101,0.424 0.101,0.804 z"
             style="fill:#344b61;fill-opacity:1;fill-rule:nonzero;stroke:none"
             id="path360"
             inkscape:connector-curvature="0" /></g><g
           id="g362"
           transform="translate(363.3677,51.5937)"><path
             d="m 0,0 c -0.234,0 -0.417,-0.079 -0.547,-0.235 -0.13,-0.156 -0.195,-0.377 -0.195,-0.665 0,-0.295 0.059,-0.513 0.177,-0.652 0.117,-0.139 0.28,-0.218 0.49,-0.235 h 0.138 c 0.217,0.017 0.381,0.096 0.49,0.235 0.109,0.139 0.164,0.357 0.164,0.652 0,0.288 -0.062,0.509 -0.183,0.665 C 0.413,-0.079 0.234,0 0,0 m -3.061,-3.268 c -0.168,0 -0.295,0.057 -0.379,0.17 -0.085,0.115 -0.127,0.307 -0.127,0.577 0,0.278 0.04,0.479 0.12,0.602 0.081,0.122 0.21,0.183 0.386,0.183 h 1.244 c -0.12,0.254 -0.18,0.549 -0.18,0.887 0,0.346 0.058,0.641 0.172,0.887 0.113,0.245 0.262,0.443 0.443,0.595 0.182,0.152 0.391,0.264 0.628,0.336 0.236,0.071 0.482,0.107 0.735,0.107 0.634,0 1.133,-0.154 1.497,-0.462 0.363,-0.308 0.544,-0.796 0.544,-1.463 0,-0.177 -0.023,-0.34 -0.069,-0.487 -0.047,-0.149 -0.099,-0.282 -0.159,-0.4 0.381,0 0.635,0.116 0.762,0.348 0.127,0.233 0.189,0.518 0.189,0.856 0,0.329 -0.053,0.612 -0.158,0.848 C 2.481,0.553 2.333,0.747 2.143,0.899 1.953,1.051 1.725,1.163 1.459,1.235 1.192,1.307 0.898,1.343 0.577,1.343 0.29,1.343 -0.013,1.319 -0.329,1.273 -0.646,1.226 -0.957,1.157 -1.262,1.063 -1.296,1.047 -1.337,1.034 -1.389,1.026 c -0.05,-0.009 -0.085,0.012 -0.1,0.063 l -0.267,0.95 c -0.017,0.051 -0.023,0.095 -0.019,0.133 0.004,0.038 0.036,0.07 0.095,0.095 0.414,0.16 0.823,0.287 1.224,0.38 0.401,0.093 0.877,0.14 1.426,0.14 0.711,0 1.3,-0.096 1.769,-0.286 C 3.208,2.311 3.58,2.06 3.854,1.748 4.13,1.435 4.322,1.085 4.432,0.696 4.541,0.308 4.597,-0.089 4.597,-0.494 4.597,-0.968 4.555,-1.379 4.47,-1.729 4.386,-2.08 4.244,-2.369 4.045,-2.597 3.847,-2.825 3.585,-2.994 3.259,-3.104 2.934,-3.213 2.53,-3.268 2.049,-3.268 Z"
             style="fill:#344b61;fill-opacity:1;fill-rule:nonzero;stroke:none"
             id="path364"
             inkscape:connector-curvature="0" /></g><g
           id="g366"
           transform="translate(32.9527,56.6377)"><path
             d="m 0,0 h -1.17 -15.56 v -5.918 h 9.131 C -7.6,-5.949 -7.604,-5.979 -7.604,-6.01 V -34.042 H -0.76 V -5.918 H 8.96 V 0 Z"
             style="fill:#344b61;fill-opacity:1;fill-rule:nonzero;stroke:none"
             id="path368"
             inkscape:connector-curvature="0" /></g><g
           id="g370"
           transform="translate(68.376,43.7002)"><path
             d="m 0,0 c 0,3.854 -2.783,7.02 -6.251,7.02 h -8.807 v -22.206 h 8.807 c 3.468,0 6.251,3.166 6.251,7.019 z m -15.468,12.938 h 9.217 C 0.958,12.938 6.845,7.157 6.845,0 v -8.167 c 0,-7.157 -5.887,-12.937 -13.096,-12.937 H -21.902 V 6.928 c 0,3.303 2.874,6.01 6.434,6.01"
             style="fill:#344b61;fill-opacity:1;fill-rule:nonzero;stroke:none"
             id="path372"
             inkscape:connector-curvature="0" /></g><g
           id="g374"
           transform="translate(33.104,56.6587)"><path
             d="m 0,0 h -1.17 -15.56 v -5.918 h 9.131 C -7.6,-5.949 -7.604,-5.979 -7.604,-6.01 v -28.032 h 6.845 V -5.918 H 8.96 V 0 Z"
             style="fill:#344b61;fill-opacity:1;fill-rule:nonzero;stroke:none"
             id="path376"
             inkscape:connector-curvature="0" /></g><g
           id="g378"
           transform="translate(68.5278,43.7207)"><path
             d="m 0,0 c 0,3.854 -2.784,7.02 -6.252,7.02 h -8.806 v -22.206 h 8.806 c 3.468,0 6.252,3.166 6.252,7.019 z m -15.469,12.938 h 9.217 C 0.958,12.938 6.844,7.157 6.844,0 v -8.167 c 0,-7.157 -5.886,-12.937 -13.096,-12.937 H -21.903 V 6.928 c 0,3.303 2.875,6.01 6.434,6.01"
             style="fill:#344b61;fill-opacity:1;fill-rule:nonzero;stroke:none"
             id="path380"
             inkscape:connector-curvature="0" /></g><g
           id="g382"
           transform="translate(87.5542,38.1694)"><path
             d="m 0,0 v 12.571 h 8.806 c 3.468,0 6.252,-1.79 6.252,-5.643 V 5.643 C 15.058,1.789 12.274,0 8.806,0 Z m 13.506,-5.23 c 4.929,1.468 8.396,5.368 8.396,10.873 v 1.285 c 0,7.156 -5.886,11.561 -13.096,11.561 h -9.217 c -3.559,0 -6.434,-2.707 -6.434,-6.01 V -15.553 H 0 v 9.635 h 5.704 l 8.441,-9.635 h 8.533 z"
             style="fill:#344b61;fill-opacity:1;fill-rule:nonzero;stroke:none"
             id="path384"
             inkscape:connector-curvature="0" /></g><path
           d="m 154.34,22.596 h 0.843 v 34.042 h -0.843 z"
           style="fill:#344b61;fill-opacity:1;fill-rule:nonzero;stroke:none"
           id="path386"
           inkscape:connector-curvature="0" /></g></g></g></svg>