<?xml version="1.0" encoding="UTF-8" standalone="no"?>
<svg
   width="407.21088"
   height="400"
   fill="none"
   version="1.1"
   id="svg2"
   sodipodi:docname="nkom.svg"
   inkscape:version="1.3 (0e150ed6c4, 2023-07-21)"
   xmlns:inkscape="http://www.inkscape.org/namespaces/inkscape"
   xmlns:sodipodi="http://sodipodi.sourceforge.net/DTD/sodipodi-0.dtd"
   xmlns="http://www.w3.org/2000/svg"
   xmlns:svg="http://www.w3.org/2000/svg">
  <defs
     id="defs2" />
  <sodipodi:namedview
     id="namedview2"
     pagecolor="#ffffff"
     bordercolor="#666666"
     borderopacity="1.0"
     inkscape:showpageshadow="2"
     inkscape:pageopacity="0.0"
     inkscape:pagecheckerboard="0"
     inkscape:deskcolor="#d1d1d1"
     inkscape:zoom="0.99592392"
     inkscape:cx="279.63984"
     inkscape:cy="275.12142"
     inkscape:window-width="1920"
     inkscape:window-height="991"
     inkscape:window-x="-9"
     inkscape:window-y="-9"
     inkscape:window-maximized="1"
     inkscape:current-layer="svg2" />
  <g
     id="g5">
    <path
       d="m 322.94474,85.740293 22.17437,-21.304087 38.61199,37.537464 h 23.47979 L 356.859,53.024888 407.21089,3.81857 H 383.72222 L 322.93586,62.917657 V 3.81857 h -16.42874 v 98.1551 h 16.42874 V 85.740293 Z"
       fill="#ffffff"
       id="path1-4"
       style="fill:#00205b;fill-opacity:1;stroke-width:8.8804"
       sodipodi:nodetypes="cccccccccccccc" />
    <path
       d="m 306.516,293.96799 v 101.97367 h 16.42874 v -62.90878 l 33.92314,32.97294 33.90538,-32.97294 v 62.90878 h 16.42875 V 293.96799 L 356.859,343.18318 306.50712,293.96799 Z"
       fill="#ffffff"
       id="path2"
       style="fill:#00205b;fill-opacity:1;stroke-width:8.8804"
       sodipodi:nodetypes="cccccccccccc" />
    <path
       d="M 20.60254,35.006549 104.86868,105.7656 V 3.80081 H 88.173523 V 70.759053 L 3.90738,0 v 101.96479 h 16.69516 z"
       fill="#ffffff"
       id="path1-8"
       style="fill:#00205b;fill-opacity:1;stroke-width:8.8804"
       sodipodi:nodetypes="ccccccccc" />
    <path
       d="M 54.52568,293.96799 C 24.50991,293.96799 0,317.56322 0,346.98399 0,376.15612 24.26126,400 54.52568,400 c 29.998,0 54.51679,-23.59523 54.51679,-53.01601 -0.26641,-29.17212 -24.51879,-53.016 -54.52568,-53.016 z m 0,90.04729 c -20.86895,0 -37.83052,-16.49091 -37.83052,-36.77375 0,-20.29173 16.96157,-36.78263 37.83052,-36.78263 20.86894,0 37.82163,16.4909 37.82163,36.78263 0,20.03419 -16.96157,36.77375 -37.83052,36.77375 z"
       fill="#ffffff"
       id="path1-1"
       style="fill:#00205b;fill-opacity:1;stroke-width:8.8804"
       sodipodi:nodetypes="cssccccssscc" />
    <g
       id="g4">
      <path
         d="m 282.26369,152.18318 c 8.08116,-13.19628 3.1259,-21.56162 2.08689,-22.83152 -6.00315,-10.1503 -16.69516,-9.12905 -20.35388,-7.85915 -10.69201,3.28575 -11.21595,13.94223 -11.21595,15.97584 -3.90738,4.05835 -8.61399,12.43257 -8.61399,14.96348 1.82936,-1.51855 7.83251,-6.58926 7.83251,-6.58926 0,0 0,3.55216 -1.03901,6.58926 0,0 -2.87725,4.05835 -3.91625,5.58577 -2.0869,3.28575 -8.08117,12.43257 -8.61399,17.75193 6.00315,-8.11669 19.82994,-16.73956 20.35388,-17.24574 2.86837,-2.28227 1.03901,-10.1503 0.78148,-11.66885 0.78147,0.24865 2.08689,1.01236 2.08689,1.01236 1.03901,2.28227 2.08689,7.86804 1.03901,10.90514 2.3533,-1.01237 4.4402,-7.10432 4.17379,-13.1874 -0.51507,-5.07071 -1.03901,-6.08308 -2.86837,-7.61051 -2.0869,-1.01236 -4.95527,-2.28226 -4.95527,-2.28226 -1.03901,-5.32824 3.64985,-8.8804 6.5271,-9.63524 7.29969,-2.03361 12.52137,3.0371 14.34185,6.58926 4.69773,9.64412 -5.47921,21.05544 -7.29969,22.83152 -10.17694,10.39895 -20.61142,16.73956 -25.30915,24.86513 -6.51822,11.40244 -1.30542,18.25811 17.74304,34.23395 4.17379,3.55216 7.56611,8.11669 8.08117,10.14142 2.87725,11.16267 -8.60511,13.19628 -13.30284,12.18392 -9.653,-2.29115 -24.77633,-14.4573 -27.12963,-15.98473 -6.78463,-5.07071 -11.47349,-5.83442 -11.47349,-5.83442 -1.04788,-9.63524 -1.82936,-19.53689 -1.82936,-29.42078 v -2.28226 l 3.13478,1.77608 c 0,0 0,-5.07959 0.25754,-6.84679 0,0 5.73674,-11.92639 8.08116,-17.25463 1.82937,-3.80081 3.13478,-7.85915 3.65873,-10.14142 0.78147,-4.82206 0,-12.17503 0,-12.17503 1.03901,-1.2699 3.64984,-4.56453 3.90738,-5.32824 0.26641,-0.76372 0.26641,-5.07071 0,-5.32824 -1.03901,-0.75484 -3.64097,-1.2699 -3.64097,-1.2699 l 6.77575,-9.89277 c -1.37771,-0.62499 -2.98935,-0.42611 -4.17379,0.51506 -0.52395,-0.76371 -1.56295,-1.2699 -2.61084,-1.52743 -1.30542,0.25753 -2.86837,1.2699 -3.1259,2.78845 -0.26641,1.52743 0.78147,2.79733 2.34442,3.04598 0.26642,0 0.78148,0 1.30542,-0.24865 v 0.24865 l -1.82936,2.03361 -8.86264,-1.52743 -1.04789,-2.53091 0.26641,-0.25754 c 0.46901,0.50418 1.13215,0.78237 1.82049,0.76372 1.30541,0.24865 2.86837,-0.50618 3.13478,-2.03361 0.25753,-1.51855 -0.79036,-2.78845 -2.35331,-3.0371 h -1.30542 c 0,-1.2699 -0.78147,-2.5398 -2.08689,-2.79733 -1.29654,-0.24865 -2.60196,0.51506 -2.86837,1.77608 -0.78148,-0.24865 -1.30542,-0.50618 -1.56295,-0.50618 -1.30542,-0.24865 -2.86837,0.50618 -3.12591,2.03361 -0.26641,1.51855 0.78148,2.78845 2.34443,3.0371 0.52394,0 1.30542,0 1.82936,-0.24865 l 0.25753,0.50618 -2.08689,2.28226 -8.87152,-1.51854 -1.03901,-2.5398 0.25753,-0.25753 c 0.26641,0.25753 0.78148,0.51506 1.03901,0.51506 1.30542,0.24865 2.87725,-0.51506 3.13478,-2.03361 0.26641,-1.51855 -0.78147,-2.78845 -2.34443,-3.04598 -0.9896,-0.20702 -2.02092,-0.0224 -2.87725,0.51506 -0.78147,-1.26989 -2.08689,-2.29114 -3.90737,-2.03361 l 2.86837,11.66885 c 0,0 -7.04216,7.10432 -7.30857,7.61051 -0.25754,0.50618 0.26641,3.29463 1.04788,4.56452 l 2.86837,4.05835 -2.34442,3.55216 12.52137,1.51855 -1.57184,3.80081 c 0,0 -14.60826,3.04598 -17.73416,5.07959 -3.90738,2.53092 -9.653,8.36534 -11.48236,11.16267 l -4.68886,15.71831 -3.39231,6.59814 h 7.82364 l -14.08432,27.6447 -2.61084,-0.75484 c 0.52394,-2.28226 1.82936,-7.86803 1.56295,-9.89277 -0.78123,-1.57074 -1.65298,-3.09481 -2.61084,-4.56452 -1.73941,-1.45953 -3.78988,-2.50148 -5.99427,-3.04598 1.30542,1.51855 2.61084,3.80081 3.1259,5.32824 -1.56295,1.51855 -2.34443,2.78845 -2.60196,4.05835 0.25753,1.26989 1.29654,3.29462 2.60196,5.57689 0.26641,0.50618 0.53282,1.01236 0.78148,1.51855 l -1.56296,1.26989 c -1.039,-0.75483 -2.08689,-1.77608 -3.1259,-2.53091 v -49.97003 l 3.39232,1.77608 -1.57184,2.53092 4.95527,1.02124 11.48236,10.14142 3.64985,-11.66885 -10.69201,-5.83442 -2.08689,-3.29463 -3.64985,0.76371 -1.04789,-1.02124 c 1.82937,-2.02473 4.44021,-5.06183 5.22168,-6.58926 0.25753,-1.2699 0.25753,-3.29463 0,-5.32824 -0.78147,-2.5398 -2.61084,-4.82206 -3.91626,-5.32825 0.26641,2.03362 0.26641,4.56453 0,6.09196 -1.66543,0.32752 -3.20454,1.11862 -4.4402,2.28226 -0.25753,1.01237 -0.51506,3.04598 -0.51506,5.07071 l -1.04789,0.25754 v -16.23338 h 2.61084 v -9.89277 h -2.61084 v -4.05834 h -4.4402 v 4.05834 h -5.2128 c -5.21279,0 -16.42874,-7.36185 -22.95584,-12.93875 -0.70296,13.01036 2.09044,25.97164 8.09005,37.53747 2.61084,-3.55216 9.39546,-10.65649 11.99742,-12.68122 3.13478,-2.53979 4.4402,-2.28226 8.08117,-2.28226 v 12.93875 c -0.67076,-0.45815 -1.36433,-0.88199 -2.07802,-1.2699 -1.30542,-0.25753 -3.39231,-0.25753 -5.4792,-0.25753 -2.61084,0.76371 -4.95527,2.53979 -5.73675,3.55216 2.0869,-0.24865 4.69774,0 6.26069,0.25753 0.52394,2.02473 1.30542,3.29463 2.08689,4.30699 1.03901,0.50619 2.86837,0.50619 4.95527,0.76372 v 2.28226 c -2.61084,0.50619 -5.22168,1.01237 -6.51822,1.51855 -1.04788,0.76372 -2.3533,2.5398 -3.39231,4.05835 -0.84992,2.08888 -1.11992,4.36852 -0.78148,6.59814 1.03901,-1.51855 2.86837,-3.55217 4.17379,-4.56453 1.82049,0.76371 3.38344,1.2699 4.68886,1.2699 0.53282,-0.25754 1.04788,-0.76372 1.82936,-1.52743 v 42.8657 h -0.26641 c -1.29654,0 -3.38344,0 -5.47033,0.50619 -2.35331,1.02124 -4.70662,3.04597 -5.22168,4.05834 1.82936,-0.50618 4.69773,-0.50618 6.26069,-0.50618 0.78147,2.03361 1.56295,3.30351 2.61083,4.05834 0.67092,0.22671 1.381,0.31434 2.0869,0.25753 v 0.76372 -0.25753 4.05834 c -1.1256,1.40818 -2.08788,2.93948 -2.86837,4.56453 -0.52395,2.53979 -0.26641,5.32824 0.26641,6.59814 0.51506,-1.2699 1.55407,-3.04598 2.34443,-4.05835 v 12.93875 h 4.43132 v -13.44493 h 1.03901 c 1.04788,-0.76371 2.3533,-2.79733 3.65872,-4.82206 l 1.56295,-2.53979 3.64985,0.51506 2.61084,6.83791 31.56095,-43.11436 2.35331,2.03361 -13.04532,17.75193 c 0,0 2.86837,3.29463 4.44021,5.57689 1.82048,3.8097 2.60195,8.37422 3.1259,10.65649 -5.22168,2.78844 -17.47664,11.66885 -20.86895,15.98472 -1.30542,5.5769 -2.35331,18.00058 -1.82936,25.36243 0.52394,0.75484 2.61084,4.05835 2.61084,4.05835 l -19.56353,18.00946 -5.22168,-0.50619 c 0,-2.53979 -0.25753,-8.12557 -1.03901,-9.89277 -0.78147,-1.02124 -2.3533,-2.53979 -3.64984,-3.80969 -2.35331,-1.01236 -5.22168,-1.51855 -6.5271,-1.2699 1.56295,1.2699 3.39232,3.04598 4.4402,4.31588 -1.04788,1.77608 -1.57183,3.29463 -1.57183,4.56453 0.53283,1.01236 2.61084,3.29463 3.90738,4.56452 l -1.03901,1.52743 c -2.08689,-1.26989 -5.21279,-3.04597 -6.77575,-3.30351 -1.30542,0 -3.39231,0.50619 -5.22167,1.01237 -2.34443,1.2699 -4.17379,3.30351 -4.69774,4.56453 1.82937,-0.50619 4.44021,-1.01237 6.00316,-1.01237 1.039,1.77608 1.82936,3.04598 2.86837,3.80969 1.56295,0.24866 5.47921,-0.50618 7.04216,-0.76371 l 0.78147,1.51855 c -1.47862,0.98607 -2.87449,2.09089 -4.17379,3.30351 -0.25753,1.26102 0,2.78844 0.79036,4.81318 -1.51558,1.36733 -3.18087,2.55895 -4.96415,3.55216 1.30542,0.50618 4.17379,0.50618 6.5271,0 1.82048,-0.75484 3.64984,-2.02473 4.4402,-3.04598 0.7726,-1.26102 1.55407,-4.56453 2.34443,-7.35297 l 5.47921,0.76371 1.56295,7.35297 5.99427,-7.6105 20.35388,-13.94223 c 0.78148,0.24865 3.12591,0 4.17379,-0.51507 1.03901,-0.75483 4.95527,-4.30699 4.95527,-4.30699 l -0.52395,-6.34061 c 1.03901,-3.30351 4.95527,-8.11669 7.2997,-9.89277 -3.38344,-3.30351 -6.51822,-7.10432 -7.2997,-9.64412 v -0.50618 c 0,-3.80081 2.61084,-12.68122 5.47921,-20.54037 l 0.26641,-0.51507 c 1.55408,-4.56452 1.82049,-8.8804 0.51507,-12.16615 l 3.39231,2.28226 c 0.52395,3.0371 0,6.83791 -1.30542,10.65649 l 0.26642,-0.51507 c -1.3143,4.31588 -5.22168,15.46967 -5.22168,19.53689 1.30542,3.55216 9.12905,11.41132 11.99742,13.1874 5.47921,1.2699 26.61457,0.50618 32.0849,3.0371 5.47921,4.56453 15.13221,15.72719 18.26699,21.56162 l -3.65873,1.26989 c -2.34442,-2.53979 -7.04216,-6.3406 -9.12905,-7.10432 -1.82524,-0.28166 -3.68844,-0.19408 -5.47921,0.25753 -2.34443,1.01237 -4.68885,2.53092 -5.47921,3.80082 2.0869,-0.24865 4.70661,-0.24865 6.00315,0 0.34907,1.63648 1.16673,3.13605 2.35331,4.31587 0.78148,0.24865 2.34443,0.24865 3.64097,0.24865 v 1.52743 c -2.60196,0.24865 -6.25181,0.76372 -7.55723,1.2699 -1.40045,1.07661 -2.63085,2.3579 -3.64984,3.80081 -1.04789,2.28227 -1.30542,5.07071 -1.04789,6.34061 1.04789,-1.51855 3.13478,-3.29463 4.17379,-4.31587 1.82936,1.02124 3.39231,1.52742 4.69773,1.52742 1.30542,-0.76371 4.17379,-3.55216 5.47921,-4.82205 l 1.30542,1.01236 c -1.04789,1.02125 -1.82936,2.29115 -2.35331,2.79733 -0.26641,1.2699 -0.26641,3.29463 -0.26641,5.32824 0.79036,2.53092 2.35331,4.81318 3.4012,5.57689 -0.26642,-2.03361 0,-4.56452 0.26641,-5.83442 2.07801,-0.50618 3.38343,-1.01237 4.42244,-2.03361 0.53282,-1.26102 0.79035,-4.81318 0.79035,-6.83791 l 7.56611,-2.0425 10.43447,2.0425 -17.74304,-31.46327 v -3.0371 c -0.78148,-2.28226 -4.44021,-6.34061 -5.47921,-7.10432 -1.61908,-0.54187 -3.27513,-0.96627 -4.95527,-1.2699 -7.04216,-3.55216 -19.30599,-18.51564 -29.48294,-25.61996 l 3.4012,-1.01237 c 0,0 6.51821,5.32824 7.81475,6.34061 2.87725,2.28226 7.83252,5.07071 9.39547,6.09195 14.08432,8.614 20.86895,9.12906 21.91683,9.12906 10.16807,1.01237 14.60827,-4.82206 15.13221,-5.32824 2.60196,-2.78845 6.26069,-10.14142 0.25753,-18.76429 -1.56295,-2.29115 -8.08116,-11.66885 -8.08116,-11.66885 l 15.38085,-8.37422 -7.29969,0.25753 -7.82363,-1.02125 -3.90738,1.02125 c -0.26641,-0.51507 -0.26641,-1.02125 -0.53282,-1.52743 l 20.61141,-11.15379 c 0,0 -7.30857,0.75484 -8.08116,1.01237 -0.79036,0 -8.614,-1.01237 -8.614,-1.01237 l -5.22167,1.26102 c 0,-0.75484 0,-1.26102 0.26641,-1.77608 l 22.95584,-12.43257 -8.08117,1.02125 -6.00315,-1.01237 -5.22168,0.75484 c 0.52395,-1.50967 7.56611,-10.39007 8.08117,-10.90514 3.4012,-4.30699 7.05104,-9.89277 7.57499,-10.65648 z M 157.05,219.14142 v -2.78845 h 2.07801 l 0.26642,2.03362 c -0.52395,0.24865 -1.57183,0.50618 -2.35331,0.75483 z m 44.08232,-57.57165 c -1.04789,0.24865 -3.90738,1.01236 -5.22168,1.26101 -2.34442,0.76372 -2.86837,1.2699 -3.39231,2.5398 -0.78147,1.51855 -2.34443,4.31587 -4.17379,8.11669 h -3.1259 c 2.34443,-4.31588 3.90738,-7.86804 4.69773,-9.38659 1.03901,-2.02473 2.0869,-3.04598 5.2128,-4.05834 1.56295,-0.50619 5.47921,-1.51855 5.73674,-1.51855 l 2.08689,-0.50619 c -0.50238,1.23474 -1.11151,2.42331 -1.82048,3.55217 z m 33.39032,-31.45439 c 0.78147,0 1.82936,0.75483 1.82936,0.75483 0.25753,0.25753 0,1.77608 0,2.03361 -0.53282,1.2699 -2.08689,3.04598 -2.08689,3.04598 -0.26642,-1.52743 -1.57183,-3.55216 -2.35331,-4.05834 0,-0.25753 1.82936,-1.77608 2.61084,-1.77608 z m -29.74047,8.61399 -0.52395,-3.28575 11.22483,1.50967 0.78148,3.30351 -11.48236,-1.51855 z m 10.17694,-11.9175 c 0.26641,0.51506 0.52394,0.76371 0.52394,1.2699 -0.79035,1.26989 -3.13478,2.78844 -4.96414,3.04597 -1.56295,-0.25753 -2.0869,-2.28226 -2.0869,-3.55216 -1.45272,0.43571 -2.85256,1.03139 -4.17379,1.77608 l -0.51506,-1.77608 4.43132,-4.31587 24.77633,4.31587 -3.90738,2.5398 c -4.40076,-2.10637 -9.20594,-3.23343 -14.08432,-3.30351 z"
         fill="#ffffff"
         id="path2-3"
         style="fill:#00205b;fill-opacity:1;stroke-width:8.8804"
         sodipodi:nodetypes="cccccccccccccccccccccccccscccccccccccccccccccccccccccccccccccccccccccccccccccccccccccccccccccccccccccccccccccccccscccccccccccccccccccsccccccccccccccccccccccccccccccccccccccccccccccccccccccccccsccccccccccccccccccccccccccccccccccccccccccccccccccccccccccccccccccccccccccscccsccccscccccccccccccccc" />
      <path
         d="m 186.52399,135.18638 c 1.30542,1.01236 2.34443,1.77608 5.73674,2.02473 2.61084,0.25753 5.47921,0.51506 7.30857,0.76371 l -2.08689,-3.04597 c -1.57184,-0.24866 -3.13479,-0.24866 -4.70662,-0.50619 -2.60196,-0.24865 -3.37455,-0.75483 -4.42244,-1.51855 l -0.53282,-0.25753 c -0.51507,-0.50618 -1.55407,-0.24865 -2.07802,0.25753 -0.52394,0.50619 -0.26641,1.51855 0.26642,2.02474 z"
         fill="#ffffff"
         id="path1-2"
         style="fill:#00205b;fill-opacity:1;stroke-width:8.8804"
         sodipodi:nodetypes="cccccccscc" />
    </g>
  </g>
</svg>
