<svg width="600" height="600" xmlns="http://www.w3.org/2000/svg"><path d="M505.584 494.494h25.385l-24.325 93.657h36.509L540.465 600h-62.918zm-79.054 0h61.05l-2.517 11.767H448.53l-8.458 33.863h30.516l-3.427 11.964h-30.364l-9.549 36.063h37.407L461.94 600H398.4zm-93.025 105.48 24.553-93.74h-26.465l3.112-11.767h78.134l-3.313 11.768h-26.021l-24.815 93.74zm-51.169-105.48C255.47 528.72 233.586 564.003 215.121 600h26.575l13.195-26.306h32.56c.31 9.034-.242 17.58-.863 26.306h26.53c.643-36.786-2.632-72.258-11.708-105.507zm1.836 29.475c1.265 12.445 2.617 24.799 3.28 37.85h-26.73c7.117-12.283 15.424-24.947 23.45-37.854zm-141.335-29.475h16.621l30.478 62.429 16.523-62.43h23.614l-27.855 105.508h-16.507l-30.486-61.85-16.666 61.85h-23.38zm-73.151 0C42.82 528.72 20.936 564.003 2.471 600h26.575l13.195-26.306H74.8c.31 9.034-.242 17.58-.863 26.306h26.529c.644-36.786-2.631-72.258-11.707-105.507zm1.836 29.475c1.265 12.445 2.616 24.799 3.28 37.85h-26.73c7.117-12.283 15.424-24.947 23.45-37.854z" fill="#2f9c5c"/><path d="M296.704 335.856c0 73.822-59.843 133.665-133.664 133.665-73.821 0-133.665-59.843-133.665-133.665 0-73.821 59.844-133.664 133.665-133.664s133.664 59.843 133.664 133.664z" fill="#295ca7"/><path d="M386.473 206.372C375.126 53.39 226.169 40.749 99.297 137.097c0 0 131.552-137.11 282.773-137.11 61.1 0 117.736 22.354 155.669 66.776s59.786 106.208 59.786 188.196S577.49 401.15 549.786 469.52H264.182c63.637-66.189 126.13-155.984 122.29-263.15z" fill="#fadf3c"/></svg>