<svg xmlns="http://www.w3.org/2000/svg" viewBox="0 0 24 24" width="24" height="24">
  <g fill="none" stroke="currentColor" stroke-width="2" stroke-linecap="round" stroke-linejoin="round">
    <!-- LEFT half = local Wi-Fi link: a Wi-Fi fan rising from a source dot -->
    <path d="M2.3 9.6 A6.4 6.4 0 0 1 9.7 9.6"/>
    <path d="M4 11.8 A3.4 3.4 0 0 1 8 11.8"/>
    <circle cx="6" cy="14.2" r="1.1" fill="currentColor" stroke="none"/>
    <!-- CENTER divider = the "vs" gap between the two domains -->
    <line x1="12" y1="3.5" x2="12" y2="20.5"/>
    <!-- RIGHT half = the internet upstream: a cloud -->
    <path d="M16 16.6 C14.8 16.6 13.9 15.7 13.9 14.5 C13.9 13.4 14.7 12.5 15.8 12.4 C16.1 11.1 17.2 10.1 18.6 10.1 C20.1 10.1 21.3 11.3 21.3 12.8 C21.3 12.9 21.3 12.9 21.3 13 C22 13.2 22.5 13.9 22.5 14.8 C22.5 15.8 21.7 16.6 20.7 16.6 Z"/>
  </g>
</svg>
