<svg xmlns="http://www.w3.org/2000/svg" viewBox="0 0 616 306" font-family="IBM Plex Sans" width="616" height="306"><g/><g><path d="M10.0 24.0 L606.0 24.0" fill="none" stroke="#444444" stroke-width="2" stroke-linecap="round" stroke-linejoin="round"/><path d="M10.0 276.0 L606.0 276.0" fill="none" stroke="#444444" stroke-width="2" stroke-linecap="round" stroke-linejoin="round"/><rect x="196" y="24" width="14" height="252" rx="0" fill="#E5E5E5" stroke="#444444" stroke-width="1.5"/><g transform="translate(82,34)"><g transform="scale(1.5)"><g fill="none" stroke="#111111" stroke-width="2" stroke-linecap="round" stroke-linejoin="round"><path d="M3 4 H21 M12 4 V6"/><path d="M5 6 H19 C19 9.6 16 11 12 11 C8 11 5 9.6 5 6 Z"/><path d="M8.5 15 Q12 17.6 15.5 15 M6 18.5 Q12 22.6 18 18.5"/></g></g></g><rect x="262" y="226" width="210" height="10" rx="2" fill="#444444" stroke="#111111" stroke-width="1.5"/><path d="M276.0 236.0 L276.0 274.0" fill="none" stroke="#111111" stroke-width="3" stroke-linecap="round" stroke-linejoin="round"/><path d="M458.0 236.0 L458.0 274.0" fill="none" stroke="#111111" stroke-width="3" stroke-linecap="round" stroke-linejoin="round"/><circle cx="300" cy="196" r="26" fill="#A1CC3A" stroke="#2F5E00" stroke-width="2"/><g transform="translate(283,179)"><g transform="scale(1.417)"><g fill="none" stroke="#111111" stroke-width="2" stroke-linecap="round" stroke-linejoin="round"><rect x="3" y="12" width="18" height="7.5" rx="2"/><path d="M7.5 12 L6 4.5 M16.5 12 L18 4.5"/><circle cx="7.5" cy="15.75" r="1.1" fill="#111111" stroke="none"/><circle cx="10.5" cy="15.75" r="1.1" fill="#111111" stroke="none"/><circle cx="13.5" cy="15.75" r="1.1" fill="#111111" stroke="none"/></g></g></g><g transform="translate(402,188)"><g transform="scale(1.5)"><g fill="none" stroke="#111111" stroke-width="2" stroke-linecap="round" stroke-linejoin="round"><rect x="4.5" y="4.5" width="15" height="11" rx="1.5"/><path d="M2 19 H22"/></g></g></g><g transform="translate(522,72)"><g transform="scale(1.5)"><g fill="none" stroke="#111111" stroke-width="2" stroke-linecap="round" stroke-linejoin="round"><rect x="6" y="2.5" width="12" height="19" rx="2.5"/><path d="M10.5 18.5 H13.5"/></g></g></g><g transform="translate(542,132)"><g transform="scale(1.5)"><g fill="none" stroke="#111111" stroke-width="2" stroke-linecap="round" stroke-linejoin="round"><rect x="2.5" y="4.5" width="19" height="15" rx="2"/><circle cx="18.8" cy="12" r="0.9" fill="#111111" stroke="none"/></g></g></g></g><g><path d="M122.7 68.4 L272.4 176.1" fill="none" stroke="#2B5C8A" stroke-width="1.75" stroke-linecap="round" stroke-dasharray="3 6"/><g fill="black" fill-opacity="1" fill-rule="nonzero" stroke="none" stroke-width="1" stroke-linecap="butt" stroke-linejoin="miter" stroke-miterlimit="4" stroke-dasharray="none" stroke-dashoffset="0" stroke-opacity="1" font-family="IBM Plex Sans" transform="translate(272.4,176.1) rotate(35.733) translate(-11,-6)"><path d="M1 1.5 L11 6 L1 10.5 Z" fill="#2B5C8A"/></g><path d="M333.9 198.8 L392.1 203.7" fill="none" stroke="#2B5C8A" stroke-width="2.5" stroke-linecap="round" stroke-dasharray="9 6"/><g fill="black" fill-opacity="1" fill-rule="nonzero" stroke="none" stroke-width="1" stroke-linecap="butt" stroke-linejoin="miter" stroke-miterlimit="4" stroke-dasharray="none" stroke-dashoffset="0" stroke-opacity="1" font-family="IBM Plex Sans" transform="translate(392.1,203.7) rotate(4.813) translate(-11,-6)"><path d="M1 1.5 L11 6 L1 10.5 Z" fill="#2B5C8A"/></g><path d="M331.1 182.3 L514.4 101.3" fill="none" stroke="#2B5C8A" stroke-width="2.5" stroke-linecap="round" stroke-dasharray="9 6"/><g fill="black" fill-opacity="1" fill-rule="nonzero" stroke="none" stroke-width="1" stroke-linecap="butt" stroke-linejoin="miter" stroke-miterlimit="4" stroke-dasharray="none" stroke-dashoffset="0" stroke-opacity="1" font-family="IBM Plex Sans" transform="translate(514.4,101.3) rotate(336.159) translate(-11,-6)"><path d="M1 1.5 L11 6 L1 10.5 Z" fill="#2B5C8A"/></g><path d="M333.5 190.1 L532.4 154.9" fill="none" stroke="#2B5C8A" stroke-width="2.5" stroke-linecap="round" stroke-dasharray="9 6"/><g fill="black" fill-opacity="1" fill-rule="nonzero" stroke="none" stroke-width="1" stroke-linecap="butt" stroke-linejoin="miter" stroke-miterlimit="4" stroke-dasharray="none" stroke-dashoffset="0" stroke-opacity="1" font-family="IBM Plex Sans" transform="translate(532.4,154.9) rotate(349.964) translate(-11,-6)"><path d="M1 1.5 L11 6 L1 10.5 Z" fill="#2B5C8A"/></g></g><g><text x="100" y="298" text-anchor="middle" font-size="14" font-weight="600" fill="#444444"><tspan x="100" dy="0">The hallway</tspan></text><text x="408" y="298" text-anchor="middle" font-size="14" font-weight="600" fill="#444444"><tspan x="408" dy="0">Your room</tspan></text><text x="100" y="98" text-anchor="middle" font-size="15" font-weight="700" fill="#111111"><tspan x="100" dy="0">Hotel Wi-Fi</tspan></text><text x="100" y="116" text-anchor="middle" font-size="13" font-weight="400" fill="#444444"><tspan x="100" dy="0">down the hall</tspan></text><text x="318" y="118" text-anchor="middle" font-size="15" font-weight="700" fill="#2F5E00"><tspan x="318" dy="0">Your Wi-Fi,</tspan></text><text x="318" y="137" text-anchor="middle" font-size="15" font-weight="700" fill="#2F5E00"><tspan x="318" dy="0">on the desk</tspan></text></g></svg>
