<svg xmlns="http://www.w3.org/2000/svg" viewBox="0 0 720 250" font-family="IBM Plex Sans" font-size="13" fill="#444444" width="720" height="250">
  <text x="60" y="22" text-anchor="middle" font-weight="700" fill="#111111">Your devices</text>
  <g transform="translate(22 34) scale(2.4)" fill="none" stroke="#111111" stroke-width="2" stroke-linecap="round" stroke-linejoin="round"><rect x="6" y="2.5" width="12" height="19" rx="2.5"/><path d="M10.5 18.5 H13.5"/></g><g transform="translate(64 40) scale(2.4)" fill="none" stroke="#111111" stroke-width="2" stroke-linecap="round" stroke-linejoin="round"><rect x="4.5" y="4.5" width="15" height="11" rx="1.5"/><path d="M2 19 H22"/></g>
  <g transform="translate(128 52) scale(2.0)" fill="none" stroke="#2F5E00" stroke-width="2" stroke-linecap="round" stroke-linejoin="round"><path d="M8.8 15.8 A4.5 4.5 0 0 1 15.2 15.8 M5.6 12.6 A9 9 0 0 1 18.4 12.6 M2.5 9.4 A13.5 13.5 0 0 1 21.5 9.4"/><circle cx="12" cy="19" r="1.5" fill="#2F5E00" stroke="none"/></g>
  <text x="152" y="118" text-anchor="middle" font-weight="700" fill="#2F5E00">Wi-Fi</text>
  <line x1="182" y1="76" x2="206" y2="76" stroke="#2F5E00" stroke-width="3" fill="none"/>
  <text x="252" y="22" text-anchor="middle" font-weight="700" fill="#111111">The box</text>
  <text x="252" y="38" text-anchor="middle" font-size="13">in your home</text>
  <g transform="translate(216 42) scale(3.0)" fill="none" stroke="#111111" stroke-width="2" stroke-linecap="round" stroke-linejoin="round"><rect x="3" y="12" width="18" height="7.5" rx="2"/><path d="M7.5 12 L6 4.5 M16.5 12 L18 4.5"/><circle cx="7.5" cy="15.75" r="1.1" fill="#111111" stroke="none"/><circle cx="10.5" cy="15.75" r="1.1" fill="#111111" stroke="none"/><circle cx="13.5" cy="15.75" r="1.1" fill="#111111" stroke="none"/></g>
  <line x1="292" y1="76" x2="392" y2="76" stroke="#2B5C8A" stroke-width="3" fill="none"/>
  <text x="342" y="64" text-anchor="middle" font-size="13" fill="#2B5C8A">the line</text>
  <text x="342" y="98" text-anchor="middle" font-size="13" fill="#2B5C8A">you pay for</text>
  <g transform="translate(398 26) scale(4.0)" fill="none" stroke="#2B5C8A" stroke-width="2" stroke-linecap="round" stroke-linejoin="round"><path d="M7 19 H17 A4 4 0 0 0 17.6 11.05 A6 6 0 0 0 6.2 10.5 A4.3 4.3 0 0 0 7 19 Z"/></g>
  <text x="446" y="130" text-anchor="middle" font-weight="700" fill="#2B5C8A">The internet</text>
  <line x1="500" y1="76" x2="566" y2="76" stroke="#2B5C8A" stroke-width="3" fill="none"/>
  <g transform="translate(574 40) scale(3.0)" fill="none" stroke="#111111" stroke-width="2" stroke-linecap="round" stroke-linejoin="round"><rect x="2.5" y="4" width="19" height="12.5" rx="2"/><path d="M12 16.5 V20.5 M8.5 20.5 H15.5"/></g>
  <text x="610" y="22" text-anchor="middle" font-weight="700" fill="#111111">What you wanted</text>
  <text x="610" y="128" text-anchor="middle" font-size="13">a video, a call,</text>
  <text x="610" y="144" text-anchor="middle" font-size="13">a website</text>
  <path d="M50 108 L50 196 L150 196" fill="none" stroke="#444444" stroke-width="2" stroke-dasharray="6 5"/>
  <g transform="translate(156 166) scale(2.4)" fill="none" stroke="#444444" stroke-width="2" stroke-linecap="round" stroke-linejoin="round"><path d="M8.5 9 H15.5 M8.5 9 L6.5 21.5 M15.5 9 L17.5 21.5 M12 9 V3"/><path d="M8.5 9 L16.5 15.2 M15.5 9 L7.5 15.2 M7.5 15.2 H16.5 M7.5 15.2 L17.5 21.5 M16.5 15.2 L6.5 21.5"/><path d="M8.3 1.9 A5 5 0 0 0 8.3 7.1 M15.7 1.9 A5 5 0 0 1 15.7 7.1"/></g>
  <path d="M222 196 L446 196 L446 142" fill="none" stroke="#444444" stroke-width="2" stroke-dasharray="6 5"/>
  <text x="236" y="222" font-size="13" fill="#444444">Cellular takes its own road and skips your box</text>
</svg>
