<svg width="163" height="68" viewBox="0 0 163 68" fill="none" xmlns="http://www.w3.org/2000/svg">
<path d="M57.8305 10.9781C57.8305 10.1805 57.1917 9.53564 56.4033 9.51188V9.5017H29.0825C22.4834 9.4983 17.1144 14.8609 17.1144 21.4522V41.7452H17.0567L10.7973 41.7486C10.7871 41.7486 10.7804 41.7452 10.7736 41.7452C10.7634 41.7452 10.7566 41.7452 10.7498 41.7486C10.6104 41.7622 10.5017 41.8742 10.5017 42.0168C10.5017 42.0745 10.5221 42.1254 10.5561 42.1661L10.6104 42.2272L17.0601 49.1069L17.0974 49.1443L17.1178 49.168L17.6955 49.7824L19.0785 51.2622L19.1431 51.3301C19.3878 51.5846 19.7785 51.5846 20.0164 51.3301L20.0776 51.2656V21.4522C20.0776 16.4901 24.1213 12.4511 29.0893 12.4511H56.4067V12.4443C57.1985 12.4206 57.8339 11.7723 57.8339 10.9747L57.8305 10.9781Z" fill="#4AE059"/>
<path d="M20.3051 57.0184C20.3051 57.816 20.9406 58.4609 21.7323 58.4881V58.4982H49.0497C55.6488 58.4982 61.0178 53.1356 61.0178 46.541V26.2479H61.0756L67.3349 26.2445C67.3451 26.2445 67.3519 26.2479 67.3587 26.2479C67.3655 26.2479 67.3757 26.2445 67.3859 26.2445C67.5218 26.2309 67.6339 26.1189 67.6339 25.9764C67.6339 25.9187 67.6101 25.8678 67.5796 25.8236L67.5218 25.7626L61.0722 18.8828L61.0348 18.8421L61.0144 18.8217L60.4367 18.204L59.0537 16.7276L58.9892 16.6597C58.7445 16.4017 58.3537 16.4017 58.1158 16.6597L58.0547 16.7242V46.5342C58.0547 51.4963 54.0109 55.5318 49.0429 55.5318H21.7323V55.542C20.9406 55.5692 20.3051 56.214 20.3051 57.0116V57.0184Z" fill="#4AE059"/>
<path d="M50.0182 29.4247C49.3861 28.006 48.5128 26.7366 47.4254 25.6472C46.338 24.5577 45.0637 23.6888 43.6433 23.0575C42.2195 22.4262 40.6802 22.1038 39.0627 22.1038C37.4452 22.1038 35.8073 22.4228 34.3699 23.0575C32.9325 23.6888 31.6684 24.5611 30.6048 25.6505C30.4213 25.8406 30.2446 26.0375 30.0747 26.2377V24.2827C30.0747 23.6447 29.4222 23.1254 28.6135 23.1254C27.8048 23.1254 27.1523 23.6447 27.1523 24.2827V45.8927H30.0713V33.9965C30.0713 32.7747 30.3126 31.6037 30.7883 30.521C31.2674 29.4315 31.9165 28.471 32.7218 27.6666C33.5238 26.8622 34.4854 26.214 35.5796 25.7354C36.667 25.2602 37.836 25.0159 39.0559 25.0159C40.2758 25.0159 41.4481 25.2568 42.5355 25.7354C43.6263 26.214 44.588 26.8622 45.3933 27.6666C46.1953 28.4676 46.8477 29.4281 47.3269 30.521C47.8026 31.6105 48.0439 32.7781 48.0439 33.9965V45.8927H50.9628V33.9965C50.9628 32.3878 50.64 30.8469 50.008 29.4247H50.0182Z" fill="#1A1A1A"/>
<path d="M99.831 41.6026C101.469 41.6026 102.916 41.1682 104.174 40.2993C105.428 39.427 106.352 38.2629 106.943 36.8068H109.057C108.724 37.7775 108.255 38.6735 107.653 39.4949C107.049 40.3163 106.345 41.0188 105.54 41.606C104.731 42.1932 103.841 42.6616 102.869 43.0078C101.897 43.3506 100.884 43.5237 99.8344 43.5237C98.4751 43.5237 97.2144 43.2759 96.0455 42.777C94.8799 42.278 93.8673 41.5992 93.011 40.7405C92.1513 39.8818 91.4716 38.8738 90.9721 37.7096C90.4692 36.5455 90.2211 35.2829 90.2211 33.9253C90.2211 32.5676 90.4692 31.3424 90.9721 30.1646C91.4682 28.9869 92.1479 27.9687 93.011 27.11C93.8673 26.2547 94.8799 25.5759 96.0455 25.077C97.211 24.578 98.4717 24.3269 99.8344 24.3269C101.197 24.3269 102.42 24.5746 103.603 25.077C104.782 25.5759 105.798 26.2547 106.661 27.11C107.517 27.9687 108.197 28.9869 108.697 30.1646C109.196 31.3424 109.448 32.5982 109.448 33.9253V34.8858H92.1513C92.3042 35.8599 92.6066 36.7559 93.0551 37.5739C93.5037 38.3918 94.0746 39.0978 94.7644 39.685C95.4576 40.2755 96.2324 40.7405 97.0921 41.0867C97.9518 41.4329 98.8659 41.606 99.8412 41.606L99.831 41.6026ZM99.831 26.2445C98.8557 26.2445 97.9416 26.4176 97.0819 26.7604C96.2222 27.1066 95.4474 27.575 94.7542 28.1622C94.0644 28.7527 93.4935 29.4621 93.045 30.2936C92.5964 31.1252 92.294 32.0178 92.1411 32.9613H107.517C107.365 32.0144 107.062 31.1252 106.614 30.2936C106.165 29.4621 105.594 28.7527 104.901 28.1622C104.211 27.575 103.43 27.1066 102.556 26.7604C101.686 26.4176 100.776 26.2445 99.8276 26.2445H99.831Z" fill="#1A1A1A"/>
<path d="M142.888 20.8683C144.217 20.8683 145.474 21.1161 146.653 21.615C147.833 22.1139 148.852 22.7928 149.712 23.6514C150.568 24.5101 151.248 25.5284 151.747 26.7061C152.247 27.8838 152.498 29.1396 152.498 30.4701H150.578C150.578 29.4213 150.371 28.4303 149.963 27.4935C149.555 26.5602 149.002 25.7456 148.312 25.0532C147.619 24.3608 146.806 23.811 145.872 23.4003C144.937 22.993 143.942 22.786 142.895 22.786C141.849 22.786 140.849 22.9896 139.915 23.4003C138.981 23.811 138.165 24.3608 137.472 25.0532C136.779 25.7456 136.228 26.5568 135.817 27.4935C135.406 28.4269 135.205 29.4213 135.205 30.4701V32.9647H140.394V34.8824H135.205V43.5203H133.282V30.4667C133.282 29.1362 133.53 27.8838 134.029 26.7027C134.532 25.525 135.209 24.5068 136.068 23.6481C136.925 22.7894 137.941 22.1139 139.106 21.6116C140.272 21.1127 141.533 20.8649 142.895 20.8649L142.888 20.8683Z" fill="#1A1A1A"/>
<path d="M87.3939 30.1612C86.8808 28.9835 86.1842 27.9653 85.2973 27.1066C84.4138 26.2513 83.3943 25.5725 82.239 25.0736C81.087 24.5746 79.8569 24.3235 78.5486 24.3235C77.2404 24.3235 75.9287 24.5712 74.7631 25.0736C73.5976 25.5725 72.585 26.2513 71.7286 27.1066C70.8689 27.9653 70.1893 28.9835 69.6898 30.1612C69.1903 31.339 68.9422 32.5948 68.9422 33.9219V46.9754H70.8621V39.6816C70.8621 39.6816 70.8757 39.6985 70.8825 39.7053V34.4445C70.8723 34.2715 70.8621 34.0984 70.8621 33.9219C70.8621 32.8731 71.066 31.882 71.4772 30.9453C71.8884 30.0119 72.4388 29.1973 73.1321 28.5083C73.8253 27.816 74.6374 27.2661 75.5719 26.8554C76.5064 26.4448 77.4986 26.2411 78.5486 26.2411C79.5987 26.2411 80.5943 26.4448 81.5288 26.8554C82.4633 27.2661 83.2788 27.816 83.9686 28.5083C84.6584 29.1973 85.2089 30.0119 85.6201 30.9453C86.0279 31.8786 86.2318 32.8731 86.2318 33.9219C86.2318 34.9706 86.0279 35.9651 85.6201 36.8985C85.2089 37.8318 84.6584 38.643 83.9686 39.3354C83.2754 40.0278 82.4633 40.5776 81.5288 40.9849C80.5909 41.3956 79.5987 41.5992 78.5486 41.5992C77.4986 41.5992 76.5064 41.3956 75.5719 40.9849C74.6374 40.5742 73.8219 40.0244 73.1321 39.3354C73.0641 39.2709 73.0063 39.1962 72.9452 39.1283V41.718C73.319 41.9895 73.7131 42.2407 74.1345 42.4681C75.4428 43.1707 76.9142 43.5237 78.5554 43.5237C79.8637 43.5237 81.0938 43.2759 82.2458 42.777C83.4011 42.278 84.4172 41.5992 85.3041 40.7405C86.1876 39.8818 86.8876 38.8738 87.4007 37.7096C87.9138 36.5455 88.1687 35.2829 88.1687 33.9253C88.1687 32.5676 87.9138 31.3424 87.4007 30.1646L87.3939 30.1612Z" fill="#1A1A1A"/>
<path d="M130.2 30.1612C129.687 28.9835 128.99 27.9653 128.103 27.1066C127.22 26.2513 126.2 25.5725 125.048 25.0736C123.893 24.5746 122.663 24.3235 121.358 24.3235C120.053 24.3235 118.738 24.5712 117.569 25.0736C116.404 25.5725 115.391 26.2513 114.531 27.1066C114.219 27.4189 113.94 27.7583 113.675 28.1112V26.0544C113.675 25.525 113.243 25.0939 112.713 25.0939C112.183 25.0939 111.752 25.525 111.752 26.0544V33.4874C111.745 33.63 111.741 33.7759 111.741 33.9185V43.5169H113.665V34.1866C113.665 34.1594 113.671 34.1323 113.671 34.1051V33.5791C113.712 32.6559 113.913 31.7768 114.276 30.9419C114.687 30.0085 115.235 29.1939 115.931 28.5049C116.621 27.8126 117.437 27.2627 118.371 26.852C119.306 26.4414 120.298 26.2377 121.351 26.2377C122.405 26.2377 123.393 26.4414 124.328 26.852C125.262 27.2627 126.078 27.8126 126.768 28.5049C127.458 29.1939 128.011 30.0085 128.419 30.9419C128.83 31.8752 129.034 32.8697 129.034 33.9185H130.954C130.954 32.588 130.699 31.3356 130.186 30.1579L130.2 30.1612Z" fill="#1A1A1A"/>
</svg>
