<?xml version="1.0" encoding="UTF-8"?>
<svg xmlns="http://www.w3.org/2000/svg" viewBox="0 0 316.5 60.95" role="img"><title>OpenSpeedTest</title><style>.cls-1,.cls-2,.cls-3{fill:#000;}</style>
        <path
          class="cls-1"
          d="M47.86,18.28A32.85,32.85,0,0,0,40.79,8.1c-2.92-2.61-5.18-2.59-8,0a19,19,0,0,0-3.08,3.73c-6.57,10.31-11,21.33-11.28,33.74A23.52,23.52,0,0,0,19,52c1.13,4.36,3.72,5.94,8.16,5.06A42.08,42.08,0,0,0,35.65,54c-2.1,3.17-7.81,6.56-11.33,6.9a9.13,9.13,0,0,1-9-4.38,21.73,21.73,0,0,1-3.19-11.08A49.42,49.42,0,0,1,16,23,56.73,56.73,0,0,1,26,6.7a19.81,19.81,0,0,1,4.7-3.85C35.13.29,39.6,1.05,42.9,5c2.9,3.46,4.2,7.59,4.81,12Z"
        />
        <path
          class="cls-2"
          d="M15.56,59.59C11,61.5,6.57,60,3.78,55.75A24,24,0,0,1,.24,44.57C-1.09,30.32,3.11,17.62,11.4,6.16A15.16,15.16,0,0,1,18.14.68,8.68,8.68,0,0,1,27,1.92a3.53,3.53,0,0,1,.85.8,16.23,16.23,0,0,0-3.05,2.45c-2.63-1.48-4.63.17-5.72,1.16A17.54,17.54,0,0,0,15.48,11C9.63,21.85,6,33.24,6.65,45.71a21.82,21.82,0,0,0,1.24,6.5c.83,2.24,2.05,4.21,5.47,4.51A11,11,0,0,0,15.56,59.59Z"
        />
        <path
          class="cls-1"
          d="M131.86,20.24a19.67,19.67,0,0,1,7.31,1.08,7.89,7.89,0,0,1,5.12,7.54c0,.88-.19,1.56-1.26,1.54-.87,0-1.74.2-2.05-1.13-1-4.54-2.52-5.66-7.17-5.78a16,16,0,0,0-6,.71,3.79,3.79,0,0,0-2.87,3.87,3.57,3.57,0,0,0,2.87,3.66c2.94.8,5.93,1.41,8.89,2.14A34.57,34.57,0,0,1,140.08,35a6.75,6.75,0,0,1,4.69,6.37,6.76,6.76,0,0,1-4,7,17.09,17.09,0,0,1-14.93.21c-3.56-1.56-5-4.64-5.07-8.41,0-1.09.37-1.67,1.56-1.67s1.64.26,1.78,1.46c.55,4.5,2,6,6.5,6.69a14.47,14.47,0,0,0,7.95-.68,4.14,4.14,0,0,0,3-4.22c-.05-1.92-.91-3.14-3.18-3.81-2.86-.85-5.8-1.44-8.69-2.19a24.06,24.06,0,0,1-3.73-1.26c-3.11-1.4-4.44-3.74-4.23-7.19A6.62,6.62,0,0,1,126.8,21,17.53,17.53,0,0,1,131.86,20.24Z"
        />
        <path
          class="cls-2"
          d="M285.63,50.15c-4.59,0-7.23-1.61-8.23-4.94a9.13,9.13,0,0,1-.49-2.64,1.53,1.53,0,0,1,1.56-1.75c.94,0,1.68.13,1.68,1.37,0,4.27,5.29,6.35,9.14,4a2.64,2.64,0,0,0,1.46-2.32,2.4,2.4,0,0,0-1.59-2.2c-1.87-.89-3.93-1-5.92-1.36-3.92-.78-5.75-3.06-5.4-6.74a6.38,6.38,0,0,1,5.68-5.41,13.52,13.52,0,0,1,5.69.35,6.28,6.28,0,0,1,4.59,6.69c-.06.92-.47,1.31-1.3,1.34s-1.94-.1-1.94-1.12c.08-4-4.27-5.33-7.71-3.61A2.77,2.77,0,0,0,281,34.66c.1,1.33,1.1,1.81,2.16,2.08,2.26.57,4.58.91,6.81,1.59a5.42,5.42,0,0,1,4,5.55,5.71,5.71,0,0,1-3.77,5.57A11.17,11.17,0,0,1,285.63,50.15Z"
        />
        <path
          class="cls-2"
          d="M42.18,26.89,40.65,29c-2.89-.89-7,.54-9.57,4.24C32.4,27.77,37.38,25.48,42.18,26.89Z"
        />
        <path
          class="cls-2"
          d="M47.67,39.11a9.3,9.3,0,0,0-1.61-6.6l1-2C49,32.38,49.29,35.9,47.67,39.11Z"
        />
        <path
          class="cls-1"
          d="M316,21.28h0V20.21c0-.37,0-.77-.4-.92s-.73.28-.94.61c-.56.85-1.08,1.72-1.74,2.79-.69-1.06-1.23-1.91-1.8-2.75-.22-.34-.43-.8-1-.62a.84.84,0,0,0-.46.89c0,1.56,0,4.86,0,6.2a.58.58,0,0,0,.58.58h0a.59.59,0,0,0,.59-.58v-.58c0-1.25,0-2.89,0-4.31l1.68,2.56a.42.42,0,0,0,.7,0l1.59-2.26v4.58a.58.58,0,0,0,.59.58h0a.58.58,0,0,0,.58-.58Z"
        />
        <path
          class="cls-1"
          d="M308.45,19.23h-4.14a.58.58,0,0,0-.58.58h0a.58.58,0,0,0,.58.59h1.49v6a.58.58,0,0,0,.58.58h0a.58.58,0,0,0,.58-.58v-6h1.49a.58.58,0,0,0,.58-.59h0A.58.58,0,0,0,308.45,19.23Z"
        />
        <path
          class="cls-2"
          d="M303.77,29.49h-2.23V24.34a1.09,1.09,0,0,0-1.09-1.09h-.73a1.08,1.08,0,0,0-1.08,1.09v5.15h-2.23a1.09,1.09,0,0,0-1.09,1.09v.72a1.09,1.09,0,0,0,1.09,1.09h2.23V48.63a1.08,1.08,0,0,0,1.08,1.08h.73a1.08,1.08,0,0,0,1.09-1.08V32.39h2.23a1.08,1.08,0,0,0,1.08-1.09v-.72A1.08,1.08,0,0,0,303.77,29.49Z"
        />
        <path
          class="cls-2"
          d="M255.58,21.67a1.12,1.12,0,0,0-1.11-1.12H233.3a1.12,1.12,0,0,0-1.12,1.12v.77a1.12,1.12,0,0,0,1.12,1.12h9.08V48.63a1.12,1.12,0,0,0,1.12,1.12h.77a1.12,1.12,0,0,0,1.12-1.12V23.56h9.08a1.12,1.12,0,0,0,1.11-1.12Z"
        />
        <path
          class="cls-3"
          d="M228.26,47.43c0,.07,0,.12,0,.18v-.16S228.25,47.44,228.26,47.43Z"
        />
        <path
          class="cls-1"
          d="M228.23,21.7c0,2.54,0,6.1,0,8.51-5.29-4.55-13.81-3.34-16.31,3.95a14.13,14.13,0,0,0,.07,9.68,9.27,9.27,0,0,0,9.07,6.35,10,10,0,0,0,7.18-2.74l0,0a1.24,1.24,0,0,0,0,.18v1a1.14,1.14,0,0,0,1.14,1.14h.92a1.14,1.14,0,0,0,1.14-1.14V21.69a1.14,1.14,0,0,0-1.14-1.14h-.93A1.14,1.14,0,0,0,228.23,21.7ZM220,46.86a5.47,5.47,0,0,1-1.38-.34c-3.64-1.43-5.32-6.51-3.69-11.15,1.32-3.77,4.65-5.44,8.61-4.31,3,.84,4.73,3.77,4.73,7.83C228.22,44.21,224.83,47.48,220,46.86Z"
        />
        <path
          class="cls-2"
          d="M58.5,57h0a1.6,1.6,0,0,0,1.6-1.6v.34a3.75,3.75,0,0,0,0-.59c0-2.5,0-5,0-7.81,5.28,4.55,13.8,3.34,16.31-3.95a14.13,14.13,0,0,0-.07-9.68,9.27,9.27,0,0,0-9.07-6.35,10.06,10.06,0,0,0-7.18,2.74l0,0c0-.06,0-.12,0-.18v-.53a1.61,1.61,0,0,0-1.6-1.61h0a1.6,1.6,0,0,0-1.6,1.61v26A1.6,1.6,0,0,0,58.5,57Zm9.88-26.31a5.93,5.93,0,0,1,1.38.34c3.64,1.44,5.32,6.51,3.69,11.15-1.32,3.77-4.65,5.44-8.61,4.31-3-.84-4.73-3.77-4.73-7.83C60.12,33.3,63.51,30,68.38,30.64Z"
        />
        <path
          class="cls-2"
          d="M274,40.47c1.43.06,1.89-.56,1.92-1.89.11-4.27-1.9-8-5.53-9.49-4.1-1.7-8.11-1.49-11.61,1.52-4,3.42-4.74,10.85-1.69,15.54,2.51,3.86,8.49,5.17,13.42,3A8.27,8.27,0,0,0,275,44.22c.27-.71.45-1.48-.39-1.87a2,2,0,0,0-2.19.15,4.63,4.63,0,0,0-.69,1.24c-1.38,2.49-4.62,3.72-8.18,3.09A5.94,5.94,0,0,1,258.78,42a9.24,9.24,0,0,1-.24-1.61Zm-15.55-3a7.25,7.25,0,0,1,1.14-3.06h0A7.09,7.09,0,0,1,266,31.33a6.3,6.3,0,0,1,5.63,3.16,6,6,0,0,1,.93,3Z"
        />
        <path
          class="cls-1"
          d="M208.64,40.47c1.43.06,1.89-.56,1.93-1.89.1-4.27-1.91-8-5.54-9.49-4.1-1.7-8.11-1.49-11.61,1.52-4,3.42-4.73,10.85-1.69,15.54,2.51,3.86,8.49,5.17,13.42,3a8.27,8.27,0,0,0,4.44-4.92c.27-.71.45-1.48-.38-1.87a2,2,0,0,0-2.2.15,4.63,4.63,0,0,0-.69,1.24c-1.37,2.49-4.62,3.72-8.18,3.09A5.94,5.94,0,0,1,193.38,42a9.24,9.24,0,0,1-.24-1.61Zm-15.55-3a7.25,7.25,0,0,1,1.14-3.06h0a7.09,7.09,0,0,1,6.36-3.07,6.3,6.3,0,0,1,5.63,3.16,6,6,0,0,1,.93,3Z"
        />
        <path
          class="cls-1"
          d="M187.44,40.47c1.43.06,1.89-.56,1.93-1.89.1-4.27-1.91-8-5.54-9.49-4.09-1.7-8.1-1.49-11.6,1.52-4,3.42-4.74,10.85-1.69,15.54,2.51,3.86,8.48,5.17,13.41,3a8.24,8.24,0,0,0,4.44-4.92c.27-.71.45-1.48-.38-1.87a2,2,0,0,0-2.19.15,4.37,4.37,0,0,0-.69,1.24c-1.38,2.49-4.62,3.72-8.19,3.09A5.93,5.93,0,0,1,172.19,42a8.89,8.89,0,0,1-.25-1.61Zm-15.55-3A7.25,7.25,0,0,1,173,34.4h0a7.07,7.07,0,0,1,6.35-3.07A6.3,6.3,0,0,1,185,34.49a6,6,0,0,1,.93,3Z"
        />
        <path
          class="cls-2"
          d="M97,40.47c1.43.06,1.89-.56,1.92-1.89.11-4.27-1.9-8-5.53-9.49-4.1-1.7-8.11-1.49-11.61,1.52C77.76,34,77,41.46,80.05,46.15c2.51,3.86,8.49,5.17,13.42,3a8.27,8.27,0,0,0,4.44-4.92c.27-.71.45-1.48-.39-1.87a2,2,0,0,0-2.19.15,4.63,4.63,0,0,0-.69,1.24c-1.38,2.49-4.62,3.72-8.18,3.09A5.94,5.94,0,0,1,81.7,42a9.24,9.24,0,0,1-.24-1.61Zm-15.55-3a7.25,7.25,0,0,1,1.14-3.06h0a7.09,7.09,0,0,1,6.36-3.07,6.3,6.3,0,0,1,5.63,3.16,6,6,0,0,1,.93,3Z"
        />
        <path
          class="cls-2"
          d="M118,35.64a6.8,6.8,0,0,0-4.62-6.8,9.42,9.42,0,0,0-8.49.57,8.31,8.31,0,0,0-1.22,1v-.24a1.62,1.62,0,0,0-3.23,0V48.12a1.62,1.62,0,0,0,3.23,0v-.41c0-3,0-6,0-9,0-.54,0-1.06,0-1.59.1-3.63,2.68-5.88,6.38-5.76,3.28.1,4.79,1.92,4.8,5.78,0,3.59,0,7.18,0,10.77,0,1.12.2,1.87,1.56,1.83s1.59-.78,1.59-1.88C118.05,43.78,118.11,39.71,118,35.64Z"
        />
        <path
          class="cls-2"
          d="M103.7,38.71v9C103.7,44.71,103.66,41.71,103.7,38.71Z"
        />
        <path
          class="cls-2"
          d="M54.68,37.63c-1.27,10.42-9.8,13.08-17.07,12.28-9.19-1-13.06-8.07-12.42-16.43.69-9.21,7.66-13.56,16.76-12.75a18.14,18.14,0,0,1,1.84.22c.87.17,2.33.55,2.33.55l-1.45,2.05-.56.78-1.23-.22a14.5,14.5,0,0,0-5-.15c-6.17.91-9.43,4.52-9.53,10.83-.07,4.5,1.23,8.51,5.63,10.62,4.59,2.2,9.22,2.12,13.43-.94s5.5-11,2.55-15.88l-1.28-2.14L50,23.83C54.4,27.62,55.32,32.42,54.68,37.63Z"
        />
        <path
          class="cls-2"
          d="M49.83,19.53h0q-5.7,7.89-11.4,15.8l-.23.32-.21.29c-1.12,1.56-1,2.7.32,3.5s2.87.43,3.64-1.27c2.78-6.08,5.51-12.18,8.26-18.26l1.08-2.41ZM40.45,38.06a.86.86,0,0,1-.81.37,1,1,0,0,1-1-1,1,1,0,0,1,1-1,.87.87,0,0,1,.84.45A1.09,1.09,0,0,1,40.45,38.06Z"
        />
        <path
          class="cls-1"
          d="M164.09,42.13c-1.32,3.77-4.66,5.44-8.61,4.31-3-.84-4.74-3.77-4.73-7.83,0-5.32,3.4-8.59,8.26-8a5.47,5.47,0,0,1,1.38.34C164,32.41,165.71,37.49,164.09,42.13Zm2.9-8.47a9.28,9.28,0,0,0-9.07-6.35,10,10,0,0,0-7.18,2.74v-1.6a1.14,1.14,0,0,0-1.14-1.14h-.93a1.14,1.14,0,0,0-1.14,1.14v27a1.14,1.14,0,0,0,1.14,1.14h.93a1.13,1.13,0,0,0,1.14-1.14c0-3.91,0-5.93,0-8.15,5.28,4.55,13.8,3.34,16.3-3.95A14.13,14.13,0,0,0,167,33.66Z"
        />
      </svg>