<?xml version="1.0" encoding="UTF-8"?>
<svg width="131" height="37" viewBox="0 0 130 37" fill="none" xmlns="http://www.w3.org/2000/svg"><path d="M83.6483 12.4539H90.37C91.7119 12.4539 92.3164 13.0581 92.3164 14.3992C92.3164 15.232 91.9689 15.7864 91.2192 16.1497L83.6483 19.8184V12.4539ZM96.0509 20.506C98.9071 19.122 100.231 17.0102 100.231 13.8379C100.231 8.72925 97.9277 6.42727 92.8162 6.42727H75.357V30.5337H83.6483V26.5161L88.0832 24.367L91.9396 30.5337H100.985L95.0247 21.0032L96.0509 20.506ZM119.075 22.6238C119.075 23.9222 118.489 24.5071 117.19 24.5071H110.783V20.7405H117.19C118.489 20.7405 119.075 21.3254 119.075 22.6238ZM110.783 12.4539H116.437C117.736 12.4539 118.321 13.0388 118.321 14.3372C118.321 15.6356 117.736 16.2205 116.437 16.2205H110.783V12.4539ZM124.198 18.1061C125.582 17.0867 126.235 15.3563 126.235 12.8305C126.235 8.41624 124.245 6.42727 119.828 6.42727H102.492V30.5337H121.336C125.753 30.5337 127.743 28.5448 127.743 24.1305C127.743 20.8185 126.623 18.8719 124.198 18.1061ZM58.7744 24.6955C54.5654 24.6955 53.3097 23.2673 53.3097 18.4805C53.3097 13.6937 54.5654 12.2656 58.7744 12.2656C62.9834 12.2656 64.2391 13.6937 64.2391 18.4805C64.2391 23.2673 62.9834 24.6955 58.7744 24.6955ZM58.7744 6.0506C48.6134 6.0506 44.83 9.42306 44.83 18.4805C44.83 27.5379 48.6134 30.9104 58.7744 30.9104C68.9354 30.9104 72.7188 27.5379 72.7188 18.4805C72.7188 9.42306 68.9354 6.0506 58.7744 6.0506Z" fill="#7A2FD0"></path><g clip-path="url(#clip0_1368_184)"><g clip-path="url(#clip1_1368_184)"><path d="M18.1339 0C19.4398 1.94931e-05 20.7132 0.139242 21.9406 0.402344C19.8824 0.373946 17.6661 1.36707 15.3282 3.36914C14.8012 3.82032 14.2814 4.31076 13.7755 4.82324H13.7765C13.1471 5.46142 12.5369 6.13687 11.9572 6.81738C10.6456 8.35756 9.48552 9.93069 8.58508 11.1904C7.94394 12.0711 7.19484 13.1229 6.44348 14.2715C6.55957 14.6182 6.68781 14.9537 6.81848 15.2676C7.02001 15.7524 7.24504 16.2489 7.49036 16.752C8.4703 15.1491 9.52218 13.6582 10.3781 12.4854L10.382 12.4814C11.9308 10.3111 14.0603 7.69057 16.549 5.55957C18.9525 3.5015 21.064 2.74432 22.8234 3.30957C24.3846 3.81062 25.7352 4.91956 26.548 7.30957C26.8233 7.41764 27.1011 7.52891 27.38 7.64355C27.667 7.76187 27.9494 7.88145 28.2247 8.00195L29.13 8.4248C29.0818 8.19857 29.0324 7.97406 28.9777 7.75293C28.2417 4.76125 27.016 2.66226 25.3234 1.4873C31.1925 4.03457 35.4452 9.60458 36.1163 16.2334C35.5067 14.2687 33.8798 12.469 31.255 10.8652V10.8643C30.6629 10.5021 30.0364 10.1596 29.3917 9.83691C28.5899 9.43602 27.7603 9.06465 26.9337 8.72363C25.0634 7.95169 23.2093 7.33484 21.7325 6.86816C20.6962 6.53002 19.4643 6.14325 18.1388 5.7832C17.8454 5.99999 17.5661 6.22611 17.3077 6.44727C16.9092 6.78893 16.5066 7.15681 16.1036 7.5459C17.9317 7.98264 19.6737 8.52229 21.0548 8.97363H21.0558V8.97461L21.0587 8.97559C23.6017 9.77823 26.7523 10.994 29.548 12.7021C32.2478 14.3519 33.6195 16.125 33.6261 17.9727C33.6318 19.612 32.9956 21.2401 30.9738 22.751C30.9562 23.0466 30.9366 23.3458 30.9132 23.6465C30.8891 23.956 30.8621 24.2612 30.8322 24.5605L30.7101 25.5537C30.9108 25.4377 31.1095 25.3196 31.3029 25.1992C33.9142 23.5795 35.5281 21.7695 36.1261 19.8027C35.4973 26.4367 31.2841 32.0244 25.4435 34.6104C27.1234 33.4234 28.3326 31.3206 29.047 28.3291C29.2084 27.6537 29.34 26.9509 29.4474 26.2383L29.5411 25.5713C29.6282 24.9011 29.6951 24.2245 29.7472 23.5557C29.9027 21.5389 29.9178 19.5852 29.9054 18.0371C29.9069 16.9469 29.8927 15.6553 29.8263 14.2832C29.5291 14.0714 29.2285 13.8757 28.9386 13.6982C28.4903 13.4244 28.0166 13.1552 27.5216 12.8916C27.6713 14.7655 27.6957 16.5907 27.6935 18.0439V18.0469C27.7161 20.7132 27.5335 24.0855 26.7726 27.2725C26.0379 30.3497 24.7752 32.2025 23.0197 32.7803C21.4612 33.2921 19.7158 33.1896 17.6534 31.7334C17.3673 31.8079 17.078 31.8821 16.7853 31.9521C16.483 32.0252 16.1845 32.094 15.8917 32.1582L14.9083 32.3486C15.0806 32.5041 15.2534 32.657 15.4279 32.8037C17.7769 34.788 19.9982 35.7628 22.0548 35.7227C20.7922 36.002 19.4805 36.1513 18.1339 36.1514C12.7924 36.1514 7.99281 33.834 4.68372 30.1504C6.33137 31.3731 8.70013 31.8695 11.757 31.625C12.4492 31.5695 13.1578 31.4779 13.8683 31.3604C14.7525 31.2143 15.6429 31.0269 16.5118 30.8174V30.8164C18.4784 30.341 20.3411 29.7508 21.8097 29.2607C22.8467 28.9255 24.0715 28.5132 25.3546 28.0254C25.464 27.6774 25.558 27.3305 25.6368 27C25.7588 26.4889 25.8681 25.9552 25.9659 25.4033C24.23 26.1241 22.5027 26.7122 21.1202 27.1592H21.1193L21.1173 27.1582C18.5883 28.0032 15.3246 28.8723 12.0587 29.1338C8.90468 29.3857 6.75216 28.7577 5.66028 27.2666C4.69191 25.9433 4.25024 24.2514 4.99719 21.8408C4.83812 21.592 4.67824 21.3381 4.52063 21.082C4.35793 20.8179 4.20072 20.5552 4.04895 20.2969L3.5636 19.4199C3.46945 19.6316 3.37824 19.844 3.29211 20.0557C2.13164 22.9007 1.88849 25.3139 2.56067 27.2568C0.970896 24.566 0.0577893 21.4279 0.0577393 18.0762C0.0577393 14.7629 0.948899 11.6574 2.505 8.9873C1.8392 10.9369 2.09676 13.3532 3.27942 16.1982C3.54592 16.8393 3.85153 17.4854 4.18372 18.125C4.5963 18.9202 5.05061 19.7084 5.51868 20.4707C6.57836 22.1942 7.7147 23.7841 8.63489 25.0293C9.27386 25.9114 10.0433 26.9488 10.9034 28.0186C11.2685 28.0149 11.6262 27.9977 11.965 27.9707C12.4885 27.9291 13.0311 27.8672 13.5861 27.7891C12.3643 26.3613 11.2723 24.9009 10.42 23.7236V23.7227C10.42 23.7227 10.4186 23.7214 10.4171 23.7207C8.8316 21.5765 6.99702 18.7415 5.73938 15.7158C4.52499 12.794 4.45857 10.5533 5.53918 9.05469C6.49809 7.72484 7.96945 6.78145 10.4933 6.74707C10.6809 6.51863 10.8729 6.28874 11.0685 6.05957C11.2699 5.82314 11.4708 5.5922 11.67 5.36816L12.3527 4.63574C12.1227 4.61166 11.8941 4.59101 11.6671 4.57422C8.60327 4.34952 6.2338 4.8628 4.59387 6.10156C7.9056 2.35969 12.7441 0 18.1339 0Z" fill="#7A2FD0"></path></g></g><defs><clipPath id="clip0_1368_184"><rect width="36.1517" height="36.1517" fill="white" transform="translate(0.0169678)"></rect></clipPath><clipPath id="clip1_1368_184"><rect width="36.1517" height="36.1517" fill="white" transform="translate(0.0169678)"></rect></clipPath></defs></svg>