<svg xmlns="http://www.w3.org/2000/svg" width="170" height="200" fill="#049bd6"><path d="M36.575002 77.63c.46 0 .83.37.83.83v50.21c0 .46-.37.83-.83.83h-15.03c-.46 0-.83-.37-.83-.83V78.46c0-.46.37-.83.83-.83zm54.3 0c.46 0 .83.37.83.83v12.36c0 .46-.37.83-.83.83h-13.12c-.46 0-.83.37-.83.83v36.19c0 .46-.37.83-.83.83h-15.03c-.46 0-.83-.37-.83-.83V92.48c0-.46-.37-.83-.83-.83h-12.82c-.46 0-.83-.37-.83-.83V78.46c0-.46.37-.83.83-.83zm58.5 0c.46 0 .83.37.83.83v25.59c0 16.95-8.88 25.91-25.68 25.91s-24.46-8.85-24.46-26.29V78.46c0-.46.37-.83.83-.83h15.03c.46 0 .83.37.83.83v25.13c0 5.53 1.45 12.12 8.38 12.12 5.64 0 8.38-3.96 8.38-12.12V78.46c0-.46.37-.83.83-.83z"/><path d="M165.155002 181.22c-9.98-4.92-21.2-10.53-31.55-16.7 1.76-1.37 3.47-2.8 5.11-4.31 16.06-14.49 26.14-35.38 26.14-58.61 0-16.52-5.1-31.86-13.82-44.55-14.33-21.27-38.63-35.28-66.15-35.28a79.24 79.24 0 0 0-42.4 12.24c-6.47-9.03-12.97-18.82-19.84-29.22 2.16 4.39 8.58 17.92 16.09 31.74-17.08 12.17-29.17 30.91-32.58 52.49-.66 4.1-1.01 8.3-1.01 12.58 0 12.31 2.83 23.97 7.88 34.36 12.88 26.73 40.25 45.22 71.85 45.22 16.28 0 31.43-4.91 44.06-13.32 12.13 5.02 24.32 9.21 36.2 13.36m-87.74-6.92a73.674 73.674 0 0 1-46.85-23.47c-1.81-2.6-2.91-5.78-3.29-9.45 7.38 7.15 16.73 13.64 27.38 18.73 11.61 5.55 23.79 9.07 35.4 10.33-4.13 2.89-8.4 4.22-12.64 3.87m-51.89-39.64q-.105 1.095-.15 2.16c-.66-.72-1.31-1.44-1.93-2.16h-2.37a72.89 72.89 0 0 0 4.28 4.8c.08 2.23.38 4.32.91 6.25-9.37-12.26-14.93-27.54-14.93-44.12a72.32 72.32 0 0 1 12.19-40.27c-.89 3.49-1.27 7.22-1.14 11.15h1.78c-.21-5.79.74-11.22 2.92-16.04 2.92-3.68 6.18-7.07 9.75-10.13a85.04 85.04 0 0 1 5.71-2.92c4.34 7.62 8.87 14.88 13.03 20.24-.81.05-7.61.46-14.04-.29l.76.22c-.24-.02-.48-.04-.72-.07 1.48 3.08 3.11 6.08 4.82 8.99h30.3c-1.58-1.29-3.14-2.64-4.68-4.03 7.06-5.71 14.4-10.54 21.69-14.29 2.33 2.64 5.43 5.04 9.08 6.94 4.67 2.43 9.6 3.69 14.03 3.83.53 2.45.99 4.97 1.37 7.55h1.81c-.37-2.58-.83-5.1-1.36-7.56 4.53-.19 8.39-1.64 10.7-4.29 3.82 3.69 7.19 7.67 10.08 11.86h2.16c-3.15-4.72-6.9-9.2-11.18-13.32 1.27-2.22 1.55-4.85.81-7.66-.48-1.79-1.35-3.58-2.55-5.31 3.55.69 6.55 2.08 8.86 4.16 13.08 13.19 21.16 31.29 21.16 51.25 0 9.29-1.75 18.18-4.94 26.35-6.23 12.96-21.31 20-39.84 20.52 7.82-1.98 14.06-4.69 21.45-9.37-2.76-1.27-5.54-2.66-8.31-4.14-.85.04-1.72.07-2.62.07-15.44 0-25.05-6.8-28.18-20.24-4.85-3.72-9.59-7.59-14.16-11.54v11.25c6.48 5.91 12.96 11.33 19.01 16.33-4.65 3.1-19.72 7.68-22.67 8.19 2.54 2.03 5.11 3.95 7.7 5.79-6.17-1.72-12.42-4.05-18.6-7.01-.6-.28-1.19-.58-1.78-.87-.08-.04-.17-.08-.25-.12-1.1-.55-2.19-1.12-3.26-1.7-7.69-4.2-14.35-9.17-19.69-14.58v2.49c1.75 1.7 3.61 3.34 5.57 4.91 5.85 4.67 12.6 8.75 20 12.12 7.34 3.4 14.84 5.98 22.26 7.7 4.14 2.76 8.33 5.3 12.57 7.66-.05.09-.1.17-.15.26-3.28 5.55-6.83 9.94-10.53 13.06-11.71-1.02-24.47-4.44-36.87-10.37-11.14-5.33-20.84-12.19-28.26-19.72-.01-1.28.05-2.61.19-3.99h-1.79zm64.03-87.89c.54 2.02 1.57 4.04 3.02 5.96-7.36 3.82-14.76 8.71-21.87 14.48-8.07-7.49-15.54-16.24-22.93-26.04.04-.02.08-.03.12-.05h.02c3.3-1.24 6.77-2.23 10.4-2.94 10.4-2.03 21.33-1.67 32.04.93-1.27 2.22-1.55 4.85-.81 7.66m1.73-.46c-.66-2.47-.37-4.76.82-6.62.02-.04.05-.07.08-.11 5.7 1.52 11.33 3.69 16.77 6.47-1.13.33-2.28.69-3.45 1.09-3.72 1.27-7.49 2.87-11.28 4.76-1.42-1.82-2.44-3.72-2.93-5.59m18.39-1.9a87.91 87.91 0 0 0-16.19-6.34c2.2-1.99 5.61-3.01 9.56-3.01 2.4 2.47 4.63 5.61 6.63 9.35m-4.01-9.21c3.68.38 7.66 1.56 11.48 3.55 2.73 1.42 5.16 3.17 7.15 5.08-3.68-.12-7.77.34-12.18 1.39-1.93-3.95-4.1-7.3-6.45-10.02m.42 13.63c1.72-.59 3.4-1.09 5.04-1.51.73 1.56 1.41 3.21 2.06 4.94 1.28 3.42 2.36 7.07 3.26 10.88-4.03-.21-8.52-1.42-12.8-3.65-3.25-1.69-6.07-3.85-8.23-6.19 3.59-1.76 7.16-3.27 10.67-4.47m8.77 2.8a68.96 68.96 0 0 0-1.19-2.99c5.3 3.14 10.12 6.76 14.4 10.73-2.04 2.41-5.59 3.69-9.79 3.79-.94-4.05-2.07-7.92-3.43-11.53m-1.02-4.95c4.5-.94 8.64-1.23 12.29-.88 1.65 1.98 2.83 4.08 3.38 6.13.58 2.17.43 4.21-.43 5.93a86.55 86.55 0 0 0-15.23-11.18m4.14-9.51c-4.68-2.44-9.61-3.69-14.04-3.82-1.34-1.33-2.73-2.46-4.17-3.38a73.751 73.751 0 0 1 31.95 15.08c-1.47-.47-3.04-.8-4.72-1-2.32-2.61-5.4-4.99-9.01-6.87m-16.69-3.76c-4.12.32-7.62 1.72-9.79 4.15-11.18-2.82-22.63-3.25-33.51-1.13-3.84.75-7.52 1.8-11 3.12-.11.04-.21.09-.32.13l-.25-.34c11.23-6.87 24.46-10.84 38.62-10.84 2.19 0 4.36.1 6.51.28 3.4.4 6.69 1.99 9.75 4.62m-8.57 137.27c2.28.18 4.54.28 6.76.28q2.475 0 4.89-.15a65.3 65.3 0 0 0 6.32-.7c-7.69 2.84-15.98 4.43-24.64 4.55q3.39-1.38 6.66-3.99m2.04-1.76c3.38-3.14 6.61-7.27 9.6-12.33l.18-.3c5.75 3.14 11.57 5.97 17.42 8.57-.4.23-.82.45-1.22.68-7.27 2.81-16.2 3.96-25.97 3.39m18.56-18.66c2.49-.05 4.93-.21 7.33-.5 12.29-1.46 22.17-5.85 28.78-12.65a73.63 73.63 0 0 1-21.48 23.89c-5.36-3.43-10.34-7.02-14.63-10.74"/></svg>