<?xml version="1.0" encoding="utf-8"?>
<!-- Generator: Adobe Illustrator 22.1.0, SVG Export Plug-In . SVG Version: 6.00 Build 0)  -->
<svg version="1.1" id="Layer_1" xmlns="http://www.w3.org/2000/svg" xmlns:xlink="http://www.w3.org/1999/xlink" x="0px" y="0px"
	 viewBox="0 0 206 46" style="enable-background:new 0 0 206 46;" xml:space="preserve">
<style type="text/css">
	.st0{fill:#211E1F;}
	.st1{fill:#009FE3;}
	.st2{fill:#231F20;}
</style>
<g>
	<polygon class="st0" points="3,30.9 3,9.8 8.3,9.8 8.3,26.4 16.5,26.4 16.5,30.9 	"/>
	<path class="st0" d="M38.1,30.9V9.8h10.6c5.1,0,7.6,2.3,7.6,6.9c0,1.4-0.4,2.6-1.2,3.6s-1.8,1.7-3.2,2.1l4.8,8.5h-5.9l-4.1-7.6
		h-3.4v7.6L38.1,30.9 M43.3,13.7v5.7h4.8c1.9,0,2.8-0.9,2.8-2.8s-0.9-2.8-2.8-2.8h-4.8V13.7z"/>
	<path class="st0" d="M72.6,19.2v8.3c0,1.5,0.1,2.6,0.4,3.3h-4.3c-0.2-0.5-0.3-1-0.3-1.6h-0.1c-0.4,0.6-1.1,1.1-2,1.5
		s-1.8,0.6-2.7,0.6c-1.6,0-2.8-0.4-3.8-1.2c-1-0.9-1.5-2-1.5-3.5c0-1.8,0.7-3.2,2.2-4.1c1.2-0.8,3.2-1.4,5.9-1.8l1.7-0.2v-1.3
		c0-1.1-0.7-1.7-2.2-1.7c-0.8,0-1.3,0.2-1.7,0.5c-0.4,0.3-0.6,0.9-0.7,1.6h-4.4c0.1-3.3,2.3-5,6.5-5c2.3,0,4,0.3,5.1,0.9
		C72,16.4,72.6,17.6,72.6,19.2 M68.2,24.3v-1.1l-3.1,0.9c-1.5,0.4-2.2,1.1-2.2,2c0,1.2,0.7,1.8,2.2,1.8c0.9,0,1.7-0.3,2.3-0.9
		C67.9,26.3,68.2,25.4,68.2,24.3"/>
	<path class="st0" d="M26.6,14.7c2.5,0,4.5,0.7,6.1,2.2c1.5,1.5,2.3,3.5,2.3,6.1s-0.8,4.6-2.3,6.1s-3.6,2.2-6.1,2.2
		s-4.5-0.7-6.1-2.2c-1.5-1.5-2.3-3.5-2.3-6.1s0.8-4.6,2.3-6.1S24.1,14.7,26.6,14.7 M26.6,18.2c-1.3,0-2.2,0.5-2.9,1.4
		c-0.6,0.8-0.9,2-0.9,3.4s0.3,2.6,0.9,3.4c0.7,0.9,1.6,1.4,2.9,1.4c2.5,0,3.8-1.6,3.8-5c0-1.4-0.3-2.4-0.9-3.3
		C28.8,18.7,27.8,18.2,26.6,18.2"/>
	<path class="st1" d="M26.4,11.5c2.3,0,4.5,0.7,6.3,1.8l0.9-1.3c-2.1-1.3-4.5-2.1-7.2-2.1c-2.5,0-4.9,0.7-6.9,2l0.9,1.3
		C22.2,12.1,24.2,11.5,26.4,11.5"/>
	<path class="st1" d="M16.7,7.9l1.2,1.7c2.5-1.6,5.4-2.5,8.5-2.5c3.2,0,6.3,1,8.8,2.6L36.4,8c-2.9-1.9-6.3-3-10-3
		C22.9,5,19.5,6.1,16.7,7.9"/>
	<path class="st1" d="M26.4,2.6c4.2,0,8.1,1.3,11.4,3.5l1.5-2.2C35.6,1.5,31.2,0,26.4,0c-4.6,0-9,1.4-12.6,3.7l1.5,2.2
		C18.5,3.8,22.3,2.6,26.4,2.6"/>
	<path class="st1" d="M26.7,34.5c-2.3,0-4.5-0.7-6.3-1.8L19.5,34c2.1,1.3,4.5,2.1,7.2,2.1c2.5,0,4.9-0.7,6.9-2l-0.9-1.3
		C31,33.9,28.9,34.5,26.7,34.5"/>
	<path class="st1" d="M36.4,38.1l-1.2-1.7c-2.5,1.6-5.4,2.5-8.5,2.5c-3.2,0-6.3-1-8.8-2.6L16.7,38c2.9,1.9,6.3,3,10,3
		C30.3,41,33.6,39.9,36.4,38.1"/>
	<path class="st1" d="M26.7,43.4c-4.2,0-8.1-1.3-11.4-3.5l-1.5,2.2C17.5,44.5,22,46,26.7,46c4.6,0,9-1.4,12.6-3.7l-1.5-2.2
		C34.6,42.2,30.8,43.4,26.7,43.4"/>
	<path class="st0" d="M103.6,31H99l-1.8-5H89l-1.7,5H83l8-21.8h4.4L103.6,31z M95.9,22.3l-2.8-8.1l-2.8,8.1H95.9z"/>
	<path class="st0" d="M104.7,31V9.1h4.4V31H104.7z"/>
	<path class="st0" d="M113.3,31V9.1h4.4V31H113.3z"/>
	<path class="st0" d="M121.9,13V9.1h4.4V13H121.9z M121.9,31V15.1h4.4V31H121.9z"/>
	<path class="st0" d="M133.8,20l-3.9-0.7c0.4-1.5,1.2-2.7,2.3-3.4c1.1-0.7,2.7-1.1,4.8-1.1c1.9,0,3.4,0.2,4.3,0.7
		c0.9,0.4,1.6,1,2,1.7c0.4,0.7,0.6,1.9,0.6,3.7v4.9c0,1.4,0.1,2.4,0.2,3.1c0.1,0.7,0.4,1.4,0.8,2.1h-4.3c-0.1-0.3-0.3-0.7-0.4-1.2
		c-0.1-0.2-0.1-0.4-0.2-0.5c-0.7,0.7-1.5,1.2-2.4,1.6s-1.8,0.5-2.7,0.5c-1.7,0-3-0.4-4-1.3s-1.5-2-1.5-3.4c0-0.9,0.2-1.7,0.7-2.4
		c0.4-0.7,1.1-1.2,1.9-1.6c0.8-0.4,2-0.7,3.5-1c2-0.4,3.4-0.7,4.2-1v-0.4c0-0.8-0.2-1.4-0.6-1.7c-0.4-0.3-1.2-0.5-2.3-0.5
		c-0.8,0-1.4,0.1-1.8,0.4C134.4,18.7,134,19.2,133.8,20z M139.6,23.4c-0.6,0.2-1.4,0.4-2.6,0.6c-1.2,0.2-2,0.5-2.4,0.7
		c-0.6,0.4-0.9,0.9-0.9,1.5s0.2,1.1,0.7,1.5s1,0.6,1.7,0.6c0.8,0,1.5-0.2,2.2-0.7c0.5-0.4,0.9-0.8,1-1.4c0.1-0.4,0.2-1,0.2-2
		L139.6,23.4L139.6,23.4z"/>
	<path class="st0" d="M162.1,31h-4.4v-8.1c0-1.7-0.1-2.8-0.3-3.3s-0.5-0.9-0.9-1.2c-0.4-0.3-0.9-0.4-1.5-0.4c-0.8,0-1.4,0.2-2,0.6
		s-1,0.9-1.2,1.6s-0.3,1.9-0.3,3.6V31h-4.4V15.1h4v2.3c1.4-1.8,3.2-2.7,5.4-2.7c1,0,1.8,0.2,2.6,0.5s1.4,0.8,1.8,1.3
		c0.4,0.5,0.7,1.1,0.9,1.8c0.2,0.7,0.2,1.6,0.2,2.8L162.1,31L162.1,31z"/>
	<path class="st0" d="M179.2,19.8l-4.3,0.7c-0.1-0.8-0.5-1.4-1-1.9c-0.5-0.4-1.2-0.6-2-0.6c-1.1,0-1.9,0.4-2.6,1.1
		c-0.6,0.7-1,1.9-1,3.6c0,1.9,0.3,3.2,1,4s1.5,1.2,2.6,1.2c0.8,0,1.5-0.2,2-0.7s0.9-1.2,1.1-2.3l4.3,0.7c-0.4,1.9-1.3,3.3-2.6,4.3
		s-2.9,1.4-5.1,1.4c-2.4,0-4.3-0.7-5.8-2.2c-1.4-1.5-2.1-3.5-2.1-6.1s0.7-4.6,2.2-6.1c1.4-1.5,3.4-2.2,5.8-2.2c2,0,3.6,0.4,4.8,1.2
		C177.9,16.9,178.7,18.1,179.2,19.8z"/>
	<path class="st0" d="M190.4,25.9l4.3,0.7c-0.6,1.5-1.4,2.7-2.6,3.5c-1.2,0.8-2.7,1.2-4.5,1.2c-2.9,0-5-0.9-6.3-2.7
		c-1.1-1.4-1.6-3.3-1.6-5.4c0-2.6,0.7-4.7,2.1-6.2c1.4-1.5,3.2-2.2,5.4-2.2c2.4,0,4.4,0.8,5.8,2.3c1.4,1.6,2.1,3.9,2,7.1h-10.9
		c0,1.2,0.4,2.2,1.1,2.9c0.7,0.7,1.5,1,2.5,1c0.7,0,1.3-0.2,1.7-0.5C189.8,27.3,190.2,26.7,190.4,25.9z M190.7,21.7
		c0-1.2-0.4-2.1-1-2.8c-0.6-0.6-1.4-0.9-2.3-0.9c-0.9,0-1.7,0.3-2.4,1c-0.6,0.7-0.9,1.6-0.9,2.7C184.1,21.7,190.7,21.7,190.7,21.7z"
		/>
</g>
<g>
	<path class="st2" d="M197.3,10.7c0.4,0,0.8,0.1,1.1,0.3c0.4,0.2,0.7,0.5,0.9,0.9c0.2,0.4,0.3,0.8,0.3,1.2c0,0.4-0.1,0.8-0.3,1.2
		c-0.2,0.4-0.5,0.7-0.9,0.9c-0.4,0.2-0.8,0.3-1.2,0.3c-0.4,0-0.8-0.1-1.2-0.3c-0.4-0.2-0.7-0.5-0.9-0.9c-0.2-0.4-0.3-0.8-0.3-1.2
		c0-0.4,0.1-0.8,0.3-1.2c0.2-0.4,0.5-0.7,0.9-0.9C196.5,10.8,196.9,10.7,197.3,10.7z M197.3,11.1c-0.3,0-0.6,0.1-0.9,0.2
		c-0.3,0.2-0.5,0.4-0.7,0.7c-0.2,0.3-0.3,0.6-0.3,0.9c0,0.3,0.1,0.6,0.2,0.9c0.2,0.3,0.4,0.5,0.7,0.7c0.3,0.2,0.6,0.2,0.9,0.2
		c0.3,0,0.6-0.1,0.9-0.2c0.3-0.2,0.5-0.4,0.7-0.7c0.2-0.3,0.2-0.6,0.2-0.9c0-0.3-0.1-0.6-0.3-0.9c-0.2-0.3-0.4-0.5-0.7-0.7
		C197.9,11.2,197.6,11.1,197.3,11.1z M196.3,14.2v-2.5h0.5c0.5,0,0.7,0,0.8,0c0.2,0,0.3,0,0.4,0.1c0.1,0.1,0.2,0.1,0.2,0.2
		c0.1,0.1,0.1,0.2,0.1,0.4c0,0.2-0.1,0.3-0.2,0.5c-0.1,0.1-0.3,0.2-0.5,0.2c0.1,0,0.1,0.1,0.2,0.1c0,0,0.1,0.1,0.2,0.2
		c0,0,0.1,0.1,0.2,0.3l0.3,0.5h-0.6l-0.2-0.4c-0.1-0.3-0.3-0.4-0.3-0.5c-0.1-0.1-0.2-0.1-0.3-0.1h-0.1v1H196.3z M196.8,12.8h0.2
		c0.3,0,0.5,0,0.5,0c0.1,0,0.1-0.1,0.2-0.1c0-0.1,0.1-0.1,0.1-0.2c0-0.1,0-0.1-0.1-0.2c0-0.1-0.1-0.1-0.2-0.1c-0.1,0-0.3,0-0.5,0
		h-0.2V12.8z"/>
</g>
</svg>
