<?xml version="1.0" encoding="UTF-8" standalone="no"?>
<!-- Generator: Adobe Illustrator 26.0.3, SVG Export Plug-In . SVG Version: 6.00 Build 0)  -->

<svg
   version="1.1"
   id="Calque_1"
   x="0px"
   y="0px"
   viewBox="0 0 156.60001 91.025482"
   xml:space="preserve"
   sodipodi:docname="Logo_3GPP.svg"
   width="156.60001"
   height="91.025482"
   inkscape:version="1.1.2 (0a00cf5339, 2022-02-04)"
   xmlns:inkscape="http://www.inkscape.org/namespaces/inkscape"
   xmlns:sodipodi="http://sodipodi.sourceforge.net/DTD/sodipodi-0.dtd"
   xmlns="http://www.w3.org/2000/svg"
   xmlns:svg="http://www.w3.org/2000/svg"><defs
   id="defs61" /><sodipodi:namedview
   id="namedview59"
   pagecolor="#ffffff"
   bordercolor="#666666"
   borderopacity="1.0"
   inkscape:pageshadow="2"
   inkscape:pageopacity="0.0"
   inkscape:pagecheckerboard="0"
   showgrid="false"
   fit-margin-top="0"
   fit-margin-left="0"
   fit-margin-right="0"
   fit-margin-bottom="0"
   inkscape:zoom="4.6993464"
   inkscape:cx="3.5111266"
   inkscape:cy="49.049374"
   inkscape:window-width="1850"
   inkscape:window-height="1136"
   inkscape:window-x="70"
   inkscape:window-y="27"
   inkscape:window-maximized="1"
   inkscape:current-layer="Calque_1" />
<style
   type="text/css"
   id="style2">
	.st0{fill:#1D1D1B;}
	.st1{fill:#E30613;}
	.st2{font-family:'Myriad-Roman';}
	.st3{font-size:9px;}
</style>
<path
   class="st0"
   d="m 48.6,5.5254834 c 1.7,1.8 2.8,4.6999996 2.6,6.9999996 -0.2,3.3 -2.4,6.1 -4.7,7.9 -3,2.3 -6.2,3.8 -10.5,5.5 -1.2,0.4 -1.5,1.3 -0.2,1.8 6,2.4 12.5,6.4 12.1,13.6 -0.2,3.1 -2.3,7 -6.1,10.1 -6.1,5 -17.9,8.9 -25.7,9.8 -1.6,0.2 -3.4,0.2 -5.4,0 -4.2,-0.3 -10.8,-4.6 -10.5,-9.1 0.2,-3.1 4.6,-5.1 7.4,-4.9 3.3,0.2 6.4,1.2 8.8,3.5 0.8,0.8 1.2,1 2.1,1 1.9,0.1 9.5,-1.6 13,-3.8 2.7,-1.9 4.2,-3.6 4.3,-5.5 0.2,-2.6 -1.9,-5.1 -5,-6.7 -3.2,-1.7 -6.8,-2.6 -9.9,-2.9 -3.2,-0.3 -5.5,-2.5 -5.4,-4.6 0.1,-1.2 2.5,-5 5.6,-4.8 2,0.1 8,-2.1 12.4,-4.9 3.6,-2.2 5.1,-4.2 5.3,-5.8 0.2,-2.4 -3.2,-4.7999996 -7.3,-5.0999996 -1.7,-0.1 -3,0.9 -4.2,2.8999996 -0.9,1.9 -3.6,3.5 -5.5,3.4 -2.2,-0.1 -5,-2.4 -4.9,-4.6999996 0.3,-4.5 4.3,-7.7 8.8,-8.3 0.9,-0.1 2.3,-0.2 3.2,-0.4 1.8,-0.4 4.3,-0.6 6.5,-0.5 5.9,0.3 11,3.3 13.2,5.5 z"
   id="path4" />
<path
   class="st0"
   d="m 82.8,53.925483 c -1.5,3.6 -4.5,0.5 -4.5,0.5 l -1.2,-4.7 c 0,0 -1.2,-0.2 -1.9,0 -0.9,0.3 -1.8,1.6 -1.8,1.6 0,0 -1.6,3.2 -3,4.9 -2.3,2.6 -4.1,3.9 -7.3,5.1 -11.9,4.6 -25.5,-11.7 -25.5,-20.7 0,-16.7 14.9,-32.4999996 30.3,-32.4999996 5.9,0 11.5,2.0999996 21.6,8.0999996 l -3.5,5.8 c -7.2,-0.8 -12.5,-1.3 -14.5,-1.3 -12.2,0 -23.5,10.7 -23.5,22.4 0,6.5 10.3,14.8 16.7,10.6 4.5,-3 3.8,-13.5 3.8,-13.5 l -7.7,-2.6 c 0,0 0.3,-3.1 1.3,-4.7 0.6,-0.9 1.9,-2 1.9,-2 h 24.2 c 1.3,2.2 -2.7,16.5 -5.4,23 z"
   id="path6" />
<path
   class="st0"
   d="m 130.3,32.925483 c 1,7 -4.5,12.4 -13.9,13.7 -5.3,0.7 -9.5,0 -18.9,-3.1 l -0.7,-23.5 3,-0.4 c 16.9,-2.3 29,2.9 30.5,13.3 z m 3.5,0.9 c -0.5,-3.9 -2.3,-8.5 -5.7,-12.8 -8.6,-10.2 -33.7,-5.6 -33.7,-5.6 l -2.5,0.3 1.8,27 -3.6,0.5 4.6,2 3.5,20.5 h 2.8 l -1.2,-18.9 c 10,2.4 15.7,3.1 20.2,2.5 9.1,-1.3 14.9,-7.6 13.8,-15.5 z"
   id="path8" />
<path
   class="st0"
   d="m 151.5,13.925483 c 3.2,6.4 -0.3,13.2 -8.8,17.4 -4.8,2.4 -9,3.1 -18.9,3.1 l -8.1,-22 2.7,-1.3 c 15.2,-7.6999996 28.4,-6.5999996 33.1,2.8 z m 3.6,-0.3 c -1.7,-3.5 -4.8,-7.3999996 -9.4,-10.2999996 -11.4,-6.9 -33.7,5.4 -33.7,5.4 l -2.3,1.1 10.3,25.0999996 -3.2,1.6 5,0.4 14.6,28.4 2.7,-0.9 -12,-27.6 c 10.2,-0.9 15.8,-2 19.9,-4.1 8.2,-4.1 11.6,-12 8.1,-19.1 z"
   id="path10" />
<path
   class="st1"
   d="m 77.5,69.225483 c -4.8,0.1 -9.5,-3.1 -9.5,-3.1 0,0 4,5 9.5,5.1 4.9,0 9.6,-3.6 9.6,-3.6 0,0 -5.2,1.5 -9.6,1.6 z"
   id="path12" />
<path
   class="st1"
   d="m 77.9,63.525483 c -3.8,0.1 -7.6,-2.2 -7.6,-2.2 0,0 3.2,3.8 7.6,3.9 3.9,0 7.6,-2.6 7.6,-2.6 0,0 -4,0.8 -7.6,0.9 z"
   id="path14" />
<path
   class="st1"
   d="m 78.9,58.825483 c -3.1,0.1 -6.1,-1.5 -6.1,-1.5 0,0 2.6,2.9 6.1,2.9 3.1,0 6.1,-1.8 6.1,-1.8 0,0 -3.2,0.4 -6.1,0.4 z"
   id="path16" />
<path
   class="st0"
   d="m 2.5,88.425483 c 0.2,-0.3 0.7,-1.5 0.9,-1.9 0.1,0.3 0.7,1.4 0.9,1.8 z m -1.2,2.5 c 0.2,-0.4 0.6,-1.4 0.7,-1.5 l 2.7,-0.1 c 0.1,0.1 0.7,1.3 0.9,1.7 l 1.3,-0.8 c -0.4,-0.7 -2.6,-4.3 -3.5,-5.7 H 3.3 c -0.6,0.9 -3,5.2 -3.3,5.8 z"
   id="path18" />
<path
   class="st0"
   d="m 21.4,89.425483 c 0,0.3 0,1.1 0,1.2 -0.3,0.1 -1.1,0.2 -1.9,0.2 -2.3,0 -3.4,-1.1 -3.4,-2.5 0,-1 0.9,-3 4.3,-3.8 l 0.3,1.3 c -1.5,0.2 -3.1,1.2 -3.1,2.4 0,0.7 0.7,1.4 1.7,1.4 0.2,0 0.5,0 0.6,0 v -1 c 0,-0.2 0,-0.5 0,-0.7 h 1.4 c 0,0.3 0,0.5 0,0.7 v 0.8 z"
   id="path20" />
<path
   class="st0"
   d="m 29.8,90.825483 c -0.2,0 -2.9,-0.1 -3.4,-0.1 0,-0.5 0,-2.3 0,-2.5 v -1.1 c 0,-0.1 0,-2.2 0,-2.4 h 1.5 c 0,0.2 -0.1,1.9 -0.1,3 v 1.9 c 0.2,0 1.2,0 1.9,0 z"
   id="path22" />
<path
   class="st0"
   d="m 35.3,87.825483 c 0,-1.3 0.8,-2.2 1.8,-2.2 0.9,0 1.6,0.7 1.6,2 0,1.5 -1,2.1 -1.8,2.1 -0.9,0 -1.6,-0.7 -1.6,-1.9 z m -1.6,0.1 c 0,1.7 1.2,2.9 3.1,2.9 2.6,0 3.5,-2 3.5,-3.3 0,-1.9 -1.3,-3 -3.1,-3 -2.2,0 -3.5,1.7 -3.5,3.4 z"
   id="path24" />
<path
   class="st0"
   d="m 46.3,87.925483 c 0.8,0 1.4,0.3 1.4,0.9 0,0.6 -0.8,1 -1.4,1 z m -0.8,2.8 c 2.5,0 3.8,-1 3.8,-2 0,-0.8 -0.7,-1.2 -1.3,-1.3 v 0 c 0.9,-0.4 1.1,-1 1.1,-1.3 0,-0.5 -0.2,-1.2 -2,-1.3 -0.6,-0.1 -1.1,-0.1 -2.1,-0.1 0,0.2 0,1.7 0,1.9 v 0.9 c 0,0.2 0,2.7 0,3.2 z m 0.8,-5.2 c 0.5,0 1.2,0.1 1.2,0.7 0,0.6 -0.6,1 -1.2,1 z"
   id="path26" />
<path
   class="st0"
   d="m 55.4,88.425483 c 0.2,-0.3 0.7,-1.5 0.9,-1.9 0.1,0.3 0.7,1.4 0.9,1.8 z m -1.1,2.5 c 0.2,-0.4 0.6,-1.4 0.7,-1.5 l 2.7,-0.1 c 0.1,0.1 0.7,1.3 0.9,1.7 l 1.3,-0.8 c -0.4,-0.7 -2.6,-4.3 -3.5,-5.7 h -0.1 c -0.6,0.9 -3,5.2 -3.3,5.8 z"
   id="path28" />
<path
   class="st0"
   d="m 67.7,90.825483 c -0.2,0 -2.9,-0.1 -3.4,-0.1 0,-0.5 0,-2.3 0,-2.5 v -1.1 c 0,-0.1 0,-2.2 0,-2.4 h 1.5 c 0,0.2 -0.1,1.9 -0.1,3 v 1.9 c 0.2,0 1.2,0 1.9,0 z"
   id="path30" />
<path
   class="st0"
   d="m 77.8,90.725483 c 0,-0.4 0,-2.4 0,-2.6 v -0.9 c 0,-0.1 0,-2.3 0,-2.5 h 1.5 c 0,0.2 0,1.5 0,2.5 v 0.9 c 0,0.8 0,2.4 0,2.6 z"
   id="path32" />
<path
   class="st0"
   d="m 84.4,90.725483 c 0,-0.3 0.1,-1.6 0.2,-2.9 0.1,-1.3 0.1,-2.7 0.2,-3.2 h 0.1 c 0.8,0.6 4.1,3.5 4.4,3.8 0,-0.3 0,-3.3 0,-3.7 h 1.3 c 0,0.5 -0.1,1.6 -0.2,2.9 -0.1,1.2 -0.1,2.5 -0.2,3.3 h -0.1 c -0.7,-0.5 -4.3,-3.7 -4.4,-3.8 v 0 c 0,0.3 0,3.4 0,3.7 z"
   id="path34" />
<path
   class="st0"
   d="m 95.5,90.725483 c 0,-0.4 0,-2.4 0,-2.6 v -0.9 c 0,-0.1 0,-2.3 0,-2.5 H 97 c 0,0.2 0,1.5 0,2.5 v 0.9 c 0,0.8 0,2.4 0,2.6 z"
   id="path36" />
<path
   class="st0"
   d="m 103.3,90.725483 c 0,-0.2 0,-2 0,-3.1 v -1.8 c -0.6,0 -1.8,0 -2.1,0.1 v -1.2 c 0.4,0.1 2.4,0.1 2.5,0.1 h 0.7 c 0.2,0 2,0 2.4,-0.1 v 1.2 c -0.2,0 -1.7,-0.1 -2.1,-0.1 v 2 c 0,1.2 0,2.7 0.1,2.9 z"
   id="path38" />
<path
   class="st0"
   d="m 111.2,90.725483 c 0,-0.4 0,-2.4 0,-2.6 v -0.9 c 0,-0.1 0,-2.3 0,-2.5 h 1.5 c 0,0.2 0,1.5 0,2.5 v 0.9 c 0,0.8 0,2.4 0,2.6 z"
   id="path40" />
<path
   class="st0"
   d="m 119.4,88.425483 c 0.2,-0.3 0.7,-1.5 0.9,-1.9 0.1,0.3 0.7,1.4 0.9,1.8 z m -1.2,2.5 c 0.2,-0.4 0.6,-1.4 0.7,-1.5 l 2.7,-0.1 c 0.1,0.1 0.7,1.3 0.9,1.7 l 1.3,-0.8 c -0.4,-0.7 -2.6,-4.3 -3.5,-5.7 h -0.1 c -0.6,0.9 -3,5.2 -3.3,5.8 z"
   id="path42" />
<path
   class="st0"
   d="m 128.7,90.725483 c 0,-0.2 0,-2 0,-3.1 v -1.8 c -0.6,0 -1.8,0 -2.1,0.1 v -1.2 c 0.4,0.1 2.4,0.1 2.5,0.1 h 0.7 c 0.2,0 2,0 2.4,-0.1 v 1.2 c -0.2,0 -1.7,-0.1 -2.1,-0.1 v 2 c 0,1.2 0,2.7 0.1,2.9 z"
   id="path44" />
<path
   class="st0"
   d="m 136.6,90.725483 c 0,-0.4 0,-2.4 0,-2.6 v -0.9 c 0,-0.1 0,-2.3 0,-2.5 h 1.5 c 0,0.2 0,1.5 0,2.5 v 0.9 c 0,0.8 0,2.4 0,2.6 z"
   id="path46" />
<path
   class="st0"
   d="m 143.8,84.525483 c 0.2,0.4 1.7,3.6 1.9,4.1 0.2,-0.5 1.9,-3.8 2,-4.1 l 1.3,0.7 c -0.3,0.5 -2.9,5 -3.4,5.8 h -0.1 c -0.6,-0.9 -2.9,-5.3 -3.2,-5.7 z"
   id="path48" />
<path
   class="st0"
   d="m 156.6,90.825483 c -0.2,0 -3.1,-0.1 -3.4,-0.1 0,-0.5 0,-2.3 0,-2.5 v -1.1 c 0,-0.1 0,-2.2 0,-2.4 0.4,0 3,-0.1 3.2,-0.2 v 1.1 c -0.3,0 -1.7,0 -1.8,0 v 1.6 c 0.2,0 1.2,0 1.6,-0.1 v 1.1 c -0.2,0 -1.4,0 -1.6,0 v 1.5 c 0.2,0 1.4,0 1.9,0 z"
   id="path50" />
<g
   id="g56"
   transform="translate(-34.2,-27.474517)">
	<text
   transform="translate(173.8765,91.2099)"
   class="st0 st2 st3"
   id="text52">T</text>
	<text
   transform="translate(178.3316,91.2099)"
   class="st0 st2 st3"
   id="text54">M</text>
</g>
</svg>
