<svg xmlns="http://www.w3.org/2000/svg" width="200.97" height="53.56"  fill-rule="evenodd"><path d="M0 53h93V0H0v53z" fill="#d6ddda"/><path d="M18.61 36.47a32.23 32.23 0 0 1-3.74-3 16.24 16.24 0 0 1-3.75-5.07 13.81 13.81 0 0 0 3.46 5.5 20.41 20.41 0 0 0 4.03 2.57zm15.16-24.82c-1.23-1.87-3.59-3-5.86-3.69-6.73-2.65-16.32 2.41-17.74 11.13a9.31 9.31 0 0 0-.21 2 15.05 15.05 0 0 1 8.24-12 13.09 13.09 0 0 1 13 .75c.18.14.36.3.53.45a11.7 11.7 0 0 0-1.93-.8 12.47 12.47 0 0 0-8-1c-5.52.87-10.52 5.9-11.38 12.16a12.7 12.7 0 0 0-.15 1.24 1 1 0 0 1-.27-.79 5.09 5.09 0 0 0-.07 1.29 14.13 14.13 0 0 0 1.23 6 14.62 14.62 0 0 1-.64-3A12.25 12.25 0 0 0 13 30.75c.82.84 1.74 2.7 2.86 3.3 4.23 3.35 10.66 4.5 15 2a6.83 6.83 0 0 0 1.72-.64c-.69.23-1.47.39-2.09.61h-.21l-.36.2c-3.2.4-9.75 1.11-13.79-2.29a13.7 13.7 0 0 1-2.87-3 9.39 9.39 0 0 1 1.52 1.12c2 2 4.83 3.87 7.56 4.09a24.21 24.21 0 0 1-3.53-1.84c-.61-.29-1.6-.45-2-1-2.55-2.17-4.72-4.4-5.11-7.74-.06-.33.15-.58 0-.88.65 3.7 3 6.43 5.87 8.61a7.47 7.47 0 0 0 1.24 1 11.9 11.9 0 0 1 1.34.55c4.32 1.62 5.09-.15 9-.21A48.49 48.49 0 0 1 22.81 36a16.3 16.3 0 0 0 10.2-2.57c2.91-2 2.32-2.08 3.83-4.62a4.5 4.5 0 0 0 .37-1.26 12.73 12.73 0 0 0-3.44-15.9zM12.44 24.4a13.83 13.83 0 0 1 0-5 4.72 4.72 0 0 0-.05.73 19.59 19.59 0 0 0 .18 4.74l-.16-.46c.07.32.16.64.26 1 .16.75.31 1 .26.77A12.9 12.9 0 0 0 20 33.36C17.05 33 13.14 29 12.44 24.4zm8.62-14.54a10.94 10.94 0 0 0-6.66 4.29 8.51 8.51 0 0 1 4-2.8l-.37.28A13.73 13.73 0 0 0 15 14c-.25.32-.36.7-.59 1l-.48.73a7.61 7.61 0 0 0-1.44 2.1A14.34 14.34 0 0 0 13.4 31c-4.5-6.25-2.72-15.15 2.6-19.09a12.83 12.83 0 0 1 7.3-2.74 12.12 12.12 0 0 0-2.24.69zm8.17 24.64c-.42.07.23-.11 2.11-1.22.16-.09.34-.21.52-.33a12.51 12.51 0 0 0 2.08-1.38c-1.86 1.8-4.14 2.94-4.71 2.93z" fill="#ff8000"/><g fill="#363940"><path d="M49.86 24.58c0 4.14 2.66 5.13 6.79 5.13h6.91v6.18h-8c-8.17 0-12.84-2.86-12.84-13.67C42.73 12.87 44.26 8 54.88 8c8.43 0 10.47 3.44 10.47 10.9v5.77zm8.81-5.69c0-2.74 0-5.41-4.19-5.41s-4.67 2.52-4.67 5.41zM117.15 8H93.21v27.89h6v-22h4.22a2.79 2.79 0 0 1 2.76 2.5v19.5h6v-22h4.19a2.81 2.81 0 0 1 2.8 2.8v19.2h6v-20a8 8 0 0 0-8-8"/><path d="M78.05 13.94h11.17V8H77a8 8 0 0 0-7.65 6.91h-.08v13h.08l-.08.06a8 8 0 0 0 7.73 8h12.22v-6H78.05a2.79 2.79 0 0 1-2.79-2.79V16.74a2.8 2.8 0 0 1 2.79-2.8m71.02 2a8 8 0 0 0-8-8h-12v6h11.23a2.61 2.61 0 0 1 2.79 2.8s0 .42-.88 1.11c-1.14.9-5.88 2.19-8.46 3.22h0c-4 1.35-5.88 3.86-5.88 7.8 0 5.12 2.26 7.1 6.69 7.1h14.51c-.13-2.97 0-20.03 0-20.03zm-6 14.11h-8.53c-.54 0-.85 0-.89-.38-.41-3.66 1.81-3.52 9.42-6.14v6.52z"/></g><path d="M99.28 53.4h1.8v-8.95h-1.8v8.95zm4.02-8.95h2.2l3.44 6.69v-6.69h1.72v8.95h-2.19l-3.43-6.7h-.02v6.7h-1.72v-8.95m11.37 1.41h-2.57v-1.41h6.93v1.41h-2.57v7.54h-1.79v-7.54m5.89-1.41h5.28v1.41h-3.49v2.2h3.2v1.42h-3.2v2.51h3.52v1.41h-5.31v-8.95m7.36 0h1.94c1.92 0 4.22-.07 4.22 2.42a2.05 2.05 0 0 1-1.85 2.13h0c.49 0 .77.52 1 .92l1.44 3.5h-2l-1.07-2.8c-.26-.66-.49-.92-1.25-.92h-.58v3.7h-1.79zm1.79 3.82h.6c.88 0 1.89-.13 1.89-1.25s-1-1.16-1.89-1.16h-.6v2.41zm6.5-3.82h2.2l3.44 6.69v-6.69h1.72v8.95h-2.19l-3.43-6.7h-.02v6.7h-1.72v-8.95m12.3 0h2l3.51 8.95h-2l-.77-2h-3.63l-.78 2H145zm1 1.79h0l-1.29 3.7h2.61l-1.29-3.7zm6.69-.38h-2.57v-1.41h6.93v1.41h-2.57v7.54h-1.79v-7.54m5.73 7.54h1.8v-8.95h-1.8v8.95zm8.07-9.11c2.81 0 4.39 1.9 4.39 4.61s-1.55 4.66-4.39 4.66-4.39-1.92-4.39-4.66 1.53-4.61 4.39-4.61zm0 7.85c1.83 0 2.51-1.62 2.51-3.24s-.73-3.2-2.51-3.2-2.52 1.62-2.52 3.2.69 3.24 2.52 3.24zm6.31-7.69h2.21l3.44 6.69v-6.69h1.72v8.95h-2.19l-3.43-6.7h-.03v6.7h-1.72v-8.95m12.31 0h2l3.52 8.95h-2l-.77-2h-3.63l-.78 2h-1.86zm1 1.79h0l-1.3 3.7h2.62l-1.29-3.7zm6.08-1.79h1.8v7.54h3.47v1.41h-5.27v-8.95" fill="#bbc7c1"/></svg>