<svg xmlns="http://www.w3.org/2000/svg" viewBox="0 0 760 420" width="760" height="420" role="img" aria-label="Azimuth (horizontal) and elevation (vertical) cutting planes through an antenna, each producing its flat polar slice: a full circle in azimuth and a pinched peanut in elevation">
<defs >
  </defs><text x="40" y="34" font-family="'IBM Plex Sans','Helvetica Neue',Arial,sans-serif" font-size="18" fill="#E5E5E5" text-anchor="start" font-weight="700" letter-spacing="0" dominant-baseline="middle">Azimuth and elevation: the two planes</text><text x="40" y="56" font-family="'IBM Plex Sans','Helvetica Neue',Arial,sans-serif" font-size="12" fill="#9C9C9C" text-anchor="start" font-weight="400" letter-spacing="0" dominant-baseline="middle">Two flat slices through the antenna, at right angles</text><g ><path d="M250 220 L250 192" stroke="#E5E5E5" fill="none" stroke-width="2" stroke-linecap="round" stroke-linejoin="round" opacity="1"/><circle cx="250" cy="192" r="3.08" stroke="#E5E5E5" stroke-width="2" fill="#E5E5E5" opacity="1"/><ellipse cx="250" cy="220" rx="9.8" ry="4.12" stroke="#E5E5E5" stroke-width="2" fill="none"/></g><g ><ellipse cx="250" cy="220" rx="150" ry="46" stroke="#A2CC3A" stroke-width="2" fill="rgba(162,204,58,0.08)"/></g><text x="250" y="286" font-family="'IBM Plex Sans','Helvetica Neue',Arial,sans-serif" font-size="13" fill="#A2CC3A" text-anchor="middle" font-weight="600" letter-spacing="0" dominant-baseline="middle">Azimuth: horizontal plane</text><text x="250" y="304" font-family="'IBM Plex Sans','Helvetica Neue',Arial,sans-serif" font-size="11" fill="#9C9C9C" text-anchor="middle" font-weight="400" letter-spacing="0" dominant-baseline="middle">top-down view (parallel to floor)</text><ellipse cx="250" cy="206" rx="50" ry="120" stroke="#E5E5E5" stroke-width="2" fill="none" stroke-dasharray="5 4"/><text x="346" y="100" font-family="'IBM Plex Sans','Helvetica Neue',Arial,sans-serif" font-size="13" fill="#E5E5E5" text-anchor="middle" font-weight="600" letter-spacing="0" dominant-baseline="middle">Elevation:</text><text x="346" y="117" font-family="'IBM Plex Sans','Helvetica Neue',Arial,sans-serif" font-size="13" fill="#E5E5E5" text-anchor="middle" font-weight="600" letter-spacing="0" dominant-baseline="middle">vertical plane</text><text x="346" y="134" font-family="'IBM Plex Sans','Helvetica Neue',Arial,sans-serif" font-size="11" fill="#9C9C9C" text-anchor="middle" font-weight="400" letter-spacing="0" dominant-baseline="middle">side view</text><line x1="75" y1="266" x2="425" y2="266" stroke="#9C9C9C" stroke-width="1" stroke-linecap="round" stroke-dasharray="3 5" opacity="0.7"/><circle cx="600" cy="150" r="56" stroke="#9C9C9C" stroke-width="1" fill="none" stroke-dasharray="2 3" opacity="0.5"/><path d="M600.00 94.00 L603.91 94.14 L607.79 94.54 L611.64 95.22 L615.44 96.17 L619.15 97.38 L622.78 98.84 L626.29 100.55 L629.68 102.51 L632.92 104.70 L636.00 107.10 L638.90 109.72 L641.62 112.53 L644.13 115.52 L646.43 118.69 L648.50 122.00 L650.33 125.45 L651.92 129.02 L653.26 132.70 L654.34 136.45 L655.15 140.28 L655.69 144.15 L655.97 148.05 L655.97 151.95 L655.69 155.85 L655.15 159.72 L654.34 163.55 L653.26 167.30 L651.92 170.98 L650.33 174.55 L648.50 178.00 L646.43 181.31 L644.13 184.48 L641.62 187.47 L638.90 190.28 L636.00 192.90 L632.92 195.30 L629.68 197.49 L626.29 199.45 L622.78 201.16 L619.15 202.62 L615.44 203.83 L611.64 204.78 L607.79 205.46 L603.91 205.86 L600.00 206.00 L596.09 205.86 L592.21 205.46 L588.36 204.78 L584.56 203.83 L580.85 202.62 L577.22 201.16 L573.71 199.45 L570.32 197.49 L567.08 195.30 L564.00 192.90 L561.10 190.28 L558.38 187.47 L555.87 184.48 L553.57 181.31 L551.50 178.00 L549.67 174.55 L548.08 170.98 L546.74 167.30 L545.66 163.55 L544.85 159.72 L544.31 155.85 L544.03 151.95 L544.03 148.05 L544.31 144.15 L544.85 140.28 L545.66 136.45 L546.74 132.70 L548.08 129.02 L549.67 125.45 L551.50 122.00 L553.57 118.69 L555.87 115.52 L558.38 112.53 L561.10 109.72 L564.00 107.10 L567.08 104.70 L570.32 102.51 L573.71 100.55 L577.22 98.84 L580.85 97.38 L584.56 96.17 L588.36 95.22 L592.21 94.54 L596.09 94.14 L600.00 94.00 Z" stroke="#A2CC3A" fill="rgba(162,204,58,0.08)" stroke-width="2.4" stroke-linecap="round" stroke-linejoin="round" opacity="1"/><g ><path d="M600 152 L600 138" stroke="#E5E5E5" fill="none" stroke-width="2" stroke-linecap="round" stroke-linejoin="round" opacity="1"/><circle cx="600" cy="138" r="1.54" stroke="#E5E5E5" stroke-width="2" fill="#E5E5E5" opacity="1"/><ellipse cx="600" cy="152" rx="4.9" ry="2.06" stroke="#E5E5E5" stroke-width="2" fill="none"/></g><text x="600" y="78" font-family="'IBM Plex Sans','Helvetica Neue',Arial,sans-serif" font-size="12" fill="#E5E5E5" text-anchor="middle" font-weight="600" letter-spacing="0" dominant-baseline="middle">Azimuth slice</text><text x="600" y="96" font-family="'IBM Plex Sans','Helvetica Neue',Arial,sans-serif" font-size="1" fill="#9C9C9C" text-anchor="middle" font-weight="400" letter-spacing="0" dominant-baseline="middle"></text><text x="600" y="224" font-family="'IBM Plex Sans','Helvetica Neue',Arial,sans-serif" font-size="11" fill="#9C9C9C" text-anchor="middle" font-weight="400" letter-spacing="0" dominant-baseline="middle">full 360° circle</text><circle cx="600" cy="320" r="56" stroke="#9C9C9C" stroke-width="1" fill="none" stroke-dasharray="2 3" opacity="0.5"/><path d="M600.00 320.00 L600.00 320.00 L600.00 320.00 L600.22 315.74 L600.62 311.09 L601.09 307.50 L601.62 304.57 L602.20 302.12 L602.81 300.01 L603.46 298.17 L604.14 296.54 L604.84 295.09 L605.57 293.79 L606.32 292.62 L607.09 291.56 L607.88 290.60 L608.68 289.72 L609.50 288.93 L610.33 288.21 L611.17 287.55 L612.03 286.96 L612.89 286.43 L613.76 285.95 L614.64 285.52 L615.52 285.14 L616.41 284.80 L617.31 284.51 L618.21 284.26 L619.11 284.06 L620.02 283.89 L620.92 283.76 L621.83 283.66 L622.74 283.61 L623.65 283.58 L624.56 283.59 L625.46 283.64 L626.36 283.71 L627.26 283.82 L628.16 283.96 L629.05 284.13 L629.93 284.33 L630.81 284.55 L631.69 284.81 L632.55 285.09 L633.41 285.40 L634.26 285.74 L635.11 286.10 L635.94 286.49 L636.76 286.90 L637.57 287.34 L638.37 287.80 L639.16 288.29 L639.94 288.80 L640.70 289.33 L641.45 289.88 L642.19 290.46 L642.91 291.05 L643.62 291.67 L644.31 292.31 L644.99 292.97 L645.65 293.64 L646.29 294.34 L646.92 295.05 L647.53 295.78 L648.12 296.53 L648.69 297.30 L649.24 298.08 L649.78 298.87 L650.29 299.68 L650.78 300.51 L651.26 301.34 L651.71 302.20 L652.14 303.06 L652.55 303.93 L652.94 304.82 L653.30 305.72 L653.65 306.62 L653.97 307.54 L654.27 308.47 L654.54 309.40 L654.79 310.34 L655.02 311.29 L655.23 312.24 L655.41 313.20 L655.56 314.16 L655.70 315.13 L655.81 316.10 L655.89 317.07 L655.95 318.05 L655.99 319.02 L656.00 320.00 L655.99 320.98 L655.95 321.95 L655.89 322.93 L655.81 323.90 L655.70 324.87 L655.56 325.84 L655.41 326.80 L655.23 327.76 L655.02 328.71 L654.79 329.66 L654.54 330.60 L654.27 331.53 L653.97 332.46 L653.65 333.38 L653.30 334.28 L652.94 335.18 L652.55 336.07 L652.14 336.94 L651.71 337.80 L651.26 338.66 L650.78 339.49 L650.29 340.32 L649.78 341.13 L649.24 341.92 L648.69 342.70 L648.12 343.47 L647.53 344.22 L646.92 344.95 L646.29 345.66 L645.65 346.36 L644.99 347.03 L644.31 347.69 L643.62 348.33 L642.91 348.95 L642.19 349.54 L641.45 350.12 L640.70 350.67 L639.94 351.20 L639.16 351.71 L638.37 352.20 L637.57 352.66 L636.76 353.10 L635.94 353.51 L635.11 353.90 L634.26 354.26 L633.41 354.60 L632.55 354.91 L631.69 355.19 L630.81 355.45 L629.93 355.67 L629.05 355.87 L628.16 356.04 L627.26 356.18 L626.36 356.29 L625.46 356.36 L624.56 356.41 L623.65 356.42 L622.74 356.39 L621.83 356.34 L620.92 356.24 L620.02 356.11 L619.11 355.94 L618.21 355.74 L617.31 355.49 L616.41 355.20 L615.52 354.86 L614.64 354.48 L613.76 354.05 L612.89 353.57 L612.03 353.04 L611.17 352.45 L610.33 351.79 L609.50 351.07 L608.68 350.28 L607.88 349.40 L607.09 348.44 L606.32 347.38 L605.57 346.21 L604.84 344.91 L604.14 343.46 L603.46 341.83 L602.81 339.99 L602.20 337.88 L601.62 335.43 L601.09 332.50 L600.62 328.91 L600.22 324.26 L600.00 320.00 L600.00 320.00 L600.00 320.00 L600.00 320.00 L600.00 320.00 L599.78 324.26 L599.38 328.91 L598.91 332.50 L598.38 335.43 L597.80 337.88 L597.19 339.99 L596.54 341.83 L595.86 343.46 L595.16 344.91 L594.43 346.21 L593.68 347.38 L592.91 348.44 L592.12 349.40 L591.32 350.28 L590.50 351.07 L589.67 351.79 L588.83 352.45 L587.97 353.04 L587.11 353.57 L586.24 354.05 L585.36 354.48 L584.48 354.86 L583.59 355.20 L582.69 355.49 L581.79 355.74 L580.89 355.94 L579.98 356.11 L579.08 356.24 L578.17 356.34 L577.26 356.39 L576.35 356.42 L575.44 356.41 L574.54 356.36 L573.64 356.29 L572.74 356.18 L571.84 356.04 L570.95 355.87 L570.07 355.67 L569.19 355.45 L568.31 355.19 L567.45 354.91 L566.59 354.60 L565.74 354.26 L564.89 353.90 L564.06 353.51 L563.24 353.10 L562.43 352.66 L561.63 352.20 L560.84 351.71 L560.06 351.20 L559.30 350.67 L558.55 350.12 L557.81 349.54 L557.09 348.95 L556.38 348.33 L555.69 347.69 L555.01 347.03 L554.35 346.36 L553.71 345.66 L553.08 344.95 L552.47 344.22 L551.88 343.47 L551.31 342.70 L550.76 341.92 L550.22 341.13 L549.71 340.32 L549.22 339.49 L548.74 338.66 L548.29 337.80 L547.86 336.94 L547.45 336.07 L547.06 335.18 L546.70 334.28 L546.35 333.38 L546.03 332.46 L545.73 331.53 L545.46 330.60 L545.21 329.66 L544.98 328.71 L544.77 327.76 L544.59 326.80 L544.44 325.84 L544.30 324.87 L544.19 323.90 L544.11 322.93 L544.05 321.95 L544.01 320.98 L544.00 320.00 L544.01 319.02 L544.05 318.05 L544.11 317.07 L544.19 316.10 L544.30 315.13 L544.44 314.16 L544.59 313.20 L544.77 312.24 L544.98 311.29 L545.21 310.34 L545.46 309.40 L545.73 308.47 L546.03 307.54 L546.35 306.62 L546.70 305.72 L547.06 304.82 L547.45 303.93 L547.86 303.06 L548.29 302.20 L548.74 301.34 L549.22 300.51 L549.71 299.68 L550.22 298.87 L550.76 298.08 L551.31 297.30 L551.88 296.53 L552.47 295.78 L553.08 295.05 L553.71 294.34 L554.35 293.64 L555.01 292.97 L555.69 292.31 L556.38 291.67 L557.09 291.05 L557.81 290.46 L558.55 289.88 L559.30 289.33 L560.06 288.80 L560.84 288.29 L561.63 287.80 L562.43 287.34 L563.24 286.90 L564.06 286.49 L564.89 286.10 L565.74 285.74 L566.59 285.40 L567.45 285.09 L568.31 284.81 L569.19 284.55 L570.07 284.33 L570.95 284.13 L571.84 283.96 L572.74 283.82 L573.64 283.71 L574.54 283.64 L575.44 283.59 L576.35 283.58 L577.26 283.61 L578.17 283.66 L579.08 283.76 L579.98 283.89 L580.89 284.06 L581.79 284.26 L582.69 284.51 L583.59 284.80 L584.48 285.14 L585.36 285.52 L586.24 285.95 L587.11 286.43 L587.97 286.96 L588.83 287.55 L589.67 288.21 L590.50 288.93 L591.32 289.72 L592.12 290.60 L592.91 291.56 L593.68 292.62 L594.43 293.79 L595.16 295.09 L595.86 296.54 L596.54 298.17 L597.19 300.01 L597.80 302.12 L598.38 304.57 L598.91 307.50 L599.38 311.09 L599.78 315.74 L600.00 320.00 L600.00 320.00 L600.00 320.00 Z" stroke="#E5E5E5" fill="none" stroke-width="2.4" stroke-linecap="round" stroke-linejoin="round" opacity="1"/><text x="600" y="248" font-family="'IBM Plex Sans','Helvetica Neue',Arial,sans-serif" font-size="12" fill="#E5E5E5" text-anchor="middle" font-weight="600" letter-spacing="0" dominant-baseline="middle">Elevation slice</text><text x="600" y="394" font-family="'IBM Plex Sans','Helvetica Neue',Arial,sans-serif" font-size="11" fill="#9C9C9C" text-anchor="middle" font-weight="400" letter-spacing="0" dominant-baseline="middle">pinched peanut: weak straight up/down</text><path d="M402 220 C 480 220, 490 150, 530 150" stroke="#9C9C9C" stroke-width="1.4" fill="none" stroke-dasharray="4 4"/><path d="M300 290 C 460 280, 470 320, 530 320" stroke="#9C9C9C" stroke-width="1.4" fill="none" stroke-dasharray="4 4"/>

<path d="M530.00 150.00 L522.80 153.60 L522.80 146.40 Z" fill="#9C9C9C"/>
<path d="M530.00 320.00 L522.80 323.60 L522.80 316.40 Z" fill="#9C9C9C"/>
</svg>
