<svg xmlns="http://www.w3.org/2000/svg" viewBox="0 0 760 460" width="760" height="460" role="img" aria-label="A torus radiation volume around a vertical dipole with strongest radiation broadside and nulls along the axis, a flatter higher-gain pancake version, and the two flat plots: a 360-degree azimuth circle and an elevation peanut">
<defs >
  </defs><text x="40" y="34" font-family="'IBM Plex Sans','Helvetica Neue',Arial,sans-serif" font-size="18" fill="#E5E5E5" text-anchor="start" font-weight="700" letter-spacing="0" dominant-baseline="middle">The omni donut and its two plots</text><text x="40" y="56" font-family="'IBM Plex Sans','Helvetica Neue',Arial,sans-serif" font-size="12" fill="#9C9C9C" text-anchor="start" font-weight="400" letter-spacing="0" dominant-baseline="middle">Same antenna: a circle in azimuth, a peanut in elevation</text><line x1="220" y1="112" x2="220" y2="352" stroke="#E5E5E5" stroke-width="2.2" stroke-linecap="round" opacity="1"/><circle cx="220" cy="112" r="2.4" stroke="#E5E5E5" stroke-width="2" fill="#E5E5E5" opacity="1"/><ellipse cx="220" cy="232" rx="110" ry="40" stroke="#A2CC3A" stroke-width="2.2" fill="rgba(162,204,58,0.08)"/><ellipse cx="220" cy="232" rx="30" ry="10.799999999999999" stroke="#A2CC3A" stroke-width="1.4" fill="none" opacity="0.85"/><line x1="256" y1="232" x2="324" y2="232" stroke="#A2CC3A" stroke-width="1.6"/><line x1="184" y1="232" x2="116" y2="232" stroke="#A2CC3A" stroke-width="1.6"/><text x="220" y="290" font-family="'IBM Plex Sans','Helvetica Neue',Arial,sans-serif" font-size="11" fill="#A2CC3A" text-anchor="middle" font-weight="600" letter-spacing="0" dominant-baseline="middle">strongest broadside</text><line x1="220" y1="192" x2="220" y2="136" stroke="#9C9C9C" stroke-width="1.2" stroke-dasharray="3 4"/><text x="228" y="128" font-family="'IBM Plex Sans','Helvetica Neue',Arial,sans-serif" font-size="11" fill="#9C9C9C" text-anchor="start" font-weight="400" letter-spacing="0" dominant-baseline="middle">null (up)</text><text x="228" y="332" font-family="'IBM Plex Sans','Helvetica Neue',Arial,sans-serif" font-size="11" fill="#9C9C9C" text-anchor="start" font-weight="400" letter-spacing="0" dominant-baseline="middle">null (down)</text><text x="220" y="82" font-family="'IBM Plex Sans','Helvetica Neue',Arial,sans-serif" font-size="12" fill="#E5E5E5" text-anchor="middle" font-weight="600" letter-spacing="0" dominant-baseline="middle">Doughnut radiation volume</text><ellipse cx="220" cy="382" rx="130" ry="22" stroke="#E5E5E5" stroke-width="1.8" fill="none" stroke-dasharray="5 4"/><text x="220" y="418" font-family="'IBM Plex Sans','Helvetica Neue',Arial,sans-serif" font-size="12" fill="#E5E5E5" text-anchor="middle" font-weight="600" letter-spacing="0" dominant-baseline="middle">Higher gain → flatter pancake</text><text x="220" y="434" font-family="'IBM Plex Sans','Helvetica Neue',Arial,sans-serif" font-size="11" fill="#9C9C9C" text-anchor="middle" font-weight="400" letter-spacing="0" dominant-baseline="middle">same energy, wider + thinner, not bigger</text><circle cx="580" cy="150" r="58" stroke="#9C9C9C" stroke-width="1" fill="none" stroke-dasharray="2 3" opacity="0.5"/><path d="M580.00 92.00 L584.05 92.14 L588.07 92.56 L592.06 93.27 L595.99 94.25 L599.84 95.50 L603.59 97.01 L607.23 98.79 L610.74 100.81 L614.09 103.08 L617.28 105.57 L620.29 108.28 L623.10 111.19 L625.70 114.29 L628.08 117.57 L630.23 121.00 L632.13 124.57 L633.78 128.27 L635.16 132.08 L636.28 135.97 L637.12 139.93 L637.68 143.94 L637.96 147.98 L637.96 152.02 L637.68 156.06 L637.12 160.07 L636.28 164.03 L635.16 167.92 L633.78 171.73 L632.13 175.43 L630.23 179.00 L628.08 182.43 L625.70 185.71 L623.10 188.81 L620.29 191.72 L617.28 194.43 L614.09 196.92 L610.74 199.19 L607.23 201.21 L603.59 202.99 L599.84 204.50 L595.99 205.75 L592.06 206.73 L588.07 207.44 L584.05 207.86 L580.00 208.00 L575.95 207.86 L571.93 207.44 L567.94 206.73 L564.01 205.75 L560.16 204.50 L556.41 202.99 L552.77 201.21 L549.26 199.19 L545.91 196.92 L542.72 194.43 L539.71 191.72 L536.90 188.81 L534.30 185.71 L531.92 182.43 L529.77 179.00 L527.87 175.43 L526.22 171.73 L524.84 167.92 L523.72 164.03 L522.88 160.07 L522.32 156.06 L522.04 152.02 L522.04 147.98 L522.32 143.94 L522.88 139.93 L523.72 135.97 L524.84 132.08 L526.22 128.27 L527.87 124.57 L529.77 121.00 L531.92 117.57 L534.30 114.29 L536.90 111.19 L539.71 108.28 L542.72 105.57 L545.91 103.08 L549.26 100.81 L552.77 98.79 L556.41 97.01 L560.16 95.50 L564.01 94.25 L567.94 93.27 L571.93 92.56 L575.95 92.14 L580.00 92.00 Z" stroke="#A2CC3A" fill="rgba(162,204,58,0.08)" stroke-width="2.4" stroke-linecap="round" stroke-linejoin="round" opacity="1"/><g ><path d="M580 152 L580 140" stroke="#E5E5E5" fill="none" stroke-width="2" stroke-linecap="round" stroke-linejoin="round" opacity="1"/><circle cx="580" cy="140" r="1.32" stroke="#E5E5E5" stroke-width="2" fill="#E5E5E5" opacity="1"/><ellipse cx="580" cy="152" rx="4.2" ry="1.76" stroke="#E5E5E5" stroke-width="2" fill="none"/></g><text x="580" y="78" font-family="'IBM Plex Sans','Helvetica Neue',Arial,sans-serif" font-size="12" fill="#E5E5E5" text-anchor="middle" font-weight="600" letter-spacing="0" dominant-baseline="middle">Azimuth</text><text x="580" y="226" font-family="'IBM Plex Sans','Helvetica Neue',Arial,sans-serif" font-size="11" fill="#9C9C9C" text-anchor="middle" font-weight="400" letter-spacing="0" dominant-baseline="middle">circle: 360°</text><circle cx="580" cy="330" r="58" stroke="#9C9C9C" stroke-width="1" fill="none" stroke-dasharray="2 3" opacity="0.5"/><path d="M580.00 330.00 L580.00 330.00 L580.00 330.00 L580.23 325.59 L580.65 320.77 L581.13 317.05 L581.68 314.02 L582.27 311.48 L582.91 309.29 L583.58 307.39 L584.28 305.70 L585.01 304.20 L585.77 302.86 L586.55 301.64 L587.34 300.54 L588.16 299.55 L588.99 298.64 L589.84 297.82 L590.70 297.07 L591.57 296.39 L592.45 295.78 L593.35 295.23 L594.25 294.73 L595.16 294.28 L596.08 293.89 L597.00 293.54 L597.93 293.24 L598.86 292.99 L599.79 292.77 L600.73 292.60 L601.67 292.46 L602.61 292.37 L603.55 292.31 L604.49 292.28 L605.43 292.29 L606.37 292.34 L607.30 292.42 L608.24 292.53 L609.16 292.67 L610.09 292.85 L611.00 293.05 L611.91 293.29 L612.82 293.55 L613.72 293.84 L614.61 294.16 L615.49 294.51 L616.36 294.89 L617.22 295.29 L618.07 295.72 L618.91 296.17 L619.74 296.65 L620.56 297.15 L621.37 297.68 L622.16 298.23 L622.93 298.81 L623.70 299.40 L624.45 300.02 L625.18 300.66 L625.90 301.32 L626.60 302.00 L627.28 302.70 L627.95 303.42 L628.60 304.16 L629.23 304.92 L629.84 305.69 L630.43 306.48 L631.00 307.29 L631.55 308.12 L632.09 308.96 L632.60 309.81 L633.09 310.68 L633.56 311.56 L634.00 312.45 L634.43 313.36 L634.83 314.28 L635.21 315.21 L635.56 316.15 L635.89 317.10 L636.20 318.05 L636.49 319.02 L636.75 319.99 L636.99 320.97 L637.20 321.96 L637.39 322.95 L637.55 323.95 L637.69 324.95 L637.80 325.96 L637.89 326.97 L637.95 327.98 L637.99 328.99 L638.00 330.00 L637.99 331.01 L637.95 332.02 L637.89 333.03 L637.80 334.04 L637.69 335.05 L637.55 336.05 L637.39 337.05 L637.20 338.04 L636.99 339.03 L636.75 340.01 L636.49 340.98 L636.20 341.95 L635.89 342.90 L635.56 343.85 L635.21 344.79 L634.83 345.72 L634.43 346.64 L634.00 347.55 L633.56 348.44 L633.09 349.32 L632.60 350.19 L632.09 351.04 L631.55 351.88 L631.00 352.71 L630.43 353.52 L629.84 354.31 L629.23 355.08 L628.60 355.84 L627.95 356.58 L627.28 357.30 L626.60 358.00 L625.90 358.68 L625.18 359.34 L624.45 359.98 L623.70 360.60 L622.93 361.19 L622.16 361.77 L621.37 362.32 L620.56 362.85 L619.74 363.35 L618.91 363.83 L618.07 364.28 L617.22 364.71 L616.36 365.11 L615.49 365.49 L614.61 365.84 L613.72 366.16 L612.82 366.45 L611.91 366.71 L611.00 366.95 L610.09 367.15 L609.16 367.33 L608.24 367.47 L607.30 367.58 L606.37 367.66 L605.43 367.71 L604.49 367.72 L603.55 367.69 L602.61 367.63 L601.67 367.54 L600.73 367.40 L599.79 367.23 L598.86 367.01 L597.93 366.76 L597.00 366.46 L596.08 366.11 L595.16 365.72 L594.25 365.27 L593.35 364.77 L592.45 364.22 L591.57 363.61 L590.70 362.93 L589.84 362.18 L588.99 361.36 L588.16 360.45 L587.34 359.46 L586.55 358.36 L585.77 357.14 L585.01 355.80 L584.28 354.30 L583.58 352.61 L582.91 350.71 L582.27 348.52 L581.68 345.98 L581.13 342.95 L580.65 339.23 L580.23 334.41 L580.00 330.00 L580.00 330.00 L580.00 330.00 L580.00 330.00 L580.00 330.00 L579.77 334.41 L579.35 339.23 L578.87 342.95 L578.32 345.98 L577.73 348.52 L577.09 350.71 L576.42 352.61 L575.72 354.30 L574.99 355.80 L574.23 357.14 L573.45 358.36 L572.66 359.46 L571.84 360.45 L571.01 361.36 L570.16 362.18 L569.30 362.93 L568.43 363.61 L567.55 364.22 L566.65 364.77 L565.75 365.27 L564.84 365.72 L563.92 366.11 L563.00 366.46 L562.07 366.76 L561.14 367.01 L560.21 367.23 L559.27 367.40 L558.33 367.54 L557.39 367.63 L556.45 367.69 L555.51 367.72 L554.57 367.71 L553.63 367.66 L552.70 367.58 L551.76 367.47 L550.84 367.33 L549.91 367.15 L549.00 366.95 L548.09 366.71 L547.18 366.45 L546.28 366.16 L545.39 365.84 L544.51 365.49 L543.64 365.11 L542.78 364.71 L541.93 364.28 L541.09 363.83 L540.26 363.35 L539.44 362.85 L538.63 362.32 L537.84 361.77 L537.07 361.19 L536.30 360.60 L535.55 359.98 L534.82 359.34 L534.10 358.68 L533.40 358.00 L532.72 357.30 L532.05 356.58 L531.40 355.84 L530.77 355.08 L530.16 354.31 L529.57 353.52 L529.00 352.71 L528.45 351.88 L527.91 351.04 L527.40 350.19 L526.91 349.32 L526.44 348.44 L526.00 347.55 L525.57 346.64 L525.17 345.72 L524.79 344.79 L524.44 343.85 L524.11 342.90 L523.80 341.95 L523.51 340.98 L523.25 340.01 L523.01 339.03 L522.80 338.04 L522.61 337.05 L522.45 336.05 L522.31 335.05 L522.20 334.04 L522.11 333.03 L522.05 332.02 L522.01 331.01 L522.00 330.00 L522.01 328.99 L522.05 327.98 L522.11 326.97 L522.20 325.96 L522.31 324.95 L522.45 323.95 L522.61 322.95 L522.80 321.96 L523.01 320.97 L523.25 319.99 L523.51 319.02 L523.80 318.05 L524.11 317.10 L524.44 316.15 L524.79 315.21 L525.17 314.28 L525.57 313.36 L526.00 312.45 L526.44 311.56 L526.91 310.68 L527.40 309.81 L527.91 308.96 L528.45 308.12 L529.00 307.29 L529.57 306.48 L530.16 305.69 L530.77 304.92 L531.40 304.16 L532.05 303.42 L532.72 302.70 L533.40 302.00 L534.10 301.32 L534.82 300.66 L535.55 300.02 L536.30 299.40 L537.07 298.81 L537.84 298.23 L538.63 297.68 L539.44 297.15 L540.26 296.65 L541.09 296.17 L541.93 295.72 L542.78 295.29 L543.64 294.89 L544.51 294.51 L545.39 294.16 L546.28 293.84 L547.18 293.55 L548.09 293.29 L549.00 293.05 L549.91 292.85 L550.84 292.67 L551.76 292.53 L552.70 292.42 L553.63 292.34 L554.57 292.29 L555.51 292.28 L556.45 292.31 L557.39 292.37 L558.33 292.46 L559.27 292.60 L560.21 292.77 L561.14 292.99 L562.07 293.24 L563.00 293.54 L563.92 293.89 L564.84 294.28 L565.75 294.73 L566.65 295.23 L567.55 295.78 L568.43 296.39 L569.30 297.07 L570.16 297.82 L571.01 298.64 L571.84 299.55 L572.66 300.54 L573.45 301.64 L574.23 302.86 L574.99 304.20 L575.72 305.70 L576.42 307.39 L577.09 309.29 L577.73 311.48 L578.32 314.02 L578.87 317.05 L579.35 320.77 L579.77 325.59 L580.00 330.00 L580.00 330.00 L580.00 330.00 Z" stroke="#E5E5E5" fill="none" stroke-width="2.4" stroke-linecap="round" stroke-linejoin="round" opacity="1"/><text x="580" y="258" font-family="'IBM Plex Sans','Helvetica Neue',Arial,sans-serif" font-size="12" fill="#E5E5E5" text-anchor="middle" font-weight="600" letter-spacing="0" dominant-baseline="middle">Elevation</text><text x="580" y="406" font-family="'IBM Plex Sans','Helvetica Neue',Arial,sans-serif" font-size="11" fill="#9C9C9C" text-anchor="middle" font-weight="400" letter-spacing="0" dominant-baseline="middle">peanut: nulls up/down</text>

<path d="M324.00 232.00 L316.00 236.00 L316.00 228.00 Z" fill="#A2CC3A"/>
<path d="M116.00 232.00 L124.00 228.00 L124.00 236.00 Z" fill="#A2CC3A"/>
<path d="M220.00 136.00 L223.60 143.20 L216.40 143.20 Z" fill="#9C9C9C"/>
</svg>
