<svg xmlns="http://www.w3.org/2000/svg" viewBox="0 0 780 520" width="780" height="520" role="img" aria-label="Anatomy of an antenna polar plot: main lobe, minus 3 dB beamwidth, side lobes, nulls, back lobe, front-to-back ratio, and rings as a dB scale">
<defs >
  </defs><g ><circle cx="340" cy="272" r="178" stroke="#9C9C9C" stroke-width="1.5" fill="none" opacity="0.95"/><circle cx="340" cy="272" r="160.2" stroke="#A2CC3A" stroke-width="1.6" fill="none" opacity="0.9"/><circle cx="340" cy="272" r="118.67" stroke="#9C9C9C" stroke-width="1" fill="none" stroke-dasharray="2 3" opacity="0.55"/><circle cx="340" cy="272" r="59.33" stroke="#9C9C9C" stroke-width="1" fill="none" stroke-dasharray="2 3" opacity="0.55"/><line x1="340" y1="80" x2="340" y2="464" stroke="#9C9C9C" stroke-width="1" stroke-linecap="round" stroke-dasharray="2 4" opacity="0.6"/><line x1="148" y1="272" x2="532" y2="272" stroke="#9C9C9C" stroke-width="1" stroke-linecap="round" stroke-dasharray="2 4" opacity="0.6"/></g><text x="429.57" y="423.16" font-family="'DM Mono','IBM Plex Mono',ui-monospace,monospace" font-size="10.5" fill="#9C9C9C" text-anchor="start" font-weight="400" letter-spacing="0" dominant-baseline="middle">0 dB</text><text x="421.21" y="407.45" font-family="'DM Mono','IBM Plex Mono',ui-monospace,monospace" font-size="10.5" fill="#A2CC3A" text-anchor="start" font-weight="400" letter-spacing="0" dominant-baseline="middle">-3 dB</text><text x="401.71" y="370.78" font-family="'DM Mono','IBM Plex Mono',ui-monospace,monospace" font-size="10.5" fill="#9C9C9C" text-anchor="start" font-weight="400" letter-spacing="0" dominant-baseline="middle">-10 dB</text><text x="373.86" y="318.39" font-family="'DM Mono','IBM Plex Mono',ui-monospace,monospace" font-size="10.5" fill="#9C9C9C" text-anchor="start" font-weight="400" letter-spacing="0" dominant-baseline="middle">-20 dB</text><path d="M340.00 94.00 L343.11 94.07 L346.21 94.30 L349.29 94.67 L352.36 95.19 L355.41 95.86 L358.43 96.68 L361.41 97.65 L364.35 98.76 L367.24 100.02 L370.08 101.42 L372.86 102.97 L375.57 104.65 L378.21 106.48 L380.78 108.45 L383.26 110.56 L385.65 112.81 L387.94 115.19 L390.13 117.71 L392.21 120.36 L394.18 123.14 L396.02 126.05 L397.74 129.09 L399.32 132.26 L400.75 135.56 L402.03 138.98 L403.15 142.52 L404.10 146.19 L404.87 149.99 L405.46 153.91 L405.84 157.96 L406.01 162.13 L405.96 166.44 L405.67 170.88 L405.12 175.46 L404.29 180.19 L403.15 185.07 L401.69 190.13 L399.87 195.37 L397.64 200.83 L394.94 206.52 L391.72 212.50 L387.89 218.82 L383.30 225.57 L377.79 232.87 L371.07 240.93 L362.72 250.06 L351.92 260.89 L340.00 272.00 L340.00 272.00 L340.00 272.00 L340.00 272.00 L340.00 272.00 L340.00 272.00 L348.60 265.75 L357.28 259.90 L364.17 255.69 L369.85 252.61 L374.65 250.35 L378.77 248.71 L382.34 247.55 L385.47 246.79 L388.23 246.36 L390.66 246.19 L392.82 246.24 L394.72 246.48 L396.41 246.89 L397.89 247.43 L399.19 248.09 L400.32 248.84 L401.30 249.69 L402.13 250.61 L402.83 251.59 L403.40 252.62 L403.85 253.69 L404.19 254.80 L404.43 255.94 L404.56 257.09 L404.60 258.27 L404.55 259.45 L404.41 260.64 L404.18 261.83 L403.88 263.02 L403.50 264.20 L403.04 265.37 L402.51 266.53 L401.91 267.67 L401.24 268.79 L400.51 269.89 L399.71 270.96 L398.84 272.00 L397.91 273.01 L396.91 273.99 L395.85 274.93 L394.73 275.83 L393.54 276.68 L392.29 277.50 L390.97 278.26 L389.58 278.97 L388.13 279.62 L386.60 280.22 L385.00 280.75 L383.33 281.21 L381.58 281.60 L379.74 281.91 L377.82 282.13 L375.82 282.27 L373.71 282.31 L371.51 282.24 L369.20 282.06 L366.78 281.75 L364.24 281.30 L361.56 280.71 L358.74 279.95 L355.76 279.02 L352.60 277.88 L349.26 276.51 L345.69 274.90 L341.87 272.99 L340.00 272.00 L340.00 272.00 L340.00 272.00 L340.00 272.00 L340.00 272.00 L340.00 272.00 L340.00 272.00 L340.00 272.00 L340.00 272.00 L340.00 272.00 L340.00 272.00 L340.00 272.00 L340.00 272.00 L340.00 272.00 L340.00 272.00 L340.00 272.00 L340.00 272.00 L340.00 272.00 L340.00 272.00 L340.00 272.00 L340.00 272.00 L340.42 272.50 L343.21 275.97 L345.79 279.41 L348.15 282.81 L350.31 286.18 L352.26 289.52 L354.03 292.80 L355.61 296.04 L357.01 299.22 L358.24 302.35 L359.29 305.42 L360.19 308.42 L360.93 311.36 L361.51 314.22 L361.95 317.01 L362.25 319.71 L362.41 322.34 L362.45 324.89 L362.36 327.34 L362.15 329.71 L361.83 331.98 L361.40 334.16 L360.87 336.24 L360.25 338.23 L359.53 340.11 L358.72 341.88 L357.84 343.55 L356.88 345.11 L355.85 346.57 L354.76 347.91 L353.60 349.14 L352.40 350.26 L351.14 351.26 L349.84 352.15 L348.51 352.92 L347.14 353.58 L345.74 354.11 L344.33 354.53 L342.89 354.83 L341.45 355.01 L340.00 355.07 L338.55 355.01 L337.11 354.83 L335.67 354.53 L334.26 354.11 L332.86 353.58 L331.49 352.92 L330.16 352.15 L328.86 351.26 L327.60 350.26 L326.40 349.14 L325.24 347.91 L324.15 346.57 L323.12 345.11 L322.16 343.55 L321.28 341.88 L320.47 340.11 L319.75 338.23 L319.13 336.24 L318.60 334.16 L318.17 331.98 L317.85 329.71 L317.64 327.34 L317.55 324.89 L317.59 322.34 L317.75 319.71 L318.05 317.01 L318.49 314.22 L319.07 311.36 L319.81 308.42 L320.71 305.42 L321.76 302.35 L322.99 299.22 L324.39 296.04 L325.97 292.80 L327.74 289.52 L329.69 286.18 L331.85 282.81 L334.21 279.41 L336.79 275.97 L339.58 272.50 L340.00 272.00 L340.00 272.00 L340.00 272.00 L340.00 272.00 L340.00 272.00 L340.00 272.00 L340.00 272.00 L340.00 272.00 L340.00 272.00 L340.00 272.00 L340.00 272.00 L340.00 272.00 L340.00 272.00 L340.00 272.00 L340.00 272.00 L340.00 272.00 L340.00 272.00 L340.00 272.00 L340.00 272.00 L340.00 272.00 L340.00 272.00 L338.13 272.99 L334.31 274.90 L330.74 276.51 L327.40 277.88 L324.24 279.02 L321.26 279.95 L318.44 280.71 L315.76 281.30 L313.22 281.75 L310.80 282.06 L308.49 282.24 L306.29 282.31 L304.18 282.27 L302.18 282.13 L300.26 281.91 L298.42 281.60 L296.67 281.21 L295.00 280.75 L293.40 280.22 L291.87 279.62 L290.42 278.97 L289.03 278.26 L287.71 277.50 L286.46 276.68 L285.27 275.83 L284.15 274.93 L283.09 273.99 L282.09 273.01 L281.16 272.00 L280.29 270.96 L279.49 269.89 L278.76 268.79 L278.09 267.67 L277.49 266.53 L276.96 265.37 L276.50 264.20 L276.12 263.02 L275.82 261.83 L275.59 260.64 L275.45 259.45 L275.40 258.27 L275.44 257.09 L275.57 255.94 L275.81 254.80 L276.15 253.69 L276.60 252.62 L277.17 251.59 L277.87 250.61 L278.70 249.69 L279.68 248.84 L280.81 248.09 L282.11 247.43 L283.59 246.89 L285.28 246.48 L287.18 246.24 L289.34 246.19 L291.77 246.36 L294.53 246.79 L297.66 247.55 L301.23 248.71 L305.35 250.35 L310.15 252.61 L315.83 255.69 L322.72 259.90 L331.40 265.75 L340.00 272.00 L340.00 272.00 L340.00 272.00 L340.00 272.00 L340.00 272.00 L340.00 272.00 L328.08 260.89 L317.28 250.06 L308.93 240.93 L302.21 232.87 L296.70 225.57 L292.11 218.82 L288.28 212.50 L285.06 206.52 L282.36 200.83 L280.13 195.37 L278.31 190.13 L276.85 185.07 L275.71 180.19 L274.88 175.46 L274.33 170.88 L274.04 166.44 L273.99 162.13 L274.16 157.96 L274.54 153.91 L275.13 149.99 L275.90 146.19 L276.85 142.52 L277.97 138.98 L279.25 135.56 L280.68 132.26 L282.26 129.09 L283.98 126.05 L285.82 123.14 L287.79 120.36 L289.87 117.71 L292.06 115.19 L294.35 112.81 L296.74 110.56 L299.22 108.45 L301.79 106.48 L304.43 104.65 L307.14 102.97 L309.92 101.42 L312.76 100.02 L315.65 98.76 L318.59 97.65 L321.57 96.68 L324.59 95.86 L327.64 95.19 L330.71 94.67 L333.79 94.30 L336.89 94.07 L340.00 94.00 Z" stroke="#A2CC3A" fill="rgba(162,204,58,0.08)" stroke-width="2.4" stroke-linecap="round" stroke-linejoin="round" opacity="1"/><circle cx="287.58" cy="120.62" r="3.2" stroke="#A2CC3A" stroke-width="2" fill="#A2CC3A" opacity="1"/><circle cx="392.42" cy="120.62" r="3.2" stroke="#A2CC3A" stroke-width="2" fill="#A2CC3A" opacity="1"/><path d="M322.98 222.86 A 52 52 0 0 1 357.02 222.86" stroke="#A2CC3A" fill="none" stroke-width="1.6" stroke-linecap="round" stroke-linejoin="round" opacity="1"/><text x="340" y="208" font-family="'IBM Plex Sans','Helvetica Neue',Arial,sans-serif" font-size="12" fill="#A2CC3A" text-anchor="middle" font-weight="600" letter-spacing="0" dominant-baseline="middle">beamwidth</text><line x1="340" y1="94" x2="490" y2="100" stroke="#9C9C9C" stroke-width="1.2" stroke-linecap="round" opacity="1"/><circle cx="340" cy="94" r="2.2" stroke="#E5E5E5" stroke-width="0" fill="#E5E5E5" opacity="1"/><text x="496" y="93" font-family="'IBM Plex Sans','Helvetica Neue',Arial,sans-serif" font-size="13" fill="#E5E5E5" text-anchor="start" font-weight="600" letter-spacing="0" dominant-baseline="middle">Main lobe</text><text x="496" y="109" font-family="'IBM Plex Sans','Helvetica Neue',Arial,sans-serif" font-size="11" fill="#9C9C9C" text-anchor="start" font-weight="400" letter-spacing="0" dominant-baseline="middle">strongest direction</text><line x1="392.42" y1="120.62" x2="508" y2="236" stroke="#9C9C9C" stroke-width="1.2" stroke-linecap="round" opacity="1"/><circle cx="392.42" cy="120.62" r="2.2" stroke="#A2CC3A" stroke-width="0" fill="#A2CC3A" opacity="1"/><text x="514" y="229" font-family="'IBM Plex Sans','Helvetica Neue',Arial,sans-serif" font-size="13" fill="#E5E5E5" text-anchor="start" font-weight="600" letter-spacing="0" dominant-baseline="middle">−3 dB points</text><text x="514" y="245" font-family="'IBM Plex Sans','Helvetica Neue',Arial,sans-serif" font-size="11" fill="#9C9C9C" text-anchor="start" font-weight="400" letter-spacing="0" dominant-baseline="middle">beamwidth measured here</text><line x1="404.19" y1="254.8" x2="516" y2="328" stroke="#9C9C9C" stroke-width="1.2" stroke-linecap="round" opacity="1"/><circle cx="404.19" cy="254.8" r="2.2" stroke="#E5E5E5" stroke-width="0" fill="#E5E5E5" opacity="1"/><text x="522" y="321" font-family="'IBM Plex Sans','Helvetica Neue',Arial,sans-serif" font-size="13" fill="#E5E5E5" text-anchor="start" font-weight="600" letter-spacing="0" dominant-baseline="middle">Side lobe</text><text x="522" y="337" font-family="'IBM Plex Sans','Helvetica Neue',Arial,sans-serif" font-size="11" fill="#9C9C9C" text-anchor="start" font-weight="400" letter-spacing="0" dominant-baseline="middle">coverage you didn't ask for</text><line x1="380.91" y1="237.68" x2="490" y2="390" stroke="#9C9C9C" stroke-width="1.2" stroke-linecap="round" opacity="1"/><circle cx="380.91" cy="237.68" r="2.2" stroke="#E5E5E5" stroke-width="0" fill="#E5E5E5" opacity="1"/><text x="496" y="383" font-family="'IBM Plex Sans','Helvetica Neue',Arial,sans-serif" font-size="13" fill="#E5E5E5" text-anchor="start" font-weight="600" letter-spacing="0" dominant-baseline="middle">Null</text><text x="496" y="399" font-family="'IBM Plex Sans','Helvetica Neue',Arial,sans-serif" font-size="11" fill="#9C9C9C" text-anchor="start" font-weight="400" letter-spacing="0" dominant-baseline="middle">near-zero, between lobes</text><line x1="340" y1="355.07" x2="190" y2="448" stroke="#9C9C9C" stroke-width="1.2" stroke-linecap="round" opacity="1"/><circle cx="340" cy="355.07" r="2.2" stroke="#E5E5E5" stroke-width="0" fill="#E5E5E5" opacity="1"/><text x="184" y="441" font-family="'IBM Plex Sans','Helvetica Neue',Arial,sans-serif" font-size="13" fill="#E5E5E5" text-anchor="end" font-weight="600" letter-spacing="0" dominant-baseline="middle">Back lobe</text><text x="184" y="457" font-family="'IBM Plex Sans','Helvetica Neue',Arial,sans-serif" font-size="11" fill="#9C9C9C" text-anchor="end" font-weight="400" letter-spacing="0" dominant-baseline="middle">smallest, points away</text><line x1="128" y1="94" x2="340" y2="94" stroke="#9C9C9C" stroke-width="1" stroke-linecap="round" stroke-dasharray="3 4" opacity="0.55"/><line x1="128" y1="355.07" x2="340" y2="355.07" stroke="#9C9C9C" stroke-width="1" stroke-linecap="round" stroke-dasharray="3 4" opacity="0.55"/><line x1="128" y1="94" x2="128" y2="355.07" stroke="#9C9C9C" stroke-width="1.5"/><text x="120" y="265" font-family="'IBM Plex Sans','Helvetica Neue',Arial,sans-serif" font-size="11" fill="#E5E5E5" text-anchor="end" font-weight="600" letter-spacing="0" dominant-baseline="middle">front-to-back</text><text x="120" y="280" font-family="'IBM Plex Sans','Helvetica Neue',Arial,sans-serif" font-size="11" fill="#9C9C9C" text-anchor="end" font-weight="400" letter-spacing="0" dominant-baseline="middle">ratio (dB)</text><text x="40" y="34" font-family="'IBM Plex Sans','Helvetica Neue',Arial,sans-serif" font-size="18" fill="#E5E5E5" text-anchor="start" font-weight="700" letter-spacing="0" dominant-baseline="middle">Reading a polar plot</text><text x="40" y="56" font-family="'IBM Plex Sans','Helvetica Neue',Arial,sans-serif" font-size="12" fill="#9C9C9C" text-anchor="start" font-weight="400" letter-spacing="0" dominant-baseline="middle">azimuth pattern of a directional antenna</text><text x="340" y="494" font-family="'IBM Plex Sans','Helvetica Neue',Arial,sans-serif" font-size="12" fill="#E5E5E5" text-anchor="middle" font-weight="600" letter-spacing="0" dominant-baseline="middle">Rings are relative power in dB, not distance.</text><text x="340" y="511" font-family="'IBM Plex Sans','Helvetica Neue',Arial,sans-serif" font-size="11" fill="#9C9C9C" text-anchor="middle" font-weight="400" letter-spacing="0" dominant-baseline="middle">The outer edge is the antenna's own peak; each ring inward is a step down.</text>

<path d="M128.00 355.07 L124.40 347.87 L131.60 347.87 Z" fill="#9C9C9C"/>
<path d="M128.00 94.00 L131.60 101.20 L124.40 101.20 Z" fill="#9C9C9C"/>
</svg>
