<svg xmlns="http://www.w3.org/2000/svg" viewBox="0 0 880 360" width="880" height="360" role="img" aria-label="Five azimuth polar plots from least to most directional: omni full circle, patch broad forward lobe, sector forward wedge, Yagi narrow beam, dish pencil beam, with typical beamwidth ranges">
<defs >
  </defs><text x="40" y="34" font-family="'IBM Plex Sans','Helvetica Neue',Arial,sans-serif" font-size="18" fill="#E5E5E5" text-anchor="start" font-weight="700" letter-spacing="0" dominant-baseline="middle">The spectrum of directionality</text><text x="40" y="56" font-family="'IBM Plex Sans','Helvetica Neue',Arial,sans-serif" font-size="12" fill="#9C9C9C" text-anchor="start" font-weight="400" letter-spacing="0" dominant-baseline="middle">Beam narrows left to right: same energy, tighter shape</text><circle cx="120" cy="150" r="62" stroke="#9C9C9C" stroke-width="1" fill="none" stroke-dasharray="2 3" opacity="0.45"/><line x1="120" y1="80" x2="120" y2="86" stroke="#9C9C9C" stroke-width="1" stroke-linecap="round" opacity="0.7"/><path d="M120.00 88.00 L124.32 88.15 L128.63 88.60 L132.89 89.35 L137.09 90.40 L141.21 91.74 L145.22 93.36 L149.11 95.26 L152.85 97.42 L156.44 99.84 L159.85 102.51 L163.07 105.40 L166.07 108.51 L168.86 111.83 L171.40 115.33 L173.69 119.00 L175.73 122.82 L177.49 126.77 L178.97 130.84 L180.16 135.00 L181.06 139.23 L181.66 143.52 L181.96 147.84 L181.96 152.16 L181.66 156.48 L181.06 160.77 L180.16 165.00 L178.97 169.16 L177.49 173.23 L175.73 177.18 L173.69 181.00 L171.40 184.67 L168.86 188.17 L166.07 191.49 L163.07 194.60 L159.85 197.49 L156.44 200.16 L152.85 202.58 L149.11 204.74 L145.22 206.64 L141.21 208.26 L137.09 209.60 L132.89 210.65 L128.63 211.40 L124.32 211.85 L120.00 212.00 L115.68 211.85 L111.37 211.40 L107.11 210.65 L102.91 209.60 L98.79 208.26 L94.78 206.64 L90.89 204.74 L87.15 202.58 L83.56 200.16 L80.15 197.49 L76.93 194.60 L73.93 191.49 L71.14 188.17 L68.60 184.67 L66.31 181.00 L64.27 177.18 L62.51 173.23 L61.03 169.16 L59.84 165.00 L58.94 160.77 L58.34 156.48 L58.04 152.16 L58.04 147.84 L58.34 143.52 L58.94 139.23 L59.84 135.00 L61.03 130.84 L62.51 126.77 L64.27 122.82 L66.31 119.00 L68.60 115.33 L71.14 111.83 L73.93 108.51 L76.93 105.40 L80.15 102.51 L83.56 99.84 L87.15 97.42 L90.89 95.26 L94.78 93.36 L98.79 91.74 L102.91 90.40 L107.11 89.35 L111.37 88.60 L115.68 88.15 L120.00 88.00 Z" stroke="#A2CC3A" fill="rgba(162,204,58,0.08)" stroke-width="2.3" stroke-linecap="round" stroke-linejoin="round" opacity="1"/><text x="120" y="246" font-family="'IBM Plex Sans','Helvetica Neue',Arial,sans-serif" font-size="13" fill="#E5E5E5" text-anchor="middle" font-weight="600" letter-spacing="0" dominant-baseline="middle">Omni</text><text x="120" y="264" font-family="'DM Mono','IBM Plex Mono',ui-monospace,monospace" font-size="12" fill="#A2CC3A" text-anchor="middle" font-weight="600" letter-spacing="0" dominant-baseline="middle">360°</text><circle cx="280" cy="150" r="62" stroke="#9C9C9C" stroke-width="1" fill="none" stroke-dasharray="2 3" opacity="0.45"/><line x1="280" y1="80" x2="280" y2="86" stroke="#9C9C9C" stroke-width="1" stroke-linecap="round" opacity="0.7"/><path d="M280.00 88.00 L281.08 88.01 L282.16 88.05 L283.24 88.11 L284.32 88.19 L285.40 88.30 L286.47 88.43 L287.54 88.58 L288.61 88.76 L289.67 88.96 L290.72 89.18 L291.77 89.42 L292.82 89.69 L293.86 89.99 L294.88 90.30 L295.91 90.64 L296.92 91.00 L297.92 91.38 L298.92 91.78 L299.90 92.21 L300.87 92.65 L301.83 93.12 L302.78 93.61 L303.72 94.12 L304.64 94.65 L305.55 95.20 L306.45 95.78 L307.33 96.37 L308.19 96.98 L309.04 97.61 L309.88 98.25 L310.69 98.92 L311.49 99.61 L312.27 100.31 L313.03 101.03 L313.77 101.77 L314.50 102.52 L315.20 103.29 L315.88 104.08 L316.54 104.88 L317.18 105.69 L317.79 106.52 L318.39 107.37 L318.96 108.23 L319.50 109.10 L320.02 109.98 L320.51 110.88 L320.98 111.78 L321.42 112.70 L321.84 113.63 L322.23 114.57 L322.58 115.52 L322.91 116.47 L323.21 117.44 L323.48 118.41 L323.71 119.39 L323.92 120.38 L324.09 121.37 L324.23 122.36 L324.33 123.36 L324.39 124.37 L324.42 125.38 L324.41 126.38 L324.36 127.40 L324.27 128.41 L324.14 129.42 L323.97 130.43 L323.74 131.43 L323.47 132.44 L323.15 133.44 L322.78 134.43 L322.35 135.42 L321.86 136.40 L321.30 137.37 L320.68 138.33 L319.99 139.29 L319.21 140.22 L318.35 141.15 L317.39 142.05 L316.32 142.94 L315.13 143.81 L313.79 144.65 L312.28 145.46 L310.58 146.25 L308.62 146.99 L306.34 147.70 L303.63 148.35 L300.31 148.94 L296.05 149.44 L290.06 149.82 L280.00 150.00 L280.00 150.00 L280.00 150.00 L280.00 150.00 L280.00 150.00 L280.00 150.00 L280.00 150.00 L280.00 150.00 L280.00 150.00 L280.00 150.00 L280.00 150.00 L280.00 150.00 L280.00 150.00 L280.00 150.00 L280.00 150.00 L280.00 150.00 L280.00 150.00 L280.00 150.00 L280.00 150.00 L280.00 150.00 L280.00 150.00 L280.00 150.00 L280.00 150.00 L280.00 150.00 L280.00 150.00 L280.00 150.00 L280.00 150.00 L280.00 150.00 L280.00 150.00 L280.62 150.35 L281.58 150.91 L282.47 151.49 L283.31 152.07 L284.10 152.66 L284.84 153.26 L285.53 153.87 L286.17 154.48 L286.77 155.10 L287.32 155.72 L287.83 156.34 L288.30 156.97 L288.73 157.59 L289.13 158.22 L289.48 158.84 L289.80 159.47 L290.09 160.09 L290.34 160.70 L290.55 161.32 L290.74 161.93 L290.89 162.53 L291.02 163.13 L291.11 163.72 L291.18 164.30 L291.21 164.88 L291.23 165.45 L291.21 166.01 L291.17 166.56 L291.11 167.10 L291.02 167.63 L290.91 168.15 L290.77 168.66 L290.62 169.15 L290.44 169.63 L290.24 170.10 L290.03 170.56 L289.79 171.00 L289.54 171.43 L289.27 171.85 L288.99 172.25 L288.69 172.63 L288.37 173.00 L288.04 173.35 L287.70 173.69 L287.34 174.01 L286.97 174.31 L286.59 174.59 L286.20 174.86 L285.80 175.11 L285.39 175.35 L284.97 175.56 L284.54 175.76 L284.11 175.94 L283.67 176.10 L283.22 176.24 L282.77 176.36 L282.32 176.47 L281.86 176.55 L281.40 176.62 L280.93 176.67 L280.47 176.70 L280.00 176.71 L279.53 176.70 L279.07 176.67 L278.60 176.62 L278.14 176.55 L277.68 176.47 L277.23 176.36 L276.78 176.24 L276.33 176.10 L275.89 175.94 L275.46 175.76 L275.03 175.56 L274.61 175.35 L274.20 175.11 L273.80 174.86 L273.41 174.59 L273.03 174.31 L272.66 174.01 L272.30 173.69 L271.96 173.35 L271.63 173.00 L271.31 172.63 L271.01 172.25 L270.73 171.85 L270.46 171.43 L270.21 171.00 L269.97 170.56 L269.76 170.10 L269.56 169.63 L269.38 169.15 L269.23 168.66 L269.09 168.15 L268.98 167.63 L268.89 167.10 L268.83 166.56 L268.79 166.01 L268.77 165.45 L268.79 164.88 L268.82 164.30 L268.89 163.72 L268.98 163.13 L269.11 162.53 L269.26 161.93 L269.45 161.32 L269.66 160.70 L269.91 160.09 L270.20 159.47 L270.52 158.84 L270.87 158.22 L271.27 157.59 L271.70 156.97 L272.17 156.34 L272.68 155.72 L273.23 155.10 L273.83 154.48 L274.47 153.87 L275.16 153.26 L275.90 152.66 L276.69 152.07 L277.53 151.49 L278.42 150.91 L279.38 150.35 L280.00 150.00 L280.00 150.00 L280.00 150.00 L280.00 150.00 L280.00 150.00 L280.00 150.00 L280.00 150.00 L280.00 150.00 L280.00 150.00 L280.00 150.00 L280.00 150.00 L280.00 150.00 L280.00 150.00 L280.00 150.00 L280.00 150.00 L280.00 150.00 L280.00 150.00 L280.00 150.00 L280.00 150.00 L280.00 150.00 L280.00 150.00 L280.00 150.00 L280.00 150.00 L280.00 150.00 L280.00 150.00 L280.00 150.00 L280.00 150.00 L280.00 150.00 L280.00 150.00 L269.94 149.82 L263.95 149.44 L259.69 148.94 L256.37 148.35 L253.66 147.70 L251.38 146.99 L249.42 146.25 L247.72 145.46 L246.21 144.65 L244.87 143.81 L243.68 142.94 L242.61 142.05 L241.65 141.15 L240.79 140.22 L240.01 139.29 L239.32 138.33 L238.70 137.37 L238.14 136.40 L237.65 135.42 L237.22 134.43 L236.85 133.44 L236.53 132.44 L236.26 131.43 L236.03 130.43 L235.86 129.42 L235.73 128.41 L235.64 127.40 L235.59 126.38 L235.58 125.38 L235.61 124.37 L235.67 123.36 L235.77 122.36 L235.91 121.37 L236.08 120.38 L236.29 119.39 L236.52 118.41 L236.79 117.44 L237.09 116.47 L237.42 115.52 L237.77 114.57 L238.16 113.63 L238.58 112.70 L239.02 111.78 L239.49 110.88 L239.98 109.98 L240.50 109.10 L241.04 108.23 L241.61 107.37 L242.21 106.52 L242.82 105.69 L243.46 104.88 L244.12 104.08 L244.80 103.29 L245.50 102.52 L246.23 101.77 L246.97 101.03 L247.73 100.31 L248.51 99.61 L249.31 98.92 L250.12 98.25 L250.96 97.61 L251.81 96.98 L252.67 96.37 L253.55 95.78 L254.45 95.20 L255.36 94.65 L256.28 94.12 L257.22 93.61 L258.17 93.12 L259.13 92.65 L260.10 92.21 L261.08 91.78 L262.08 91.38 L263.08 91.00 L264.09 90.64 L265.12 90.30 L266.14 89.99 L267.18 89.69 L268.23 89.42 L269.28 89.18 L270.33 88.96 L271.39 88.76 L272.46 88.58 L273.53 88.43 L274.60 88.30 L275.68 88.19 L276.76 88.11 L277.84 88.05 L278.92 88.01 L280.00 88.00 Z" stroke="#A2CC3A" fill="rgba(162,204,58,0.08)" stroke-width="2.3" stroke-linecap="round" stroke-linejoin="round" opacity="1"/><text x="280" y="246" font-family="'IBM Plex Sans','Helvetica Neue',Arial,sans-serif" font-size="13" fill="#E5E5E5" text-anchor="middle" font-weight="600" letter-spacing="0" dominant-baseline="middle">Patch / panel</text><text x="280" y="264" font-family="'DM Mono','IBM Plex Mono',ui-monospace,monospace" font-size="12" fill="#A2CC3A" text-anchor="middle" font-weight="600" letter-spacing="0" dominant-baseline="middle">~30–120°</text><circle cx="440" cy="150" r="62" stroke="#9C9C9C" stroke-width="1" fill="none" stroke-dasharray="2 3" opacity="0.45"/><line x1="440" y1="80" x2="440" y2="86" stroke="#9C9C9C" stroke-width="1" stroke-linecap="round" opacity="0.7"/><path d="M440.00 88.00 L441.08 88.03 L442.16 88.11 L443.24 88.25 L444.30 88.44 L445.36 88.69 L446.41 88.99 L447.45 89.35 L448.47 89.77 L449.47 90.24 L450.44 90.77 L451.40 91.35 L452.33 92.00 L453.23 92.70 L454.10 93.46 L454.93 94.28 L455.73 95.16 L456.48 96.10 L457.19 97.10 L457.84 98.18 L458.45 99.31 L458.99 100.52 L459.47 101.80 L459.89 103.15 L460.22 104.59 L460.47 106.10 L460.63 107.71 L460.68 109.42 L460.61 111.23 L460.42 113.16 L460.07 115.23 L459.56 117.45 L458.84 119.85 L457.88 122.46 L456.63 125.34 L455.02 128.55 L452.92 132.21 L450.17 136.51 L446.44 141.75 L441.10 148.64 L440.00 150.00 L440.00 150.00 L440.00 150.00 L440.00 150.00 L440.00 150.00 L440.00 150.00 L440.00 150.00 L440.00 150.00 L440.00 150.00 L440.00 150.00 L440.00 150.00 L440.00 150.00 L440.00 150.00 L440.00 150.00 L440.00 150.00 L440.00 150.00 L440.00 150.00 L440.00 150.00 L440.00 150.00 L440.00 150.00 L440.00 150.00 L440.00 150.00 L440.00 150.00 L440.00 150.00 L440.00 150.00 L440.00 150.00 L440.00 150.00 L440.00 150.00 L440.00 150.00 L440.00 150.00 L440.00 150.00 L440.00 150.00 L440.00 150.00 L440.00 150.00 L440.00 150.00 L440.00 150.00 L440.00 150.00 L440.00 150.00 L440.00 150.00 L440.00 150.00 L440.00 150.00 L440.00 150.00 L440.00 150.00 L440.00 150.00 L440.00 150.00 L440.00 150.00 L440.00 150.00 L440.00 150.00 L440.00 150.00 L440.00 150.00 L440.00 150.00 L440.00 150.00 L440.00 150.00 L440.00 150.00 L440.00 150.00 L440.00 150.00 L440.00 150.00 L440.00 150.00 L440.00 150.00 L440.00 150.00 L440.00 150.00 L440.00 150.00 L440.00 150.00 L440.00 150.00 L440.00 150.00 L440.00 150.00 L440.00 150.00 L440.00 150.00 L440.00 150.00 L440.00 150.00 L440.00 150.00 L440.00 150.00 L440.00 150.00 L440.00 150.00 L440.00 150.00 L440.00 150.00 L440.00 150.00 L440.00 150.00 L440.00 150.00 L440.00 150.00 L440.00 150.00 L440.00 150.00 L440.00 150.00 L440.00 150.00 L440.00 150.00 L440.00 150.00 L440.00 150.00 L440.00 150.00 L440.00 150.00 L440.00 150.00 L440.00 150.00 L440.00 150.00 L440.00 150.00 L440.00 150.00 L440.00 150.00 L440.00 150.00 L440.00 150.00 L440.00 150.00 L440.00 150.00 L440.00 150.00 L440.00 150.00 L440.00 150.00 L440.00 150.00 L440.00 150.00 L440.00 150.00 L440.00 150.00 L440.00 150.00 L440.00 150.00 L440.00 150.00 L440.00 150.00 L440.24 150.41 L440.49 150.88 L440.71 151.34 L440.91 151.79 L441.09 152.23 L441.24 152.65 L441.36 153.06 L441.47 153.46 L441.56 153.85 L441.62 154.22 L441.67 154.58 L441.70 154.92 L441.71 155.25 L441.70 155.56 L441.68 155.86 L441.65 156.14 L441.60 156.40 L441.54 156.65 L441.46 156.88 L441.38 157.09 L441.28 157.29 L441.18 157.46 L441.07 157.62 L440.95 157.76 L440.83 157.88 L440.70 157.99 L440.56 158.07 L440.43 158.14 L440.29 158.19 L440.14 158.21 L440.00 158.22 L439.86 158.21 L439.71 158.19 L439.57 158.14 L439.44 158.07 L439.30 157.99 L439.17 157.88 L439.05 157.76 L438.93 157.62 L438.82 157.46 L438.72 157.29 L438.62 157.09 L438.54 156.88 L438.46 156.65 L438.40 156.40 L438.35 156.14 L438.32 155.86 L438.30 155.56 L438.29 155.25 L438.30 154.92 L438.33 154.58 L438.38 154.22 L438.44 153.85 L438.53 153.46 L438.64 153.06 L438.76 152.65 L438.91 152.23 L439.09 151.79 L439.29 151.34 L439.51 150.88 L439.76 150.41 L440.00 150.00 L440.00 150.00 L440.00 150.00 L440.00 150.00 L440.00 150.00 L440.00 150.00 L440.00 150.00 L440.00 150.00 L440.00 150.00 L440.00 150.00 L440.00 150.00 L440.00 150.00 L440.00 150.00 L440.00 150.00 L440.00 150.00 L440.00 150.00 L440.00 150.00 L440.00 150.00 L440.00 150.00 L440.00 150.00 L440.00 150.00 L440.00 150.00 L440.00 150.00 L440.00 150.00 L440.00 150.00 L440.00 150.00 L440.00 150.00 L440.00 150.00 L440.00 150.00 L440.00 150.00 L440.00 150.00 L440.00 150.00 L440.00 150.00 L440.00 150.00 L440.00 150.00 L440.00 150.00 L440.00 150.00 L440.00 150.00 L440.00 150.00 L440.00 150.00 L440.00 150.00 L440.00 150.00 L440.00 150.00 L440.00 150.00 L440.00 150.00 L440.00 150.00 L440.00 150.00 L440.00 150.00 L440.00 150.00 L440.00 150.00 L440.00 150.00 L440.00 150.00 L440.00 150.00 L440.00 150.00 L440.00 150.00 L440.00 150.00 L440.00 150.00 L440.00 150.00 L440.00 150.00 L440.00 150.00 L440.00 150.00 L440.00 150.00 L440.00 150.00 L440.00 150.00 L440.00 150.00 L440.00 150.00 L440.00 150.00 L440.00 150.00 L440.00 150.00 L440.00 150.00 L440.00 150.00 L440.00 150.00 L440.00 150.00 L440.00 150.00 L440.00 150.00 L440.00 150.00 L440.00 150.00 L440.00 150.00 L440.00 150.00 L440.00 150.00 L440.00 150.00 L440.00 150.00 L440.00 150.00 L440.00 150.00 L440.00 150.00 L440.00 150.00 L440.00 150.00 L440.00 150.00 L440.00 150.00 L440.00 150.00 L440.00 150.00 L440.00 150.00 L440.00 150.00 L440.00 150.00 L440.00 150.00 L440.00 150.00 L440.00 150.00 L440.00 150.00 L440.00 150.00 L440.00 150.00 L440.00 150.00 L440.00 150.00 L440.00 150.00 L440.00 150.00 L440.00 150.00 L440.00 150.00 L440.00 150.00 L440.00 150.00 L440.00 150.00 L440.00 150.00 L438.90 148.64 L433.56 141.75 L429.83 136.51 L427.08 132.21 L424.98 128.55 L423.37 125.34 L422.12 122.46 L421.16 119.85 L420.44 117.45 L419.93 115.23 L419.58 113.16 L419.39 111.23 L419.32 109.42 L419.37 107.71 L419.53 106.10 L419.78 104.59 L420.11 103.15 L420.53 101.80 L421.01 100.52 L421.55 99.31 L422.16 98.18 L422.81 97.10 L423.52 96.10 L424.27 95.16 L425.07 94.28 L425.90 93.46 L426.77 92.70 L427.67 92.00 L428.60 91.35 L429.56 90.77 L430.53 90.24 L431.53 89.77 L432.55 89.35 L433.59 88.99 L434.64 88.69 L435.70 88.44 L436.76 88.25 L437.84 88.11 L438.92 88.03 L440.00 88.00 Z" stroke="#A2CC3A" fill="rgba(162,204,58,0.08)" stroke-width="2.3" stroke-linecap="round" stroke-linejoin="round" opacity="1"/><text x="440" y="246" font-family="'IBM Plex Sans','Helvetica Neue',Arial,sans-serif" font-size="13" fill="#E5E5E5" text-anchor="middle" font-weight="600" letter-spacing="0" dominant-baseline="middle">Sector</text><text x="440" y="264" font-family="'DM Mono','IBM Plex Mono',ui-monospace,monospace" font-size="12" fill="#A2CC3A" text-anchor="middle" font-weight="600" letter-spacing="0" dominant-baseline="middle">~60–120°</text><circle cx="600" cy="150" r="62" stroke="#9C9C9C" stroke-width="1" fill="none" stroke-dasharray="2 3" opacity="0.45"/><line x1="600" y1="80" x2="600" y2="86" stroke="#9C9C9C" stroke-width="1" stroke-linecap="round" opacity="0.7"/><path d="M600.00 88.00 L600.54 88.02 L601.08 88.06 L601.62 88.14 L602.16 88.25 L602.69 88.39 L603.22 88.56 L603.75 88.77 L604.27 89.01 L604.78 89.27 L605.29 89.58 L605.79 89.91 L606.28 90.28 L606.76 90.68 L607.23 91.11 L607.69 91.58 L608.14 92.08 L608.58 92.62 L609.00 93.19 L609.40 93.80 L609.79 94.45 L610.17 95.14 L610.52 95.87 L610.86 96.63 L611.17 97.44 L611.46 98.29 L611.73 99.19 L611.97 100.14 L612.18 101.14 L612.37 102.19 L612.52 103.29 L612.63 104.46 L612.71 105.69 L612.74 106.99 L612.73 108.36 L612.67 109.82 L612.55 111.38 L612.37 113.04 L612.11 114.82 L611.78 116.74 L611.34 118.83 L610.80 121.12 L610.11 123.66 L609.25 126.52 L608.16 129.81 L606.75 133.70 L604.87 138.52 L602.19 144.96 L600.00 150.00 L600.00 150.00 L600.00 150.00 L600.00 150.00 L603.08 143.68 L605.42 139.14 L607.22 135.83 L608.70 133.28 L609.96 131.27 L611.06 129.63 L612.03 128.29 L612.91 127.19 L613.70 126.28 L614.42 125.52 L615.08 124.91 L615.68 124.41 L616.24 124.01 L616.75 123.71 L617.22 123.49 L617.65 123.34 L618.04 123.26 L618.39 123.24 L618.71 123.27 L619.00 123.36 L619.25 123.50 L619.47 123.68 L619.66 123.91 L619.82 124.17 L619.94 124.48 L620.03 124.82 L620.09 125.19 L620.11 125.60 L620.10 126.04 L620.06 126.51 L619.98 127.01 L619.87 127.54 L619.72 128.10 L619.53 128.69 L619.30 129.30 L619.04 129.94 L618.73 130.60 L618.38 131.30 L617.98 132.02 L617.54 132.77 L617.04 133.54 L616.49 134.35 L615.89 135.19 L615.22 136.06 L614.48 136.96 L613.68 137.90 L612.79 138.88 L611.82 139.91 L610.75 140.98 L609.57 142.11 L608.26 143.31 L606.80 144.59 L605.17 145.96 L603.32 147.45 L601.21 149.09 L600.00 150.00 L600.00 150.00 L600.00 150.00 L600.00 150.00 L600.00 150.00 L600.00 150.00 L600.00 150.00 L600.00 150.00 L600.00 150.00 L600.00 150.00 L600.00 150.00 L600.00 150.00 L600.00 150.00 L600.00 150.00 L600.00 150.00 L601.36 149.25 L602.68 148.54 L603.85 147.95 L604.90 147.45 L605.85 147.02 L606.71 146.66 L607.48 146.35 L608.19 146.09 L608.83 145.88 L609.42 145.71 L609.96 145.56 L610.46 145.45 L610.91 145.37 L611.33 145.31 L611.71 145.27 L612.06 145.25 L612.38 145.25 L612.67 145.26 L612.93 145.29 L613.17 145.34 L613.39 145.39 L613.58 145.46 L613.76 145.53 L613.91 145.61 L614.05 145.70 L614.17 145.80 L614.27 145.91 L614.36 146.02 L614.44 146.13 L614.50 146.25 L614.54 146.37 L614.58 146.50 L614.60 146.63 L614.61 146.76 L614.61 146.89 L614.60 147.03 L614.58 147.17 L614.55 147.30 L614.52 147.44 L614.47 147.58 L614.42 147.72 L614.35 147.85 L614.28 147.99 L614.21 148.13 L614.13 148.27 L614.04 148.40 L613.94 148.53 L613.84 148.67 L613.73 148.80 L613.62 148.93 L613.50 149.06 L613.38 149.18 L613.25 149.31 L613.12 149.43 L612.98 149.55 L612.84 149.66 L612.70 149.78 L612.55 149.89 L612.39 150.00 L612.23 150.11 L612.07 150.21 L611.90 150.31 L611.73 150.41 L611.56 150.50 L611.38 150.60 L611.19 150.68 L611.00 150.77 L610.81 150.85 L610.61 150.93 L610.40 151.00 L610.19 151.07 L609.98 151.14 L609.76 151.20 L609.54 151.26 L609.30 151.31 L609.07 151.35 L608.82 151.40 L608.57 151.43 L608.31 151.47 L608.05 151.49 L607.77 151.51 L607.49 151.52 L607.20 151.53 L606.90 151.53 L606.59 151.52 L606.28 151.51 L605.95 151.48 L605.60 151.45 L605.25 151.41 L604.89 151.36 L604.51 151.29 L604.12 151.22 L603.71 151.13 L603.29 151.04 L602.85 150.93 L602.39 150.80 L601.92 150.66 L601.42 150.50 L600.91 150.33 L600.37 150.14 L600.00 150.00 L600.00 150.00 L600.00 150.00 L600.00 150.00 L600.00 150.00 L600.00 150.00 L600.00 150.00 L600.00 150.00 L600.00 150.00 L600.00 150.00 L600.00 150.00 L600.00 150.00 L600.00 150.00 L600.00 150.00 L600.00 150.00 L600.00 150.00 L600.00 150.00 L600.00 150.00 L600.00 150.00 L600.00 150.00 L600.00 150.00 L600.00 150.00 L600.00 150.00 L600.00 150.00 L600.00 150.00 L600.00 150.00 L600.00 150.00 L600.00 150.00 L600.00 150.00 L600.00 150.00 L600.00 150.00 L600.00 150.00 L600.00 150.00 L600.00 150.00 L600.24 150.19 L600.86 150.68 L601.46 151.18 L602.04 151.68 L602.60 152.19 L603.15 152.69 L603.67 153.19 L604.18 153.70 L604.67 154.21 L605.14 154.71 L605.60 155.22 L606.03 155.73 L606.45 156.23 L606.86 156.74 L607.25 157.25 L607.62 157.75 L607.97 158.26 L608.32 158.76 L608.64 159.27 L608.95 159.77 L609.25 160.27 L609.53 160.77 L609.79 161.26 L610.04 161.76 L610.28 162.25 L610.51 162.75 L610.72 163.23 L610.91 163.72 L611.10 164.21 L611.27 164.69 L611.43 165.16 L611.57 165.64 L611.71 166.11 L611.83 166.58 L611.94 167.05 L612.03 167.51 L612.12 167.97 L612.19 168.42 L612.25 168.87 L612.31 169.32 L612.35 169.76 L612.38 170.20 L612.40 170.63 L612.40 171.06 L612.40 171.48 L612.39 171.90 L612.37 172.32 L612.34 172.72 L612.30 173.13 L612.25 173.53 L612.19 173.92 L612.12 174.31 L612.04 174.69 L611.96 175.07 L611.86 175.44 L611.76 175.81 L611.65 176.16 L611.53 176.52 L611.40 176.87 L611.27 177.21 L611.13 177.54 L610.98 177.87 L610.82 178.19 L610.66 178.51 L610.49 178.82 L610.31 179.12 L610.13 179.42 L609.94 179.70 L609.74 179.99 L609.54 180.26 L609.33 180.53 L609.12 180.79 L608.90 181.05 L608.68 181.29 L608.45 181.53 L608.21 181.76 L607.98 181.99 L607.73 182.21 L607.48 182.42 L607.23 182.62 L606.97 182.81 L606.71 183.00 L606.45 183.18 L606.18 183.35 L605.91 183.52 L605.64 183.67 L605.36 183.82 L605.08 183.96 L604.79 184.10 L604.51 184.22 L604.22 184.34 L603.92 184.45 L603.63 184.55 L603.34 184.64 L603.04 184.73 L602.74 184.80 L602.44 184.87 L602.14 184.93 L601.83 184.99 L601.53 185.03 L601.22 185.07 L600.92 185.10 L600.61 185.12 L600.31 185.13 L600.00 185.13 L599.69 185.13 L599.39 185.12 L599.08 185.10 L598.78 185.07 L598.47 185.03 L598.17 184.99 L597.86 184.93 L597.56 184.87 L597.26 184.80 L596.96 184.73 L596.66 184.64 L596.37 184.55 L596.08 184.45 L595.78 184.34 L595.49 184.22 L595.21 184.10 L594.92 183.96 L594.64 183.82 L594.36 183.67 L594.09 183.52 L593.82 183.35 L593.55 183.18 L593.29 183.00 L593.03 182.81 L592.77 182.62 L592.52 182.42 L592.27 182.21 L592.02 181.99 L591.79 181.76 L591.55 181.53 L591.32 181.29 L591.10 181.05 L590.88 180.79 L590.67 180.53 L590.46 180.26 L590.26 179.99 L590.06 179.70 L589.87 179.42 L589.69 179.12 L589.51 178.82 L589.34 178.51 L589.18 178.19 L589.02 177.87 L588.87 177.54 L588.73 177.21 L588.60 176.87 L588.47 176.52 L588.35 176.16 L588.24 175.81 L588.14 175.44 L588.04 175.07 L587.96 174.69 L587.88 174.31 L587.81 173.92 L587.75 173.53 L587.70 173.13 L587.66 172.72 L587.63 172.32 L587.61 171.90 L587.60 171.48 L587.60 171.06 L587.60 170.63 L587.62 170.20 L587.65 169.76 L587.69 169.32 L587.75 168.87 L587.81 168.42 L587.88 167.97 L587.97 167.51 L588.06 167.05 L588.17 166.58 L588.29 166.11 L588.43 165.64 L588.57 165.16 L588.73 164.69 L588.90 164.21 L589.09 163.72 L589.28 163.23 L589.49 162.75 L589.72 162.25 L589.96 161.76 L590.21 161.26 L590.47 160.77 L590.75 160.27 L591.05 159.77 L591.36 159.27 L591.68 158.76 L592.03 158.26 L592.38 157.75 L592.75 157.25 L593.14 156.74 L593.55 156.23 L593.97 155.73 L594.40 155.22 L594.86 154.71 L595.33 154.21 L595.82 153.70 L596.33 153.19 L596.85 152.69 L597.40 152.19 L597.96 151.68 L598.54 151.18 L599.14 150.68 L599.76 150.19 L600.00 150.00 L600.00 150.00 L600.00 150.00 L600.00 150.00 L600.00 150.00 L600.00 150.00 L600.00 150.00 L600.00 150.00 L600.00 150.00 L600.00 150.00 L600.00 150.00 L600.00 150.00 L600.00 150.00 L600.00 150.00 L600.00 150.00 L600.00 150.00 L600.00 150.00 L600.00 150.00 L600.00 150.00 L600.00 150.00 L600.00 150.00 L600.00 150.00 L600.00 150.00 L600.00 150.00 L600.00 150.00 L600.00 150.00 L600.00 150.00 L600.00 150.00 L600.00 150.00 L600.00 150.00 L600.00 150.00 L600.00 150.00 L600.00 150.00 L600.00 150.00 L599.63 150.14 L599.09 150.33 L598.58 150.50 L598.08 150.66 L597.61 150.80 L597.15 150.93 L596.71 151.04 L596.29 151.13 L595.88 151.22 L595.49 151.29 L595.11 151.36 L594.75 151.41 L594.40 151.45 L594.05 151.48 L593.72 151.51 L593.41 151.52 L593.10 151.53 L592.80 151.53 L592.51 151.52 L592.23 151.51 L591.95 151.49 L591.69 151.47 L591.43 151.43 L591.18 151.40 L590.93 151.35 L590.70 151.31 L590.46 151.26 L590.24 151.20 L590.02 151.14 L589.81 151.07 L589.60 151.00 L589.39 150.93 L589.19 150.85 L589.00 150.77 L588.81 150.68 L588.62 150.60 L588.44 150.50 L588.27 150.41 L588.10 150.31 L587.93 150.21 L587.77 150.11 L587.61 150.00 L587.45 149.89 L587.30 149.78 L587.16 149.66 L587.02 149.55 L586.88 149.43 L586.75 149.31 L586.62 149.18 L586.50 149.06 L586.38 148.93 L586.27 148.80 L586.16 148.67 L586.06 148.53 L585.96 148.40 L585.87 148.27 L585.79 148.13 L585.72 147.99 L585.65 147.85 L585.58 147.72 L585.53 147.58 L585.48 147.44 L585.45 147.30 L585.42 147.17 L585.40 147.03 L585.39 146.89 L585.39 146.76 L585.40 146.63 L585.42 146.50 L585.46 146.37 L585.50 146.25 L585.56 146.13 L585.64 146.02 L585.73 145.91 L585.83 145.80 L585.95 145.70 L586.09 145.61 L586.24 145.53 L586.42 145.46 L586.61 145.39 L586.83 145.34 L587.07 145.29 L587.33 145.26 L587.62 145.25 L587.94 145.25 L588.29 145.27 L588.67 145.31 L589.09 145.37 L589.54 145.45 L590.04 145.56 L590.58 145.71 L591.17 145.88 L591.81 146.09 L592.52 146.35 L593.29 146.66 L594.15 147.02 L595.10 147.45 L596.15 147.95 L597.32 148.54 L598.64 149.25 L600.00 150.00 L600.00 150.00 L600.00 150.00 L600.00 150.00 L600.00 150.00 L600.00 150.00 L600.00 150.00 L600.00 150.00 L600.00 150.00 L600.00 150.00 L600.00 150.00 L600.00 150.00 L600.00 150.00 L600.00 150.00 L600.00 150.00 L598.79 149.09 L596.68 147.45 L594.83 145.96 L593.20 144.59 L591.74 143.31 L590.43 142.11 L589.25 140.98 L588.18 139.91 L587.21 138.88 L586.32 137.90 L585.52 136.96 L584.78 136.06 L584.11 135.19 L583.51 134.35 L582.96 133.54 L582.46 132.77 L582.02 132.02 L581.62 131.30 L581.27 130.60 L580.96 129.94 L580.70 129.30 L580.47 128.69 L580.28 128.10 L580.13 127.54 L580.02 127.01 L579.94 126.51 L579.90 126.04 L579.89 125.60 L579.91 125.19 L579.97 124.82 L580.06 124.48 L580.18 124.17 L580.34 123.91 L580.53 123.68 L580.75 123.50 L581.00 123.36 L581.29 123.27 L581.61 123.24 L581.96 123.26 L582.35 123.34 L582.78 123.49 L583.25 123.71 L583.76 124.01 L584.32 124.41 L584.92 124.91 L585.58 125.52 L586.30 126.28 L587.09 127.19 L587.97 128.29 L588.94 129.63 L590.04 131.27 L591.30 133.28 L592.78 135.83 L594.58 139.14 L596.92 143.68 L600.00 150.00 L600.00 150.00 L600.00 150.00 L600.00 150.00 L597.81 144.96 L595.13 138.52 L593.25 133.70 L591.84 129.81 L590.75 126.52 L589.89 123.66 L589.20 121.12 L588.66 118.83 L588.22 116.74 L587.89 114.82 L587.63 113.04 L587.45 111.38 L587.33 109.82 L587.27 108.36 L587.26 106.99 L587.29 105.69 L587.37 104.46 L587.48 103.29 L587.63 102.19 L587.82 101.14 L588.03 100.14 L588.27 99.19 L588.54 98.29 L588.83 97.44 L589.14 96.63 L589.48 95.87 L589.83 95.14 L590.21 94.45 L590.60 93.80 L591.00 93.19 L591.42 92.62 L591.86 92.08 L592.31 91.58 L592.77 91.11 L593.24 90.68 L593.72 90.28 L594.21 89.91 L594.71 89.58 L595.22 89.27 L595.73 89.01 L596.25 88.77 L596.78 88.56 L597.31 88.39 L597.84 88.25 L598.38 88.14 L598.92 88.06 L599.46 88.02 L600.00 88.00 Z" stroke="#A2CC3A" fill="rgba(162,204,58,0.08)" stroke-width="2.3" stroke-linecap="round" stroke-linejoin="round" opacity="1"/><text x="600" y="246" font-family="'IBM Plex Sans','Helvetica Neue',Arial,sans-serif" font-size="13" fill="#E5E5E5" text-anchor="middle" font-weight="600" letter-spacing="0" dominant-baseline="middle">Yagi</text><text x="600" y="264" font-family="'DM Mono','IBM Plex Mono',ui-monospace,monospace" font-size="12" fill="#A2CC3A" text-anchor="middle" font-weight="600" letter-spacing="0" dominant-baseline="middle">~15–40°</text><circle cx="760" cy="150" r="62" stroke="#9C9C9C" stroke-width="1" fill="none" stroke-dasharray="2 3" opacity="0.45"/><line x1="760" y1="80" x2="760" y2="86" stroke="#9C9C9C" stroke-width="1" stroke-linecap="round" opacity="0.7"/><path d="M760.00 88.00 L760.54 88.07 L761.08 88.28 L761.61 88.64 L762.13 89.14 L762.63 89.80 L763.11 90.61 L763.57 91.59 L764.00 92.74 L764.40 94.08 L764.76 95.63 L765.06 97.41 L765.31 99.44 L765.49 101.78 L765.59 104.48 L765.58 107.62 L765.43 111.35 L765.10 115.90 L764.48 121.69 L763.40 129.70 L761.20 143.17 L760.00 150.00 L761.32 143.21 L763.57 132.44 L764.98 126.59 L766.02 122.86 L766.84 120.35 L767.52 118.67 L768.08 117.61 L768.52 117.04 L768.87 116.89 L769.12 117.11 L769.26 117.69 L769.30 118.62 L769.20 119.90 L768.97 121.57 L768.56 123.66 L767.94 126.26 L767.05 129.52 L765.78 133.67 L763.92 139.23 L760.95 147.45 L760.00 150.00 L760.00 150.00 L760.00 150.00 L762.72 143.42 L764.96 138.30 L766.58 134.86 L767.82 132.44 L768.78 130.73 L769.54 129.55 L770.11 128.80 L770.53 128.42 L770.79 128.36 L770.90 128.60 L770.87 129.12 L770.67 129.92 L770.31 131.02 L769.75 132.41 L768.97 134.15 L767.91 136.29 L766.52 138.93 L764.66 142.24 L762.12 146.54 L760.00 150.00 L760.00 150.00 L760.00 150.00 L760.00 150.00 L760.00 150.00 L760.44 149.37 L763.13 145.53 L765.13 142.81 L766.67 140.82 L767.87 139.36 L768.82 138.30 L769.54 137.56 L770.08 137.10 L770.44 136.87 L770.64 136.86 L770.68 137.04 L770.57 137.41 L770.29 137.95 L769.85 138.67 L769.22 139.58 L768.40 140.67 L767.35 141.98 L766.04 143.53 L764.41 145.35 L762.38 147.54 L760.00 150.00 L760.00 150.00 L760.00 150.00 L760.00 150.00 L760.00 150.00 L760.00 150.00 L760.00 150.00 L760.00 150.00 L760.00 150.00 L760.00 150.00 L760.99 149.15 L762.72 147.72 L764.11 146.61 L765.24 145.76 L766.16 145.10 L766.88 144.62 L767.45 144.28 L767.87 144.07 L768.16 143.96 L768.32 143.95 L768.36 144.03 L768.29 144.19 L768.11 144.43 L767.82 144.73 L767.41 145.09 L766.89 145.52 L766.26 146.01 L765.51 146.56 L764.63 147.17 L763.61 147.83 L762.44 148.56 L761.10 149.36 L760.00 150.00 L760.00 150.00 L760.00 150.00 L760.00 150.00 L760.00 150.00 L760.00 150.00 L760.00 150.00 L760.00 150.00 L760.00 150.00 L760.00 150.00 L760.00 150.00 L760.00 150.00 L760.00 150.00 L760.00 150.00 L760.00 150.00 L760.00 150.00 L760.00 150.00 L760.00 150.00 L760.00 150.00 L760.00 150.00 L760.00 150.00 L760.00 150.00 L760.00 150.00 L760.00 150.00 L760.00 150.00 L760.00 150.00 L760.00 150.00 L760.00 150.00 L760.00 150.00 L760.00 150.00 L760.13 149.97 L760.35 149.91 L760.53 149.87 L760.68 149.84 L760.79 149.83 L760.86 149.82 L760.91 149.81 L760.94 149.82 L760.94 149.83 L760.92 149.84 L760.88 149.85 L760.82 149.87 L760.75 149.89 L760.66 149.91 L760.56 149.93 L760.45 149.94 L760.33 149.96 L760.21 149.98 L760.08 149.99 L760.00 150.00 L760.00 150.00 L760.00 150.00 L760.00 150.00 L760.00 150.00 L760.00 150.00 L760.00 150.00 L760.00 150.00 L760.00 150.00 L760.00 150.00 L760.00 150.00 L760.00 150.00 L760.00 150.00 L760.00 150.00 L760.00 150.00 L760.00 150.00 L760.00 150.00 L760.00 150.00 L760.00 150.00 L760.00 150.00 L760.00 150.00 L760.00 150.00 L760.00 150.00 L760.00 150.00 L760.00 150.00 L760.00 150.00 L760.00 150.00 L760.00 150.00 L760.00 150.00 L760.00 150.00 L760.00 150.00 L760.00 150.00 L760.00 150.00 L760.00 150.00 L760.00 150.00 L760.00 150.00 L760.00 150.00 L760.00 150.00 L760.00 150.00 L760.00 150.00 L760.00 150.00 L760.00 150.00 L760.00 150.00 L760.00 150.00 L760.00 150.00 L760.00 150.00 L760.00 150.00 L760.00 150.00 L760.00 150.00 L760.00 150.00 L760.00 150.00 L760.00 150.00 L760.00 150.00 L760.00 150.00 L760.00 150.00 L760.00 150.00 L760.00 150.00 L760.00 150.00 L760.00 150.00 L760.00 150.00 L760.00 150.00 L760.00 150.00 L760.00 150.00 L760.00 150.00 L760.00 150.00 L760.00 150.00 L760.00 150.00 L760.00 150.00 L760.00 150.00 L760.00 150.00 L760.00 150.00 L760.00 150.00 L760.00 150.00 L760.00 150.00 L760.00 150.00 L760.00 150.00 L760.00 150.00 L760.00 150.00 L760.00 150.00 L760.00 150.00 L760.00 150.00 L760.00 150.00 L760.00 150.00 L760.00 150.00 L760.00 150.00 L760.00 150.00 L760.00 150.00 L760.00 150.00 L760.00 150.00 L760.00 150.00 L760.00 150.00 L760.00 150.00 L760.00 150.00 L760.00 150.00 L760.00 150.00 L760.00 150.00 L760.00 150.00 L760.00 150.00 L760.00 150.00 L760.00 150.00 L760.00 150.00 L760.00 150.00 L760.00 150.00 L760.00 150.00 L760.00 150.00 L760.00 150.00 L760.00 150.00 L760.00 150.00 L760.00 150.00 L760.00 150.00 L760.00 150.00 L760.00 150.00 L760.00 150.00 L760.00 150.00 L760.00 150.00 L760.00 150.00 L760.00 150.00 L760.00 150.00 L760.00 150.00 L760.00 150.00 L760.00 150.00 L760.00 150.00 L760.00 150.00 L760.00 150.00 L760.00 150.00 L760.00 150.00 L760.00 150.00 L760.00 150.00 L760.00 150.00 L760.00 150.00 L760.00 150.00 L760.00 150.00 L760.00 150.00 L760.00 150.00 L760.00 150.00 L760.00 150.00 L760.00 150.00 L760.00 150.00 L760.00 150.00 L760.00 150.00 L760.00 150.00 L760.00 150.00 L760.00 150.00 L760.00 150.00 L760.00 150.00 L760.00 150.00 L760.00 150.00 L760.00 150.00 L760.17 150.43 L760.33 150.88 L760.48 151.32 L760.62 151.74 L760.74 152.16 L760.86 152.57 L760.97 152.97 L761.06 153.36 L761.15 153.75 L761.22 154.12 L761.28 154.48 L761.34 154.83 L761.39 155.17 L761.42 155.50 L761.45 155.82 L761.47 156.14 L761.49 156.44 L761.49 156.73 L761.49 157.00 L761.48 157.27 L761.46 157.53 L761.44 157.78 L761.41 158.01 L761.38 158.24 L761.34 158.45 L761.29 158.65 L761.24 158.84 L761.19 159.02 L761.13 159.19 L761.06 159.35 L761.00 159.49 L760.93 159.63 L760.85 159.75 L760.78 159.86 L760.70 159.96 L760.61 160.05 L760.53 160.12 L760.44 160.19 L760.36 160.24 L760.27 160.28 L760.18 160.31 L760.09 160.33 L760.00 160.33 L759.91 160.33 L759.82 160.31 L759.73 160.28 L759.64 160.24 L759.56 160.19 L759.47 160.12 L759.39 160.05 L759.30 159.96 L759.22 159.86 L759.15 159.75 L759.07 159.63 L759.00 159.49 L758.94 159.35 L758.87 159.19 L758.81 159.02 L758.76 158.84 L758.71 158.65 L758.66 158.45 L758.62 158.24 L758.59 158.01 L758.56 157.78 L758.54 157.53 L758.52 157.27 L758.51 157.00 L758.51 156.73 L758.51 156.44 L758.53 156.14 L758.55 155.82 L758.58 155.50 L758.61 155.17 L758.66 154.83 L758.72 154.48 L758.78 154.12 L758.85 153.75 L758.94 153.36 L759.03 152.97 L759.14 152.57 L759.26 152.16 L759.38 151.74 L759.52 151.32 L759.67 150.88 L759.83 150.43 L760.00 150.00 L760.00 150.00 L760.00 150.00 L760.00 150.00 L760.00 150.00 L760.00 150.00 L760.00 150.00 L760.00 150.00 L760.00 150.00 L760.00 150.00 L760.00 150.00 L760.00 150.00 L760.00 150.00 L760.00 150.00 L760.00 150.00 L760.00 150.00 L760.00 150.00 L760.00 150.00 L760.00 150.00 L760.00 150.00 L760.00 150.00 L760.00 150.00 L760.00 150.00 L760.00 150.00 L760.00 150.00 L760.00 150.00 L760.00 150.00 L760.00 150.00 L760.00 150.00 L760.00 150.00 L760.00 150.00 L760.00 150.00 L760.00 150.00 L760.00 150.00 L760.00 150.00 L760.00 150.00 L760.00 150.00 L760.00 150.00 L760.00 150.00 L760.00 150.00 L760.00 150.00 L760.00 150.00 L760.00 150.00 L760.00 150.00 L760.00 150.00 L760.00 150.00 L760.00 150.00 L760.00 150.00 L760.00 150.00 L760.00 150.00 L760.00 150.00 L760.00 150.00 L760.00 150.00 L760.00 150.00 L760.00 150.00 L760.00 150.00 L760.00 150.00 L760.00 150.00 L760.00 150.00 L760.00 150.00 L760.00 150.00 L760.00 150.00 L760.00 150.00 L760.00 150.00 L760.00 150.00 L760.00 150.00 L760.00 150.00 L760.00 150.00 L760.00 150.00 L760.00 150.00 L760.00 150.00 L760.00 150.00 L760.00 150.00 L760.00 150.00 L760.00 150.00 L760.00 150.00 L760.00 150.00 L760.00 150.00 L760.00 150.00 L760.00 150.00 L760.00 150.00 L760.00 150.00 L760.00 150.00 L760.00 150.00 L760.00 150.00 L760.00 150.00 L760.00 150.00 L760.00 150.00 L760.00 150.00 L760.00 150.00 L760.00 150.00 L760.00 150.00 L760.00 150.00 L760.00 150.00 L760.00 150.00 L760.00 150.00 L760.00 150.00 L760.00 150.00 L760.00 150.00 L760.00 150.00 L760.00 150.00 L760.00 150.00 L760.00 150.00 L760.00 150.00 L760.00 150.00 L760.00 150.00 L760.00 150.00 L760.00 150.00 L760.00 150.00 L760.00 150.00 L760.00 150.00 L760.00 150.00 L760.00 150.00 L760.00 150.00 L760.00 150.00 L760.00 150.00 L760.00 150.00 L760.00 150.00 L760.00 150.00 L760.00 150.00 L760.00 150.00 L760.00 150.00 L760.00 150.00 L760.00 150.00 L760.00 150.00 L760.00 150.00 L760.00 150.00 L760.00 150.00 L760.00 150.00 L760.00 150.00 L760.00 150.00 L760.00 150.00 L760.00 150.00 L760.00 150.00 L760.00 150.00 L760.00 150.00 L760.00 150.00 L760.00 150.00 L760.00 150.00 L760.00 150.00 L760.00 150.00 L760.00 150.00 L760.00 150.00 L760.00 150.00 L760.00 150.00 L760.00 150.00 L760.00 150.00 L760.00 150.00 L759.92 149.99 L759.79 149.98 L759.67 149.96 L759.55 149.94 L759.44 149.93 L759.34 149.91 L759.25 149.89 L759.18 149.87 L759.12 149.85 L759.08 149.84 L759.06 149.83 L759.06 149.82 L759.09 149.81 L759.14 149.82 L759.21 149.83 L759.32 149.84 L759.47 149.87 L759.65 149.91 L759.87 149.97 L760.00 150.00 L760.00 150.00 L760.00 150.00 L760.00 150.00 L760.00 150.00 L760.00 150.00 L760.00 150.00 L760.00 150.00 L760.00 150.00 L760.00 150.00 L760.00 150.00 L760.00 150.00 L760.00 150.00 L760.00 150.00 L760.00 150.00 L760.00 150.00 L760.00 150.00 L760.00 150.00 L760.00 150.00 L760.00 150.00 L760.00 150.00 L760.00 150.00 L760.00 150.00 L760.00 150.00 L760.00 150.00 L760.00 150.00 L760.00 150.00 L760.00 150.00 L760.00 150.00 L760.00 150.00 L758.90 149.36 L757.56 148.56 L756.39 147.83 L755.37 147.17 L754.49 146.56 L753.74 146.01 L753.11 145.52 L752.59 145.09 L752.18 144.73 L751.89 144.43 L751.71 144.19 L751.64 144.03 L751.68 143.95 L751.84 143.96 L752.13 144.07 L752.55 144.28 L753.12 144.62 L753.84 145.10 L754.76 145.76 L755.89 146.61 L757.28 147.72 L759.01 149.15 L760.00 150.00 L760.00 150.00 L760.00 150.00 L760.00 150.00 L760.00 150.00 L760.00 150.00 L760.00 150.00 L760.00 150.00 L760.00 150.00 L760.00 150.00 L757.62 147.54 L755.59 145.35 L753.96 143.53 L752.65 141.98 L751.60 140.67 L750.78 139.58 L750.15 138.67 L749.71 137.95 L749.43 137.41 L749.32 137.04 L749.36 136.86 L749.56 136.87 L749.92 137.10 L750.46 137.56 L751.18 138.30 L752.13 139.36 L753.33 140.82 L754.87 142.81 L756.87 145.53 L759.56 149.37 L760.00 150.00 L760.00 150.00 L760.00 150.00 L760.00 150.00 L760.00 150.00 L757.88 146.54 L755.34 142.24 L753.48 138.93 L752.09 136.29 L751.03 134.15 L750.25 132.41 L749.69 131.02 L749.33 129.92 L749.13 129.12 L749.10 128.60 L749.21 128.36 L749.47 128.42 L749.89 128.80 L750.46 129.55 L751.22 130.73 L752.18 132.44 L753.42 134.86 L755.04 138.30 L757.28 143.42 L760.00 150.00 L760.00 150.00 L760.00 150.00 L759.05 147.45 L756.08 139.23 L754.22 133.67 L752.95 129.52 L752.06 126.26 L751.44 123.66 L751.03 121.57 L750.80 119.90 L750.70 118.62 L750.74 117.69 L750.88 117.11 L751.13 116.89 L751.48 117.04 L751.92 117.61 L752.48 118.67 L753.16 120.35 L753.98 122.86 L755.02 126.59 L756.43 132.44 L758.68 143.21 L760.00 150.00 L758.80 143.17 L756.60 129.70 L755.52 121.69 L754.90 115.90 L754.57 111.35 L754.42 107.62 L754.41 104.48 L754.51 101.78 L754.69 99.44 L754.94 97.41 L755.24 95.63 L755.60 94.08 L756.00 92.74 L756.43 91.59 L756.89 90.61 L757.37 89.80 L757.87 89.14 L758.39 88.64 L758.92 88.28 L759.46 88.07 L760.00 88.00 Z" stroke="#A2CC3A" fill="rgba(162,204,58,0.08)" stroke-width="2.3" stroke-linecap="round" stroke-linejoin="round" opacity="1"/><text x="760" y="246" font-family="'IBM Plex Sans','Helvetica Neue',Arial,sans-serif" font-size="13" fill="#E5E5E5" text-anchor="middle" font-weight="600" letter-spacing="0" dominant-baseline="middle">Dish</text><text x="760" y="264" font-family="'DM Mono','IBM Plex Mono',ui-monospace,monospace" font-size="12" fill="#A2CC3A" text-anchor="middle" font-weight="600" letter-spacing="0" dominant-baseline="middle">~3–25°</text><line x1="70" y1="292" x2="810" y2="292" stroke="#9C9C9C" stroke-width="1.4"/><text x="70" y="280" font-family="'IBM Plex Sans','Helvetica Neue',Arial,sans-serif" font-size="11" fill="#9C9C9C" text-anchor="start" font-weight="400" letter-spacing="0" dominant-baseline="middle">least directional</text><text x="810" y="280" font-family="'IBM Plex Sans','Helvetica Neue',Arial,sans-serif" font-size="11" fill="#9C9C9C" text-anchor="end" font-weight="400" letter-spacing="0" dominant-baseline="middle">most directional</text>

<path d="M810.00 292.00 L802.80 295.60 L802.80 288.40 Z" fill="#9C9C9C"/>
</svg>
