<svg xmlns="http://www.w3.org/2000/svg" viewBox="0 0 400 220" fill="none" font-family="IBM Plex Sans, sans-serif">
  <!-- U.FL / MHF I vs MHF 4 scale comparison. Tiny board-level snap-on connectors.
       U.FL = I-PEX MHF I: 2.0 mm male OD, intermateable. MHF 4: 1.5 mm OD, smaller, does NOT mate.
       Drawn to TRUE relative scale (3.5 px per 0.1 mm) so the size gap is the message.
       Lime marks the male outer diameter (the dimension that differs / the identifying feature). -->

  <text x="200" y="22" fill="#E5E5E5" font-size="14" font-weight="600" text-anchor="middle">U.FL / MHF I  vs  MHF 4: drawn to scale</text>

  <!-- ground / board line both sit on -->
  <line x1="40" y1="150" x2="360" y2="150" stroke="#9C9C9C" stroke-width="1.5" stroke-linecap="round"/>
  <g stroke="#9C9C9C" stroke-width="1" stroke-linecap="round" opacity="0.7">
    <path d="M48 150 l5 6 M64 150 l5 6 M300 150 l5 6 M316 150 l5 6"/>
  </g>
  <text x="200" y="172" fill="#9C9C9C" font-size="11" font-weight="500" text-anchor="middle">board / PCB</text>

  <!-- ================= LEFT: U.FL / MHF I (2.0 mm OD = 70 px wide) ================= -->
  <!-- snap-on plug body: 70 wide x 56 tall, OD = lime -->
  <g stroke="#E5E5E5" stroke-width="1.75" stroke-linecap="round" stroke-linejoin="round">
    <!-- receptacle base on board -->
    <rect x="78" y="120" width="70" height="30" rx="3"/>
    <!-- snap-on plug cap above -->
    <rect x="82" y="92" width="62" height="30" rx="4"/>
    <!-- coax pigtail off the cap -->
    <path d="M144 100 L172 96"/>
  </g>
  <!-- outer-diameter callout (lime = identifying dimension) -->
  <g stroke="#A2CC3A" stroke-width="1.5" stroke-linecap="round">
    <line x1="78" y1="84" x2="148" y2="84"/>
    <path d="M82 81 L78 84 L82 87 M144 81 L148 84 L144 87"/>
  </g>
  <text x="113" y="76" fill="#A2CC3A" font-size="13" font-weight="600" text-anchor="middle">2.0 mm</text>
  <text x="113" y="190" fill="#E5E5E5" font-size="13" font-weight="500" text-anchor="middle">U.FL = MHF I</text>
  <text x="113" y="206" fill="#9C9C9C" font-size="11" font-weight="500" text-anchor="middle">intermateable (also AMC, UMCC)</text>

  <!-- ================= RIGHT: MHF 4 (1.5 mm OD = 52 px wide, true ratio 0.75) ================= -->
  <g stroke="#E5E5E5" stroke-width="1.75" stroke-linecap="round" stroke-linejoin="round">
    <rect x="252" y="128" width="52" height="22" rx="3"/>
    <rect x="255" y="107" width="46" height="22" rx="4"/>
    <path d="M301 113 L324 110"/>
  </g>
  <g stroke="#A2CC3A" stroke-width="1.5" stroke-linecap="round">
    <line x1="252" y1="99" x2="304" y2="99"/>
    <path d="M256 96 L252 99 L256 102 M300 96 L304 99 L300 102"/>
  </g>
  <text x="278" y="91" fill="#A2CC3A" font-size="13" font-weight="600" text-anchor="middle">1.5 mm</text>
  <text x="278" y="190" fill="#E5E5E5" font-size="13" font-weight="500" text-anchor="middle">MHF 4</text>
  <text x="278" y="206" fill="#9C9C9C" font-size="11" font-weight="500" text-anchor="middle">smaller, does NOT mate with U.FL</text>

  <!-- divider -->
  <line x1="205" y1="86" x2="205" y2="150" stroke="#9C9C9C" stroke-width="1" stroke-dasharray="3 4"/>
</svg>
